<svg xmlns="http://www.w3.org/2000/svg" xmlns:xlink="http://www.w3.org/1999/xlink" width="293.335" height="465.334" viewBox="0 0 293.335 465.334"><defs><style>.a{fill:#525252;}.b{fill:#262626;}.c{fill:url(#a);}.d,.e,.g{fill:none;stroke-miterlimit:10;}.d{stroke:#a8a8a8;}.e{stroke:#525252;}.f{fill:#4589ff;}.g{stroke:#8d8d8d;}.h{fill:#fff;}.i{opacity:0.4;fill:url(#b);}.j{fill:url(#c);}.k,.s{opacity:0.8;}.l{fill:url(#d);}.m{fill:url(#e);}.n{fill:url(#f);}.o{fill:url(#g);}.p{fill:url(#i);}.q{fill:url(#n);}.r{fill:url(#r);}.s{fill:url(#as);}</style><radialGradient id="a" cx="0.488" cy="1.019" r="0.951" gradientTransform="translate(0.211) scale(0.577 1)" gradientUnits="objectBoundingBox"><stop offset="0" stop-color="#8d8d8d"/><stop offset="1" stop-color="#6f6f6f"/></radialGradient><linearGradient id="b" y1="0.5" x2="1" y2="0.5" gradientUnits="objectBoundingBox"><stop offset="0" stop-color="#a6c8ff"/><stop offset="1" stop-color="#0f62fe"/></linearGradient><linearGradient id="c" x1="0.091" y1="0.498" x2="0.914" y2="0.505" gradientUnits="objectBoundingBox"><stop offset="0.476" stop-color="#0062ff"/><stop offset="0.506" stop-color="#1b73ff"/><stop offset="0.546" stop-color="#3985ff"/><stop offset="0.588" stop-color="#5093ff"/><stop offset="0.633" stop-color="#619eff"/><stop offset="0.683" stop-color="#6aa4ff"/><stop offset="0.748" stop-color="#6ea6ff"/></linearGradient><linearGradient id="d" y1="0.5" x2="1" y2="0.5" gradientUnits="objectBoundingBox"><stop offset="0" stop-color="#dedede"/><stop offset="1" stop-color="#fff"/></linearGradient><linearGradient id="e" y1="0.5" x2="1" y2="0.5" gradientUnits="objectBoundingBox"><stop offset="0" stop-color="#bdbdbd"/><stop offset="1" stop-color="#a6a6a6"/></linearGradient><linearGradient id="f" y1="0.5" x2="1" y2="0.5" gradientUnits="objectBoundingBox"><stop offset="0" stop-color="#f3f3f3"/><stop offset="1" stop-color="#bebebe"/></linearGradient><linearGradient id="g" x1="0.501" y1="0.925" x2="0.497" y2="-0.568" xlink:href="#d"/><linearGradient id="i" x1="-0.118" y1="0.502" x2="1.532" y2="0.497" xlink:href="#f"/><linearGradient id="n" x1="-0.118" y1="0.502" x2="1.532" y2="0.497" xlink:href="#f"/><linearGradient id="r" x1="0.501" y1="0.925" x2="0.497" y2="-0.568" xlink:href="#d"/><linearGradient id="as" x1="0.5" y1="0.989" x2="0.5" y2="0.021" gradientUnits="objectBoundingBox"><stop offset="0" stop-color="#2f81fe"/><stop offset="0.03" stop-color="#2c7ffe" stop-opacity="0.937"/><stop offset="0.141" stop-color="#2678fe" stop-opacity="0.718"/><stop offset="0.255" stop-color="#1f72fe" stop-opacity="0.525"/><stop offset="0.371" stop-color="#1a6dfe" stop-opacity="0.365"/><stop offset="0.489" stop-color="#1669fe" stop-opacity="0.231"/><stop offset="0.608" stop-color="#1366fe" stop-opacity="0.129"/><stop offset="0.731" stop-color="#1063fe" stop-opacity="0.059"/><stop offset="0.859" stop-color="#0f62fe" stop-opacity="0.016"/><stop offset="1" stop-color="#0f62fe" stop-opacity="0"/></linearGradient></defs><g transform="translate(-5551.756 -1930.662)"><g transform="translate(5552.006 2184.48)"><path class="a" d="M5698.548,2353.174l-146.542-84.606v-42.3l146.557,84.606Z" transform="translate(-5552.006 -2141.658)"/><path class="b" d="M5826.548,2268.568l-146.542,84.606.014-42.3,146.528-84.606Z" transform="translate(-5533.463 -2141.658)"/><path class="c" d="M5698.563,2321.576l-146.557-84.606,146.542-84.606,146.542,84.606Z" transform="translate(-5552.006 -2152.364)"/><line class="d" x2="146.557" y2="84.606" transform="translate(0 84.606)"/><ellipse class="b" cx="4.211" cy="2.454" rx="4.211" ry="2.454" transform="translate(142.368 155.804)"/><ellipse class="b" cx="4.211" cy="2.454" rx="4.211" ry="2.454" transform="translate(142.368 8.288)"/><ellipse class="b" cx="4.211" cy="2.454" rx="4.211" ry="2.454" transform="translate(14.013 81.623)"/><ellipse class="b" cx="4.211" cy="2.454" rx="4.211" ry="2.454" transform="translate(270.512 80.847)"/><path class="e" d="M5706.422,2322.571l-18.729,10.819v-31.423l18.729-10.826Z" transform="translate(-5532.349 -2132.26)"/><path class="f" d="M5557.03,2248.8l5.985,3.457v-10.041l-5.985-3.459Z" transform="translate(-5551.277 -2139.848)"/><path class="f" d="M5565.354,2253.608l5.984,3.457v-10.041l-5.984-3.459Z" transform="translate(-5550.072 -2139.152)"/><path class="f" d="M5573.678,2258.421l5.985,3.458v-10.041l-5.985-3.459Z" transform="translate(-5548.866 -2138.455)"/><line class="g" y2="31.43" transform="translate(121.248 160.258)"/><line class="g" y2="31.43" transform="translate(128.338 164.449)"/><line class="g" y2="31.43" transform="translate(135.428 168.591)"/><path class="e" d="M5802.687,2266.763l-18.959,10.955v-31.423l18.729-10.805Z" transform="translate(-5518.438 -2140.322)"/></g><path class="h" d="M5693.913,2297.749l-109.907-63.455,109.907-63.455,109.907,63.455Z" transform="translate(4.636 34.793)"/><path class="i" d="M5693.913,2297.749l-109.907-63.455,109.907-63.455,109.907,63.455Z" transform="translate(4.636 34.793)"/><path class="j" d="M5584.005,2234.294l18.318,10.576,91.589-52.879,91.589,52.879,18.318-10.576-109.907-63.455Z" transform="translate(4.636 34.793)"/><g class="k" transform="translate(5621.307 1963.388)"><path class="l" d="M5694.761,2202.572l-7.752,4.505,7.8,4.505,7.752-4.505Z" transform="translate(-5601.749 -1923.998)"/><path class="m" d="M5693.828,2211.012l-.026,9.194,7.752-4.505.026-9.194Z" transform="translate(-5600.765 -1923.428)"/><path class="n" d="M5687.012,2206.507l-.026,9.194,7.8,4.505.026-9.194Z" transform="translate(-5601.753 -1923.428)"/><path class="o" d="M5679.1,1959.247l-7.752,4.505,7.8,4.505,7.752-4.505Z" transform="translate(-5604.018 -1959.247)"/><path class="m" d="M5678.17,1967.688l-.026,9.194,7.753-4.505.026-9.194Z" transform="translate(-5603.033 -1958.677)"/><path class="p" d="M5671.354,1963.182l-.026,9.194,7.8,4.505.026-9.194Z" transform="translate(-5604.021 -1958.677)"/><path class="l" d="M5679.089,2219.965l-9.331,5.423,9.393,5.423,9.331-5.423Z" transform="translate(-5604.249 -1921.479)"/><path class="m" d="M5677.966,2230.125l-.031,11.067,9.332-5.423.031-11.067Z" transform="translate(-5603.064 -1920.793)"/><path class="n" d="M5669.762,2224.7l-.031,11.067,9.393,5.423.031-11.067Z" transform="translate(-5604.252 -1920.793)"/><path class="h" d="M5732.143,2163.124l-9.331,5.423,9.393,5.423,9.332-5.423Z" transform="translate(-5596.563 -1929.713)"/><path class="m" d="M5731.02,2173.284l-.031,11.067,9.332-5.423.032-11.067Z" transform="translate(-5595.378 -1929.027)"/><path class="q" d="M5722.815,2167.861l-.031,11.067,9.393,5.423.031-11.067Z" transform="translate(-5596.567 -1929.027)"/><path class="o" d="M5740.45,2064.688l-9.332,5.423,9.393,5.423,9.332-5.423Z" transform="translate(-5595.36 -1943.973)"/><path class="m" d="M5739.327,2074.848l-.031,11.067,9.332-5.423.032-11.067Z" transform="translate(-5594.175 -1943.286)"/><path class="q" d="M5731.122,2069.425l-.031,11.067,9.393,5.423.031-11.067Z" transform="translate(-5595.364 -1943.286)"/><path class="r" d="M5678.972,1992.279l-9.333,5.423,9.393,5.423,9.332-5.423Z" transform="translate(-5604.265 -1954.462)"/><path class="m" d="M5677.848,2002.439l-.031,11.067,9.332-5.423.031-11.067Z" transform="translate(-5603.081 -1953.776)"/><path class="q" d="M5669.644,1997.016l-.031,11.067,9.394,5.423.031-11.067Z" transform="translate(-5604.269 -1953.776)"/><path class="o" d="M5620.313,2090.968l-7.752,4.505,7.8,4.5,7.752-4.5Z" transform="translate(-5612.534 -1940.166)"/><path class="m" d="M5619.379,2099.408l-.026,9.194,7.752-4.505.026-9.194Z" transform="translate(-5611.55 -1939.595)"/><path class="q" d="M5612.563,2094.9l-.026,9.194,7.8,4.505.026-9.194Z" transform="translate(-5612.537 -1939.595)"/><path class="o" d="M5659.778,2129.179l-9.331,5.423,9.393,5.423,9.332-5.423Z" transform="translate(-5607.046 -1934.63)"/><path class="m" d="M5658.655,2139.339l-.031,11.067,9.332-5.423.031-11.067Z" transform="translate(-5605.861 -1933.944)"/><path class="q" d="M5650.451,2133.916l-.032,11.067,9.393,5.423.031-11.067Z" transform="translate(-5607.05 -1933.944)"/><path class="o" d="M5642.366,2031.692l-9.332,5.423,9.393,5.423,9.332-5.423Z" transform="translate(-5609.568 -1948.753)"/><path class="m" d="M5641.243,2041.852l-.032,11.067,9.332-5.423.031-11.067Z" transform="translate(-5608.384 -1948.066)"/><path class="q" d="M5633.038,2036.429l-.031,11.067,9.393,5.423.032-11.067Z" transform="translate(-5609.572 -1948.066)"/><path class="o" d="M5702.663,2154.431l-18.907,10.988,19.03,10.987,18.907-10.988Z" transform="translate(-5602.221 -1930.972)"/><path class="m" d="M5700.387,2175.016l-.064,22.423,18.907-10.987.063-22.423Z" transform="translate(-5599.82 -1929.582)"/><path class="q" d="M5683.764,2164.029l-.063,22.423,19.03,10.987.064-22.423Z" transform="translate(-5602.229 -1929.582)"/><path class="o" d="M5725.194,2115.137l-17.958,10.437,18.076,10.437,17.959-10.437Z" transform="translate(-5598.819 -1936.664)"/><path class="m" d="M5723.032,2134.689l-.06,21.3,17.959-10.437.06-21.3Z" transform="translate(-5596.54 -1935.344)"/><path class="q" d="M5707.244,2124.253l-.06,21.3,18.076,10.436.06-21.3Z" transform="translate(-5598.827 -1935.344)"/><path class="o" d="M5708.847,2028.029l-18.687,10.86,18.81,10.86,18.688-10.86Z" transform="translate(-5601.293 -1949.283)"/><path class="m" d="M5706.6,2048.374l-.063,22.163,18.688-10.86.063-22.162Z" transform="translate(-5598.921 -1947.909)"/><path class="q" d="M5690.167,2037.515l-.063,22.163,18.81,10.86.063-22.163Z" transform="translate(-5601.301 -1947.909)"/><path class="o" d="M5680.929,2063.49l-25.254,14.676,25.419,14.676,25.254-14.676Z" transform="translate(-5606.289 -1944.146)"/><path class="m" d="M5677.888,2090.984l-.085,29.95,25.254-14.676.085-29.95Z" transform="translate(-5603.083 -1942.289)"/><path class="q" d="M5655.686,2076.309l-.085,29.95,25.419,14.676.085-29.95Z" transform="translate(-5606.299 -1942.289)"/><path class="o" d="M5635.313,2167.74l-18.687,10.86,18.81,10.86,18.688-10.86Z" transform="translate(-5611.945 -1929.044)"/><path class="m" d="M5633.063,2188.086l-.063,22.163,18.688-10.86.063-22.163Z" transform="translate(-5609.573 -1927.67)"/><path class="q" d="M5616.634,2177.226l-.063,22.163,18.81,10.86.063-22.162Z" transform="translate(-5611.953 -1927.67)"/></g><path class="s" d="M5584.005,2269.087l109.907,63.455,109.907-63.455V1930.662H5584.005Z" transform="translate(4.636 0)"/></g></svg>