<svg xmlns="http://www.w3.org/2000/svg" xmlns:xlink="http://www.w3.org/1999/xlink" width="583.422" height="485.13" viewBox="0 0 583.422 485.13"><defs><style>.a{fill:rgba(255,255,255,0.24);}.b{fill:#60a4ff;}.c{fill:#2589ff;}.d{fill:#0092ee;}.e{fill:url(#a);}.f{fill:url(#b);}</style><linearGradient id="a" y1="0.5" x2="1" y2="0.5" gradientUnits="objectBoundingBox"><stop offset="0" stop-color="#8cc0ff"/><stop offset="0.542" stop-color="#418bff"/><stop offset="1" stop-color="#0f61fd"/></linearGradient><linearGradient id="b" y1="0.5" x2="1" y2="0.5" gradientUnits="objectBoundingBox"><stop offset="0" stop-color="#8cc0ff"/><stop offset="0.542" stop-color="#418bff"/><stop offset="1" stop-color="#005cff"/></linearGradient></defs><g transform="translate(-933.431 -314.588)"><g transform="translate(1320.275 329.529)"><path class="a" d="M5552.009,4138.419l31.7-18.193,116.5,67.347-31.7,18.193Z" transform="translate(-5551.624 -3987.138)"/><g transform="translate(0)"><path class="b" d="M5675.369,3996.039a37.777,37.777,0,0,0-10.244-4.167c-5.865-20.866-20.555-42.791-37.834-52.768-21.174-12.224-38.618-1.657-40.643,20.958a43.256,43.256,0,0,0-11.667-10.313c-13.045-7.532-23.554.075-23.554,14.358,0,18.4,10.36,30.347,23.406,38.072l100.354,57.939c15.608,8.819,28.295,2.638,28.346-15.3S5690.977,4005.051,5675.369,3996.039Z" transform="translate(-5551.427 -3924.096)"/><path class="c" d="M5581.376,3953.109c.057.041.116.08.172.122.45.331.9.676,1.337,1.03.132.107.263.216.395.324q.48.4.951.809c.163.143.325.284.486.429.279.251.554.51.827.77.195.186.391.368.585.558.212.209.422.426.633.641.288.294.575.588.857.89.164.177.326.357.488.537q.735.81,1.442,1.658c.164.2.333.388.494.588l16.917-9.832-.25-.306c-.079-.1-.165-.185-.245-.281q-.707-.848-1.44-1.658c-.091-.1-.175-.206-.266-.305-.072-.08-.15-.153-.223-.232-.283-.3-.569-.6-.857-.889-.148-.151-.293-.312-.443-.46-.061-.062-.128-.121-.191-.182-.193-.189-.39-.373-.584-.558s-.361-.352-.546-.521c-.093-.084-.188-.165-.282-.249-.161-.145-.322-.286-.485-.428-.145-.127-.289-.26-.434-.384-.171-.146-.346-.284-.518-.425-.131-.108-.261-.218-.394-.324-.07-.056-.139-.116-.209-.172q-.529-.417-1.065-.813c-.02-.015-.042-.029-.063-.045-.056-.042-.114-.08-.169-.122-.263-.19-.527-.38-.792-.563-.149-.1-.3-.2-.449-.3-.1-.068-.2-.136-.308-.2-.082-.053-.162-.11-.244-.162q-.488-.31-.981-.6l-.227-.132c-.25-.145-.5-.285-.75-.419-.094-.051-.186-.1-.279-.145-.129-.068-.258-.134-.386-.2-.1-.051-.2-.106-.3-.156-.155-.077-.308-.145-.462-.218-.115-.055-.232-.111-.347-.163-.048-.022-.1-.047-.144-.068-.295-.132-.587-.255-.88-.373l-.056-.023-.005,0q-.477-.19-.947-.356c-.039-.014-.076-.024-.115-.038-.11-.038-.22-.072-.33-.109-.165-.054-.331-.112-.495-.161-.077-.023-.151-.041-.227-.062-.139-.04-.275-.078-.412-.114-.11-.029-.22-.063-.328-.09s-.213-.046-.32-.071c-.139-.032-.277-.063-.414-.092-.075-.016-.152-.035-.226-.051-.127-.024-.25-.039-.375-.061-.158-.028-.317-.056-.474-.078-.057-.009-.118-.021-.175-.028-.128-.019-.254-.025-.383-.04-.167-.019-.335-.038-.5-.051-.05,0-.1-.012-.152-.016-.111-.008-.219-.005-.332-.011-.2-.009-.4-.018-.6-.02-.058,0-.116-.005-.172,0-.085,0-.167.01-.251.012-.247.005-.492.017-.733.035-.074.005-.15,0-.225.01-.054.005-.1.018-.158.023-.372.039-.768.1-1.126.165-.029.006-20.752,11.985-20.752,11.985.283-.165,1.1-.616,1.4-.756.1-.045,12.647.123,12.991.278.116.052.231.109.347.164q.381.179.764.374l.386.2c.341.18.684.365,1.029.564.488.282.971.583,1.452.894l.307.2C5580.553,3952.526,5580.966,3952.811,5581.376,3953.109Z" transform="translate(-5554.824 -3925.498)"/><path class="d" d="M5654.315,3935.658c.284.186.569.371.852.563.243.165.484.338.727.507.3.21.6.421.9.637.226.165.45.335.674.5.337.253.674.508,1.009.771.215.169.432.342.648.515q.565.455,1.126.927c.2.166.4.332.593.5.542.467,1.082.942,1.616,1.431.057.052.115.1.172.153.655.6,1.3,1.225,1.944,1.857l.437.436q1.134,1.137,2.24,2.33c.166.18.329.363.495.545.339.375.677.751,1.013,1.133.19.218.381.438.57.661.322.375.644.755.961,1.138.179.217.359.433.538.651q.608.748,1.2,1.512c.107.137.217.271.322.409q.747.966,1.474,1.958c.124.171.246.344.369.516q.542.749,1.072,1.51c.16.229.317.459.475.69q.487.714.963,1.438c.146.222.293.443.438.667q.6.922,1.175,1.858c.05.081.1.161.152.243q.649,1.058,1.273,2.133c.122.21.24.421.36.63q.445.776.876,1.559c.137.248.272.5.406.747q.42.778.826,1.562c.113.219.229.438.341.658q.575,1.129,1.124,2.269c.056.117.109.234.164.351q.462.975.9,1.956c.135.3.269.6.4.907.139.319.277.637.414.956s.275.655.413.984.264.642.394.964c.091.228.179.457.269.685.383.976.753,1.952,1.1,2.93l.055.16c.29.819.563,1.638.827,2.457q.111.344.22.687.315,1,.6,2c.051.177.106.354.155.529l16.918-9.831c-.02-.069-.039-.138-.059-.207-.03-.108-.066-.216-.1-.323q-.288-1-.6-2c-.036-.115-.066-.229-.1-.342s-.078-.23-.116-.345c-.263-.819-.536-1.637-.826-2.456-.017-.044-.029-.088-.045-.132l-.011-.03c-.347-.977-.718-1.954-1.1-2.929-.042-.108-.079-.216-.122-.324s-.1-.242-.148-.362q-.193-.482-.394-.962c-.135-.329-.271-.657-.412-.985s-.275-.637-.414-.956c-.09-.2-.174-.406-.265-.608-.044-.1-.093-.2-.138-.3q-.44-.981-.9-1.955c-.056-.117-.108-.234-.164-.351q-.547-1.139-1.124-2.269c-.032-.064-.062-.129-.095-.193-.08-.156-.165-.309-.247-.464q-.406-.785-.826-1.562c-.134-.25-.269-.5-.407-.747q-.43-.783-.875-1.558c-.12-.211-.238-.422-.359-.631-.417-.716-.839-1.428-1.273-2.134-.05-.081-.1-.161-.152-.243q-.579-.937-1.175-1.858c-.145-.223-.292-.443-.438-.666q-.475-.724-.963-1.437-.236-.346-.475-.691-.53-.761-1.072-1.51c-.124-.171-.246-.345-.371-.515q-.726-.99-1.473-1.958c-.107-.138-.215-.272-.323-.409q-.6-.763-1.2-1.51c-.069-.085-.135-.173-.2-.257-.11-.134-.225-.264-.335-.4q-.476-.573-.958-1.135-.286-.333-.574-.663c-.334-.382-.673-.759-1.012-1.133-.128-.14-.251-.286-.379-.425-.038-.041-.077-.078-.115-.12q-1.1-1.195-2.241-2.33c-.07-.071-.138-.147-.208-.217s-.151-.142-.226-.215c-.643-.633-1.289-1.256-1.944-1.858l-.024-.024c-.05-.044-.1-.086-.148-.131q-.8-.731-1.617-1.43c-.073-.062-.146-.131-.219-.194-.124-.1-.25-.2-.375-.307q-.558-.471-1.125-.925c-.118-.1-.234-.2-.353-.292-.1-.077-.2-.148-.295-.225-.335-.263-.673-.519-1.01-.773-.15-.113-.3-.233-.45-.344-.073-.054-.148-.1-.221-.158-.3-.217-.6-.428-.9-.639-.179-.126-.357-.258-.537-.382-.062-.043-.126-.082-.188-.125-.284-.193-.569-.378-.855-.565-.2-.128-.392-.263-.587-.389-.059-.036-.117-.07-.175-.107-.261-.165-.523-.322-.786-.481-.21-.129-.42-.263-.632-.388-.124-.073-.247-.144-.37-.216q-.587-.34-1.171-.655c-.182-.1-.361-.186-.542-.281s-.377-.2-.565-.292c-.134-.068-.27-.143-.4-.208-.356-.177-.709-.337-1.063-.5-.114-.053-.23-.111-.345-.163l-.1-.046c-.5-.225-1-.435-1.493-.633-.059-.024-.118-.043-.177-.066-.163-.065-.326-.122-.488-.183-.284-.108-.568-.221-.851-.321-.147-.051-.292-.093-.44-.144-.2-.068-.4-.133-.6-.2-.16-.05-.32-.108-.479-.156-.238-.072-.472-.129-.708-.195-.2-.057-.407-.116-.609-.168-.084-.021-.169-.048-.253-.07-.349-.087-.694-.157-1.04-.23-.151-.032-.306-.071-.456-.1-.03-.006-.06-.015-.09-.02-.491-.1-.979-.172-1.463-.241-.072-.01-.147-.026-.22-.036l-.012,0q-.874-.116-1.73-.176h-.021q-.924-.063-1.826-.06c-.016,0-.031,0-.045,0-.49,0-.973.024-1.451.055-.105.007-.21.014-.314.022s-.213.012-.318.022q-.606.056-1.2.142l-.022,0q-.575.084-1.138.2c-.082.016-.159.04-.239.057-.229.048-.453.1-.676.16-.287.071-.57.143-.851.224-.225.065-.445.136-.665.208-.16.052-.325.1-.482.152-.09.031-.173.074-.264.106-.383.143-.76.3-1.134.462-.173.076-.349.146-.519.226-.536.252-1.062.521-1.572.818l-16.917,9.832c.51-.3,1.037-.565,1.572-.818.17-.08.346-.15.519-.226.374-.164.75-.319,1.134-.462q.37-.136.746-.259c.22-.071.44-.143.665-.208.28-.082.564-.154.849-.224.226-.056.449-.112.678-.161.453-.1.909-.184,1.373-.253l.027,0c.5-.072,1-.125,1.515-.165l.315-.021c.493-.033.991-.054,1.5-.055.6,0,1.21.018,1.827.06q.872.06,1.763.18c.072.009.146.025.219.035.514.074,1.03.158,1.553.261.151.03.3.069.457.1.429.091.858.188,1.292.3.2.052.406.111.609.167.394.11.789.225,1.186.352q.3.1.6.2c.427.144.858.3,1.292.464.162.062.323.119.486.183.584.231,1.173.478,1.766.745.114.052.23.11.345.163q.731.336,1.467.71c.186.094.374.192.562.29.569.3,1.14.605,1.714.938.337.194.671.4,1.007.605.261.158.521.314.78.478S5654.059,3935.491,5654.315,3935.658Z" transform="translate(-5575.9 -3919.067)"/><g transform="translate(47.929)"><path class="d" d="M5778.931,4052.985l0-.02c-.009-.051-.018-.1-.027-.153-.068-.423-.14-.846-.219-1.27-.013-.062-.028-.126-.04-.189-.039-.2-.083-.4-.124-.606-.05-.245-.1-.491-.151-.737-.022-.1-.049-.211-.073-.316q-.078-.339-.161-.677c-.045-.188-.085-.377-.134-.566-.034-.137-.074-.273-.108-.41q-.1-.4-.214-.8c-.042-.157-.081-.312-.125-.47s-.088-.288-.131-.432q-.13-.45-.27-.9c-.046-.149-.088-.3-.135-.449-.042-.134-.091-.268-.136-.4-.109-.337-.224-.673-.339-1.009-.054-.158-.1-.316-.16-.474-.036-.1-.077-.2-.113-.3-.178-.493-.364-.985-.555-1.476-.054-.138-.1-.277-.157-.416-.015-.038-.032-.076-.047-.114q-.45-1.124-.944-2.237c-.028-.063-.052-.127-.081-.191-.1-.223-.206-.442-.307-.664-.117-.253-.232-.506-.352-.758-.148-.312-.3-.622-.456-.933-.121-.245-.239-.488-.362-.731-.029-.056-.054-.111-.083-.167-.137-.269-.283-.535-.424-.8-.119-.225-.235-.45-.356-.673-.187-.345-.381-.687-.575-1.028-.111-.2-.22-.4-.335-.595-.239-.414-.486-.823-.733-1.232-.074-.121-.144-.244-.219-.366q-.486-.79-.993-1.566c-.095-.144-.193-.286-.288-.428-.247-.372-.495-.744-.749-1.111-.132-.191-.269-.378-.4-.568-.223-.313-.444-.627-.67-.936-.152-.207-.308-.41-.462-.614-.215-.286-.429-.572-.647-.853-.164-.211-.332-.418-.5-.627s-.322-.411-.486-.611c-.053-.065-.107-.126-.161-.191-.178-.217-.359-.428-.54-.642-.215-.253-.431-.506-.648-.756-.186-.212-.372-.419-.56-.627-.147-.162-.29-.329-.437-.488-.054-.059-.111-.114-.166-.172-.526-.569-1.06-1.127-1.6-1.668-.013-.012-.025-.026-.038-.039-.083-.082-.169-.159-.251-.24q-.582-.571-1.173-1.122c-.054-.049-.1-.1-.158-.151-.138-.126-.28-.245-.418-.369-.273-.245-.546-.49-.823-.728-.077-.066-.151-.136-.229-.2-.149-.127-.3-.247-.452-.372-.216-.179-.431-.359-.648-.533-.079-.063-.156-.13-.235-.193-.172-.137-.348-.265-.521-.4-.193-.149-.386-.3-.579-.444-.064-.048-.127-.1-.191-.146-.225-.166-.453-.323-.679-.483-.155-.11-.308-.223-.464-.331l-.106-.075q-.6-.413-1.209-.8l-.014-.007c-.039-.025-.078-.048-.117-.072-.354-.224-.711-.445-1.07-.656l-.279-.163q-.463-.267-.952-.531c-.043-.024-.091-.046-.135-.071-.318-.17-.644-.337-.973-.5-.12-.061-.233-.123-.354-.183l-.059-.028c-.491-.242-.992-.478-1.494-.7l-.065-.03c-.105-.048-.21-.088-.317-.134q-.559-.247-1.116-.474c-.06-.024-.121-.053-.181-.076-.134-.054-.264-.1-.4-.15-.274-.106-.544-.209-.812-.306-.083-.029-.167-.065-.247-.093-.138-.048-.266-.086-.4-.131-.2-.068-.4-.134-.594-.2-.079-.025-.162-.055-.24-.079-.171-.052-.334-.092-.5-.138-.125-.035-.251-.072-.373-.1-.043-.012-.09-.027-.133-.038-.275-.069-.544-.129-.8-.18l-.1-.02-15.5,10.446c.328.061,7.426,2.781,7.743,2.951.371.2.738.4,1.086.6.453.261.9.535,1.35.818l.117.072c.447.284.891.581,1.332.885.154.106.307.219.46.327.292.207.583.416.873.631.193.146.386.295.579.443.253.2.506.392.758.594.216.173.43.352.646.53s.458.382.685.578c.274.237.548.48.819.724.192.174.387.346.578.524.4.365.785.74,1.172,1.119.1.095.194.186.29.281.542.541,1.075,1.1,1.6,1.667q.3.327.6.662c.188.208.374.416.56.626.218.25.434.5.648.758.18.212.36.424.538.639.22.266.435.536.65.807.166.207.333.413.5.623.218.282.434.568.649.855.154.2.309.406.461.613.226.309.447.623.67.936.133.19.271.377.4.569.255.369.5.744.754,1.12.093.14.189.277.281.418q.507.777.994,1.568c.072.116.139.234.209.35.251.414.5.829.744,1.248.113.2.221.393.332.59.194.343.389.686.577,1.032.122.223.237.448.356.671.17.323.343.646.509.971.123.242.241.485.36.728.154.312.309.624.458.938.12.25.233.5.351.754.131.285.261.57.388.857q.493,1.113.944,2.237c.07.176.135.353.2.528q.288.736.555,1.476c.094.259.184.516.273.776q.177.5.341,1.008c.092.284.183.568.271.852s.183.6.27.9.174.6.257.9q.11.4.213.8c.084.326.165.651.244.977.054.226.108.451.159.677.08.352.153.7.225,1.053.042.2.084.4.124.607q.142.73.259,1.458c.009.051.018.1.026.153.086.537.159,1.072.225,1.605.019.154.035.308.051.461q.065.568.114,1.134c.017.184.031.368.045.551.026.358.047.715.065,1.071.008.173.018.347.023.52.019.507.031,1.014.03,1.516,0,.517-.016,1.023-.038,1.521-.006.139-.018.273-.026.411-.019.344-.041.685-.07,1.018-.018.193-.039.381-.059.57-.03.279-.062.557-.1.83-.027.2-.058.4-.09.6-.039.25-.079.5-.125.742-.041.222-.085.44-.132.659s-.1.439-.148.655c-.061.251-.125.5-.193.741-.053.191-.106.383-.163.572-.089.291-.185.573-.284.853-.052.15-.1.3-.158.45q-.27.711-.578,1.372-.21.446-.44.871c-.019.034-.036.07-.053.1-.173.315-.357.619-.545.916-.275.429-.567.832-.873,1.219-.074.093-.149.184-.224.274-.3.355-.6.7-.923,1.015-.026.025-.05.055-.077.08a13.267,13.267,0,0,1-1.082.934c-.091.071-.182.14-.275.208-.382.283.792.53.871,1.775l17.874-10.3C5783.131,4072.826,5779.007,4053.464,5778.931,4052.985Z" transform="translate(-5658.293 -3948.774)"/><path class="c" d="M5654.454,3935.611c.284.187.569.372.853.563.243.166.484.338.727.508.3.21.6.42.895.637.227.165.45.335.675.5.338.253.674.509,1.009.771.217.17.432.343.647.515q.567.456,1.127.926c.2.167.4.333.592.5q.814.7,1.617,1.431l.172.154c.655.6,1.3,1.224,1.943,1.856l.437.435q1.135,1.137,2.239,2.33c.166.18.331.363.5.544q.51.563,1.013,1.134c.191.218.381.438.571.66q.483.565.961,1.139.27.324.537.651.609.747,1.205,1.513c.107.137.217.27.322.409q.747.966,1.474,1.958c.124.171.246.344.37.515q.542.75,1.072,1.511.239.345.475.691.488.713.963,1.438c.146.222.294.443.438.666q.6.923,1.175,1.858c.051.082.1.162.152.243q.65,1.059,1.273,2.133c.122.209.239.42.359.63q.444.776.876,1.558c.138.249.272.5.407.747q.42.779.825,1.563l.343.658c.383.754.759,1.51,1.122,2.269.056.117.109.234.165.351q.461.975.9,1.955.205.453.4.908c.14.318.279.637.415.956s.275.656.411.984.265.643.394.964c.092.228.18.457.27.684.384.976.754,1.953,1.1,2.931.02.053.037.106.056.16q.434,1.228.827,2.457c.074.229.146.458.219.687q.315,1,.6,2c.051.176,1.521,1.151,1.57,1.328l15.5-10.446c-.018-.069-.123-.606-.154-.714q-.289-1-.6-2c-.035-.114-.066-.227-.1-.342s-.08-.23-.117-.345c-.264-.818-.537-1.636-.826-2.455-.016-.044-.029-.089-.045-.133l-.011-.03c-.349-.977-.719-1.953-1.1-2.929-.043-.108-.079-.216-.123-.324s-.1-.241-.146-.362q-.193-.481-.394-.963c-.137-.328-.272-.656-.412-.984s-.274-.638-.415-.956c-.088-.2-.172-.406-.264-.609-.044-.1-.093-.2-.138-.3q-.439-.98-.9-1.955c-.056-.117-.109-.234-.165-.351q-.546-1.139-1.124-2.268c-.032-.064-.062-.129-.095-.193-.081-.156-.166-.31-.246-.465q-.406-.784-.826-1.562-.2-.374-.407-.747-.429-.783-.875-1.559c-.12-.209-.239-.42-.36-.629q-.624-1.076-1.272-2.134c-.05-.081-.1-.162-.152-.243q-.579-.936-1.175-1.858c-.146-.223-.292-.444-.438-.666-.318-.483-.638-.961-.963-1.437-.158-.231-.315-.462-.475-.691q-.529-.762-1.073-1.511c-.123-.171-.244-.344-.369-.514q-.727-.991-1.474-1.958c-.106-.138-.215-.272-.322-.41q-.6-.762-1.2-1.51c-.069-.084-.136-.172-.205-.256-.111-.135-.225-.265-.336-.4q-.475-.573-.957-1.135c-.191-.222-.381-.443-.574-.663-.334-.381-.673-.758-1.012-1.132-.127-.141-.252-.286-.38-.425-.037-.041-.076-.079-.113-.119q-1.1-1.2-2.242-2.332c-.07-.069-.138-.146-.208-.216s-.151-.142-.226-.216c-.642-.632-1.288-1.255-1.944-1.857l-.024-.024c-.049-.045-.1-.086-.148-.131q-.8-.732-1.616-1.429c-.073-.063-.145-.131-.219-.194-.123-.105-.25-.2-.374-.309q-.56-.47-1.125-.924c-.119-.1-.234-.2-.354-.291-.1-.077-.2-.149-.3-.227-.335-.262-.672-.518-1.01-.772-.15-.113-.3-.233-.449-.345-.074-.054-.148-.1-.223-.157-.3-.218-.6-.428-.9-.639-.18-.126-.357-.259-.537-.383-.062-.042-.126-.082-.188-.124-.283-.193-.568-.378-.854-.565-.2-.128-.392-.263-.589-.388-.058-.037-.116-.07-.174-.106-.262-.165-.524-.323-.786-.481-.211-.128-.421-.263-.633-.388-.123-.072-.246-.144-.369-.214q-.587-.34-1.172-.655c-.182-.1-.361-.187-.541-.281s-.378-.2-.565-.292c-.134-.068-.27-.144-.4-.209-.354-.176-.708-.338-1.062-.5-.115-.053-.23-.112-.346-.163l-.1-.045q-.75-.336-1.492-.632c-.061-.024-.118-.043-.177-.067-.164-.064-.325-.122-.488-.184-.283-.106-.568-.221-.851-.319-.147-.052-.292-.095-.44-.144-.2-.067-.4-.133-.6-.2-.159-.051-.32-.108-.479-.156-.238-.072-.473-.13-.709-.2-.2-.056-.407-.116-.607-.167-.084-.022-.17-.049-.255-.071-.349-.086-.693-.157-1.038-.23-.152-.033-.307-.072-.457-.1l-.089-.019c-.493-.1-.979-.172-1.464-.241-.072-.01-.146-.027-.221-.036l-.011,0q-.875-.116-1.729-.177h-.021c-.616-.043-1.226-.062-1.825-.06h-.046c-.49,0-.973.024-1.451.055l-.313.022c-.105.008-.214.013-.319.022q-.6.056-1.2.142l-.021,0c-.385.057-.765.122-1.14.2-.081.016-.159.04-.239.057-.228.048-.451.1-.676.161-.286.07-.57.142-.852.224-.224.065-.443.136-.663.208-.16.052-.325.1-.482.151-.091.032-.174.075-.264.108-.384.142-.762.3-1.135.461-.172.076-.349.146-.519.226-.535.252-1.062.521-1.571.818l-16.919,9.833c.512-.3,1.037-.566,1.572-.819.17-.08.346-.15.519-.226.373-.164.751-.32,1.135-.461.246-.091.5-.177.745-.259.221-.072.441-.144.665-.209.28-.082.565-.153.849-.223.226-.056.449-.112.678-.161.453-.1.909-.185,1.374-.253l.026,0c.5-.073,1-.124,1.516-.165l.313-.022c.494-.032.991-.052,1.5-.054q.9,0,1.825.061.872.059,1.763.178c.072.011.146.026.219.037.514.073,1.03.158,1.553.261.151.03.306.069.457.1.429.091.858.188,1.293.3.2.052.406.112.609.168.394.109.787.225,1.186.352.2.063.4.128.6.2.428.144.858.3,1.291.463.163.062.324.119.486.183q.877.346,1.767.745c.115.052.23.109.346.162q.729.338,1.466.711c.188.094.376.192.563.291.569.3,1.14.6,1.716.937.336.2.671.4,1.006.605.261.159.521.315.781.479S5654.2,3935.444,5654.454,3935.611Z" transform="translate(-5623.875 -3919.051)"/><path class="c" d="M5778.931,4052.985l0-.02c-.009-.051-.018-.1-.027-.153-.068-.423-.14-.846-.219-1.27-.013-.062-.028-.126-.04-.189-.039-.2-.083-.4-.124-.606-.05-.245-.1-.491-.151-.737-.022-.1-.049-.211-.073-.316q-.078-.339-.161-.677c-.045-.188-.085-.377-.134-.566-.034-.137-.074-.273-.108-.41q-.1-.4-.214-.8c-.042-.157-.081-.312-.125-.47s-.088-.288-.131-.432q-.13-.45-.27-.9c-.046-.149-.088-.3-.135-.449-.042-.134-.091-.268-.136-.4-.109-.337-.224-.673-.339-1.009-.054-.158-.1-.316-.16-.474-.036-.1-.077-.2-.113-.3-.178-.493-.364-.985-.555-1.476-.054-.138-.1-.277-.157-.416-.015-.038-.032-.076-.047-.114q-.45-1.124-.944-2.237c-.028-.063-.052-.127-.081-.191-.1-.223-.206-.442-.307-.664-.117-.253-.232-.506-.352-.758-.148-.312-.3-.622-.456-.933-.121-.245-.239-.488-.362-.731-.029-.056-.054-.111-.083-.167-.137-.269-.283-.535-.424-.8-.119-.225-.235-.45-.356-.673-.187-.345-.381-.687-.575-1.028-.111-.2-.22-.4-.335-.595-.239-.414-.486-.823-.733-1.232-.074-.121-.144-.244-.219-.366q-.486-.79-.993-1.566c-.095-.144-.193-.286-.288-.428-.247-.372-.495-.744-.749-1.111-.132-.191-.269-.378-.4-.568-.223-.313-.444-.627-.67-.936-.152-.207-.308-.41-.462-.614-.215-.286-.429-.572-.647-.853-.164-.211-.332-.418-.5-.627s-.322-.411-.486-.611c-.053-.065-.107-.126-.161-.191-.178-.217-.359-.428-.54-.642-.215-.253-.431-.506-.648-.756-.186-.212-.372-.419-.56-.627-.147-.162-.29-.329-.437-.488-.054-.059-.111-.114-.166-.172-.526-.569-1.06-1.127-1.6-1.668-.013-.012-.025-.026-.038-.039-.083-.082-.169-.159-.251-.24q-.582-.571-1.173-1.122c-.054-.049-.1-.1-.158-.151-.138-.126-.28-.245-.418-.369-.273-.245-.546-.49-.823-.728-.077-.066-.151-.136-.229-.2-.149-.127-.3-.247-.452-.372-.216-.179-.431-.359-.648-.533-.079-.063-.156-.13-.235-.193-.172-.137-.348-.265-.521-.4-.193-.149-.386-.3-.579-.444-.064-.048-.127-.1-.191-.146-.225-.166-.453-.323-.679-.483-.155-.11-.308-.223-.464-.331l-.106-.075q-.6-.413-1.209-.8l-.014-.007c-.039-.025-.078-.048-.117-.072-.354-.224-.711-.445-1.07-.656l-.279-.163q-.463-.267-.952-.531c-.043-.024-.091-.046-.135-.071-.318-.17-.644-.337-.973-.5-.12-.061-.233-.123-.354-.183l-.059-.028c-.491-.242-.992-.478-1.494-.7l-.065-.03c-.105-.048-.21-.088-.317-.134q-.559-.247-1.116-.474c-.06-.024-.121-.053-.181-.076-.134-.054-.264-.1-.4-.15-.274-.106-.544-.209-.812-.306-.083-.029-.167-.065-.247-.093-.138-.048-.266-.086-.4-.131-.2-.068-.4-.134-.594-.2-.079-.025-.162-.055-.24-.079-.171-.052-.334-.092-.5-.138-.125-.035-.251-.072-.373-.1-.043-.012-.09-.027-.133-.038-.275-.069-.544-.129-.8-.18l-.1-.02-15.5,10.446c.328.061,7.426,2.781,7.743,2.951.371.2.738.4,1.086.6.453.261.9.535,1.35.818l.117.072c.447.284.891.581,1.332.885.154.106.307.219.46.327.292.207.583.416.873.631.193.146.386.295.579.443.253.2.506.392.758.594.216.173.43.352.646.53s.458.382.685.578c.274.237.548.48.819.724.192.174.387.346.578.524.4.365.785.74,1.172,1.119.1.095.194.186.29.281.542.541,1.075,1.1,1.6,1.667q.3.327.6.662c.188.208.374.416.56.626.218.25.434.5.648.758.18.212.36.424.538.639.22.266.435.536.65.807.166.207.333.413.5.623.218.282.434.568.649.855.154.2.309.406.461.613.226.309.447.623.67.936.133.19.271.377.4.569.255.369.5.744.754,1.12.093.14.189.277.281.418q.507.777.994,1.568c.072.116.139.234.209.35.251.414.5.829.744,1.248.113.2.221.393.332.59.194.343.389.686.577,1.032.122.223.237.448.356.671.17.323.343.646.509.971.123.242.241.485.36.728.154.312.309.624.458.938.12.25.233.5.351.754.131.285.261.57.388.857q.493,1.113.944,2.237c.07.176.135.353.2.528q.288.736.555,1.476c.094.259.184.516.273.776q.177.5.341,1.008c.092.284.183.568.271.852s.183.6.27.9.174.6.257.9q.11.4.213.8c.084.326.165.651.244.977.054.226.108.451.159.677.08.352.153.7.225,1.053.042.2.084.4.124.607q.142.73.259,1.458c.009.051.018.1.026.153.086.537.159,1.072.225,1.605.019.154.035.308.051.461q.065.568.114,1.134c.017.184.031.368.045.551.026.358.047.715.065,1.071.008.173.018.347.023.52.019.507.031,1.014.03,1.516,0,.517-.016,1.023-.038,1.521-.006.139-.018.273-.026.411-.019.344-.041.685-.07,1.018-.018.193-.039.381-.059.57-.03.279-.062.557-.1.83-.027.2-.058.4-.09.6-.039.25-.079.5-.125.742-.041.222-.085.44-.132.659s-.1.439-.148.655c-.061.251-.125.5-.193.741-.053.191-.106.383-.163.572-.089.291-.185.573-.284.853-.052.15-.1.3-.158.45q-.27.711-.578,1.372-.21.446-.44.871c-.019.034-.036.07-.053.1-.173.315-.357.619-.545.916-.275.429-.567.832-.873,1.219-.074.093-.149.184-.224.274-.3.355-.6.7-.923,1.015-.026.025-.05.055-.077.08a13.267,13.267,0,0,1-1.082.934c-.091.071-.182.14-.275.208-.382.283.792.53.871,1.775l17.874-10.3C5783.131,4072.826,5779.007,4053.464,5778.931,4052.985Z" transform="translate(-5658.293 -3948.774)"/></g><path class="c" d="M5593.958,3938.218c-.372.04-.768.1-1.126.166" transform="translate(-5565.441 -3925.538)"/><path class="e" d="M5677.011,3996.807a38.18,38.18,0,0,0-10.38-4.222c-5.942-21.143-20.826-43.358-38.334-53.467-21.455-12.387-39.578-2.227-41.63,20.689-3.488-4.309-7.311-7.039-11.374-9.9-10.3-7.261-23.866-2.821-23.866,14.626,0,17,9.893,30.248,23.111,38.075l101.038,58.334c15.815,8.936,29.973,4.126,29.973-14.7C5705.549,4028.069,5692.826,4005.938,5677.011,3996.807Z" transform="translate(-5551.427 -3924.04)"/></g></g><g transform="translate(1080.419 314.588)"><path class="a" d="M5552.009,4150.833l53.323-30.607,195.986,113.3L5748,4264.132Z" transform="translate(-5551.361 -3896.329)"/><g transform="translate(0 0)"><path class="b" d="M5759.937,4038.4c-5.349-3.088-12.436-6.112-17.235-7.011-9.867-35.1-34.578-71.987-63.648-88.772-35.62-20.565-64.966-2.788-68.375,35.259a72.766,72.766,0,0,0-19.626-17.351c-21.947-12.671-39.625.126-39.625,24.155,0,30.954,17.429,51.053,39.375,64.049l168.83,97.473c26.259,14.837,47.6,4.439,47.687-25.733S5786.2,4053.561,5759.937,4038.4Z" transform="translate(-5551.427 -3917.367)"/><path class="c" d="M5594.963,3963.351c.1.069.195.136.291.207.757.556,1.506,1.137,2.249,1.733.222.179.442.362.664.545q.808.666,1.6,1.361c.273.239.546.478.816.721.469.422.932.858,1.393,1.3.328.312.657.619.983.938.358.352.711.718,1.065,1.078.483.495.967.989,1.442,1.5.276.3.548.6.82.9q1.238,1.364,2.427,2.79c.275.332.56.653.832.989l28.46-16.541q-.208-.259-.419-.516c-.133-.163-.277-.312-.412-.473q-1.189-1.427-2.423-2.789c-.152-.167-.294-.347-.447-.513-.123-.135-.253-.258-.376-.392-.475-.509-.957-1-1.441-1.495-.249-.255-.493-.524-.746-.775-.1-.1-.214-.2-.321-.306-.325-.318-.654-.626-.981-.937-.307-.292-.609-.593-.919-.878-.156-.143-.316-.277-.473-.418-.271-.244-.543-.482-.815-.72-.245-.214-.485-.437-.731-.647-.288-.244-.582-.476-.872-.715-.22-.181-.439-.366-.663-.544-.118-.095-.234-.2-.352-.291q-.89-.7-1.792-1.369c-.034-.025-.07-.049-.106-.075-.095-.069-.191-.135-.286-.2-.442-.321-.886-.641-1.333-.948-.25-.171-.5-.333-.756-.5-.172-.113-.343-.229-.518-.341-.137-.089-.271-.184-.41-.271q-.822-.523-1.651-1.011l-.381-.221q-.634-.366-1.261-.706c-.158-.085-.313-.161-.471-.243-.217-.115-.432-.226-.649-.336-.168-.085-.338-.179-.507-.263-.26-.129-.517-.244-.776-.366-.194-.092-.39-.187-.584-.275-.081-.037-.162-.079-.242-.115-.5-.223-.989-.43-1.481-.627-.029-.013-.061-.027-.092-.039l-.01,0q-.8-.322-1.595-.6c-.063-.022-.126-.04-.191-.062-.187-.064-.371-.122-.557-.183-.277-.091-.556-.189-.832-.271-.128-.039-.254-.069-.382-.106-.232-.068-.462-.13-.693-.191-.185-.049-.37-.107-.553-.152s-.358-.078-.537-.119q-.351-.082-.7-.156c-.125-.026-.255-.059-.379-.084-.214-.042-.421-.067-.632-.1-.266-.046-.533-.094-.8-.131-.1-.014-.2-.036-.294-.048-.216-.03-.428-.042-.645-.066-.282-.031-.565-.064-.845-.086-.084-.007-.171-.02-.256-.026-.189-.014-.37-.01-.559-.019-.337-.016-.673-.031-1-.033-.1,0-.194-.01-.289-.009-.144,0-.281.017-.424.02-.415.009-.826.027-1.233.059-.124.009-.253.006-.378.018-.09.008-.175.029-.266.038-.625.066-1.291.161-1.895.278-.049.009-34.912,20.163-34.912,20.163.478-.278,1.851-1.037,2.351-1.272.165-.077,21.277.206,21.855.469.194.088.39.184.583.275q.64.3,1.285.628c.216.11.431.223.649.336.573.3,1.149.614,1.731.949.82.475,1.634.98,2.442,1.5.172.112.345.227.517.342C5593.577,3962.371,5594.273,3962.85,5594.963,3963.351Z" transform="translate(-5550.293 -3916.9)"/><path class="d" d="M5675.181,3946.958c.479.313.957.623,1.433.947.409.278.815.569,1.223.854.5.354,1.006.708,1.505,1.073.38.277.757.564,1.134.849.568.426,1.134.856,1.7,1.3.363.285.726.576,1.089.867q.951.765,1.9,1.558c.333.28.666.559,1,.843q1.369,1.177,2.719,2.406c.1.087.193.171.289.259,1.1,1.014,2.19,2.06,3.27,3.124q.368.364.735.732,1.909,1.912,3.768,3.919c.279.3.554.611.832.917.572.63,1.14,1.264,1.7,1.907q.483.552.961,1.111.814.948,1.616,1.915c.3.365.6.728.9,1.1q1.025,1.258,2.027,2.543c.181.231.365.457.542.688q1.257,1.626,2.479,3.294c.21.288.415.578.622.866q.913,1.261,1.8,2.542c.269.385.533.773.8,1.161q.821,1.2,1.622,2.419c.246.374.493.745.737,1.122q1,1.551,1.977,3.125c.084.137.172.271.257.41q1.091,1.78,2.141,3.588c.205.353.4.708.605,1.061q.749,1.305,1.474,2.622c.23.417.458.837.684,1.256q.707,1.31,1.39,2.628c.19.368.385.736.574,1.106q.969,1.9,1.889,3.817c.1.2.184.394.277.59q.78,1.639,1.521,3.29.342.762.676,1.526.352.8.7,1.609c.234.551.463,1.1.692,1.655s.445,1.081.663,1.622c.154.384.3.769.453,1.152.645,1.642,1.269,3.284,1.854,4.93.03.09.062.179.093.269.487,1.377.947,2.755,1.391,4.132q.187.579.37,1.157.53,1.686,1.014,3.369c.085.3.177.594.261.89L5763,4016.529c-.032-.116-.064-.231-.1-.348-.05-.181-.111-.363-.164-.544q-.483-1.681-1.014-3.368c-.06-.192-.112-.384-.173-.575s-.132-.387-.2-.581c-.444-1.376-.9-2.752-1.39-4.13-.027-.075-.049-.148-.076-.222l-.02-.05c-.584-1.644-1.208-3.286-1.852-4.927-.071-.182-.133-.364-.205-.545-.082-.2-.168-.406-.25-.609q-.325-.811-.663-1.619-.341-.83-.692-1.657c-.228-.536-.462-1.073-.7-1.608-.15-.341-.293-.683-.445-1.024-.074-.168-.157-.335-.232-.5q-.742-1.649-1.52-3.289c-.094-.2-.183-.394-.276-.589q-.918-1.917-1.891-3.818c-.054-.108-.105-.217-.159-.325-.135-.261-.279-.52-.415-.782q-.684-1.32-1.39-2.629-.338-.629-.684-1.256-.724-1.318-1.473-2.621c-.2-.354-.4-.709-.605-1.061q-1.052-1.807-2.141-3.589c-.084-.137-.172-.271-.257-.409q-.974-1.576-1.978-3.126c-.244-.375-.49-.747-.736-1.121q-.8-1.217-1.621-2.418-.4-.582-.8-1.162c-.593-.854-1.2-1.7-1.8-2.541-.208-.289-.413-.58-.623-.866q-1.221-1.666-2.478-3.3c-.18-.232-.362-.458-.542-.688q-1-1.283-2.026-2.541c-.117-.143-.227-.29-.344-.433-.186-.226-.378-.444-.565-.669q-.8-.963-1.61-1.909-.481-.561-.965-1.115c-.563-.644-1.132-1.277-1.7-1.906-.216-.236-.423-.481-.639-.715-.062-.069-.129-.131-.192-.2q-1.857-2.011-3.77-3.921c-.118-.118-.232-.247-.35-.366s-.255-.238-.38-.362c-1.08-1.065-2.168-2.112-3.271-3.126-.014-.013-.026-.027-.042-.041-.083-.074-.166-.145-.249-.22q-1.349-1.229-2.719-2.405c-.124-.105-.245-.22-.369-.326-.208-.177-.421-.343-.63-.518q-.941-.791-1.893-1.555c-.2-.161-.4-.332-.594-.49-.165-.13-.332-.25-.5-.379-.563-.441-1.132-.873-1.7-1.3-.253-.191-.5-.392-.757-.58-.124-.091-.25-.174-.373-.265-.5-.366-1-.721-1.511-1.075-.3-.212-.6-.436-.9-.644-.1-.073-.21-.138-.316-.209-.477-.325-.957-.636-1.438-.95-.33-.216-.657-.444-.988-.655-.1-.062-.2-.118-.293-.179-.439-.277-.88-.542-1.322-.809-.354-.217-.707-.443-1.064-.652-.208-.123-.414-.242-.622-.363q-.989-.571-1.97-1.1c-.306-.166-.608-.312-.912-.473s-.634-.331-.951-.492c-.226-.115-.454-.24-.678-.352-.6-.3-1.193-.567-1.787-.841-.194-.089-.389-.187-.582-.274-.054-.024-.11-.053-.163-.077q-1.264-.565-2.512-1.065c-.1-.04-.2-.072-.3-.111-.276-.109-.548-.2-.822-.308-.478-.182-.956-.372-1.431-.54-.248-.086-.493-.158-.741-.241-.337-.114-.673-.223-1.008-.33-.269-.085-.539-.183-.8-.263-.4-.122-.794-.218-1.192-.329-.341-.095-.685-.195-1.024-.283-.141-.035-.285-.082-.426-.117-.588-.147-1.168-.265-1.75-.388-.254-.055-.513-.12-.767-.171-.05-.01-.1-.024-.15-.033-.829-.161-1.646-.289-2.461-.4-.123-.017-.248-.044-.371-.062l-.019,0q-1.47-.2-2.91-.3h-.036q-1.554-.107-3.071-.1c-.025,0-.051,0-.076,0-.824,0-1.637.041-2.441.093-.177.012-.353.023-.529.038s-.358.02-.535.037q-1.017.093-2.014.239l-.037.007q-.968.142-1.915.331c-.137.027-.268.066-.4.1-.384.081-.761.177-1.138.27-.481.119-.958.241-1.431.377-.376.109-.747.229-1.117.351-.27.087-.546.16-.812.255-.151.053-.292.125-.442.179-.647.24-1.281.5-1.909.778-.292.127-.586.245-.874.38-.9.424-1.785.877-2.645,1.377l-28.461,16.539c.859-.5,1.746-.951,2.644-1.376.288-.134.582-.252.874-.379.628-.275,1.262-.537,1.909-.777.415-.153.833-.3,1.254-.435.371-.121.743-.241,1.12-.351.47-.137.948-.258,1.427-.375.379-.093.755-.189,1.14-.271.761-.161,1.529-.31,2.31-.425l.046-.007c.838-.122,1.69-.209,2.548-.276.177-.014.353-.025.529-.036.831-.055,1.668-.09,2.516-.092q1.518,0,3.073.1,1.466.1,2.966.3c.121.016.246.043.367.06.865.124,1.733.265,2.613.438.254.05.513.116.769.172.722.153,1.444.317,2.174.5.34.087.683.188,1.024.282.663.185,1.327.379,2,.591q.5.16,1.011.331c.719.243,1.444.506,2.172.781.272.1.544.2.818.307.983.389,1.973.8,2.971,1.253.193.087.388.185.582.274q1.229.565,2.468,1.2c.314.16.63.324.945.488.958.5,1.917,1.019,2.885,1.576.567.328,1.13.676,1.694,1.02.438.266.878.529,1.313.8S5674.752,3946.677,5675.181,3946.958Z" transform="translate(-5543.26 -3919.046)"/><g transform="translate(80.632 0)"><path class="d" d="M5815.343,4084.449l-.007-.034c-.013-.086-.029-.171-.044-.257-.115-.711-.236-1.424-.369-2.137-.02-.105-.046-.212-.065-.318-.066-.339-.139-.679-.208-1.019-.084-.413-.163-.826-.254-1.24-.038-.177-.083-.355-.125-.532-.086-.381-.178-.761-.269-1.14-.076-.317-.145-.634-.225-.952-.057-.23-.125-.459-.183-.69-.117-.446-.238-.894-.36-1.341-.072-.264-.137-.526-.211-.79-.069-.243-.149-.484-.22-.727q-.22-.756-.455-1.511c-.078-.251-.147-.5-.228-.754-.072-.226-.155-.451-.228-.677q-.277-.85-.572-1.7c-.092-.266-.173-.532-.269-.8-.06-.17-.13-.338-.191-.508q-.449-1.244-.934-2.482c-.09-.233-.17-.466-.263-.7-.025-.064-.054-.127-.08-.191q-.757-1.89-1.589-3.763c-.046-.107-.088-.214-.136-.322-.167-.374-.346-.743-.516-1.116-.2-.425-.39-.85-.591-1.274-.249-.525-.509-1.047-.767-1.57-.2-.411-.4-.822-.609-1.23-.048-.094-.091-.187-.14-.281-.231-.452-.476-.9-.714-1.35-.2-.377-.4-.756-.6-1.133-.315-.58-.641-1.154-.968-1.729-.187-.333-.371-.669-.563-1-.4-.7-.818-1.385-1.234-2.072-.125-.2-.243-.412-.369-.614q-.817-1.331-1.67-2.636c-.159-.243-.324-.48-.483-.721-.416-.626-.832-1.252-1.26-1.869-.223-.321-.453-.637-.679-.956-.373-.528-.746-1.056-1.127-1.575-.256-.348-.518-.69-.777-1.034-.361-.48-.722-.961-1.089-1.434-.276-.355-.559-.7-.839-1.055s-.541-.69-.818-1.028c-.089-.109-.18-.213-.271-.321-.3-.365-.6-.721-.908-1.08-.361-.426-.724-.853-1.089-1.272-.312-.356-.626-.706-.942-1.055-.246-.272-.486-.552-.734-.821-.091-.1-.187-.191-.278-.29-.886-.957-1.783-1.9-2.7-2.807-.022-.021-.043-.044-.064-.066-.14-.138-.283-.267-.423-.4q-.978-.962-1.973-1.888c-.09-.083-.177-.171-.265-.255-.232-.212-.471-.412-.7-.621-.46-.414-.919-.824-1.384-1.225-.129-.111-.255-.23-.386-.34-.251-.215-.508-.416-.761-.625-.363-.3-.725-.6-1.09-.9-.133-.107-.262-.219-.4-.325-.291-.229-.585-.446-.878-.671-.325-.25-.648-.5-.975-.747-.107-.08-.214-.166-.322-.246-.378-.28-.761-.542-1.142-.813-.26-.185-.519-.375-.782-.556-.06-.042-.119-.086-.178-.127q-1.012-.7-2.036-1.347l-.023-.013c-.065-.042-.131-.08-.2-.122-.6-.377-1.2-.748-1.8-1.1l-.47-.274q-.779-.449-1.6-.894c-.073-.04-.153-.078-.227-.118-.535-.288-1.084-.568-1.637-.847-.2-.1-.391-.207-.594-.307-.032-.015-.067-.03-.1-.047-.827-.407-1.669-.8-2.514-1.184l-.11-.051c-.178-.08-.354-.148-.533-.226-.627-.276-1.253-.544-1.878-.8-.1-.04-.2-.088-.3-.128-.226-.091-.444-.166-.669-.252-.461-.178-.916-.353-1.368-.515-.137-.05-.279-.109-.415-.157-.23-.081-.448-.145-.674-.222-.337-.113-.672-.225-1-.328-.132-.041-.272-.092-.4-.132-.288-.087-.561-.155-.84-.232-.209-.059-.423-.122-.627-.174-.073-.019-.151-.044-.223-.062-.465-.117-.917-.218-1.349-.3l-.171-.033-26.082,17.574c.551.1,12.494,4.679,13.027,4.965.625.335,1.241.673,1.828,1.013.762.44,1.518.9,2.27,1.376l.2.12c.752.478,1.5.978,2.238,1.49.261.179.517.367.775.55.492.349.981.7,1.47,1.063.326.244.649.5.974.746.426.329.852.659,1.274,1,.363.292.724.593,1.086.892.385.32.771.643,1.152.972.462.4.92.808,1.377,1.218.325.293.652.582.974.881.664.615,1.319,1.245,1.972,1.884.161.159.326.312.487.473.912.909,1.81,1.849,2.7,2.8.341.367.677.739,1.013,1.113.314.35.63.7.941,1.054.367.421.73.848,1.092,1.275.3.357.606.713.9,1.075.369.447.73.9,1.094,1.357.278.349.559.695.833,1.048.368.474.73.957,1.092,1.439.259.342.521.683.776,1.03.38.52.752,1.048,1.126,1.575.226.319.457.634.679.957.43.622.85,1.252,1.269,1.883.157.236.318.466.474.7q.853,1.307,1.672,2.639c.122.195.234.394.352.588.423.7.844,1.394,1.252,2.1.19.328.371.661.558.992.327.578.655,1.154.971,1.737.2.375.4.754.6,1.129.287.543.577,1.086.855,1.634.207.406.4.816.606,1.224.259.524.521,1.049.771,1.577.2.422.393.846.589,1.27q.33.719.653,1.441.829,1.873,1.588,3.763c.118.3.227.593.343.889q.483,1.239.934,2.483c.157.436.31.869.46,1.306q.294.848.572,1.7.234.716.456,1.434c.156.5.308,1.005.455,1.507s.292,1.014.432,1.521q.184.669.359,1.339.212.822.409,1.643c.091.379.182.759.269,1.138.134.592.257,1.182.379,1.773.068.341.142.681.208,1.021q.237,1.23.435,2.454c.015.085.032.172.044.258q.216,1.354.378,2.7c.032.259.059.516.086.774q.11.957.193,1.908c.028.309.051.618.075.928q.067.9.11,1.8c.013.291.03.583.04.873.031.854.051,1.707.049,2.55,0,.871-.025,1.722-.062,2.56-.011.234-.03.46-.043.692-.033.578-.07,1.151-.119,1.713-.029.323-.065.639-.1.958-.051.469-.1.937-.166,1.4-.046.34-.1.675-.15,1.009-.067.421-.136.837-.212,1.248-.069.374-.145.742-.221,1.108s-.161.739-.25,1.1c-.1.423-.211.835-.324,1.245-.089.323-.179.646-.274.961-.149.49-.311.965-.477,1.437-.088.252-.172.509-.266.756q-.453,1.2-.973,2.309-.354.753-.742,1.466c-.031.057-.058.118-.089.175-.292.53-.6,1.042-.917,1.541-.462.721-.955,1.4-1.47,2.05-.122.157-.25.311-.375.462-.5.6-1.011,1.172-1.552,1.708-.044.043-.085.092-.129.135a22.327,22.327,0,0,1-1.819,1.571c-.153.119-.306.235-.462.35-.643.476,1.331.891,1.465,2.985l30.067-17.333C5822.409,4117.828,5815.47,4085.255,5815.343,4084.449Z" transform="translate(-5612.39 -3909.131)"/><path class="c" d="M5675.319,3946.91c.479.314.958.624,1.434.948.41.278.815.567,1.222.854.5.354,1.006.707,1.506,1.072.381.278.757.564,1.135.848.568.426,1.133.857,1.7,1.3.365.286.728.577,1.089.867q.954.766,1.9,1.558c.333.28.667.559,1,.844q1.369,1.177,2.718,2.406c.1.087.193.172.291.26,1.1,1.013,2.188,2.06,3.269,3.124.246.243.49.487.734.731q1.908,1.913,3.768,3.919c.279.3.555.612.832.917q.859.946,1.7,1.908c.323.367.642.738.961,1.11q.814.949,1.617,1.915c.3.364.6.728.9,1.1q1.024,1.257,2.028,2.544c.18.23.363.455.541.688q1.258,1.627,2.479,3.294c.209.286.414.578.622.866q.912,1.26,1.8,2.541.4.579.8,1.162.82,1.2,1.621,2.418c.246.373.493.746.737,1.121q1,1.552,1.976,3.126c.086.137.173.271.257.409q1.095,1.781,2.142,3.588c.2.353.4.707.606,1.061q.747,1.306,1.473,2.621.345.628.684,1.256.708,1.31,1.389,2.628c.191.369.386.736.574,1.106q.968,1.9,1.891,3.818c.093.2.183.393.276.59q.779,1.639,1.52,3.289.344.763.677,1.527c.234.536.468,1.072.7,1.608.236.552.465,1.1.693,1.656s.446,1.081.663,1.622c.154.382.3.767.454,1.15.644,1.642,1.267,3.285,1.853,4.931.032.089.061.179.092.268.487,1.378.948,2.757,1.393,4.134.124.385.248.77.368,1.155q.53,1.688,1.014,3.371c.086.3,2.561,1.936,2.642,2.233l26.082-17.573c-.032-.116-.209-1.02-.262-1.2q-.483-1.683-1.014-3.369c-.06-.191-.112-.383-.172-.575s-.134-.387-.2-.58c-.444-1.377-.9-2.754-1.391-4.13-.025-.075-.049-.149-.075-.224l-.018-.049c-.585-1.644-1.209-3.287-1.854-4.928-.071-.182-.132-.363-.205-.545-.08-.2-.167-.406-.249-.609-.216-.54-.438-1.08-.661-1.62s-.459-1.1-.694-1.656-.461-1.073-.7-1.608c-.149-.342-.291-.683-.443-1.025-.075-.168-.157-.334-.232-.5q-.74-1.649-1.519-3.289c-.094-.2-.183-.394-.277-.591q-.919-1.917-1.891-3.816c-.055-.108-.1-.217-.16-.325-.135-.263-.278-.521-.414-.783q-.683-1.318-1.39-2.627-.338-.63-.684-1.257-.724-1.317-1.473-2.622c-.2-.352-.4-.708-.605-1.059q-1.051-1.809-2.142-3.59c-.084-.137-.171-.272-.256-.409q-.973-1.575-1.977-3.125c-.244-.376-.491-.748-.737-1.121q-.8-1.218-1.62-2.418c-.267-.389-.531-.777-.8-1.162q-.891-1.282-1.805-2.542c-.208-.288-.411-.579-.622-.866q-1.221-1.666-2.479-3.294c-.179-.232-.362-.458-.542-.689q-1-1.282-2.025-2.541c-.117-.143-.229-.29-.346-.432-.186-.227-.377-.444-.564-.669q-.8-.963-1.612-1.91c-.32-.373-.641-.745-.965-1.115q-.844-.963-1.7-1.906c-.213-.236-.423-.48-.639-.714-.062-.069-.129-.132-.191-.2q-1.858-2.011-3.771-3.922c-.118-.118-.231-.247-.35-.365s-.254-.239-.38-.363c-1.079-1.063-2.167-2.112-3.27-3.125l-.042-.04c-.082-.076-.167-.145-.249-.221q-1.349-1.23-2.719-2.4c-.125-.107-.244-.221-.369-.326-.208-.178-.42-.343-.629-.519q-.943-.791-1.892-1.556c-.2-.16-.4-.33-.6-.488-.165-.13-.332-.252-.5-.381-.565-.442-1.131-.872-1.7-1.3-.253-.19-.5-.392-.756-.58-.124-.09-.25-.174-.374-.265-.5-.366-1-.72-1.51-1.075-.3-.212-.6-.436-.9-.644-.106-.071-.212-.137-.317-.209-.476-.324-.957-.635-1.437-.95-.33-.216-.657-.443-.989-.653-.1-.062-.2-.118-.292-.179-.44-.278-.881-.542-1.322-.811-.356-.215-.708-.442-1.065-.652-.208-.121-.415-.243-.622-.361q-.987-.571-1.971-1.1c-.3-.165-.608-.312-.911-.472s-.635-.332-.949-.492c-.227-.115-.455-.241-.68-.352-.6-.3-1.192-.568-1.787-.842-.193-.089-.388-.187-.582-.274-.054-.024-.108-.052-.163-.077q-1.262-.564-2.511-1.063c-.1-.041-.2-.073-.3-.113-.276-.107-.547-.2-.821-.308-.477-.18-.957-.372-1.431-.538-.249-.088-.493-.159-.741-.243-.337-.113-.674-.223-1.008-.329-.267-.084-.539-.183-.805-.263-.4-.122-.795-.218-1.192-.33-.342-.095-.685-.195-1.022-.281-.142-.037-.286-.083-.427-.118-.588-.146-1.168-.264-1.749-.388-.256-.055-.514-.121-.769-.17l-.149-.034c-.829-.16-1.646-.288-2.461-.4-.122-.018-.249-.045-.371-.061l-.02,0q-1.471-.2-2.91-.3h-.036q-1.556-.107-3.072-.1l-.077,0c-.823,0-1.635.041-2.441.093-.176.011-.353.023-.527.037s-.359.021-.537.037q-1.017.094-2.015.24l-.036.005c-.646.1-1.285.2-1.916.332-.136.026-.267.067-.4.094-.382.082-.76.177-1.137.271-.48.118-.959.239-1.431.376-.377.109-.747.229-1.116.35-.27.088-.547.162-.812.255-.152.054-.293.125-.444.181-.646.239-1.281.5-1.909.777-.29.128-.586.245-.872.38-.9.424-1.786.877-2.645,1.376l-28.462,16.541c.86-.5,1.745-.953,2.645-1.377.286-.134.581-.252.874-.379.627-.276,1.262-.539,1.908-.776.415-.154.833-.3,1.254-.436.372-.122.743-.242,1.119-.352.471-.137.949-.257,1.428-.375.378-.093.756-.189,1.14-.271.763-.161,1.53-.311,2.312-.425l.044-.008c.838-.123,1.69-.209,2.55-.277.175-.014.35-.025.527-.037.83-.054,1.668-.088,2.518-.091q1.515,0,3.071.1,1.466.1,2.964.3c.122.017.246.043.368.062.865.122,1.734.265,2.614.438.253.05.513.116.768.17.721.154,1.444.317,2.175.506.34.087.683.187,1.025.282.662.184,1.325.379,1.995.591.335.106.671.216,1.01.331.721.242,1.444.5,2.172.78.272.1.544.2.818.307q1.477.583,2.973,1.254c.193.087.387.184.58.273q1.229.567,2.468,1.195c.315.16.63.324.945.49.958.5,1.918,1.017,2.886,1.576.566.327,1.129.676,1.693,1.018.438.266.876.53,1.312.8S5674.891,3946.63,5675.319,3946.91Z" transform="translate(-5623.875 -3919.051)"/><path class="c" d="M5815.343,4084.449l-.007-.034c-.013-.086-.029-.171-.044-.257-.115-.711-.236-1.424-.369-2.137-.02-.105-.046-.212-.065-.318-.066-.339-.139-.679-.208-1.019-.084-.413-.163-.826-.254-1.24-.038-.177-.083-.355-.125-.532-.086-.381-.178-.761-.269-1.14-.076-.317-.145-.634-.225-.952-.057-.23-.125-.459-.183-.69-.117-.446-.238-.894-.36-1.341-.072-.264-.137-.526-.211-.79-.069-.243-.149-.484-.22-.727q-.22-.756-.455-1.511c-.078-.251-.147-.5-.228-.754-.072-.226-.155-.451-.228-.677q-.277-.85-.572-1.7c-.092-.266-.173-.532-.269-.8-.06-.17-.13-.338-.191-.508q-.449-1.244-.934-2.482c-.09-.233-.17-.466-.263-.7-.025-.064-.054-.127-.08-.191q-.757-1.89-1.589-3.763c-.046-.107-.088-.214-.136-.322-.167-.374-.346-.743-.516-1.116-.2-.425-.39-.85-.591-1.274-.249-.525-.509-1.047-.767-1.57-.2-.411-.4-.822-.609-1.23-.048-.094-.091-.187-.14-.281-.231-.452-.476-.9-.714-1.35-.2-.377-.4-.756-.6-1.133-.315-.58-.641-1.154-.968-1.729-.187-.333-.371-.669-.563-1-.4-.7-.818-1.385-1.234-2.072-.125-.2-.243-.412-.369-.614q-.817-1.331-1.67-2.636c-.159-.243-.324-.48-.483-.721-.416-.626-.832-1.252-1.26-1.869-.223-.321-.453-.637-.679-.956-.373-.528-.746-1.056-1.127-1.575-.256-.348-.518-.69-.777-1.034-.361-.48-.722-.961-1.089-1.434-.276-.355-.559-.7-.839-1.055s-.541-.69-.818-1.028c-.089-.109-.18-.213-.271-.321-.3-.365-.6-.721-.908-1.08-.361-.426-.724-.853-1.089-1.272-.312-.356-.626-.706-.942-1.055-.246-.272-.486-.552-.734-.821-.091-.1-.187-.191-.278-.29-.886-.957-1.783-1.9-2.7-2.807-.022-.021-.043-.044-.064-.066-.14-.138-.283-.267-.423-.4q-.978-.962-1.973-1.888c-.09-.083-.177-.171-.265-.255-.232-.212-.471-.412-.7-.621-.46-.414-.919-.824-1.384-1.225-.129-.111-.255-.23-.386-.34-.251-.215-.508-.416-.761-.625-.363-.3-.725-.6-1.09-.9-.133-.107-.262-.219-.4-.325-.291-.229-.585-.446-.878-.671-.325-.25-.648-.5-.975-.747-.107-.08-.214-.166-.322-.246-.378-.28-.761-.542-1.142-.813-.26-.185-.519-.375-.782-.556-.06-.042-.119-.086-.178-.127q-1.012-.7-2.036-1.347l-.023-.013c-.065-.042-.131-.08-.2-.122-.6-.377-1.2-.748-1.8-1.1l-.47-.274q-.779-.449-1.6-.894c-.073-.04-.153-.078-.227-.118-.535-.288-1.084-.568-1.637-.847-.2-.1-.391-.207-.594-.307-.032-.015-.067-.03-.1-.047-.827-.407-1.669-.8-2.514-1.184l-.11-.051c-.178-.08-.354-.148-.533-.226-.627-.276-1.253-.544-1.878-.8-.1-.04-.2-.088-.3-.128-.226-.091-.444-.166-.669-.252-.461-.178-.916-.353-1.368-.515-.137-.05-.279-.109-.415-.157-.23-.081-.448-.145-.674-.222-.337-.113-.672-.225-1-.328-.132-.041-.272-.092-.4-.132-.288-.087-.561-.155-.84-.232-.209-.059-.423-.122-.627-.174-.073-.019-.151-.044-.223-.062-.465-.117-.917-.218-1.349-.3l-.171-.033-26.082,17.574c.551.1,12.494,4.679,13.027,4.965.625.335,1.241.673,1.828,1.013.762.44,1.518.9,2.27,1.376l.2.12c.752.478,1.5.978,2.238,1.49.261.179.517.367.775.55.492.349.981.7,1.47,1.063.326.244.649.5.974.746.426.329.852.659,1.274,1,.363.292.724.593,1.086.892.385.32.771.643,1.152.972.462.4.92.808,1.377,1.218.325.293.652.582.974.881.664.615,1.319,1.245,1.972,1.884.161.159.326.312.487.473.912.909,1.81,1.849,2.7,2.8.341.367.677.739,1.013,1.113.314.35.63.7.941,1.054.367.421.73.848,1.092,1.275.3.357.606.713.9,1.075.369.447.73.9,1.094,1.357.278.349.559.695.833,1.048.368.474.73.957,1.092,1.439.259.342.521.683.776,1.03.38.52.752,1.048,1.126,1.575.226.319.457.634.679.957.43.622.85,1.252,1.269,1.883.157.236.318.466.474.7q.853,1.307,1.672,2.639c.122.195.234.394.352.588.423.7.844,1.394,1.252,2.1.19.328.371.661.558.992.327.578.655,1.154.971,1.737.2.375.4.754.6,1.129.287.543.577,1.086.855,1.634.207.406.4.816.606,1.224.259.524.521,1.049.771,1.577.2.422.393.846.589,1.27q.33.719.653,1.441.829,1.873,1.588,3.763c.118.3.227.593.343.889q.483,1.239.934,2.483c.157.436.31.869.46,1.306q.294.848.572,1.7.234.716.456,1.434c.156.5.308,1.005.455,1.507s.292,1.014.432,1.521q.184.669.359,1.339.212.822.409,1.643c.091.379.182.759.269,1.138.134.592.257,1.182.379,1.773.068.341.142.681.208,1.021q.237,1.23.435,2.454c.015.085.032.172.044.258q.216,1.354.378,2.7c.032.259.059.516.086.774q.11.957.193,1.908c.028.309.051.618.075.928q.067.9.11,1.8c.013.291.03.583.04.873.031.854.051,1.707.049,2.55,0,.871-.025,1.722-.062,2.56-.011.234-.03.46-.043.692-.033.578-.07,1.151-.119,1.713-.029.323-.065.639-.1.958-.051.469-.1.937-.166,1.4-.046.34-.1.675-.15,1.009-.067.421-.136.837-.212,1.248-.069.374-.145.742-.221,1.108s-.161.739-.25,1.1c-.1.423-.211.835-.324,1.245-.089.323-.179.646-.274.961-.149.49-.311.965-.477,1.437-.088.252-.172.509-.266.756q-.453,1.2-.973,2.309-.354.753-.742,1.466c-.031.057-.058.118-.089.175-.292.53-.6,1.042-.917,1.541-.462.721-.955,1.4-1.47,2.05-.122.157-.25.311-.375.462-.5.6-1.011,1.172-1.552,1.708-.044.043-.085.092-.129.135a22.327,22.327,0,0,1-1.819,1.571c-.153.119-.306.235-.462.35-.643.476,1.331.891,1.465,2.985l30.067-17.333C5822.409,4117.828,5815.47,4085.255,5815.343,4084.449Z" transform="translate(-5612.39 -3909.131)"/></g><path class="c" d="M5594.728,3938.218c-.626.066-1.291.162-1.895.278" transform="translate(-5546.75 -3916.886)"/><path class="f" d="M5762.7,4039.8c-5.419-3.13-12.6-6.194-17.463-7.1-10-35.569-35.036-72.942-64.492-89.948-36.093-20.839-66.582-3.746-70.035,34.805-5.868-7.249-12.3-11.842-19.133-16.66-17.327-12.216-40.151-4.747-40.151,24.6,0,28.6,16.642,50.887,38.879,64.055l169.979,98.137c26.608,15.033,50.426,6.942,50.426-24.734C5810.711,4092.4,5789.307,4055.166,5762.7,4039.8Z" transform="translate(-5551.427 -3917.386)"/></g></g><g transform="translate(980.91 456.467)"><path class="a" d="M5552.009,4144.795l42.805-24.569,157.326,90.95-42.8,24.57Z" transform="translate(-5551.488 -3940.494)"/><g transform="translate(0 0)"><path class="b" d="M5718.807,4017.8c-4.294-2.479-9.982-4.906-13.835-5.628-7.921-28.178-27.758-57.787-51.095-71.261-28.593-16.508-52.15-2.238-54.886,28.3a58.429,58.429,0,0,0-15.756-13.928c-17.618-10.171-31.809.1-31.809,19.39,0,24.849,13.99,40.983,31.608,51.415l135.526,78.246c21.079,11.91,38.212,3.563,38.281-20.658S5739.885,4029.968,5718.807,4017.8Z" transform="translate(-5551.427 -3920.64)"/><path class="c" d="M5588.355,3958.37c.078.055.157.109.234.166.608.446,1.208.912,1.8,1.391.179.144.355.291.533.438q.649.535,1.285,1.093c.219.192.438.383.655.579.377.339.748.689,1.119,1.04.263.25.527.5.789.753.288.282.571.577.854.866.389.4.777.793,1.158,1.2.222.238.44.482.658.724q.992,1.1,1.947,2.24c.222.267.45.525.668.794l22.846-13.278q-.167-.207-.337-.414c-.107-.13-.222-.25-.33-.38q-.956-1.146-1.946-2.238c-.123-.135-.235-.279-.359-.413-.1-.108-.2-.207-.3-.314-.38-.409-.768-.8-1.156-1.2-.2-.205-.4-.421-.6-.622-.083-.084-.171-.163-.257-.246-.261-.256-.526-.5-.789-.752-.247-.234-.489-.477-.738-.705-.125-.114-.253-.223-.379-.336-.218-.2-.436-.387-.654-.579-.2-.171-.39-.35-.588-.519-.23-.2-.466-.382-.7-.575-.177-.145-.353-.293-.532-.437-.095-.076-.188-.157-.283-.233q-.715-.565-1.438-1.1c-.028-.021-.057-.039-.085-.061-.076-.055-.154-.108-.229-.163-.356-.258-.71-.515-1.071-.762-.2-.137-.4-.267-.606-.4-.139-.092-.276-.185-.416-.274-.11-.072-.219-.148-.33-.218q-.658-.42-1.325-.811l-.305-.178c-.339-.2-.678-.385-1.013-.566-.127-.069-.251-.13-.378-.2-.174-.091-.347-.181-.521-.27-.136-.069-.272-.144-.408-.211-.208-.1-.416-.2-.624-.293-.155-.075-.313-.15-.468-.222-.065-.029-.131-.063-.195-.091-.4-.179-.793-.345-1.188-.5l-.075-.032-.008,0q-.644-.258-1.28-.481c-.052-.018-.1-.032-.154-.05-.148-.052-.3-.1-.446-.146-.223-.074-.447-.152-.668-.218-.1-.031-.2-.056-.307-.085-.187-.055-.372-.1-.556-.153-.148-.04-.3-.086-.443-.123s-.288-.062-.432-.095c-.188-.044-.374-.086-.56-.125-.1-.021-.2-.047-.3-.067-.172-.034-.338-.054-.507-.083-.214-.037-.428-.075-.64-.106-.077-.011-.158-.028-.236-.038-.174-.024-.343-.034-.518-.053-.226-.025-.453-.051-.678-.07-.068-.005-.137-.015-.2-.021-.151-.01-.3-.008-.449-.016-.271-.011-.539-.025-.806-.026-.077,0-.156-.008-.231-.007-.116,0-.227.013-.34.016-.333.007-.664.022-.99.047-.1.007-.2,0-.3.015-.073.006-.141.023-.213.03-.5.053-1.038.129-1.521.224-.039.007-28.025,16.186-28.025,16.186.383-.224,1.486-.832,1.888-1.021.132-.062,17.08.166,17.543.376.156.071.313.147.468.221q.513.243,1.032.5.259.133.521.27c.461.244.924.493,1.39.762.659.381,1.312.787,1.961,1.208.139.09.277.182.415.274Q5587.524,3957.769,5588.355,3958.37Z" transform="translate(-5552.497 -3921.081)"/><path class="d" d="M5665.034,3941.462c.383.25.768.5,1.149.76.329.224.655.457.981.685.4.284.807.569,1.208.861.306.223.607.453.91.682.457.342.911.687,1.364,1.042.291.229.583.462.874.7q.764.615,1.521,1.251c.268.224.534.448.8.676q1.1.945,2.183,1.931c.077.071.155.137.232.208.886.814,1.758,1.654,2.625,2.508.2.195.394.392.59.588q1.531,1.535,3.024,3.146c.225.243.445.491.668.736.459.506.915,1.014,1.368,1.531q.387.442.771.891.653.761,1.3,1.538c.243.292.486.584.727.879q.822,1.009,1.627,2.042c.146.186.292.367.436.552q1.008,1.306,1.99,2.645c.167.23.331.464.5.7q.732,1.012,1.448,2.041c.216.309.428.621.642.932q.657.965,1.3,1.941c.2.3.4.6.592.9q.8,1.244,1.587,2.508c.067.11.138.218.206.329q.877,1.429,1.719,2.88c.165.284.324.569.486.852q.6,1.048,1.183,2.1.278.5.549,1.009.567,1.05,1.115,2.109c.154.3.311.591.461.888q.777,1.527,1.517,3.064c.076.157.148.316.222.474q.625,1.316,1.22,2.641c.184.408.364.816.544,1.225q.281.645.559,1.292c.189.442.373.885.556,1.329s.357.867.532,1.3c.125.308.243.617.363.924.518,1.318,1.019,2.637,1.489,3.957.024.072.049.144.073.217.392,1.105.761,2.212,1.118,3.317q.149.464.3.928.425,1.354.814,2.7c.069.239.143.478.209.715l22.848-13.277c-.026-.093-.052-.186-.079-.279-.041-.146-.089-.291-.131-.436q-.389-1.351-.814-2.7c-.048-.154-.09-.309-.14-.462s-.106-.311-.157-.466c-.356-1.1-.724-2.209-1.115-3.315-.022-.06-.04-.119-.061-.179l-.016-.04c-.469-1.32-.969-2.638-1.486-3.955-.057-.146-.107-.292-.165-.437-.065-.164-.135-.327-.2-.489-.174-.434-.352-.866-.531-1.3s-.367-.887-.556-1.33-.372-.862-.559-1.292c-.121-.273-.235-.548-.357-.821-.06-.135-.126-.269-.187-.4q-.595-1.325-1.219-2.641c-.076-.158-.147-.316-.222-.473q-.738-1.54-1.518-3.065c-.043-.086-.084-.174-.128-.261-.108-.209-.224-.417-.333-.626q-.549-1.061-1.116-2.111-.272-.5-.549-1.009-.582-1.056-1.183-2.1c-.162-.285-.321-.569-.485-.852-.564-.967-1.134-1.928-1.719-2.881-.068-.11-.139-.218-.206-.328q-.782-1.265-1.587-2.51c-.2-.3-.394-.6-.591-.9q-.642-.977-1.3-1.942c-.213-.312-.426-.623-.642-.932q-.714-1.028-1.448-2.04c-.167-.231-.332-.465-.5-.695q-.981-1.337-1.989-2.646c-.145-.186-.291-.367-.436-.552q-.8-1.031-1.625-2.04c-.093-.114-.183-.233-.277-.347-.149-.181-.3-.356-.454-.537q-.643-.773-1.293-1.533-.387-.45-.775-.895-.678-.775-1.366-1.531c-.173-.189-.34-.386-.513-.573-.05-.055-.1-.106-.155-.161q-1.49-1.616-3.026-3.148c-.095-.095-.186-.2-.281-.293s-.2-.191-.305-.291c-.867-.855-1.74-1.7-2.626-2.509l-.034-.032c-.066-.06-.133-.116-.2-.177q-1.083-.987-2.183-1.931c-.1-.085-.2-.177-.3-.262-.167-.143-.338-.276-.505-.416q-.755-.635-1.52-1.249c-.159-.128-.317-.266-.477-.393-.132-.1-.266-.2-.4-.3-.454-.355-.909-.7-1.365-1.044-.2-.153-.4-.315-.607-.465-.1-.073-.2-.14-.3-.212-.4-.294-.807-.579-1.213-.863-.242-.17-.481-.349-.725-.516-.084-.058-.17-.11-.253-.168-.384-.261-.769-.511-1.155-.763-.266-.174-.529-.356-.793-.525-.079-.049-.158-.1-.235-.144-.353-.222-.707-.435-1.062-.649-.285-.174-.567-.355-.854-.523-.167-.1-.333-.2-.5-.292q-.793-.458-1.582-.884c-.246-.133-.488-.251-.731-.38s-.509-.266-.763-.4c-.182-.092-.365-.193-.545-.282-.481-.238-.958-.456-1.435-.675-.155-.072-.311-.151-.466-.22-.043-.02-.088-.043-.131-.062q-1.014-.454-2.016-.855c-.08-.031-.159-.058-.238-.089-.221-.087-.44-.165-.659-.247-.384-.146-.767-.3-1.148-.433-.2-.07-.4-.127-.595-.193-.271-.092-.541-.18-.81-.266-.216-.067-.433-.146-.646-.21-.321-.1-.638-.175-.957-.264-.273-.076-.549-.157-.822-.227-.113-.028-.229-.066-.342-.094-.472-.118-.937-.213-1.4-.312-.2-.044-.413-.1-.615-.137-.04-.008-.081-.02-.121-.027-.665-.129-1.322-.232-1.976-.325-.1-.013-.2-.036-.3-.049l-.015,0q-1.181-.157-2.336-.238h-.028q-1.249-.086-2.466-.082c-.021,0-.042,0-.062,0-.661,0-1.313.032-1.959.074-.142.01-.283.019-.424.031s-.288.016-.429.029q-.819.075-1.617.192l-.029.006c-.518.076-1.031.163-1.538.266-.11.022-.215.053-.324.077-.309.065-.61.142-.913.216-.387.095-.771.193-1.15.3-.3.088-.6.184-.9.282-.216.071-.438.128-.651.2-.121.043-.235.1-.355.144-.519.192-1.028.4-1.531.625-.235.1-.472.2-.7.3-.723.34-1.433.7-2.123,1.105l-22.848,13.276c.689-.4,1.4-.764,2.123-1.1.23-.108.467-.2.7-.305.5-.221,1.014-.431,1.532-.624.333-.123.669-.238,1.007-.349.3-.1.6-.193.9-.281.377-.11.761-.208,1.146-.3.3-.076.606-.152.915-.217.611-.13,1.228-.248,1.855-.341l.037-.006c.672-.1,1.356-.168,2.045-.222l.425-.03c.666-.043,1.337-.071,2.02-.073.812,0,1.634.024,2.466.082q1.177.08,2.381.242c.1.012.2.034.295.048.693.1,1.391.213,2.1.352.2.04.412.093.618.138.579.124,1.159.254,1.746.405.273.07.547.15.822.226.532.148,1.065.3,1.6.475.271.086.54.174.811.265.578.195,1.159.406,1.744.627.219.082.437.16.657.246.79.313,1.584.646,2.385,1.006.155.07.312.148.467.22q.987.454,1.981.959c.252.128.506.26.759.393.769.4,1.539.817,2.315,1.265.456.264.907.543,1.36.819.352.213.7.424,1.054.645S5664.688,3941.237,5665.034,3941.462Z" transform="translate(-5559.135 -3919.056)"/><g transform="translate(64.727 0)"><path class="d" d="M5797.634,4069.146l-.005-.026c-.011-.069-.024-.138-.036-.207-.092-.571-.189-1.143-.3-1.715-.017-.085-.037-.171-.053-.256-.053-.273-.112-.545-.167-.818-.067-.332-.13-.664-.2-1-.03-.142-.066-.285-.1-.427-.069-.306-.142-.61-.216-.916-.061-.254-.116-.509-.181-.764-.044-.185-.1-.369-.147-.554-.093-.358-.19-.717-.289-1.077-.058-.212-.11-.422-.169-.634-.056-.195-.12-.389-.178-.583q-.177-.606-.365-1.212c-.062-.2-.118-.4-.183-.605-.058-.182-.125-.362-.183-.543q-.222-.682-.459-1.362c-.073-.213-.139-.427-.215-.64-.048-.137-.1-.271-.154-.408-.24-.666-.491-1.33-.749-1.993-.072-.186-.137-.374-.211-.561-.02-.051-.043-.1-.064-.153q-.607-1.517-1.274-3.021c-.038-.085-.071-.171-.109-.258-.135-.3-.278-.6-.415-.9-.157-.341-.313-.682-.475-1.022-.2-.422-.408-.841-.615-1.26-.163-.331-.323-.66-.489-.988-.039-.075-.073-.15-.112-.225-.186-.363-.382-.723-.574-1.083-.159-.3-.317-.607-.48-.91-.253-.466-.515-.927-.776-1.388-.15-.268-.3-.537-.452-.8-.323-.559-.657-1.112-.99-1.664-.1-.164-.195-.331-.3-.494q-.657-1.068-1.341-2.116c-.127-.195-.26-.386-.388-.579-.333-.5-.668-1-1.012-1.5-.178-.257-.362-.511-.544-.767-.3-.423-.6-.847-.9-1.264-.206-.28-.416-.555-.624-.83-.29-.386-.579-.772-.874-1.151-.222-.286-.449-.565-.673-.847s-.435-.554-.657-.826c-.071-.087-.146-.171-.218-.258-.24-.292-.484-.579-.729-.867-.29-.342-.581-.685-.875-1.021-.25-.286-.5-.566-.756-.847-.2-.219-.391-.443-.589-.659-.073-.08-.149-.154-.224-.233-.711-.768-1.431-1.522-2.164-2.253-.018-.017-.034-.036-.051-.053-.112-.11-.228-.214-.34-.324q-.784-.772-1.583-1.516c-.072-.066-.143-.137-.214-.2-.186-.17-.376-.33-.563-.5-.369-.332-.738-.661-1.111-.983-.1-.089-.205-.185-.31-.273-.2-.172-.407-.333-.61-.5-.291-.242-.582-.485-.875-.721-.106-.085-.211-.176-.318-.261-.232-.184-.469-.358-.7-.539-.261-.2-.521-.4-.783-.6-.086-.064-.171-.133-.259-.2-.3-.224-.611-.435-.916-.652-.209-.148-.417-.3-.627-.447l-.144-.1q-.812-.557-1.633-1.081l-.019-.011c-.052-.034-.105-.064-.158-.1-.479-.3-.961-.6-1.445-.885l-.377-.22q-.625-.36-1.285-.717c-.059-.033-.124-.063-.183-.095-.43-.231-.871-.456-1.315-.68-.161-.081-.314-.167-.476-.247-.025-.012-.053-.024-.08-.038-.664-.327-1.339-.645-2.018-.951l-.088-.041c-.143-.064-.285-.119-.428-.181q-.755-.333-1.507-.641c-.081-.032-.164-.071-.244-.1-.181-.073-.356-.133-.537-.2-.37-.143-.735-.283-1.1-.414-.111-.04-.225-.087-.333-.126-.185-.065-.359-.116-.541-.178-.27-.091-.539-.181-.8-.263-.106-.034-.22-.074-.325-.106-.231-.07-.45-.124-.673-.187-.169-.047-.34-.1-.5-.139-.059-.016-.122-.036-.179-.05-.374-.093-.736-.175-1.083-.243l-.138-.026-20.937,14.107c.443.082,10.029,3.756,10.458,3.986.5.269,1,.541,1.467.813.611.353,1.219.724,1.823,1.105.053.034.105.063.158.1.6.384,1.2.785,1.8,1.2.209.144.415.3.622.442.395.28.788.563,1.18.854.262.2.522.4.781.6.342.263.685.529,1.023.8.292.234.581.476.872.716.309.257.619.516.924.78.372.32.74.648,1.106.978.261.235.523.467.781.708.533.493,1.06,1,1.583,1.512.129.128.261.25.391.379.731.73,1.453,1.484,2.164,2.251.273.295.543.593.813.894.254.28.506.561.756.846.294.338.586.681.876,1.024.243.287.487.573.727.863.3.359.586.725.878,1.09.222.279.448.558.668.841.3.38.587.768.877,1.155.207.275.418.548.623.827.3.417.6.841.9,1.264.181.257.366.509.545.768.345.5.682,1,1.018,1.512.127.189.256.375.38.564q.683,1.05,1.342,2.119c.1.156.188.316.282.472.34.559.678,1.119,1.005,1.686.152.263.3.531.448.8.263.463.526.927.779,1.395.164.3.32.6.481.907.229.436.462.872.686,1.312.166.326.325.655.486.983.208.42.417.842.619,1.266.161.338.314.679.473,1.019.177.385.353.771.524,1.157q.666,1.5,1.274,3.021c.095.238.182.477.275.714q.388.994.75,1.993c.126.35.249.7.369,1.048q.237.68.459,1.361c.125.384.248.767.366,1.151q.189.6.365,1.21c.12.406.235.814.347,1.22q.147.537.288,1.075.171.66.329,1.318c.074.306.147.61.216.914.108.475.206.949.3,1.423.055.273.114.546.167.819q.19.987.349,1.97c.012.068.025.138.036.207q.174,1.088.3,2.168c.025.208.047.415.069.622q.088.768.155,1.531c.022.248.041.5.059.745.037.483.065.966.089,1.446.011.234.024.468.032.7.025.685.041,1.369.04,2.046,0,.7-.021,1.382-.051,2.054-.009.188-.023.369-.035.556-.026.465-.056.925-.1,1.375-.023.26-.052.514-.079.769-.041.377-.083.752-.133,1.12-.037.273-.078.542-.122.81-.052.338-.107.672-.169,1-.055.3-.116.6-.178.89s-.129.594-.2.884c-.082.34-.169.671-.26,1-.071.259-.144.518-.22.772-.12.394-.25.774-.383,1.153-.07.2-.138.409-.213.607q-.364.959-.781,1.853-.284.6-.6,1.177c-.024.045-.046.095-.071.14-.234.426-.481.836-.736,1.237-.371.579-.767,1.123-1.18,1.646-.1.125-.2.249-.3.371-.4.48-.812.941-1.246,1.37-.035.035-.068.075-.1.108a17.85,17.85,0,0,1-1.461,1.261c-.123.1-.246.189-.371.282-.516.381,1.069.715,1.176,2.4l24.138-13.913C5803.307,4095.941,5797.736,4069.793,5797.634,4069.146Z" transform="translate(-5634.716 -3928.412)"/><path class="c" d="M5665.172,3941.415c.384.251.768.5,1.151.761.328.224.655.456.98.686.4.284.808.567,1.209.86.306.223.607.453.911.681.456.342.91.688,1.362,1.042q.44.346.875.7.765.615,1.521,1.25c.267.225.535.449.8.677q1.1.945,2.182,1.932c.077.07.155.138.233.208.884.813,1.757,1.654,2.624,2.507.2.2.393.392.59.588q1.532,1.534,3.025,3.146c.223.242.446.491.668.736q.688.759,1.368,1.532.387.442.771.891.653.762,1.3,1.537c.243.292.486.584.726.88q.822,1.009,1.627,2.042c.145.185.292.365.435.553q1.01,1.305,1.99,2.644c.168.23.332.464.5.7q.732,1.012,1.449,2.04.323.465.641.933.658.963,1.3,1.941c.2.3.4.6.592.9q.8,1.247,1.586,2.509c.069.11.139.218.206.328q.878,1.43,1.72,2.881c.164.282.323.567.486.851q.6,1.049,1.182,2.1.278.5.55,1.008.568,1.052,1.115,2.111c.153.3.309.59.461.888q.776,1.526,1.517,3.064c.075.157.146.316.222.474q.625,1.316,1.22,2.64.275.612.543,1.226c.188.43.376.86.559,1.292s.373.885.557,1.329.357.868.531,1.3c.124.307.243.616.364.924.517,1.317,1.017,2.637,1.487,3.958.026.071.05.144.075.215q.586,1.66,1.118,3.318.149.464.3.927.424,1.354.813,2.705c.069.238,2.055,1.555,2.121,1.793l20.936-14.107c-.025-.093-.168-.818-.209-.964q-.388-1.351-.814-2.7c-.048-.154-.09-.308-.138-.462s-.108-.311-.157-.465c-.356-1.1-.726-2.211-1.117-3.315-.02-.06-.039-.12-.06-.18l-.015-.039c-.47-1.319-.971-2.638-1.489-3.956-.057-.146-.105-.291-.165-.437-.063-.163-.133-.326-.2-.489-.174-.433-.353-.867-.532-1.3s-.368-.887-.556-1.33-.372-.861-.561-1.291c-.119-.274-.233-.549-.355-.823-.06-.134-.126-.268-.187-.4q-.593-1.323-1.218-2.641c-.076-.158-.147-.316-.223-.474q-.738-1.538-1.518-3.063c-.044-.086-.084-.174-.128-.261-.108-.211-.224-.418-.333-.628q-.549-1.059-1.115-2.109-.272-.506-.549-1.009-.582-1.057-1.183-2.1c-.162-.283-.323-.568-.486-.85q-.843-1.452-1.719-2.882c-.068-.11-.138-.219-.206-.328q-.781-1.264-1.588-2.509c-.2-.3-.394-.6-.591-.9q-.644-.979-1.3-1.941-.32-.468-.641-.933-.715-1.03-1.448-2.041c-.167-.231-.332-.465-.5-.695q-.981-1.338-1.989-2.645c-.144-.186-.291-.368-.436-.554q-.8-1.029-1.626-2.039c-.093-.114-.183-.232-.277-.347-.149-.183-.3-.357-.453-.537q-.642-.773-1.294-1.534c-.257-.3-.514-.6-.775-.9q-.677-.772-1.367-1.529c-.171-.189-.339-.386-.513-.573-.05-.056-.1-.107-.153-.162q-1.493-1.614-3.027-3.148c-.094-.094-.186-.2-.281-.293s-.2-.192-.3-.291c-.867-.854-1.74-1.7-2.626-2.509-.011-.011-.021-.022-.033-.032-.065-.061-.133-.116-.2-.177q-1.084-.987-2.183-1.931c-.1-.085-.2-.177-.3-.262-.167-.143-.337-.275-.5-.417q-.757-.634-1.52-1.249c-.16-.128-.317-.265-.478-.393-.132-.1-.267-.2-.4-.305-.453-.354-.908-.7-1.364-1.043-.2-.153-.4-.314-.607-.465-.1-.073-.2-.14-.3-.212-.4-.295-.807-.578-1.212-.863-.243-.171-.481-.35-.725-.517-.085-.057-.17-.11-.255-.168-.382-.26-.768-.51-1.153-.763-.266-.173-.528-.355-.794-.524-.078-.05-.157-.095-.235-.144-.353-.224-.707-.436-1.061-.65-.285-.173-.569-.355-.854-.524l-.5-.29q-.793-.458-1.583-.885c-.245-.132-.488-.251-.731-.379s-.51-.266-.762-.395c-.182-.092-.365-.193-.546-.282-.48-.238-.958-.457-1.434-.676-.155-.072-.312-.151-.467-.22l-.13-.062q-1.014-.453-2.016-.854c-.081-.032-.159-.058-.239-.09-.221-.087-.438-.165-.659-.248-.382-.145-.768-.3-1.149-.431-.2-.071-.395-.127-.594-.195q-.406-.137-.81-.264c-.214-.068-.432-.146-.646-.211-.321-.1-.638-.176-.957-.265-.274-.076-.55-.156-.821-.226-.114-.03-.229-.066-.343-.1-.472-.117-.937-.211-1.4-.312-.205-.043-.413-.1-.617-.137l-.12-.026c-.666-.129-1.322-.232-1.976-.325-.1-.014-.2-.036-.3-.049l-.016,0q-1.18-.158-2.336-.238h-.029q-1.247-.086-2.465-.08l-.062,0c-.661,0-1.313.032-1.959.074l-.424.03c-.143.012-.289.017-.431.03q-.816.075-1.617.192l-.029,0c-.519.077-1.032.164-1.538.266-.109.022-.215.054-.323.076-.307.066-.61.143-.914.218-.386.094-.77.191-1.148.3-.3.088-.6.184-.9.281-.216.07-.439.13-.653.2-.121.043-.235.1-.355.145-.518.192-1.028.4-1.532.624-.233.1-.47.2-.7.305-.723.34-1.434.7-2.123,1.1l-22.847,13.278c.689-.4,1.4-.765,2.123-1.1.229-.108.466-.2.7-.305.5-.221,1.013-.432,1.532-.623.333-.124.668-.239,1.006-.349.3-.1.6-.194.9-.282.378-.11.763-.207,1.146-.3.3-.075.607-.151.915-.216.613-.13,1.229-.25,1.855-.342l.037-.006c.672-.1,1.356-.167,2.047-.222l.422-.03c.667-.043,1.34-.07,2.022-.072q1.217,0,2.465.082,1.177.079,2.38.24c.1.014.2.035.295.05.694.1,1.393.213,2.1.352.2.04.412.093.616.136.58.124,1.16.255,1.746.406.273.071.549.151.823.227.531.147,1.064.3,1.6.475.27.085.54.173.811.265q.867.292,1.744.626c.22.083.438.16.657.247q1.185.467,2.386,1.006c.155.07.31.148.465.219q.987.456,1.982.96c.252.128.506.26.758.393.769.4,1.54.816,2.317,1.265.454.263.906.542,1.358.817.351.214.7.426,1.054.646S5664.829,3941.189,5665.172,3941.415Z" transform="translate(-5623.876 -3919.051)"/><path class="c" d="M5797.634,4069.146l-.005-.026c-.011-.069-.024-.138-.036-.207-.092-.571-.189-1.143-.3-1.715-.017-.085-.037-.171-.053-.256-.053-.273-.112-.545-.167-.818-.067-.332-.13-.664-.2-1-.03-.142-.066-.285-.1-.427-.069-.306-.142-.61-.216-.916-.061-.254-.116-.509-.181-.764-.044-.185-.1-.369-.147-.554-.093-.358-.19-.717-.289-1.077-.058-.212-.11-.422-.169-.634-.056-.195-.12-.389-.178-.583q-.177-.606-.365-1.212c-.062-.2-.118-.4-.183-.605-.058-.182-.125-.362-.183-.543q-.222-.682-.459-1.362c-.073-.213-.139-.427-.215-.64-.048-.137-.1-.271-.154-.408-.24-.666-.491-1.33-.749-1.993-.072-.186-.137-.374-.211-.561-.02-.051-.043-.1-.064-.153q-.607-1.517-1.274-3.021c-.038-.085-.071-.171-.109-.258-.135-.3-.278-.6-.415-.9-.157-.341-.313-.682-.475-1.022-.2-.422-.408-.841-.615-1.26-.163-.331-.323-.66-.489-.988-.039-.075-.073-.15-.112-.225-.186-.363-.382-.723-.574-1.083-.159-.3-.317-.607-.48-.91-.253-.466-.515-.927-.776-1.388-.15-.268-.3-.537-.452-.8-.323-.559-.657-1.112-.99-1.664-.1-.164-.195-.331-.3-.494q-.657-1.068-1.341-2.116c-.127-.195-.26-.386-.388-.579-.333-.5-.668-1-1.012-1.5-.178-.257-.362-.511-.544-.767-.3-.423-.6-.847-.9-1.264-.206-.28-.416-.555-.624-.83-.29-.386-.579-.772-.874-1.151-.222-.286-.449-.565-.673-.847s-.435-.554-.657-.826c-.071-.087-.146-.171-.218-.258-.24-.292-.484-.579-.729-.867-.29-.342-.581-.685-.875-1.021-.25-.286-.5-.566-.756-.847-.2-.219-.391-.443-.589-.659-.073-.08-.149-.154-.224-.233-.711-.768-1.431-1.522-2.164-2.253-.018-.017-.034-.036-.051-.053-.112-.11-.228-.214-.34-.324q-.784-.772-1.583-1.516c-.072-.066-.143-.137-.214-.2-.186-.17-.376-.33-.563-.5-.369-.332-.738-.661-1.111-.983-.1-.089-.205-.185-.31-.273-.2-.172-.407-.333-.61-.5-.291-.242-.582-.485-.875-.721-.106-.085-.211-.176-.318-.261-.232-.184-.469-.358-.7-.539-.261-.2-.521-.4-.783-.6-.086-.064-.171-.133-.259-.2-.3-.224-.611-.435-.916-.652-.209-.148-.417-.3-.627-.447l-.144-.1q-.812-.557-1.633-1.081l-.019-.011c-.052-.034-.105-.064-.158-.1-.479-.3-.961-.6-1.445-.885l-.377-.22q-.625-.36-1.285-.717c-.059-.033-.124-.063-.183-.095-.43-.231-.871-.456-1.315-.68-.161-.081-.314-.167-.476-.247-.025-.012-.053-.024-.08-.038-.664-.327-1.339-.645-2.018-.951l-.088-.041c-.143-.064-.285-.119-.428-.181q-.755-.333-1.507-.641c-.081-.032-.164-.071-.244-.1-.181-.073-.356-.133-.537-.2-.37-.143-.735-.283-1.1-.414-.111-.04-.225-.087-.333-.126-.185-.065-.359-.116-.541-.178-.27-.091-.539-.181-.8-.263-.106-.034-.22-.074-.325-.106-.231-.07-.45-.124-.673-.187-.169-.047-.34-.1-.5-.139-.059-.016-.122-.036-.179-.05-.374-.093-.736-.175-1.083-.243l-.138-.026-20.937,14.107c.443.082,10.029,3.756,10.458,3.986.5.269,1,.541,1.467.813.611.353,1.219.724,1.823,1.105.053.034.105.063.158.1.6.384,1.2.785,1.8,1.2.209.144.415.3.622.442.395.28.788.563,1.18.854.262.2.522.4.781.6.342.263.685.529,1.023.8.292.234.581.476.872.716.309.257.619.516.924.78.372.32.74.648,1.106.978.261.235.523.467.781.708.533.493,1.06,1,1.583,1.512.129.128.261.25.391.379.731.73,1.453,1.484,2.164,2.251.273.295.543.593.813.894.254.28.506.561.756.846.294.338.586.681.876,1.024.243.287.487.573.727.863.3.359.586.725.878,1.09.222.279.448.558.668.841.3.38.587.768.877,1.155.207.275.418.548.623.827.3.417.6.841.9,1.264.181.257.366.509.545.768.345.5.682,1,1.018,1.512.127.189.256.375.38.564q.683,1.05,1.342,2.119c.1.156.188.316.282.472.34.559.678,1.119,1.005,1.686.152.263.3.531.448.8.263.463.526.927.779,1.395.164.3.32.6.481.907.229.436.462.872.686,1.312.166.326.325.655.486.983.208.42.417.842.619,1.266.161.338.314.679.473,1.019.177.385.353.771.524,1.157q.666,1.5,1.274,3.021c.095.238.182.477.275.714q.388.994.75,1.993c.126.35.249.7.369,1.048q.237.68.459,1.361c.125.384.248.767.366,1.151q.189.6.365,1.21c.12.406.235.814.347,1.22q.147.537.288,1.075.171.66.329,1.318c.074.306.147.61.216.914.108.475.206.949.3,1.423.055.273.114.546.167.819q.19.987.349,1.97c.012.068.025.138.036.207q.174,1.088.3,2.168c.025.208.047.415.069.622q.088.768.155,1.531c.022.248.041.5.059.745.037.483.065.966.089,1.446.011.234.024.468.032.7.025.685.041,1.369.04,2.046,0,.7-.021,1.382-.051,2.054-.009.188-.023.369-.035.556-.026.465-.056.925-.1,1.375-.023.26-.052.514-.079.769-.041.377-.083.752-.133,1.12-.037.273-.078.542-.122.81-.052.338-.107.672-.169,1-.055.3-.116.6-.178.89s-.129.594-.2.884c-.082.34-.169.671-.26,1-.071.259-.144.518-.22.772-.12.394-.25.774-.383,1.153-.07.2-.138.409-.213.607q-.364.959-.781,1.853-.284.6-.6,1.177c-.024.045-.046.095-.071.14-.234.426-.481.836-.736,1.237-.371.579-.767,1.123-1.18,1.646-.1.125-.2.249-.3.371-.4.48-.812.941-1.246,1.37-.035.035-.068.075-.1.108a17.85,17.85,0,0,1-1.461,1.261c-.123.1-.246.189-.371.282-.516.381,1.069.715,1.176,2.4l24.138-13.913C5803.307,4095.941,5797.736,4069.793,5797.634,4069.146Z" transform="translate(-5634.716 -3928.412)"/></g><path class="c" d="M5594.354,3938.218c-.5.053-1.036.13-1.521.224" transform="translate(-5555.84 -3921.094)"/><path class="f" d="M5721.025,4018.893c-4.351-2.513-10.115-4.973-14.019-5.7-8.025-28.553-28.125-58.555-51.77-72.206-28.974-16.729-53.448-3.008-56.221,27.939-4.709-5.819-9.872-9.506-15.358-13.374-13.909-9.807-32.23-3.811-32.23,19.751,0,22.96,13.359,40.849,31.21,51.419l136.449,78.779c21.359,12.067,40.479,5.572,40.479-19.855C5759.565,4061.112,5742.383,4031.224,5721.025,4018.893Z" transform="translate(-5551.427 -3920.622)"/></g></g></g></svg>