<svg xmlns="http://www.w3.org/2000/svg" xmlns:xlink="http://www.w3.org/1999/xlink" width="272.885" height="374.65" viewBox="0 0 272.885 374.65"><defs><style>.a{fill:#c6c6c6;}.b{fill:#a8a8a8;}.c{fill:#f4f4f4;}.d{fill:#e0e0e0;}.e{fill:#6f6f6f;}.f{fill:#262626;}.g{fill:url(#a);}.h{fill:url(#b);}.i{fill:url(#c);}.j{fill:url(#d);}.k{fill:url(#e);}.l{fill:url(#f);}.m{fill:url(#g);}.n{fill:url(#h);}.o{fill:url(#i);}.p{fill:url(#j);}.q{fill:url(#k);}.r{fill:url(#l);}.s{fill:url(#m);}.t{fill:url(#n);}.u{fill:url(#o);}.v{fill:url(#p);}.w{fill:url(#q);}.x{fill:url(#r);}.y{fill:url(#s);}.z{fill:url(#t);}.aa{fill:url(#u);}.ab{fill:url(#v);}.ac{fill:url(#w);}.ad{fill:url(#x);}.ae{fill:url(#y);}.af{fill:url(#z);}.ag{fill:url(#aa);}.ah{fill:url(#ab);}.ai{fill:url(#ac);}.aj{fill:url(#ad);}.ak{fill:url(#ae);}.al{fill:url(#af);}.am{fill:url(#ag);}.an{fill:url(#ah);}.ao{fill:url(#ai);}.ap{fill:url(#aj);}.aq{fill:url(#ak);}.ar{fill:url(#al);}.as{fill:url(#am);}.at{fill:url(#an);}.au{fill:url(#ao);}.av{fill:url(#ap);}.aw{fill:url(#aq);}.ax{fill:url(#ar);}.ay{fill:url(#as);}.az{fill:url(#at);}.ba{fill:url(#au);}.bb{fill:url(#av);}.bc{fill:url(#aw);}.bd{fill:url(#ax);}.be{fill:url(#ay);}.bf{fill:url(#az);}.bg{fill:url(#ba);}.bh{fill:url(#bb);}.bi{fill:url(#bc);}.bj{fill:url(#bd);}.bk{fill:url(#be);}.bl{fill:url(#bf);}.bm{fill:url(#bg);}.bn{fill:url(#bh);}.bo{fill:url(#bi);}.bp{fill:url(#bj);}.bq{fill:url(#bk);}.br{fill:url(#bl);}.bs{fill:url(#bm);}</style><linearGradient id="a" x1="15.96" y1="-40.17" x2="15.96" y2="-35.766" gradientUnits="objectBoundingBox"><stop offset="0" stop-color="#4589ff"/><stop offset="1" stop-color="#a6c8ff"/></linearGradient><linearGradient id="b" x1="15.52" y1="-37.497" x2="15.52" y2="-33.093" xlink:href="#a"/><linearGradient id="c" x1="55.755" y1="-86.886" x2="55.755" y2="-76.916" xlink:href="#a"/><linearGradient id="d" x1="22.005" y1="-49.875" x2="22.005" y2="-44.2" xlink:href="#a"/><linearGradient id="e" x1="56.479" y1="-89.103" x2="56.479" y2="-79.134" xlink:href="#a"/><linearGradient id="f" x1="12.601" y1="-35.758" x2="12.601" y2="-32.046" xlink:href="#a"/><linearGradient id="g" x1="14.364" y1="-40.412" x2="14.364" y2="-36.321" xlink:href="#a"/><linearGradient id="h" x1="22.238" y1="-57.295" x2="22.238" y2="-51.62" xlink:href="#a"/><linearGradient id="i" x1="13.061" y1="-37.324" x2="13.061" y2="-33.613" xlink:href="#a"/><linearGradient id="j" x1="15.783" y1="-39.29" x2="15.783" y2="-34.887" xlink:href="#a"/><linearGradient id="k" x1="55.828" y1="-88.215" x2="55.828" y2="-78.245" xlink:href="#a"/><linearGradient id="l" x1="21.754" y1="-49.37" x2="21.754" y2="-43.695" xlink:href="#a"/><linearGradient id="m" x1="55.107" y1="-85.994" x2="55.107" y2="-76.025" xlink:href="#a"/><linearGradient id="n" x1="16.157" y1="-40.665" x2="16.157" y2="-36.261" xlink:href="#a"/><linearGradient id="o" x1="57.195" y1="-91.324" x2="57.195" y2="-81.354" xlink:href="#a"/><linearGradient id="p" x1="22.283" y1="-51.141" x2="22.283" y2="-45.466" xlink:href="#a"/><linearGradient id="q" x1="22.812" y1="-53.542" x2="22.812" y2="-47.867" xlink:href="#a"/><linearGradient id="r" x1="16.069" y1="-44.673" x2="16.069" y2="-40.269" xlink:href="#a"/><linearGradient id="s" x1="56.88" y1="-100.401" x2="56.88" y2="-90.431" xlink:href="#a"/><linearGradient id="t" x1="22.689" y1="-58.707" x2="22.689" y2="-53.032" xlink:href="#a"/><linearGradient id="u" x1="15.52" y1="-38.478" x2="15.52" y2="-34.074" xlink:href="#a"/><linearGradient id="v" x1="22.839" y1="-52.25" x2="22.839" y2="-46.404" xlink:href="#a"/><linearGradient id="w" x1="15.549" y1="-39.434" x2="15.549" y2="-35.092" xlink:href="#a"/><linearGradient id="x" x1="15.783" y1="-42.753" x2="15.783" y2="-38.35" xlink:href="#a"/><linearGradient id="y" x1="55.828" y1="-96.055" x2="55.828" y2="-86.085" xlink:href="#a"/><linearGradient id="z" x1="21.754" y1="-53.833" x2="21.754" y2="-48.157" xlink:href="#a"/><linearGradient id="aa" x1="22.283" y1="-56.233" x2="22.283" y2="-50.558" xlink:href="#a"/><linearGradient id="ab" x1="55.107" y1="-93.834" x2="55.107" y2="-83.865" xlink:href="#a"/><linearGradient id="ac" x1="15.52" y1="-41.941" x2="15.52" y2="-37.537" xlink:href="#a"/><linearGradient id="ad" x1="22.839" y1="-56.847" x2="22.839" y2="-51.001" xlink:href="#a"/><linearGradient id="ae" x1="15.549" y1="-42.849" x2="15.549" y2="-38.506" xlink:href="#a"/><linearGradient id="af" x1="16.092" y1="-43.054" x2="16.092" y2="-38.65" xlink:href="#a"/><linearGradient id="ag" x1="23.681" y1="-58.324" x2="23.681" y2="-52.478" xlink:href="#a"/><linearGradient id="ah" x1="16.111" y1="-43.946" x2="16.111" y2="-39.604" xlink:href="#a"/><linearGradient id="ai" x1="20.859" y1="-49.62" x2="20.859" y2="-44.15" xlink:href="#a"/><linearGradient id="aj" x1="21.754" y1="-50.633" x2="21.754" y2="-44.958" xlink:href="#a"/><linearGradient id="ak" x1="55.107" y1="-88.214" x2="55.107" y2="-78.245" xlink:href="#a"/><linearGradient id="al" x1="21.308" y1="-51.69" x2="21.308" y2="-46.22" xlink:href="#a"/><linearGradient id="am" x1="22.228" y1="-52.781" x2="22.228" y2="-47.106" xlink:href="#a"/><linearGradient id="an" x1="56.331" y1="-91.984" x2="56.331" y2="-82.015" xlink:href="#a"/><linearGradient id="ao" x1="21.183" y1="-53.269" x2="21.183" y2="-47.799" xlink:href="#a"/><linearGradient id="ap" x1="21.633" y1="-55.339" x2="21.633" y2="-49.869" xlink:href="#a"/><linearGradient id="aq" x1="22.57" y1="-56.567" x2="22.57" y2="-50.891" xlink:href="#a"/><linearGradient id="ar" x1="57.216" y1="-98.637" x2="57.216" y2="-88.667" xlink:href="#a"/><linearGradient id="as" x1="21.508" y1="-52.006" x2="21.508" y2="-46.535" xlink:href="#a"/><linearGradient id="at" x1="22.438" y1="-53.108" x2="22.438" y2="-47.433" xlink:href="#a"/><linearGradient id="au" x1="56.876" y1="-92.562" x2="56.876" y2="-82.592" xlink:href="#a"/><linearGradient id="av" x1="15.52" y1="-40.698" x2="15.52" y2="-36.294" xlink:href="#a"/><linearGradient id="aw" x1="55.755" y1="-94.13" x2="55.755" y2="-84.16" xlink:href="#a"/><linearGradient id="ax" x1="22.005" y1="-54.001" x2="22.005" y2="-48.326" xlink:href="#a"/><linearGradient id="ay" x1="56.479" y1="-96.353" x2="56.479" y2="-86.384" xlink:href="#a"/><linearGradient id="az" x1="15.783" y1="-41.514" x2="15.783" y2="-37.111" xlink:href="#a"/><linearGradient id="ba" x1="55.828" y1="-93.247" x2="55.828" y2="-83.278" xlink:href="#a"/><linearGradient id="bb" x1="21.754" y1="-52.236" x2="21.754" y2="-46.561" xlink:href="#a"/><linearGradient id="bc" x1="22.283" y1="-54.636" x2="22.283" y2="-48.961" xlink:href="#a"/><linearGradient id="bd" x1="55.107" y1="-91.029" x2="55.107" y2="-81.06" xlink:href="#a"/><linearGradient id="be" x1="16.267" y1="-43.431" x2="16.267" y2="-39.027" xlink:href="#a"/><linearGradient id="bf" x1="57.596" y1="-97.59" x2="57.596" y2="-87.62" xlink:href="#a"/><linearGradient id="bg" x1="22.438" y1="-54.706" x2="22.438" y2="-49.031" xlink:href="#a"/><linearGradient id="bh" x1="56.88" y1="-95.366" x2="56.88" y2="-85.397" xlink:href="#a"/><linearGradient id="bi" x1="15.52" y1="-39.718" x2="15.52" y2="-35.314" xlink:href="#a"/><linearGradient id="bj" x1="22.839" y1="-53.896" x2="22.839" y2="-48.05" xlink:href="#a"/><linearGradient id="bk" x1="15.549" y1="-40.657" x2="15.549" y2="-36.314" xlink:href="#a"/><linearGradient id="bl" x1="23.487" y1="-54.496" x2="23.487" y2="-48.65" xlink:href="#a"/><linearGradient id="bm" x1="15.981" y1="-41.104" x2="15.981" y2="-36.761" xlink:href="#a"/></defs><g transform="translate(-1234.994 -5498.626)"><g transform="translate(1303.218 5781.373)"><path class="a" d="M5144,2277.074v11.249l58.471,33.759v-11.249Z" transform="translate(-5144.003 -2237.687)"/><path class="b" d="M5229.236,2301.559,5192,2323.089V2311.84l29.24-16.881v-22.506l7.993,3.165Z" transform="translate(-5133.532 -2238.695)"/><path class="c" d="M5168.006,2244.74v22.506L5226.478,2301V2278.5Z" transform="translate(-5138.766 -2244.74)"/></g><g transform="translate(1235.007 5686.257)"><path class="a" d="M5096.809,2166.658l-8.8,5.093v23.59a17.591,17.591,0,0,0,8.79,15.245l246.465,142.3a5.809,5.809,0,0,0,6-.088l8.676-4.975.013-.007.044-.026,0,0a5.809,5.809,0,0,0,2.886-5.05l-.008-24.7Z" transform="translate(-5088.007 -2166.658)"/><path class="c" d="M5088.007,2194.429a17.59,17.59,0,0,0,8.79,15.245l246.465,142.3c3.913,2.258,7.865-.565,7.865-5.082v-24.136l-263.12-151.913Z" transform="translate(-5088.007 -2165.746)"/></g><path class="d" d="M5144,2280.1l29.24-16.881,58.471,33.759-29.24,16.881Z" transform="translate(-3840.784 3540.663)"/><g transform="translate(1234.994 5498.626)"><path class="e" d="M5360.882,2171.577c0-8.124-1.719-12.218-9.753-16.894l-244.842-141.322a5.362,5.362,0,0,0-5.7.195l-9.628,5.541.015.01a5.812,5.812,0,0,0-2.974,5.1l.013,181.143,263.12,151.913,9.745-5.627Z" transform="translate(-5087.997 -2012.629)"/><path class="f" d="M5343.265,2160.4l-246.466-142.3a5.868,5.868,0,0,0-8.8,5.082l.013,181.143,263.12,151.913V2176.191C5351.129,2168.284,5348.712,2163.548,5343.265,2160.4Z" transform="translate(-5087.997 -2011.608)"/></g><path d="M5095.223,2027.2V2196l244.585,141.211V2168.415Z" transform="translate(-3851.426 3489.176)"/><g transform="translate(1268.16 5552.924)"><path class="g" d="M5213.2,2122.57l-29.38-16.962v5.1l29.38,16.962Z" transform="translate(-5100.257 -2046.643)"/><path class="h" d="M5144.6,2079.261l-29.379-16.962v-5.1l29.379,16.962Z" transform="translate(-5115.223 -2057.203)"/><path class="i" d="M5150.943,2082.922l-8.05-4.648v-5.1l8.05,4.648Z" transform="translate(-5109.186 -2053.718)"/><path class="j" d="M5173.832,2096.137l-20.82-12.021v-5.1l20.82,12.021Z" transform="translate(-5106.979 -2052.444)"/><path class="k" d="M5181.706,2100.683l-8.05-4.648v-5.1l8.05,4.648Z" transform="translate(-5102.475 -2049.844)"/><path class="l" d="M5151.735,2172.765l-36.512-21.081v-5.1l36.512,21.08Z" transform="translate(-5115.223 -2037.703)"/><path class="m" d="M5181.05,2189.69l-32.3-18.649v-5.1l32.3,18.649Z" transform="translate(-5107.909 -2033.481)"/><path class="n" d="M5199.595,2200.4l-20.82-12.021v-5.1l20.82,12.021Z" transform="translate(-5101.359 -2029.699)"/><path class="o" d="M5240.9,2206.415l-36.512-21.08v-5.1l36.512,21.08Z" transform="translate(-5095.77 -2030.362)"/><path class="p" d="M5156.146,2094.774l29.379,16.962v-5.1l-29.379-16.962Z" transform="translate(-5106.295 -2050.118)"/><path class="q" d="M5145.985,2088.907l8.05,4.648v-5.1l-8.05-4.648Z" transform="translate(-5108.512 -2051.398)"/><path class="r" d="M5125.384,2077.013l20.82,12.021v-5.1l-20.82-12.021Z" transform="translate(-5113.006 -2053.993)"/><path class="s" d="M5115.223,2071.147l8.05,4.648v-5.1l-8.05-4.648Z" transform="translate(-5115.223 -2055.273)"/><path class="t" d="M5214.579,2119.662l29.379,16.962v-5.1l-29.379-16.962Z" transform="translate(-5093.548 -2044.689)"/><path class="u" d="M5204.418,2113.8l8.05,4.648v-5.1l-8.05-4.648Z" transform="translate(-5095.765 -2045.969)"/><path class="v" d="M5183.817,2101.9l20.82,12.021v-5.1l-20.82-12.021Z" transform="translate(-5100.259 -2048.564)"/><path class="w" d="M5242.232,2135.627l20.821,12.021v-5.1l-20.821-12.021Z" transform="translate(-5087.515 -2041.206)"/><path class="x" d="M5200.927,2192.243l29.379,16.962v-5.1l-29.379-16.962Z" transform="translate(-5096.526 -2028.855)"/><path class="y" d="M5190.767,2186.377l8.05,4.647v-5.1l-8.05-4.648Z" transform="translate(-5098.743 -2030.135)"/><path class="z" d="M5228.581,2208.209l20.82,12.021v-5.1l-20.82-12.021Z" transform="translate(-5090.494 -2025.372)"/><path class="aa" d="M5144.6,2097.017l-29.379-16.962v-5.1l29.379,16.962Z" transform="translate(-5115.223 -2053.33)"/><path class="ab" d="M5162.847,2107.551l-19.954-11.521v-5.1l19.954,11.521Z" transform="translate(-5109.186 -2049.844)"/><path class="ac" d="M5192.621,2124.74l-29.92-17.274v-5.1l29.92,17.274Z" transform="translate(-5104.865 -2047.349)"/><path class="ad" d="M5156.146,2157.481l29.379,16.962v-5.1l-29.379-16.962Z" transform="translate(-5106.295 -2036.439)"/><path class="ae" d="M5145.985,2151.615l8.05,4.648v-5.1l-8.05-4.648Z" transform="translate(-5108.512 -2037.719)"/><path class="af" d="M5125.384,2139.72l20.82,12.021v-5.1l-20.82-12.021Z" transform="translate(-5113.006 -2040.313)"/><path class="ag" d="M5183.8,2173.447l20.82,12.021v-5.1l-20.82-12.021Z" transform="translate(-5100.263 -2032.956)"/><path class="ah" d="M5115.223,2133.854l8.05,4.648v-5.1l-8.05-4.648Z" transform="translate(-5115.223 -2041.593)"/><path class="ai" d="M5144.6,2159.724l-29.379-16.962v-5.1l29.379,16.962Z" transform="translate(-5115.223 -2039.65)"/><path class="aj" d="M5162.847,2170.258l-19.954-11.521v-5.1l19.954,11.521Z" transform="translate(-5109.186 -2036.165)"/><path class="ak" d="M5192.621,2187.448l-29.92-17.274v-5.1l29.92,17.274Z" transform="translate(-5104.865 -2033.67)"/><path class="al" d="M5233.792,2179.878l-29.379-16.962v-5.1l29.379,16.962Z" transform="translate(-5095.766 -2035.253)"/><path class="am" d="M5252.038,2190.412l-19.955-11.521v-5.1l19.955,11.521Z" transform="translate(-5089.729 -2031.768)"/><path class="an" d="M5281.811,2207.6l-29.919-17.274v-5.1l29.919,17.274Z" transform="translate(-5085.408 -2029.273)"/><path class="ao" d="M5145.985,2106.664l21.932,12.662v-5.1l-21.932-12.662Z" transform="translate(-5108.512 -2047.525)"/><path class="ap" d="M5125.384,2094.769l20.82,12.021v-5.1l-20.82-12.021Z" transform="translate(-5113.006 -2050.119)"/><path class="aq" d="M5115.223,2088.9l8.05,4.648v-5.1l-8.05-4.648Z" transform="translate(-5115.223 -2051.399)"/><path class="ar" d="M5198.253,2136.841l21.932,12.662v-5.1l-21.932-12.662Z" transform="translate(-5097.109 -2040.942)"/><path class="as" d="M5177.651,2124.946l20.821,12.021v-5.1l-20.821-12.021Z" transform="translate(-5101.603 -2043.536)"/><path class="at" d="M5167.49,2119.08l8.051,4.648v-5.1l-8.051-4.648Z" transform="translate(-5103.82 -2044.816)"/><path class="au" d="M5183.786,2159.852l21.932,12.662v-5.1l-21.932-12.662Z" transform="translate(-5100.265 -2035.922)"/><path class="av" d="M5236.054,2190.029l21.932,12.662v-5.1l-21.932-12.662Z" transform="translate(-5088.863 -2029.339)"/><path class="aw" d="M5215.453,2178.134l20.821,12.021v-5.1l-20.821-12.021Z" transform="translate(-5093.357 -2031.933)"/><path class="ax" d="M5205.292,2172.268l8.051,4.648v-5.1l-8.051-4.648Z" transform="translate(-5095.574 -2033.213)"/><path class="ay" d="M5221.539,2141.437l21.931,12.662V2149l-21.931-12.662Z" transform="translate(-5092.03 -2039.939)"/><path class="az" d="M5200.937,2129.542l20.82,12.021v-5.1l-20.82-12.021Z" transform="translate(-5096.524 -2042.534)"/><path class="ba" d="M5190.775,2123.676l8.051,4.648v-5.1l-8.051-4.648Z" transform="translate(-5098.74 -2043.814)"/><path class="bb" d="M5144.6,2132.133l-29.379-16.962v5.1l29.379,16.962Z" transform="translate(-5115.223 -2044.557)"/><path class="bc" d="M5150.943,2135.794l-8.05-4.648v5.1l8.05,4.648Z" transform="translate(-5109.186 -2041.072)"/><path class="bd" d="M5173.832,2149.009l-20.82-12.021v5.1l20.82,12.021Z" transform="translate(-5106.979 -2039.798)"/><path class="be" d="M5181.706,2153.555l-8.05-4.648v5.1l8.05,4.648Z" transform="translate(-5102.475 -2037.198)"/><path class="bf" d="M5156.146,2129.95l29.379,16.962v5.1l-29.379-16.962Z" transform="translate(-5106.295 -2041.333)"/><path class="bg" d="M5145.985,2124.083l8.05,4.648v5.1l-8.05-4.648Z" transform="translate(-5108.512 -2042.613)"/><path class="bh" d="M5125.384,2112.189l20.82,12.021v5.1l-20.82-12.021Z" transform="translate(-5113.006 -2045.208)"/><path class="bi" d="M5183.8,2145.915l20.82,12.021v5.1l-20.82-12.021Z" transform="translate(-5100.263 -2037.85)"/><path class="bj" d="M5115.223,2106.323l8.05,4.648v5.1l-8.05-4.648Z" transform="translate(-5115.223 -2046.487)"/><path class="bk" d="M5231.7,2164.661l29.379,16.962v5.1l-29.379-16.962Z" transform="translate(-5089.813 -2033.761)"/><path class="bl" d="M5221.536,2158.8l8.05,4.648v5.1l-8.05-4.648Z" transform="translate(-5092.03 -2035.041)"/><path class="bm" d="M5200.935,2146.9l20.82,12.021v5.1L5200.935,2152Z" transform="translate(-5096.525 -2037.635)"/><path class="bn" d="M5190.773,2141.034l8.05,4.648v5.1l-8.05-4.648Z" transform="translate(-5098.741 -2038.915)"/><path class="bo" d="M5144.6,2114.376l-29.379-16.962v5.1l29.379,16.962Z" transform="translate(-5115.223 -2048.431)"/><path class="bp" d="M5162.847,2124.91l-19.954-11.52v5.1l19.954,11.52Z" transform="translate(-5109.186 -2044.946)"/><path class="bq" d="M5192.621,2142.1l-29.92-17.274v5.1l29.92,17.274Z" transform="translate(-5104.865 -2042.451)"/><path class="br" d="M5231.449,2133.1l-19.954-11.521v5.1l19.954,11.521Z" transform="translate(-5094.221 -2043.158)"/><path class="bs" d="M5261.222,2150.293l-29.919-17.274v5.1l29.919,17.274Z" transform="translate(-5089.899 -2040.663)"/></g></g></svg>