<svg xmlns="http://www.w3.org/2000/svg" xmlns:xlink="http://www.w3.org/1999/xlink" width="960.5" height="960.5" viewBox="0 0 960.5 960.5"><defs><style>.a{fill:#0f62fe;}.b{fill:#a6c8ff;stroke:#c1c7cd;stroke-miterlimit:10;}.c{fill:#f2f4f8;}.d{fill:#13171a;opacity:0.12;}.e{fill:#9fa5ad;}.f{fill:#c6c6c6;}.g{fill:#a8a8a8;}.h{fill:#f4f4f4;}.i,.j{opacity:0.4;}.i{fill:url(#a);}.j,.k,.l{fill:#fff;}.k{opacity:0.7;}.m{fill:#171717;}.n{fill:#63a1ff;}.o{fill:#2e7eff;}.p{fill:#525252;}.ci,.q{opacity:0.8;}.r{fill:#e0e0e0;}.s{fill:#6f6f6f;}.t{fill:#262626;}.u{fill:url(#b);}.v{fill:url(#c);}.w{fill:url(#d);}.x{fill:url(#e);}.y{fill:url(#f);}.z{fill:url(#g);}.aa{fill:url(#h);}.ab{fill:url(#i);}.ac{fill:url(#j);}.ad{fill:url(#k);}.ae{fill:url(#l);}.af{fill:url(#m);}.ag{fill:url(#n);}.ah{fill:url(#o);}.ai{fill:url(#p);}.aj{fill:url(#q);}.ak{fill:url(#r);}.al{fill:url(#s);}.am{fill:url(#t);}.an{fill:url(#u);}.ao{fill:url(#v);}.ap{fill:url(#w);}.aq{fill:url(#x);}.ar{fill:url(#y);}.as{fill:url(#z);}.at{fill:url(#aa);}.au{fill:url(#ab);}.av{fill:url(#ac);}.aw{fill:url(#ad);}.ax{fill:url(#ae);}.ay{fill:url(#af);}.az{fill:url(#ag);}.ba{fill:url(#ah);}.bb{fill:url(#ai);}.bc{fill:url(#aj);}.bd{fill:url(#ak);}.be{fill:url(#al);}.bf{fill:url(#am);}.bg{fill:url(#an);}.bh{fill:url(#ao);}.bi{fill:url(#ap);}.bj{fill:url(#aq);}.bk{fill:url(#ar);}.bl{fill:url(#as);}.bm{fill:url(#at);}.bn{fill:url(#au);}.bo{fill:url(#av);}.bp{fill:url(#aw);}.bq{fill:url(#ax);}.br{fill:url(#ay);}.bs{fill:url(#az);}.bt{fill:url(#ba);}.bu{fill:url(#bb);}.bv{fill:url(#bc);}.bw{fill:url(#bd);}.bx{fill:url(#be);}.by{fill:url(#bf);}.bz{fill:url(#bg);}.ca{fill:url(#bh);}.cb{fill:url(#bi);}.cc{fill:url(#bj);}.cd{fill:url(#bk);}.ce{fill:url(#bl);}.cf{fill:url(#bm);}.cg{fill:url(#bn);}.ch{fill:#161616;}.ci{fill:url(#bo);}</style><linearGradient id="a" y1="0.5" x2="1" y2="0.5" gradientUnits="objectBoundingBox"><stop offset="0.558"/><stop offset="0.949" stop-opacity="0.275"/><stop offset="1" stop-opacity="0"/></linearGradient><linearGradient id="b" x1="15.96" y1="-40.17" x2="15.96" y2="-35.766" gradientUnits="objectBoundingBox"><stop offset="0" stop-color="#4589ff"/><stop offset="1" stop-color="#a6c8ff"/></linearGradient><linearGradient id="c" x1="15.52" y1="-37.497" x2="15.52" y2="-33.093" xlink:href="#b"/><linearGradient id="d" x1="55.755" y1="-86.886" x2="55.755" y2="-76.916" xlink:href="#b"/><linearGradient id="e" x1="22.005" y1="-49.875" x2="22.005" y2="-44.2" xlink:href="#b"/><linearGradient id="f" x1="56.479" y1="-89.103" x2="56.479" y2="-79.134" xlink:href="#b"/><linearGradient id="g" x1="12.601" y1="-35.758" x2="12.601" y2="-32.046" xlink:href="#b"/><linearGradient id="h" x1="14.364" y1="-40.412" x2="14.364" y2="-36.321" xlink:href="#b"/><linearGradient id="i" x1="22.238" y1="-57.295" x2="22.238" y2="-51.62" xlink:href="#b"/><linearGradient id="j" x1="13.061" y1="-37.324" x2="13.061" y2="-33.613" xlink:href="#b"/><linearGradient id="k" x1="15.783" y1="-39.29" x2="15.783" y2="-34.887" xlink:href="#b"/><linearGradient id="l" x1="55.828" y1="-88.215" x2="55.828" y2="-78.245" xlink:href="#b"/><linearGradient id="m" x1="21.754" y1="-49.37" x2="21.754" y2="-43.695" xlink:href="#b"/><linearGradient id="n" x1="55.107" y1="-85.994" x2="55.107" y2="-76.025" xlink:href="#b"/><linearGradient id="o" x1="16.157" y1="-40.665" x2="16.157" y2="-36.261" xlink:href="#b"/><linearGradient id="p" x1="57.195" y1="-91.324" x2="57.195" y2="-81.354" xlink:href="#b"/><linearGradient id="q" x1="22.283" y1="-51.141" x2="22.283" y2="-45.466" xlink:href="#b"/><linearGradient id="r" x1="22.812" y1="-53.542" x2="22.812" y2="-47.867" xlink:href="#b"/><linearGradient id="s" x1="16.069" y1="-44.673" x2="16.069" y2="-40.269" xlink:href="#b"/><linearGradient id="t" x1="56.88" y1="-100.401" x2="56.88" y2="-90.431" xlink:href="#b"/><linearGradient id="u" x1="22.689" y1="-58.707" x2="22.689" y2="-53.032" xlink:href="#b"/><linearGradient id="v" x1="15.52" y1="-38.478" x2="15.52" y2="-34.074" xlink:href="#b"/><linearGradient id="w" x1="22.839" y1="-52.25" x2="22.839" y2="-46.404" xlink:href="#b"/><linearGradient id="x" x1="15.549" y1="-39.434" x2="15.549" y2="-35.092" xlink:href="#b"/><linearGradient id="y" x1="15.783" y1="-42.753" x2="15.783" y2="-38.35" xlink:href="#b"/><linearGradient id="z" x1="55.828" y1="-96.055" x2="55.828" y2="-86.085" xlink:href="#b"/><linearGradient id="aa" x1="21.754" y1="-53.833" x2="21.754" y2="-48.157" xlink:href="#b"/><linearGradient id="ab" x1="22.283" y1="-56.233" x2="22.283" y2="-50.558" xlink:href="#b"/><linearGradient id="ac" x1="55.107" y1="-93.834" x2="55.107" y2="-83.865" xlink:href="#b"/><linearGradient id="ad" x1="15.52" y1="-41.941" x2="15.52" y2="-37.537" xlink:href="#b"/><linearGradient id="ae" x1="22.839" y1="-56.847" x2="22.839" y2="-51.001" xlink:href="#b"/><linearGradient id="af" x1="15.549" y1="-42.849" x2="15.549" y2="-38.506" xlink:href="#b"/><linearGradient id="ag" x1="16.092" y1="-43.054" x2="16.092" y2="-38.65" xlink:href="#b"/><linearGradient id="ah" x1="23.681" y1="-58.324" x2="23.681" y2="-52.478" xlink:href="#b"/><linearGradient id="ai" x1="16.111" y1="-43.946" x2="16.111" y2="-39.604" xlink:href="#b"/><linearGradient id="aj" x1="20.859" y1="-49.62" x2="20.859" y2="-44.15" xlink:href="#b"/><linearGradient id="ak" x1="21.754" y1="-50.633" x2="21.754" y2="-44.958" xlink:href="#b"/><linearGradient id="al" x1="55.107" y1="-88.214" x2="55.107" y2="-78.245" xlink:href="#b"/><linearGradient id="am" x1="21.308" y1="-51.69" x2="21.308" y2="-46.22" xlink:href="#b"/><linearGradient id="an" x1="22.228" y1="-52.781" x2="22.228" y2="-47.106" xlink:href="#b"/><linearGradient id="ao" x1="56.331" y1="-91.984" x2="56.331" y2="-82.015" xlink:href="#b"/><linearGradient id="ap" x1="21.183" y1="-53.269" x2="21.183" y2="-47.799" xlink:href="#b"/><linearGradient id="aq" x1="21.633" y1="-55.339" x2="21.633" y2="-49.869" xlink:href="#b"/><linearGradient id="ar" x1="22.57" y1="-56.567" x2="22.57" y2="-50.891" xlink:href="#b"/><linearGradient id="as" x1="57.216" y1="-98.637" x2="57.216" y2="-88.667" xlink:href="#b"/><linearGradient id="at" x1="21.508" y1="-52.006" x2="21.508" y2="-46.535" xlink:href="#b"/><linearGradient id="au" x1="22.438" y1="-53.108" x2="22.438" y2="-47.433" xlink:href="#b"/><linearGradient id="av" x1="56.876" y1="-92.562" x2="56.876" y2="-82.592" xlink:href="#b"/><linearGradient id="aw" x1="15.52" y1="-40.698" x2="15.52" y2="-36.294" xlink:href="#b"/><linearGradient id="ax" x1="55.755" y1="-94.13" x2="55.755" y2="-84.16" xlink:href="#b"/><linearGradient id="ay" x1="22.005" y1="-54.001" x2="22.005" y2="-48.326" xlink:href="#b"/><linearGradient id="az" x1="56.479" y1="-96.353" x2="56.479" y2="-86.384" xlink:href="#b"/><linearGradient id="ba" x1="15.783" y1="-41.514" x2="15.783" y2="-37.111" xlink:href="#b"/><linearGradient id="bb" x1="55.828" y1="-93.247" x2="55.828" y2="-83.278" xlink:href="#b"/><linearGradient id="bc" x1="21.754" y1="-52.236" x2="21.754" y2="-46.561" xlink:href="#b"/><linearGradient id="bd" x1="22.283" y1="-54.636" x2="22.283" y2="-48.961" xlink:href="#b"/><linearGradient id="be" x1="55.107" y1="-91.029" x2="55.107" y2="-81.06" xlink:href="#b"/><linearGradient id="bf" x1="16.267" y1="-43.431" x2="16.267" y2="-39.027" xlink:href="#b"/><linearGradient id="bg" x1="57.596" y1="-97.59" x2="57.596" y2="-87.62" xlink:href="#b"/><linearGradient id="bh" x1="22.438" y1="-54.706" x2="22.438" y2="-49.031" xlink:href="#b"/><linearGradient id="bi" x1="56.88" y1="-95.366" x2="56.88" y2="-85.397" xlink:href="#b"/><linearGradient id="bj" x1="15.52" y1="-39.718" x2="15.52" y2="-35.314" xlink:href="#b"/><linearGradient id="bk" x1="22.839" y1="-53.896" x2="22.839" y2="-48.05" xlink:href="#b"/><linearGradient id="bl" x1="15.549" y1="-40.657" x2="15.549" y2="-36.314" xlink:href="#b"/><linearGradient id="bm" x1="23.487" y1="-54.496" x2="23.487" y2="-48.65" xlink:href="#b"/><linearGradient id="bn" x1="15.981" y1="-41.104" x2="15.981" y2="-36.761" xlink:href="#b"/><linearGradient id="bo" x1="0.5" y1="1.237" x2="0.5" y2="0.098" gradientUnits="objectBoundingBox"><stop offset="0.001" stop-color="#0f62fe"/><stop offset="0.211" stop-color="#2c75fe" stop-opacity="0.722"/><stop offset="0.422" stop-color="#4787fe" stop-opacity="0.467"/><stop offset="0.614" stop-color="#5c96fe" stop-opacity="0.267"/><stop offset="0.78" stop-color="#6ba0fe" stop-opacity="0.122"/><stop offset="0.914" stop-color="#74a6fe" stop-opacity="0.031"/><stop offset="1" stop-color="#78a9ff" stop-opacity="0"/></linearGradient></defs><g transform="translate(0.5 -1920)"><rect class="a" width="480" height="480" transform="translate(0 1920)"/><rect class="b" width="480" height="480" transform="translate(0 2400)"/><rect class="c" width="480" height="480" transform="translate(480 2400)"/><rect width="480" height="480" transform="translate(480 1920)"/><path class="d" d="M5244,2644.542l-223.993,129.315a8,8,0,0,0,0,13.856l128.006,73.907a8,8,0,0,0,8,0L5380.006,2732.3a8,8,0,0,0,0-13.856L5252,2644.542A8,8,0,0,0,5244,2644.542Z" transform="translate(-4471.002 -7.003)"/><path class="e" d="M5380.006,2625.813,5252,2551.906a8.005,8.005,0,0,0-8,0l-223.993,129.315a7.926,7.926,0,0,0-4,6.975h0v18.519h.005a7.916,7.916,0,0,0,3.995,6.848l128.006,73.907a8,8,0,0,0,8,0l223.993-129.315a7.927,7.927,0,0,0,4-6.928v-18.486A7.927,7.927,0,0,0,5380.006,2625.813Z" transform="translate(-4471.002 -7.003)"/><path class="c" d="M5244,2551.907l-223.993,129.315a8,8,0,0,0,0,13.856l128.006,73.907a8,8,0,0,0,8,0l223.993-129.315a8,8,0,0,0,0-13.857L5252,2551.907A8,8,0,0,0,5244,2551.907Z" transform="translate(-4471.002 -7.003)"/><g transform="translate(-4471.002 -7.003)"><path class="f" d="M5144,2277.074v9.234l48,27.713v-9.234Z"/><path class="g" d="M5222.568,2296.347,5192,2314.021v-9.234l24-13.858v-18.475l6.562,2.6Z"/><path class="h" d="M5168.006,2244.74v18.475l48,27.713v-18.475Z"/></g><g transform="translate(-4471.002 -7.003)"><path class="f" d="M5095.233,2166.658l-7.226,4.181V2190.2a14.441,14.441,0,0,0,7.215,12.515l202.328,116.814a4.769,4.769,0,0,0,4.926-.072l7.122-4.084.011-.006.036-.021,0,0a4.769,4.769,0,0,0,2.369-4.146l-.006-20.274Z"/><path class="h" d="M5088.007,2190.2a14.441,14.441,0,0,0,7.215,12.515l202.328,116.814c3.212,1.854,6.456-.464,6.456-4.172v-19.814l-216-124.708Z"/></g><path class="i" d="M4544.006,2198.552l208-120.089,192,110.851-208,120.089Z" transform="translate(-4471.002 -7.003)"/><path class="j" d="M4608.007,2013.8v147.8l192,110.851v-147.8Z" transform="translate(-4471.002 -7.003)"/><path class="k" d="M4575.993,2032.279v147.8l192,110.851v-147.8Z" transform="translate(-4471.002 -7.003)"/><path class="l" d="M4544.006,2050.751v147.8l192,110.851V2161.6Z" transform="translate(-4471.002 -7.003)"/><g transform="translate(-4471.002 -7.003)"><path class="m" d="M4720.005,2274.768v2.311l-32-18.493v-2.311Z"/><path class="m" d="M4720.005,2267.838v2.311l-32-18.493v-2.311Z"/><path class="m" d="M4720.005,2260.905v2.311l-32-18.493v-2.311Z"/><path class="m" d="M4720.005,2253.986v2.311l-32-18.492v-2.312Z"/><path class="m" d="M4720.005,2247.057v2.31l-32-18.492v-2.311Z"/><path class="m" d="M4720.005,2240.112v2.311l-32-18.493v-2.311Z"/><path class="m" d="M4720.005,2233.2v2.31l-32-18.492v-2.312Z"/><path class="n" d="M4709.406,2193.975l-.1,26.044-10.692-6.161.092-25.958Z"/><path class="o" d="M4719.965,2189.3l.041,36.794-10.7-6.075.1-36.786Z"/><path class="p" d="M4698.666,2195.483l-.048,18.375-10.612-6.125V2189.3Z"/><g class="q"><path class="o" d="M4560.006,2150.248s6.757,11.929,14.588,16.4c21.577,12.314,23.7-10.448,37.726-2.762,13.308,7.291,14.991,24.11,26.076,30.51,10.8,6.236,16.213-5.927,26.166-18.681,4.012-5.142,7.463,4.661,7.463,4.661v73.609l-112.1-64.718Z"/><path class="n" d="M4560,2157.124s11.135,16.729,18.966,21.25c14.588,8.422,25.866-2,37.007,4.437,11.278,6.511,15.91,22.1,27,28.5,6.521,3.765,15.134-8.3,20.121-10.953,4.727-2.516,8.861,4.684,8.861,4.684l.07,48.939-112.1-64.718Z"/><path class="p" d="M4560.006,2170s11.19-16.2,19.284-8.915c13.77,12.394,25.478,41.2,36.619,47.628,11.278,6.511,23.27-13.448,34.355-7.048,11.334,6.544,21.761,26.768,21.761,26.768v25.551l-112.1-64.718Z"/></g></g><path class="r" d="M5144,2277.074l24-13.858,48,27.713-24,13.858Z" transform="translate(-4471.002 -7.003)"/><g transform="translate(-4471.002 -7.003)"><path class="s" d="M5312.012,2143.112c0-6.669-1.411-10.03-8.006-13.868L5103.011,2013.23a4.4,4.4,0,0,0-4.681.16l-7.9,4.549.012.008a4.771,4.771,0,0,0-2.442,4.189l.011,148.7,216,124.708,8-4.619Z"/><path class="t" d="M5297.55,2134.778l-202.328-116.814a4.817,4.817,0,0,0-7.226,4.172l.011,148.7,216,124.708V2147.738C5304.006,2141.247,5302.022,2137.359,5297.55,2134.778Z"/></g><path d="M5095.222,2027.2v138.565l200.784,115.922V2143.126Z" transform="translate(-4471.002 -7.003)"/><g transform="translate(-4471.002 -7.003)"><path class="u" d="M5207.942,2119.532l-24.118-13.925v4.183l24.118,13.925Z"/><path class="v" d="M5139.34,2075.311l-24.118-13.925V2057.2l24.118,13.925Z"/><path class="w" d="M5149.5,2081.177l-6.609-3.815v-4.183l6.609,3.816Z"/><path class="x" d="M5170.1,2093.071l-17.092-9.868v-4.183l17.092,9.868Z"/><path class="y" d="M5180.264,2098.938l-6.608-3.816v-4.183l6.608,3.816Z"/><path class="z" d="M5145.2,2168.077l-29.974-17.305v-4.183l29.974,17.305Z"/><path class="aa" d="M5175.264,2185.437l-26.517-15.309v-4.183l26.517,15.309Z"/><path class="ab" d="M5195.866,2197.332l-17.092-9.868v-4.183l17.092,9.868Z"/><path class="ac" d="M5234.363,2201.727l-29.973-17.3v-4.183l29.973,17.305Z"/><path class="ad" d="M5156.146,2093.861l24.118,13.925V2103.6l-24.118-13.925Z"/><path class="ae" d="M5145.985,2087.995l6.609,3.815v-4.183l-6.609-3.815Z"/><path class="af" d="M5125.383,2076.1l17.092,9.868v-4.183l-17.092-9.868Z"/><path class="ag" d="M5115.222,2070.234l6.609,3.815v-4.183l-6.609-3.815Z"/><path class="ah" d="M5214.579,2118.749l24.118,13.925v-4.183l-24.118-13.925Z"/><path class="ai" d="M5204.417,2112.883l6.609,3.816v-4.183l-6.609-3.816Z"/><path class="aj" d="M5183.816,2100.989l17.092,9.868v-4.183l-17.092-9.868Z"/><path class="ak" d="M5242.232,2134.715l17.092,9.868V2140.4l-17.092-9.868Z"/><path class="al" d="M5200.927,2191.331l24.118,13.925v-4.183l-24.118-13.925Z"/><path class="am" d="M5190.766,2185.464l6.608,3.815V2185.1l-6.608-3.816Z"/><path class="an" d="M5228.58,2207.3l17.092,9.868v-4.183l-17.092-9.868Z"/><path class="ao" d="M5139.34,2093.067l-24.118-13.924v-4.183l24.118,13.925Z"/><path class="ap" d="M5159.273,2104.575l-16.381-9.457v-4.183l16.381,9.457Z"/><path class="aq" d="M5187.262,2120.734l-24.562-14.18v-4.183l24.562,14.18Z"/><path class="ar" d="M5156.146,2156.568l24.118,13.925v-4.183l-24.118-13.925Z"/><path class="as" d="M5145.985,2150.7l6.609,3.815v-4.183l-6.609-3.816Z"/><path class="at" d="M5125.383,2138.808l17.092,9.868v-4.183l-17.092-9.868Z"/><path class="au" d="M5183.8,2172.534l17.092,9.868v-4.183l-17.092-9.868Z"/><path class="av" d="M5115.222,2132.941l6.609,3.815v-4.183l-6.609-3.815Z"/><path class="aw" d="M5139.34,2155.774l-24.118-13.925v-4.183l24.118,13.925Z"/><path class="ax" d="M5159.273,2167.282l-16.381-9.457v-4.183l16.381,9.458Z"/><path class="ay" d="M5187.262,2183.441l-24.562-14.18v-4.183l24.562,14.18Z"/><path class="az" d="M5228.531,2175.928,5204.413,2162v-4.183l24.118,13.925Z"/><path class="ba" d="M5248.464,2187.436l-16.381-9.458V2173.8l16.381,9.458Z"/><path class="bb" d="M5276.453,2203.6l-24.562-14.18v-4.183l24.562,14.18Z"/><path class="bc" d="M5145.985,2105.751l18,10.395v-4.183l-18-10.395Z"/><path class="bd" d="M5125.383,2093.857l17.092,9.868v-4.183l-17.092-9.868Z"/><path class="be" d="M5115.222,2087.99l6.609,3.815v-4.183l-6.609-3.815Z"/><path class="bf" d="M5198.253,2135.928l18,10.395v-4.183l-18-10.395Z"/><path class="bg" d="M5177.651,2124.034l17.092,9.868v-4.183l-17.092-9.868Z"/><path class="bh" d="M5167.49,2118.167l6.609,3.816V2117.8l-6.609-3.816Z"/><path class="bi" d="M5183.786,2158.939l18,10.395v-4.183l-18-10.395Z"/><path class="bj" d="M5236.054,2189.116l18,10.395v-4.183l-18-10.395Z"/><path class="bk" d="M5215.453,2177.222l17.092,9.868v-4.183l-17.092-9.868Z"/><path class="bl" d="M5205.292,2171.355l6.609,3.815v-4.183l-6.609-3.815Z"/><path class="bm" d="M5221.538,2140.524l18,10.395v-4.183l-18-10.395Z"/><path class="bn" d="M5200.936,2128.63l17.092,9.868v-4.183l-17.092-9.868Z"/><path class="bo" d="M5190.775,2122.763l6.609,3.815V2122.4l-6.609-3.815Z"/><path class="bp" d="M5139.34,2129.1l-24.118-13.925v4.183l24.118,13.925Z"/><path class="bq" d="M5149.5,2134.962l-6.609-3.816v4.183l6.609,3.816Z"/><path class="br" d="M5170.1,2146.856l-17.092-9.868v4.183l17.092,9.868Z"/><path class="bs" d="M5180.264,2152.722l-6.608-3.815v4.183l6.608,3.816Z"/><path class="bt" d="M5156.146,2129.95l24.118,13.925v4.183l-24.118-13.925Z"/><path class="bu" d="M5145.985,2124.083l6.609,3.816v4.183l-6.609-3.816Z"/><path class="bv" d="M5125.383,2112.189l17.092,9.868v4.183l-17.092-9.868Z"/><path class="bw" d="M5183.8,2145.915l17.092,9.868v4.183L5183.8,2150.1Z"/><path class="bx" d="M5115.222,2106.323l6.609,3.816v4.183l-6.609-3.815Z"/><path class="by" d="M5231.7,2164.661l24.118,13.925v4.183l-24.118-13.925Z"/><path class="bz" d="M5221.536,2158.795l6.609,3.815v4.183l-6.609-3.816Z"/><path class="ca" d="M5200.934,2146.9l17.092,9.868v4.183l-17.092-9.868Z"/><path class="cb" d="M5190.773,2141.034l6.608,3.816v4.183l-6.608-3.816Z"/><path class="cc" d="M5139.34,2111.339l-24.118-13.924v4.183l24.118,13.925Z"/><path class="cd" d="M5159.273,2122.847l-16.381-9.457v4.183l16.381,9.457Z"/><path class="ce" d="M5187.262,2139.007l-24.562-14.18v4.183l24.562,14.18Z"/><path class="cf" d="M5227.875,2131.04l-16.38-9.458v4.183l16.38,9.458Z"/><path class="cg" d="M5255.864,2147.2l-24.561-14.18v4.183l24.561,14.18Z"/></g><g transform="translate(-4471.002 -7.003)"><path class="t" d="M4696.066,2489.768,4631.907,2453c-22.037-12.723-39.9-2.409-39.9,23.037v72.4l22.8-13.165,81.258,46.865c22.037,12.723,39.9,2.406,39.9-23.04S4718.1,2502.491,4696.066,2489.768Z"/></g><g transform="translate(-4471.002 -7.003)"><path class="a" d="M4696.066,2655.681l-64.159-36.763c-22.037-12.723-39.9-2.409-39.9,23.037v72.4l22.8-13.165,81.258,46.865c22.037,12.723,39.9,2.406,39.9-23.041S4718.1,2668.4,4696.066,2655.681Z"/></g><g transform="translate(-4471.002 -7.003)"><path class="l" d="M4836.138,2644.319l-64.929-37.378c-21.824-12.6-39.516-2.385-39.516,22.815s17.661,56.938,39.485,69.538l81.9,47.221,22.581,38.005v-71.757C4875.655,2687.563,4857.963,2656.919,4836.138,2644.319Z"/></g><path class="t" d="M5046.007,2691.614l104.006,60.05a4,4,0,0,0,4,0l199.993-115.458a4,4,0,0,0,0-6.928L5250,2569.227a4,4,0,0,0-4,0l-199.993,115.459A4,4,0,0,0,5046.007,2691.614Z" transform="translate(-4471.002 -7.003)"/><g transform="translate(-4471.002 -7.003)"><path class="ch" d="M5263.364,2602.008l-18.523-10.694c-5.817-3.359-15.976-2.937-22.692.94l0,0v0l-18.646,10.755,14,.6,21.544,12.438c5.816,3.358,15.976,2.937,22.692-.941S5269.18,2605.366,5263.364,2602.008Z"/><path class="ch" d="M5268.525,2642.4l18.523,10.694c5.816,3.358,5.087,9.224-1.63,13.1l0,0h0l-18.629,10.765-1.045-8.082-21.544-12.438c-5.816-3.358-5.087-9.224,1.63-13.1S5262.709,2639.043,5268.525,2642.4Z"/><path class="ch" d="M5206.648,2634.753l-18.523-10.695c-5.816-3.358-15.976-2.936-22.692.941l0,0v0l-18.646,10.755,14,.6,21.544,12.439c5.816,3.358,15.976,2.937,22.692-.941S5212.464,2638.111,5206.648,2634.753Z"/><path class="ch" d="M5211.809,2675.146l18.523,10.694c5.816,3.358,5.087,9.224-1.629,13.1l0,0h0l-18.629,10.766-1.045-8.082-21.544-12.438c-5.816-3.358-5.086-9.224,1.63-13.1S5205.993,2671.788,5211.809,2675.146Z"/><path class="ch" d="M5149.932,2667.5l-18.523-10.7c-5.816-3.358-15.976-2.937-22.692.941l0,0v0l-18.646,10.755,14,.6,21.544,12.439c5.816,3.358,15.976,2.937,22.692-.941S5155.748,2670.856,5149.932,2667.5Z"/><path class="ch" d="M5155.093,2707.891l18.523,10.694c5.817,3.358,5.087,9.224-1.629,13.1l0,0h0l-18.629,10.766-1.045-8.082-21.543-12.439c-5.817-3.357-5.087-9.223,1.629-13.1S5149.277,2704.533,5155.093,2707.891Z"/></g><g transform="translate(-4471.002 -7.003)"><path class="a" d="M5263.364,2557.134l-18.523-10.694c-5.817-3.359-15.976-2.937-22.692.94l0,0v0l-18.646,10.755,14,.6,21.544,12.438c5.816,3.358,15.976,2.937,22.692-.941S5269.18,2560.492,5263.364,2557.134Z"/><path class="l" d="M5268.525,2597.527l18.523,10.694c5.816,3.358,5.087,9.224-1.63,13.1l0,0h0l-18.629,10.765-1.045-8.082-21.544-12.438c-5.816-3.358-5.087-9.224,1.63-13.1S5262.709,2594.169,5268.525,2597.527Z"/><path class="a" d="M5206.648,2589.879l-18.523-10.694c-5.816-3.359-15.976-2.937-22.692.94l0,0v0l-18.646,10.755,14,.6,21.544,12.439c5.816,3.358,15.976,2.937,22.692-.941S5212.464,2593.237,5206.648,2589.879Z"/><path class="l" d="M5211.809,2630.272l18.523,10.694c5.816,3.358,5.087,9.224-1.629,13.1l0,0h0l-18.629,10.766-1.045-8.082-21.544-12.438c-5.816-3.358-5.086-9.224,1.63-13.1S5205.993,2626.914,5211.809,2630.272Z"/><path class="a" d="M5149.932,2622.624l-18.523-10.7c-5.816-3.358-15.976-2.936-22.692.941l0,0v0l-18.646,10.755,14,.6,21.544,12.439c5.816,3.358,15.976,2.937,22.692-.941S5155.748,2625.982,5149.932,2622.624Z"/><path class="l" d="M5155.093,2663.017l18.523,10.694c5.817,3.358,5.087,9.224-1.629,13.1l0,0h0l-18.629,10.766-1.045-8.082-21.543-12.438c-5.817-3.358-5.087-9.224,1.629-13.1S5149.277,2659.659,5155.093,2663.017Z"/></g><path class="ci" d="M5046.007,2691.614l104.006,60.05a4,4,0,0,0,4,0l199.993-115.458a3.966,3.966,0,0,0,2-3.462c0-1.348,36-184.776,36-184.776h-384s36,238.835,36,240.182A3.961,3.961,0,0,0,5046.007,2691.614Z" transform="translate(-4471.002 -7.003)"/></g></svg>