<svg xmlns="http://www.w3.org/2000/svg" xmlns:xlink="http://www.w3.org/1999/xlink" width="952" height="817" viewBox="0 0 952 817"><defs><style>.a{fill:#fff;}.b{clip-path:url(#a);}.c{fill:rgba(255,255,255,0.24);}.d{fill:#60a4ff;}.e{fill:#2589ff;}.f{fill:#0092ee;}.g{fill:url(#b);}.h{fill:url(#c);}</style><clipPath id="a"><rect class="a" width="952" height="817" transform="translate(968 199)"/></clipPath><linearGradient id="b" y1="0.5" x2="1" y2="0.5" gradientUnits="objectBoundingBox"><stop offset="0" stop-color="#8cc0ff"/><stop offset="0.542" stop-color="#418bff"/><stop offset="1" stop-color="#0f61fd"/></linearGradient><linearGradient id="c" y1="0.5" x2="1" y2="0.5" gradientUnits="objectBoundingBox"><stop offset="0" stop-color="#8cc0ff"/><stop offset="0.542" stop-color="#418bff"/><stop offset="1" stop-color="#005cff"/></linearGradient></defs><g class="b" transform="translate(-968 -199)"><g transform="translate(60.09 -6.588)"><g transform="translate(1517.687 338.22)"><path class="c" d="M5552.009,4149l50.134-28.777,184.264,106.522-50.134,28.776Z" transform="translate(-5551.4 -3909.72)"/><g transform="translate(0)"><path class="d" d="M5747.467,4032.153c-5.03-2.9-11.692-5.747-16.2-6.591-9.277-33-32.511-67.682-59.843-83.462-33.49-19.335-61.081-2.622-64.285,33.15a68.43,68.43,0,0,0-18.453-16.312c-20.635-11.913-37.255.119-37.255,22.71,0,29.1,16.386,48,37.021,60.218l158.731,91.643c24.688,13.95,44.754,4.173,44.835-24.194S5772.154,4046.406,5747.467,4032.153Z" transform="translate(-5551.427 -3918.359)"/><path class="e" d="M5592.96,3961.841c.091.064.184.127.272.194.713.522,1.416,1.068,2.115,1.629.209.168.416.341.624.513q.76.627,1.5,1.28c.257.225.514.449.768.678.441.4.876.807,1.31,1.218.308.293.617.582.924.882.337.331.669.675,1,1.014.455.465.91.929,1.356,1.407.259.28.515.565.771.849q1.162,1.282,2.28,2.623c.26.312.526.614.782.93l26.759-15.551q-.2-.243-.395-.484c-.125-.153-.261-.293-.387-.445q-1.119-1.342-2.279-2.622c-.144-.157-.276-.326-.421-.483-.114-.126-.237-.243-.354-.368-.446-.479-.9-.942-1.354-1.406-.234-.24-.463-.493-.7-.728-.1-.1-.2-.19-.3-.288-.306-.3-.616-.589-.924-.881-.289-.274-.572-.557-.864-.825-.146-.134-.3-.26-.445-.393-.254-.229-.51-.453-.767-.677-.229-.2-.456-.41-.687-.608-.271-.23-.547-.448-.819-.673-.207-.17-.412-.344-.623-.512-.11-.089-.22-.184-.331-.273q-.836-.661-1.685-1.287c-.032-.024-.067-.046-.1-.071-.088-.065-.179-.127-.268-.192-.417-.3-.833-.6-1.254-.892-.235-.161-.474-.312-.71-.47-.163-.107-.323-.216-.487-.321-.129-.084-.256-.173-.386-.256q-.772-.491-1.552-.95l-.358-.208c-.4-.23-.793-.451-1.186-.664-.149-.081-.295-.152-.442-.229-.2-.108-.407-.212-.61-.316-.159-.081-.318-.168-.477-.247-.245-.121-.487-.229-.73-.344-.183-.087-.367-.176-.549-.259-.076-.034-.152-.074-.228-.107-.467-.209-.93-.4-1.392-.59l-.088-.037-.009,0q-.754-.3-1.5-.564c-.062-.021-.12-.038-.181-.059-.174-.061-.349-.114-.522-.172-.261-.086-.523-.178-.782-.255-.121-.037-.239-.065-.359-.1-.219-.064-.436-.122-.652-.18-.173-.046-.348-.1-.519-.144s-.337-.073-.506-.112q-.33-.077-.655-.146c-.119-.024-.24-.055-.357-.08-.2-.039-.4-.062-.594-.1-.25-.043-.5-.088-.749-.124-.09-.013-.186-.033-.276-.045-.2-.029-.4-.04-.606-.062-.265-.029-.53-.06-.794-.081-.079-.007-.161-.019-.24-.024-.177-.013-.348-.01-.525-.018-.317-.014-.632-.029-.944-.031-.091,0-.183-.009-.271-.008-.135,0-.265.016-.4.019q-.584.012-1.159.055c-.116.008-.237.005-.354.017-.086.007-.165.027-.25.036-.588.062-1.215.151-1.781.261-.046.009-32.824,18.958-32.824,18.958.449-.262,1.74-.975,2.211-1.2.155-.072,20,.194,20.548.441.183.083.366.173.548.259q.6.284,1.209.591.3.156.609.316c.54.285,1.082.577,1.628.892.771.446,1.536.922,2.3,1.414.162.106.324.214.486.322C5591.657,3960.919,5592.312,3961.37,5592.96,3961.841Z" transform="translate(-5550.962 -3918.168)"/><path class="f" d="M5672.1,3945.291c.449.294.9.586,1.348.891.384.262.766.535,1.149.8.472.333.945.666,1.416,1.008.357.261.711.53,1.066.8.534.4,1.066.8,1.6,1.22.341.268.682.541,1.024.815q.9.72,1.782,1.465c.313.263.625.525.938.793q1.287,1.107,2.557,2.262c.09.082.182.161.271.243,1.037.954,2.06,1.937,3.074,2.938q.346.343.691.688,1.794,1.8,3.542,3.685c.263.284.521.574.783.862.537.592,1.071,1.188,1.6,1.792q.453.518.9,1.044.765.891,1.52,1.8c.285.343.569.685.851,1.03q.962,1.183,1.906,2.392c.17.217.343.429.51.647q1.181,1.529,2.331,3.1c.2.27.389.543.584.814q.857,1.186,1.7,2.39c.253.362.5.727.751,1.092q.771,1.129,1.524,2.273c.231.351.464.7.693,1.055q.943,1.458,1.859,2.938c.079.128.162.255.241.385q1.026,1.674,2.013,3.374c.192.332.379.666.569,1q.7,1.228,1.385,2.465.325.589.644,1.182.664,1.23,1.306,2.47c.18.347.363.693.54,1.041q.91,1.787,1.777,3.589c.089.184.173.371.26.555q.732,1.541,1.429,3.093c.215.477.426.956.637,1.435q.33.756.655,1.512c.221.518.436,1.037.651,1.556s.418,1.016.623,1.524c.146.361.285.722.426,1.083.606,1.543,1.193,3.088,1.743,4.635.029.084.058.168.086.253.458,1.295.891,2.59,1.308,3.885q.176.544.348,1.087.5,1.585.953,3.167c.08.28.167.559.245.837l26.759-15.55c-.03-.109-.06-.218-.092-.327-.048-.17-.1-.341-.154-.511q-.455-1.581-.953-3.167c-.056-.181-.1-.361-.164-.541s-.124-.364-.184-.546c-.417-1.294-.849-2.588-1.307-3.883-.026-.07-.046-.139-.072-.209l-.018-.047c-.549-1.545-1.135-3.09-1.741-4.632-.066-.17-.125-.342-.193-.512-.077-.192-.158-.382-.234-.573q-.306-.762-.623-1.522-.321-.78-.65-1.558c-.215-.5-.436-1.009-.655-1.512-.142-.32-.276-.642-.418-.962-.07-.158-.147-.315-.219-.473q-.7-1.551-1.428-3.092c-.088-.186-.171-.371-.259-.555q-.865-1.8-1.778-3.589c-.051-.1-.1-.2-.15-.305-.126-.246-.262-.489-.39-.734q-.643-1.242-1.306-2.472-.319-.593-.644-1.182-.681-1.239-1.385-2.464c-.189-.333-.376-.667-.569-1-.66-1.132-1.328-2.258-2.014-3.375-.079-.128-.162-.255-.241-.384q-.915-1.481-1.859-2.939c-.229-.353-.461-.7-.692-1.054q-.752-1.145-1.523-2.274-.374-.548-.751-1.092-.837-1.2-1.7-2.389c-.2-.271-.389-.545-.586-.814q-1.148-1.566-2.329-3.1c-.169-.218-.341-.43-.511-.646q-.941-1.207-1.9-2.389c-.109-.134-.214-.273-.324-.407-.175-.212-.355-.417-.531-.628q-.753-.906-1.514-1.795-.453-.527-.908-1.048-.794-.907-1.6-1.792c-.2-.222-.4-.452-.6-.672-.059-.064-.121-.124-.181-.188q-1.745-1.891-3.544-3.686c-.11-.112-.218-.232-.329-.344s-.24-.224-.358-.34c-1.016-1-2.038-1.986-3.075-2.939-.013-.012-.025-.025-.039-.038-.078-.07-.156-.136-.233-.207q-1.269-1.155-2.557-2.261c-.116-.1-.23-.207-.346-.306-.2-.167-.4-.323-.592-.487q-.885-.744-1.78-1.463c-.187-.151-.371-.312-.559-.461-.155-.122-.312-.235-.467-.356-.53-.416-1.064-.821-1.6-1.223-.238-.179-.473-.368-.711-.544-.116-.086-.235-.164-.351-.249-.471-.344-.945-.678-1.42-1.011-.284-.2-.564-.409-.85-.6-.1-.068-.2-.129-.3-.2-.449-.306-.9-.6-1.352-.893-.311-.2-.619-.417-.929-.616-.093-.057-.185-.111-.276-.168-.413-.261-.828-.509-1.243-.761-.333-.2-.665-.417-1-.613-.195-.115-.39-.228-.585-.341q-.929-.537-1.853-1.036c-.287-.156-.571-.294-.857-.445s-.6-.312-.893-.463c-.213-.107-.427-.226-.638-.33-.563-.279-1.122-.534-1.68-.791-.182-.084-.365-.176-.546-.258-.051-.023-.1-.05-.153-.072q-1.187-.532-2.361-1c-.094-.038-.186-.068-.279-.1-.259-.1-.516-.193-.772-.29-.449-.171-.9-.35-1.346-.507-.233-.081-.463-.148-.7-.227-.316-.108-.632-.21-.947-.311-.253-.08-.506-.171-.757-.247-.376-.114-.746-.205-1.12-.309-.321-.089-.644-.183-.962-.266-.133-.033-.269-.077-.4-.11-.553-.138-1.1-.249-1.645-.365-.24-.051-.483-.113-.721-.16-.047-.009-.095-.023-.142-.031-.778-.152-1.548-.272-2.314-.381-.115-.016-.233-.042-.348-.058l-.018,0q-1.383-.184-2.736-.279h-.033q-1.463-.1-2.888-.1c-.025,0-.049,0-.073,0-.774,0-1.538.038-2.295.087-.167.011-.332.022-.5.036s-.337.019-.5.035q-.958.087-1.894.225l-.035.006q-.91.133-1.8.311c-.129.026-.251.063-.379.09-.361.077-.715.166-1.069.253-.453.111-.9.226-1.346.354-.354.1-.7.215-1.051.33-.253.083-.514.151-.764.24-.142.05-.274.117-.416.168-.607.225-1.2.472-1.794.731-.274.119-.552.23-.821.356-.847.4-1.679.825-2.486,1.294l-26.759,15.55c.808-.469,1.641-.895,2.486-1.294.27-.126.547-.238.821-.357.591-.259,1.187-.505,1.794-.731q.584-.215,1.179-.409c.349-.114.7-.227,1.052-.33.442-.129.891-.243,1.342-.354.356-.088.71-.178,1.072-.254.716-.151,1.438-.291,2.172-.4l.043-.007c.789-.114,1.589-.2,2.4-.26.166-.013.331-.023.5-.034.78-.051,1.567-.084,2.365-.086q1.427,0,2.889.1,1.378.094,2.788.284c.113.014.231.04.345.057.813.116,1.629.249,2.457.412.239.047.482.109.723.161.678.145,1.358.3,2.044.475.32.082.642.176.963.265.623.173,1.248.356,1.876.556.316.1.632.2.95.311.677.228,1.358.475,2.042.734.256.1.511.188.77.289.924.366,1.855.755,2.793,1.178.181.083.365.174.546.258q1.156.532,2.321,1.124c.295.15.592.3.888.459.9.473,1.8.958,2.712,1.482.533.308,1.062.636,1.592.958.412.25.825.5,1.234.755S5671.7,3945.027,5672.1,3945.291Z" transform="translate(-5548.073 -3919.049)"/><g transform="translate(75.809)"><path class="f" d="M5809.973,4079.809l-.006-.031c-.013-.081-.028-.161-.042-.242-.108-.668-.222-1.338-.347-2.009-.02-.1-.043-.2-.062-.3-.062-.32-.13-.638-.2-.958-.078-.388-.152-.777-.238-1.166-.036-.167-.079-.334-.117-.5-.082-.358-.167-.715-.253-1.072-.071-.3-.135-.6-.211-.895-.053-.217-.117-.432-.172-.649-.11-.419-.224-.84-.338-1.261-.068-.248-.129-.494-.2-.743-.065-.228-.14-.455-.208-.683q-.207-.71-.428-1.42c-.073-.236-.138-.473-.213-.709-.068-.213-.146-.424-.215-.636q-.26-.8-.538-1.6c-.086-.25-.163-.5-.252-.75-.056-.16-.123-.318-.18-.478-.281-.78-.576-1.557-.878-2.334-.084-.219-.16-.438-.248-.657-.023-.061-.051-.119-.075-.18q-.711-1.777-1.493-3.538c-.044-.1-.083-.2-.128-.3-.157-.352-.325-.7-.485-1.05-.185-.4-.367-.8-.556-1.2-.234-.494-.478-.984-.721-1.476-.19-.387-.378-.772-.572-1.157-.046-.088-.086-.176-.131-.264-.218-.425-.448-.846-.672-1.269-.187-.355-.371-.711-.562-1.065-.3-.545-.6-1.085-.91-1.626-.176-.313-.348-.629-.529-.941-.378-.655-.769-1.3-1.16-1.948-.117-.191-.229-.387-.347-.578q-.769-1.25-1.57-2.479c-.149-.228-.3-.451-.455-.677-.391-.589-.783-1.177-1.185-1.757-.209-.3-.425-.6-.638-.9-.351-.5-.7-.992-1.06-1.481-.24-.327-.487-.648-.731-.972-.339-.452-.678-.9-1.023-1.349-.259-.334-.525-.662-.789-.992s-.509-.649-.77-.967c-.083-.1-.169-.2-.254-.3-.281-.342-.568-.677-.854-1.015-.34-.4-.68-.8-1.024-1.2-.293-.335-.589-.663-.885-.991-.232-.257-.458-.52-.69-.772-.085-.094-.176-.18-.262-.272-.833-.9-1.676-1.783-2.535-2.639-.021-.02-.04-.042-.06-.062-.131-.129-.266-.25-.4-.379q-.919-.9-1.855-1.775c-.084-.078-.166-.161-.25-.24-.218-.2-.442-.387-.66-.583-.433-.388-.865-.774-1.3-1.151-.121-.1-.24-.216-.363-.32-.236-.2-.477-.39-.715-.588-.342-.284-.681-.567-1.025-.843-.125-.1-.247-.206-.372-.306-.273-.216-.55-.419-.825-.631-.305-.236-.61-.473-.917-.7-.1-.075-.2-.156-.3-.231-.355-.263-.716-.51-1.073-.764-.245-.174-.488-.353-.735-.523l-.167-.119q-.952-.653-1.914-1.266l-.022-.012c-.062-.04-.124-.076-.185-.115-.561-.354-1.125-.7-1.693-1.037l-.441-.257q-.732-.423-1.505-.84c-.068-.038-.144-.073-.213-.111-.5-.27-1.02-.533-1.54-.8-.189-.1-.368-.195-.559-.289-.029-.014-.062-.028-.093-.044-.777-.383-1.569-.755-2.363-1.113l-.1-.048c-.167-.076-.333-.14-.5-.212q-.884-.39-1.765-.75c-.095-.038-.191-.083-.286-.12-.212-.086-.417-.156-.628-.238-.434-.167-.861-.331-1.286-.484-.129-.047-.263-.1-.39-.147-.217-.076-.421-.136-.634-.208-.316-.106-.631-.211-.94-.309-.125-.039-.257-.087-.38-.124-.271-.082-.527-.146-.79-.219-.2-.056-.4-.114-.589-.163-.069-.019-.143-.042-.21-.059-.437-.11-.861-.205-1.268-.284l-.162-.031-24.521,16.522c.519.1,11.746,4.4,12.248,4.668.587.315,1.167.633,1.718.952.716.413,1.427.847,2.135,1.294l.185.113c.707.449,1.408.918,2.1,1.4.244.168.485.346.728.518.462.327.923.658,1.381,1,.307.229.611.466.916.7.4.309.8.62,1.2.938.342.274.681.557,1.021.838.362.3.725.6,1.083.914.434.375.866.759,1.295,1.145.305.275.613.547.915.829.624.578,1.241,1.17,1.854,1.771.151.149.307.293.458.445.858.855,1.7,1.738,2.534,2.637.32.345.637.695.953,1.046.3.329.592.657.885.991.346.4.687.8,1.026,1.2.285.336.57.671.851,1.011.347.42.688.849,1.029,1.277.261.327.525.653.783.985.346.446.687.9,1.027,1.353.243.322.49.642.729.969.357.488.707.986,1.059,1.48.212.3.429.6.638.9.4.584.8,1.177,1.192,1.771.148.222.3.438.445.661q.8,1.229,1.573,2.481c.113.183.219.371.33.553.4.654.793,1.31,1.177,1.974.179.308.35.622.524.932.308.543.616,1.085.913,1.634.192.351.375.708.563,1.062.269.511.542,1.021.8,1.537.194.382.38.767.57,1.151.244.493.489.987.724,1.483.188.4.369.795.554,1.193.207.451.413.9.614,1.355q.78,1.761,1.493,3.538c.111.279.213.558.322.836q.454,1.165.878,2.335c.148.409.292.817.432,1.228q.278.8.539,1.594c.146.449.29.9.428,1.348.147.472.289.946.427,1.417s.275.953.406,1.429q.173.629.337,1.259.2.772.385,1.544c.086.357.172.714.253,1.07.126.556.242,1.111.356,1.667.064.32.134.64.2.959q.223,1.156.409,2.307c.015.08.03.162.042.242q.2,1.273.355,2.539c.03.244.055.486.082.729.068.6.13,1.2.181,1.794.026.29.048.581.07.872.042.566.076,1.131.1,1.694.012.274.028.549.037.821.03.8.049,1.6.046,2.4,0,.818-.024,1.618-.059,2.406-.01.22-.028.432-.041.651-.031.544-.066,1.083-.112,1.61-.027.3-.062.6-.093.9-.048.441-.1.881-.156,1.312-.043.32-.091.635-.142.948-.062.4-.126.788-.2,1.174-.065.352-.136.7-.208,1.042s-.152.7-.234,1.036c-.1.4-.2.786-.3,1.171-.083.3-.168.606-.258.9-.141.46-.292.906-.448,1.35-.083.237-.162.479-.25.711-.284.75-.587,1.474-.915,2.17q-.333.707-.7,1.378c-.029.053-.055.11-.084.164-.274.5-.563.979-.862,1.448-.435.679-.9,1.316-1.381,1.929-.116.146-.235.291-.354.434-.468.563-.95,1.1-1.459,1.605-.042.041-.08.087-.122.127a20.756,20.756,0,0,1-1.711,1.477c-.144.113-.287.221-.434.329-.6.447,1.252.837,1.377,2.807l28.27-16.3C5816.616,4111.191,5810.092,4080.567,5809.973,4079.809Z" transform="translate(-5619.159 -3914.978)"/><path class="e" d="M5672.243,3945.244c.45.295.9.587,1.348.891.385.262.767.534,1.149.8.473.333.946.664,1.416,1.008.358.261.712.531,1.067.8.534.4,1.065.805,1.595,1.22.343.269.684.542,1.024.815q.9.72,1.782,1.465c.313.264.627.525.938.793q1.288,1.107,2.556,2.262c.09.082.182.161.273.244,1.035.952,2.058,1.937,3.073,2.937.231.229.46.458.69.688q1.794,1.8,3.542,3.684c.263.284.522.575.783.862q.807.89,1.6,1.794c.3.346.6.694.9,1.043q.765.893,1.52,1.8.426.512.85,1.031.963,1.182,1.907,2.392c.169.217.342.428.509.647q1.183,1.528,2.331,3.1c.2.27.389.543.584.814q.858,1.185,1.7,2.389.377.545.75,1.093.771,1.128,1.523,2.273c.231.351.464.7.693,1.054q.943,1.459,1.858,2.939c.081.129.163.256.241.384q1.03,1.675,2.014,3.375c.192.331.379.664.57,1q.7,1.228,1.384,2.464.325.59.644,1.181.666,1.232,1.306,2.472c.18.347.362.692.541,1.04q.91,1.788,1.777,3.589c.087.185.172.37.26.555q.732,1.541,1.428,3.092.323.717.636,1.436c.221.5.441,1.008.655,1.512s.436,1.037.651,1.557.419,1.016.623,1.524c.145.36.284.721.426,1.082.606,1.543,1.191,3.089,1.743,4.635.03.084.057.168.087.252.458,1.3.891,2.592,1.309,3.886q.175.542.346,1.086.5,1.586.953,3.169c.081.278,2.407,1.82,2.484,2.1l24.521-16.522c-.03-.109-.2-.958-.246-1.129q-.455-1.583-.954-3.167c-.056-.18-.105-.36-.162-.541s-.126-.364-.185-.545c-.417-1.294-.85-2.589-1.308-3.883-.024-.071-.046-.14-.071-.211l-.017-.046c-.55-1.545-1.137-3.09-1.743-4.633-.067-.171-.124-.341-.193-.512-.075-.192-.157-.382-.233-.573-.2-.508-.413-1.015-.622-1.522s-.431-1.039-.652-1.557-.434-1.008-.656-1.511c-.139-.322-.273-.643-.417-.964-.069-.157-.147-.314-.218-.472q-.7-1.55-1.428-3.092c-.088-.186-.172-.371-.261-.556q-.864-1.8-1.778-3.588c-.051-.1-.1-.2-.15-.306-.127-.247-.262-.49-.39-.736q-.642-1.24-1.307-2.47-.317-.593-.643-1.182-.68-1.239-1.384-2.466c-.19-.331-.378-.665-.57-1q-.987-1.7-2.013-3.375c-.08-.128-.162-.256-.241-.385q-.915-1.48-1.859-2.938c-.229-.353-.461-.7-.692-1.053q-.754-1.146-1.523-2.273-.375-.549-.75-1.093-.837-1.206-1.7-2.39c-.2-.271-.387-.544-.585-.814q-1.148-1.566-2.331-3.1c-.169-.218-.34-.431-.509-.648q-.943-1.206-1.9-2.388c-.109-.134-.214-.272-.324-.406-.175-.214-.355-.418-.53-.629q-.752-.906-1.516-1.8c-.3-.35-.6-.7-.907-1.048q-.794-.905-1.6-1.792c-.2-.222-.4-.452-.6-.671-.059-.065-.122-.125-.18-.188q-1.748-1.891-3.546-3.688c-.111-.111-.218-.232-.329-.343s-.24-.225-.357-.341c-1.015-1-2.038-1.986-3.075-2.938l-.039-.038c-.077-.071-.157-.136-.234-.207q-1.269-1.157-2.557-2.261c-.116-.1-.229-.208-.347-.306-.2-.167-.4-.322-.591-.488q-.886-.744-1.78-1.463c-.187-.151-.371-.311-.56-.46-.155-.122-.312-.236-.466-.357-.531-.416-1.063-.82-1.6-1.221-.238-.179-.472-.368-.711-.545-.116-.085-.234-.165-.351-.249-.471-.344-.945-.677-1.419-1.01-.284-.2-.564-.41-.849-.605-.1-.067-.2-.129-.3-.2-.447-.3-.9-.6-1.351-.894-.311-.2-.618-.416-.93-.614-.091-.059-.185-.111-.276-.168-.413-.262-.828-.51-1.243-.762-.334-.2-.666-.416-1-.613-.2-.114-.39-.228-.584-.34q-.929-.536-1.854-1.037c-.287-.155-.571-.294-.857-.444s-.6-.312-.892-.462c-.213-.108-.427-.226-.64-.331-.562-.278-1.121-.534-1.68-.792-.181-.084-.364-.177-.547-.258l-.152-.072q-1.187-.531-2.361-1c-.094-.038-.187-.068-.279-.106-.259-.1-.514-.193-.772-.29-.448-.169-.9-.349-1.345-.505-.233-.083-.463-.15-.7-.228q-.475-.16-.948-.309c-.251-.08-.506-.172-.756-.247-.376-.114-.748-.205-1.121-.31-.321-.089-.644-.183-.962-.264-.133-.034-.269-.077-.4-.111-.552-.137-1.1-.248-1.644-.365-.241-.052-.483-.114-.722-.16-.046-.01-.094-.022-.14-.031-.78-.151-1.549-.271-2.315-.38-.115-.017-.233-.042-.349-.058l-.018,0q-1.382-.186-2.736-.28h-.034q-1.462-.1-2.888-.094c-.025,0-.049,0-.073,0-.774,0-1.537.038-2.294.088-.166.01-.331.022-.5.034s-.338.02-.5.036q-.957.088-1.895.225l-.034.005c-.607.09-1.208.192-1.8.311-.128.025-.252.063-.379.089-.359.077-.714.166-1.069.254-.452.111-.9.225-1.346.354-.354.1-.7.216-1.049.33-.253.083-.515.152-.764.239-.143.051-.276.118-.417.17-.607.225-1.2.472-1.794.73-.273.12-.551.23-.82.358-.847.4-1.679.825-2.486,1.293l-26.76,15.552c.808-.47,1.64-.9,2.486-1.295.269-.126.546-.237.821-.357.59-.26,1.187-.506,1.794-.73.389-.145.783-.279,1.179-.409.349-.114.7-.227,1.052-.331.443-.129.893-.242,1.343-.353.356-.088.71-.177,1.072-.254.717-.152,1.438-.292,2.173-.4l.042-.007c.788-.115,1.589-.2,2.4-.26.164-.013.33-.023.5-.035.781-.051,1.568-.083,2.368-.085q1.425,0,2.888.1,1.378.093,2.787.282c.114.016.231.041.346.058.813.115,1.63.249,2.457.413.238.047.482.109.722.16.678.145,1.357.3,2.044.475.32.083.643.176.964.266.622.172,1.246.356,1.875.556.316.1.631.2.95.311q1.015.342,2.042.734c.257.1.512.187.77.289q1.388.547,2.794,1.179c.181.082.364.173.545.256q1.155.534,2.32,1.124c.3.15.593.3.889.46.9.472,1.8.956,2.713,1.482.532.308,1.062.635,1.592.957.412.25.825.5,1.234.757S5671.84,3944.98,5672.243,3945.244Z" transform="translate(-5623.875 -3919.051)"/><path class="e" d="M5809.973,4079.809l-.006-.031c-.013-.081-.028-.161-.042-.242-.108-.668-.222-1.338-.347-2.009-.02-.1-.043-.2-.062-.3-.062-.32-.13-.638-.2-.958-.078-.388-.152-.777-.238-1.166-.036-.167-.079-.334-.117-.5-.082-.358-.167-.715-.253-1.072-.071-.3-.135-.6-.211-.895-.053-.217-.117-.432-.172-.649-.11-.419-.224-.84-.338-1.261-.068-.248-.129-.494-.2-.743-.065-.228-.14-.455-.208-.683q-.207-.71-.428-1.42c-.073-.236-.138-.473-.213-.709-.068-.213-.146-.424-.215-.636q-.26-.8-.538-1.6c-.086-.25-.163-.5-.252-.75-.056-.16-.123-.318-.18-.478-.281-.78-.576-1.557-.878-2.334-.084-.219-.16-.438-.248-.657-.023-.061-.051-.119-.075-.18q-.711-1.777-1.493-3.538c-.044-.1-.083-.2-.128-.3-.157-.352-.325-.7-.485-1.05-.185-.4-.367-.8-.556-1.2-.234-.494-.478-.984-.721-1.476-.19-.387-.378-.772-.572-1.157-.046-.088-.086-.176-.131-.264-.218-.425-.448-.846-.672-1.269-.187-.355-.371-.711-.562-1.065-.3-.545-.6-1.085-.91-1.626-.176-.313-.348-.629-.529-.941-.378-.655-.769-1.3-1.16-1.948-.117-.191-.229-.387-.347-.578q-.769-1.25-1.57-2.479c-.149-.228-.3-.451-.455-.677-.391-.589-.783-1.177-1.185-1.757-.209-.3-.425-.6-.638-.9-.351-.5-.7-.992-1.06-1.481-.24-.327-.487-.648-.731-.972-.339-.452-.678-.9-1.023-1.349-.259-.334-.525-.662-.789-.992s-.509-.649-.77-.967c-.083-.1-.169-.2-.254-.3-.281-.342-.568-.677-.854-1.015-.34-.4-.68-.8-1.024-1.2-.293-.335-.589-.663-.885-.991-.232-.257-.458-.52-.69-.772-.085-.094-.176-.18-.262-.272-.833-.9-1.676-1.783-2.535-2.639-.021-.02-.04-.042-.06-.062-.131-.129-.266-.25-.4-.379q-.919-.9-1.855-1.775c-.084-.078-.166-.161-.25-.24-.218-.2-.442-.387-.66-.583-.433-.388-.865-.774-1.3-1.151-.121-.1-.24-.216-.363-.32-.236-.2-.477-.39-.715-.588-.342-.284-.681-.567-1.025-.843-.125-.1-.247-.206-.372-.306-.273-.216-.55-.419-.825-.631-.305-.236-.61-.473-.917-.7-.1-.075-.2-.156-.3-.231-.355-.263-.716-.51-1.073-.764-.245-.174-.488-.353-.735-.523l-.167-.119q-.952-.653-1.914-1.266l-.022-.012c-.062-.04-.124-.076-.185-.115-.561-.354-1.125-.7-1.693-1.037l-.441-.257q-.732-.423-1.505-.84c-.068-.038-.144-.073-.213-.111-.5-.27-1.02-.533-1.54-.8-.189-.1-.368-.195-.559-.289-.029-.014-.062-.028-.093-.044-.777-.383-1.569-.755-2.363-1.113l-.1-.048c-.167-.076-.333-.14-.5-.212q-.884-.39-1.765-.75c-.095-.038-.191-.083-.286-.12-.212-.086-.417-.156-.628-.238-.434-.167-.861-.331-1.286-.484-.129-.047-.263-.1-.39-.147-.217-.076-.421-.136-.634-.208-.316-.106-.631-.211-.94-.309-.125-.039-.257-.087-.38-.124-.271-.082-.527-.146-.79-.219-.2-.056-.4-.114-.589-.163-.069-.019-.143-.042-.21-.059-.437-.11-.861-.205-1.268-.284l-.162-.031-24.521,16.522c.519.1,11.746,4.4,12.248,4.668.587.315,1.167.633,1.718.952.716.413,1.427.847,2.135,1.294l.185.113c.707.449,1.408.918,2.1,1.4.244.168.485.346.728.518.462.327.923.658,1.381,1,.307.229.611.466.916.7.4.309.8.62,1.2.938.342.274.681.557,1.021.838.362.3.725.6,1.083.914.434.375.866.759,1.295,1.145.305.275.613.547.915.829.624.578,1.241,1.17,1.854,1.771.151.149.307.293.458.445.858.855,1.7,1.738,2.534,2.637.32.345.637.695.953,1.046.3.329.592.657.885.991.346.4.687.8,1.026,1.2.285.336.57.671.851,1.011.347.42.688.849,1.029,1.277.261.327.525.653.783.985.346.446.687.9,1.027,1.353.243.322.49.642.729.969.357.488.707.986,1.059,1.48.212.3.429.6.638.9.4.584.8,1.177,1.192,1.771.148.222.3.438.445.661q.8,1.229,1.573,2.481c.113.183.219.371.33.553.4.654.793,1.31,1.177,1.974.179.308.35.622.524.932.308.543.616,1.085.913,1.634.192.351.375.708.563,1.062.269.511.542,1.021.8,1.537.194.382.38.767.57,1.151.244.493.489.987.724,1.483.188.4.369.795.554,1.193.207.451.413.9.614,1.355q.78,1.761,1.493,3.538c.111.279.213.558.322.836q.454,1.165.878,2.335c.148.409.292.817.432,1.228q.278.8.539,1.594c.146.449.29.9.428,1.348.147.472.289.946.427,1.417s.275.953.406,1.429q.173.629.337,1.259.2.772.385,1.544c.086.357.172.714.253,1.07.126.556.242,1.111.356,1.667.064.32.134.64.2.959q.223,1.156.409,2.307c.015.08.03.162.042.242q.2,1.273.355,2.539c.03.244.055.486.082.729.068.6.13,1.2.181,1.794.026.29.048.581.07.872.042.566.076,1.131.1,1.694.012.274.028.549.037.821.03.8.049,1.6.046,2.4,0,.818-.024,1.618-.059,2.406-.01.22-.028.432-.041.651-.031.544-.066,1.083-.112,1.61-.027.3-.062.6-.093.9-.048.441-.1.881-.156,1.312-.043.32-.091.635-.142.948-.062.4-.126.788-.2,1.174-.065.352-.136.7-.208,1.042s-.152.7-.234,1.036c-.1.4-.2.786-.3,1.171-.083.3-.168.606-.258.9-.141.46-.292.906-.448,1.35-.083.237-.162.479-.25.711-.284.75-.587,1.474-.915,2.17q-.333.707-.7,1.378c-.029.053-.055.11-.084.164-.274.5-.563.979-.862,1.448-.435.679-.9,1.316-1.381,1.929-.116.146-.235.291-.354.434-.468.563-.95,1.1-1.459,1.605-.042.041-.08.087-.122.127a20.756,20.756,0,0,1-1.711,1.477c-.144.113-.287.221-.434.329-.6.447,1.252.837,1.377,2.807l28.27-16.3C5816.616,4111.191,5810.092,4080.567,5809.973,4079.809Z" transform="translate(-5619.159 -3914.978)"/></g><path class="e" d="M5594.613,3938.219c-.588.062-1.214.152-1.781.261" transform="translate(-5549.506 -3918.163)"/><path class="g" d="M5750.065,4033.464c-5.1-2.944-11.846-5.823-16.419-6.678-9.4-33.442-32.94-68.58-60.634-84.569-33.935-19.593-62.6-3.522-65.847,32.724-5.517-6.815-11.562-11.133-17.988-15.664-16.29-11.485-37.75-4.462-37.75,23.134,0,26.891,15.647,47.843,36.554,60.223l159.812,92.268c25.016,14.133,47.41,6.526,47.41-23.255C5795.2,4082.912,5775.08,4047.907,5750.065,4033.464Z" transform="translate(-5551.427 -3918.368)"/></g></g><g transform="translate(-14.121 -39.46)"><path class="c" d="M5552.009,4168.638l84.342-48.412,309.993,179.206L5862,4347.843Z" transform="translate(-4398.559 -3412.038)"/><g transform="translate(1152.425 354.048)"><path class="d" d="M5881.229,4099.155c-8.461-4.885-19.67-9.668-27.261-11.089-15.607-55.521-54.693-113.863-100.675-140.411-56.34-32.528-102.757-4.41-108.147,55.77-9.159-11.317-19.74-20.916-31.044-27.444-34.714-20.042-62.676.2-62.676,38.207,0,48.96,27.567,80.751,62.28,101.307l267.039,154.174c41.534,23.468,75.292,7.02,75.428-40.7S5922.762,4123.135,5881.229,4099.155Z" transform="translate(-5551.427 -3907.716)"/><path class="e" d="M5614.451,3978.042c.152.109.308.214.459.327,1.2.878,2.382,1.8,3.557,2.741.352.283.7.574,1.05.863q1.279,1.053,2.533,2.153c.432.378.863.755,1.29,1.141.742.667,1.475,1.357,2.2,2.049.52.493,1.04.979,1.555,1.484.567.556,1.125,1.135,1.685,1.706.766.782,1.53,1.563,2.281,2.368.437.47.866.951,1.3,1.428q1.957,2.158,3.838,4.413c.437.525.886,1.033,1.316,1.565l45.016-26.162q-.33-.409-.663-.815c-.211-.257-.438-.493-.651-.748q-1.881-2.257-3.834-4.411c-.241-.265-.465-.549-.707-.812-.194-.213-.4-.408-.6-.619-.75-.8-1.513-1.584-2.278-2.364-.394-.4-.779-.829-1.18-1.225-.164-.166-.339-.321-.507-.484-.514-.5-1.035-.991-1.554-1.482-.485-.461-.963-.938-1.454-1.389-.246-.225-.5-.438-.748-.662-.429-.386-.858-.763-1.29-1.139-.387-.338-.767-.69-1.157-1.023-.454-.387-.919-.753-1.378-1.132-.349-.287-.7-.579-1.048-.861-.187-.15-.371-.31-.558-.459q-1.408-1.112-2.834-2.165c-.055-.041-.112-.078-.168-.12-.149-.109-.3-.213-.452-.322-.7-.507-1.4-1.014-2.109-1.5-.4-.271-.8-.526-1.194-.791-.273-.18-.544-.363-.819-.54-.217-.141-.431-.291-.648-.43q-1.3-.827-2.611-1.6l-.6-.35q-1-.579-2-1.116c-.25-.135-.5-.255-.744-.385-.343-.182-.684-.357-1.026-.532-.267-.135-.536-.283-.8-.416-.411-.2-.818-.386-1.228-.579-.307-.146-.617-.3-.923-.435-.129-.058-.257-.125-.384-.181-.785-.352-1.564-.68-2.342-.993-.047-.02-.1-.042-.146-.062l-.017-.007q-1.267-.509-2.521-.949c-.1-.035-.2-.063-.3-.1-.294-.1-.586-.192-.88-.289-.438-.144-.88-.3-1.316-.43-.2-.062-.4-.109-.6-.167-.368-.107-.732-.206-1.1-.3-.291-.077-.585-.169-.874-.241s-.566-.123-.85-.188q-.555-.13-1.1-.246c-.2-.041-.4-.093-.6-.134-.338-.065-.666-.105-1-.164-.42-.072-.842-.148-1.259-.208-.152-.022-.312-.056-.465-.075-.343-.048-.677-.067-1.02-.1-.446-.049-.894-.1-1.336-.137-.134-.011-.271-.032-.4-.041-.3-.021-.586-.016-.884-.03-.534-.024-1.064-.049-1.59-.053-.151,0-.307-.016-.456-.014-.227,0-.445.027-.67.032-.657.014-1.307.044-1.95.093-.2.014-.4.009-.6.028-.143.012-.277.046-.421.06-.989.1-2.042.255-3,.44-.077.014-55.221,31.892-55.221,31.892.756-.44,2.928-1.64,3.72-2.012.261-.121,33.654.326,34.568.742.307.139.616.291.922.435q1.012.478,2.032.994.511.261,1.026.532c.908.48,1.819.972,2.738,1.5,1.3.75,2.585,1.551,3.863,2.38.273.178.545.359.817.541C5612.259,3976.49,5613.359,3977.249,5614.451,3978.042Z" transform="translate(-5543.795 -3904.569)"/><path class="f" d="M5705.107,3963.163c.757.495,1.514.986,2.267,1.5.646.44,1.289.9,1.934,1.351.795.56,1.591,1.12,2.382,1.7.6.438,1.2.891,1.793,1.342.9.674,1.794,1.354,2.686,2.052.574.451,1.148.91,1.723,1.371q1.506,1.21,3,2.465c.526.442,1.053.884,1.577,1.334q2.165,1.862,4.3,3.8c.151.139.306.271.457.41,1.745,1.6,3.465,3.259,5.172,4.942q.582.576,1.162,1.158,3.019,3.023,5.959,6.2c.441.479.877.966,1.316,1.45.9,1,1.8,2,2.694,3.016q.763.872,1.521,1.757,1.286,1.5,2.556,3.029c.479.576.958,1.151,1.432,1.732q1.62,1.991,3.207,4.024c.285.365.576.722.857,1.088q1.988,2.572,3.921,5.21c.331.455.654.914.983,1.37q1.443,2,2.854,4.021c.425.609.843,1.223,1.263,1.836q1.3,1.9,2.564,3.825c.389.591.78,1.179,1.165,1.774q1.586,2.453,3.127,4.943c.133.217.272.43.406.648q1.727,2.815,3.387,5.675c.324.558.639,1.12.958,1.678q1.184,2.065,2.331,4.147.546.99,1.082,1.987,1.118,2.071,2.2,4.156c.3.583.609,1.166.908,1.75q1.532,3.007,2.988,6.038c.15.31.291.624.438.933q1.233,2.593,2.4,5.2c.361.8.716,1.609,1.07,2.415q.555,1.271,1.1,2.544c.372.872.734,1.745,1.1,2.618.353.856.7,1.709,1.048,2.565.244.607.479,1.215.716,1.822,1.02,2.6,2.007,5.195,2.933,7.8l.146.426c.771,2.179,1.5,4.358,2.2,6.536q.3.916.585,1.83.836,2.667,1.6,5.328c.135.47.281.94.413,1.408l45.018-26.16c-.051-.183-.1-.366-.155-.549-.08-.287-.176-.574-.259-.861q-.765-2.659-1.6-5.327c-.095-.3-.177-.607-.274-.91s-.209-.613-.31-.919c-.7-2.177-1.428-4.353-2.2-6.533-.043-.118-.078-.234-.12-.352l-.03-.079c-.924-2.6-1.91-5.2-2.929-7.793-.112-.287-.21-.576-.324-.862-.129-.322-.266-.643-.395-.963q-.514-1.283-1.048-2.562-.539-1.312-1.094-2.621c-.361-.848-.732-1.7-1.1-2.543-.238-.539-.464-1.081-.7-1.62-.118-.266-.248-.53-.368-.8q-1.172-2.61-2.4-5.2c-.148-.312-.289-.623-.437-.933q-1.455-3.031-2.991-6.038c-.086-.17-.167-.343-.253-.514-.213-.414-.44-.822-.655-1.236q-1.083-2.089-2.2-4.158-.536-1-1.083-1.987-1.146-2.083-2.33-4.146c-.318-.56-.634-1.122-.957-1.678-1.11-1.9-2.234-3.8-3.388-5.677-.134-.216-.272-.429-.406-.646q-1.54-2.492-3.127-4.945c-.386-.593-.775-1.181-1.165-1.772q-1.267-1.926-2.563-3.826-.63-.921-1.264-1.837-1.408-2.026-2.854-4.019c-.329-.456-.653-.917-.985-1.37q-1.931-2.635-3.919-5.212c-.284-.366-.573-.724-.858-1.088q-1.585-2.03-3.2-4.019c-.185-.225-.36-.459-.545-.685-.294-.357-.6-.7-.894-1.058q-1.267-1.523-2.548-3.019-.762-.887-1.526-1.764c-.891-1.018-1.791-2.02-2.693-3.016-.341-.373-.67-.76-1.011-1.13-.1-.109-.2-.208-.3-.317q-2.937-3.181-5.963-6.2c-.187-.188-.367-.391-.554-.579s-.4-.376-.6-.572c-1.708-1.685-3.429-3.341-5.174-4.944-.021-.02-.042-.042-.065-.063-.131-.118-.263-.229-.393-.349q-2.134-1.944-4.3-3.8c-.2-.167-.388-.349-.583-.516-.329-.28-.667-.542-1-.819q-1.488-1.252-2.994-2.461c-.314-.253-.625-.524-.939-.775-.262-.206-.525-.4-.786-.6-.892-.7-1.79-1.38-2.687-2.056-.4-.3-.8-.62-1.2-.916-.2-.145-.395-.276-.59-.419-.792-.58-1.589-1.141-2.389-1.7-.478-.336-.95-.688-1.43-1.017-.165-.115-.334-.218-.5-.331-.755-.515-1.514-1.007-2.274-1.5-.522-.342-1.04-.7-1.562-1.035-.155-.1-.311-.187-.465-.283-.694-.438-1.393-.857-2.092-1.28-.56-.344-1.117-.7-1.683-1.032-.328-.194-.655-.384-.984-.574q-1.563-.9-3.116-1.743c-.483-.262-.961-.495-1.441-.748-.5-.262-1-.524-1.5-.778-.357-.181-.718-.38-1.073-.556-.947-.469-1.887-.9-2.826-1.331-.307-.141-.614-.3-.92-.434-.085-.039-.173-.084-.257-.121q-2-.9-3.974-1.685c-.157-.063-.312-.114-.468-.176-.437-.172-.867-.324-1.3-.487-.755-.287-1.512-.588-2.263-.853-.392-.137-.779-.25-1.172-.381-.533-.182-1.065-.354-1.595-.523-.425-.134-.852-.289-1.273-.416-.633-.192-1.256-.345-1.885-.52-.54-.149-1.083-.308-1.619-.447-.224-.056-.451-.13-.675-.185-.929-.232-1.847-.419-2.767-.614-.4-.086-.812-.19-1.213-.27-.079-.016-.159-.039-.238-.053-1.31-.255-2.6-.458-3.894-.641-.193-.026-.392-.07-.585-.1l-.03,0q-2.325-.309-4.6-.469h-.057q-2.459-.169-4.858-.16c-.04,0-.081-.005-.121,0-1.3.006-2.588.064-3.861.146-.279.019-.558.037-.836.06s-.566.031-.847.058q-1.61.147-3.186.378l-.059.011c-1.021.15-2.031.322-3.029.523-.217.043-.423.1-.638.151-.607.128-1.2.28-1.8.426-.761.188-1.517.38-2.264.6-.595.172-1.182.362-1.768.555-.426.139-.863.253-1.285.4-.238.084-.461.2-.7.283-1.023.379-2.026.794-3.02,1.23-.461.2-.928.387-1.382.6-1.424.671-2.823,1.387-4.183,2.178l-45.018,26.16c1.358-.789,2.761-1.5,4.183-2.177.454-.213.92-.4,1.382-.6.993-.435,2-.85,3.019-1.229.655-.243,1.317-.47,1.984-.688.586-.191,1.174-.381,1.77-.554.744-.217,1.5-.408,2.258-.595.6-.148,1.2-.3,1.8-.428,1.2-.255,2.419-.489,3.654-.672l.072-.012c1.326-.192,2.673-.331,4.031-.437.279-.021.557-.04.837-.058,1.313-.086,2.637-.141,3.979-.145q2.4-.005,4.86.16,2.319.159,4.69.477c.191.024.389.067.581.1,1.367.2,2.741.419,4.133.693.4.079.811.183,1.216.271,1.142.243,2.285.5,3.439.8.538.138,1.08.3,1.62.446,1.048.292,2.1.6,3.156.935.532.169,1.063.343,1.6.522,1.139.384,2.284.8,3.437,1.236.431.162.86.315,1.294.485,1.556.615,3.122,1.271,4.7,1.982.3.138.613.292.919.433q1.945.9,3.905,1.891c.5.252,1,.512,1.494.773,1.516.8,3.033,1.61,4.563,2.493.9.519,1.787,1.07,2.68,1.612.692.421,1.388.836,2.077,1.271S5704.428,3962.72,5705.107,3963.163Z" transform="translate(-5496.447 -3919.016)"/><g transform="translate(127.536 0)"><path class="f" d="M5867.565,4129.575l-.011-.053c-.021-.136-.047-.271-.07-.407-.182-1.125-.373-2.251-.584-3.38-.032-.167-.072-.336-.1-.5-.1-.537-.22-1.074-.329-1.612-.133-.653-.257-1.307-.4-1.961-.061-.28-.133-.562-.2-.841-.137-.6-.281-1.2-.426-1.8-.119-.5-.229-1-.355-1.5-.09-.365-.2-.727-.29-1.091-.185-.706-.376-1.414-.569-2.122-.114-.417-.217-.832-.334-1.25-.109-.384-.235-.766-.349-1.15q-.349-1.2-.72-2.389c-.123-.4-.232-.8-.359-1.193-.114-.357-.245-.713-.361-1.07q-.438-1.344-.9-2.685c-.145-.421-.274-.841-.425-1.261-.095-.269-.206-.535-.3-.8q-.71-1.968-1.478-3.926c-.143-.368-.27-.737-.416-1.105-.04-.1-.086-.2-.126-.3q-1.2-2.99-2.513-5.952c-.073-.169-.139-.339-.215-.509-.264-.591-.547-1.176-.816-1.766-.31-.672-.616-1.345-.935-2.016-.395-.831-.8-1.656-1.213-2.483-.32-.65-.636-1.3-.963-1.945-.076-.148-.145-.3-.221-.444-.366-.715-.753-1.424-1.13-2.135-.314-.6-.625-1.2-.946-1.792-.5-.917-1.015-1.826-1.53-2.736-.3-.526-.586-1.058-.891-1.583-.638-1.1-1.294-2.19-1.952-3.278-.2-.322-.384-.651-.583-.972q-1.293-2.1-2.643-4.17c-.251-.384-.512-.759-.765-1.14-.657-.991-1.315-1.98-1.992-2.956-.352-.508-.716-1.007-1.073-1.512-.59-.834-1.18-1.669-1.782-2.491-.4-.551-.819-1.091-1.229-1.635-.571-.761-1.141-1.521-1.722-2.269-.437-.562-.884-1.113-1.327-1.669-.432-.54-.856-1.091-1.295-1.626-.14-.172-.284-.336-.427-.508-.474-.576-.956-1.14-1.437-1.708-.572-.674-1.145-1.348-1.724-2.012-.493-.563-.99-1.116-1.489-1.669-.39-.432-.77-.874-1.16-1.3-.145-.157-.3-.3-.44-.458-1.4-1.514-2.82-3-4.265-4.44-.034-.033-.067-.07-.1-.1-.221-.218-.447-.422-.669-.639q-1.547-1.521-3.121-2.986c-.143-.132-.28-.271-.42-.4-.366-.336-.744-.651-1.111-.982-.728-.653-1.454-1.3-2.188-1.937-.2-.176-.4-.364-.61-.539-.4-.34-.8-.657-1.2-.989-.574-.477-1.146-.954-1.725-1.418-.21-.169-.415-.347-.625-.514-.459-.363-.926-.706-1.388-1.062-.514-.4-1.026-.8-1.542-1.182-.17-.126-.338-.262-.509-.389-.6-.442-1.2-.857-1.806-1.285-.412-.292-.822-.593-1.236-.88-.095-.065-.188-.135-.282-.2q-1.6-1.1-3.22-2.13l-.036-.021c-.1-.067-.208-.127-.312-.192-.944-.6-1.894-1.183-2.848-1.744-.248-.146-.5-.289-.743-.433q-1.23-.71-2.532-1.414c-.115-.063-.242-.123-.358-.187-.847-.455-1.715-.9-2.591-1.34-.317-.16-.618-.328-.939-.485-.05-.025-.1-.048-.156-.074-1.308-.644-2.639-1.271-3.976-1.873l-.175-.081c-.28-.127-.56-.234-.842-.357-.992-.437-1.981-.861-2.97-1.263-.16-.063-.322-.139-.48-.2-.357-.145-.7-.263-1.058-.4-.729-.281-1.448-.558-2.164-.814-.217-.08-.441-.173-.656-.249-.364-.128-.708-.229-1.065-.351-.532-.179-1.062-.355-1.582-.519-.21-.065-.432-.146-.639-.209-.456-.137-.887-.245-1.328-.368-.331-.093-.669-.191-.991-.274-.116-.03-.24-.071-.354-.1-.735-.185-1.449-.345-2.133-.479l-.271-.051-41.253,27.8c.872.162,19.761,7.4,20.605,7.853.987.53,1.962,1.065,2.891,1.6,1.2.7,2.4,1.426,3.591,2.177.1.065.208.125.312.19,1.188.756,2.368,1.546,3.54,2.356.412.283.817.581,1.226.871.778.551,1.553,1.107,2.324,1.681.516.386,1.027.784,1.54,1.179.674.52,1.348,1.042,2.016,1.579.575.461,1.146.937,1.718,1.41.609.507,1.219,1.018,1.822,1.537.73.632,1.456,1.278,2.178,1.927.514.463,1.031.92,1.54,1.394,1.049.972,2.087,1.969,3.118,2.979.255.251.516.493.771.748,1.443,1.438,2.862,2.924,4.264,4.436.539.581,1.07,1.169,1.6,1.76.5.553,1,1.106,1.489,1.667.581.666,1.155,1.342,1.727,2.018.479.565.959,1.128,1.432,1.7.584.708,1.156,1.428,1.73,2.147.439.551.884,1.1,1.318,1.657.582.75,1.155,1.514,1.727,2.276.409.542.824,1.081,1.228,1.63.6.822,1.189,1.658,1.781,2.491.357.505.722,1,1.074,1.514.681.982,1.344,1.98,2.006,2.979.249.374.5.738.749,1.113q1.348,2.068,2.646,4.174c.19.308.369.623.556.931.669,1.1,1.334,2.2,1.979,3.32.3.519.588,1.045.883,1.568.517.914,1.035,1.826,1.535,2.748.323.591.631,1.191.946,1.786.453.859.912,1.718,1.352,2.584.328.643.641,1.291.959,1.937.41.829.822,1.66,1.219,2.495.316.667.621,1.338.932,2.009.348.758.694,1.517,1.033,2.279q1.313,2.963,2.512,5.952c.187.468.359.938.542,1.407q.763,1.958,1.477,3.927c.249.688.49,1.375.728,2.065q.466,1.342.905,2.683c.245.755.487,1.511.721,2.268q.371,1.191.719,2.383t.684,2.4q.29,1.058.566,2.118.337,1.3.647,2.6c.145.6.289,1.2.426,1.8.212.935.406,1.87.6,2.8.108.539.225,1.077.329,1.614q.374,1.946.688,3.882c.023.135.05.272.07.408q.341,2.142.6,4.272c.051.41.092.817.137,1.225q.173,1.513.306,3.018c.044.489.081.978.117,1.468.071.953.127,1.9.175,2.851.021.46.048.922.063,1.381.05,1.35.082,2.7.078,4.033,0,1.377-.041,2.723-.1,4.048-.018.371-.047.728-.068,1.1-.053.914-.111,1.821-.188,2.709-.046.511-.1,1.011-.156,1.515-.08.743-.164,1.482-.262,2.207-.073.538-.154,1.068-.238,1.6-.1.666-.214,1.324-.335,1.974-.109.591-.229,1.174-.351,1.753s-.255,1.169-.395,1.742c-.16.67-.334,1.322-.512,1.97-.141.511-.283,1.021-.435,1.521-.236.774-.491,1.526-.754,2.271-.139.4-.272.806-.42,1.2q-.716,1.892-1.539,3.651-.56,1.19-1.172,2.318c-.049.089-.093.187-.142.276-.461.84-.948,1.648-1.45,2.437-.731,1.141-1.511,2.214-2.324,3.244-.194.249-.4.49-.595.731-.787.945-1.6,1.854-2.455,2.7-.069.068-.135.146-.205.213a35.213,35.213,0,0,1-2.878,2.486c-.241.188-.483.372-.73.553-1.018.753,2.105,1.41,2.316,4.723l47.56-27.416C5878.742,4182.372,5867.766,4130.85,5867.565,4129.575Z" transform="translate(-5546.553 -3852.275)"/><path class="e" d="M5705.245,3963.116c.757.5,1.514.988,2.268,1.5.647.44,1.289.9,1.933,1.35.8.56,1.592,1.118,2.382,1.7.6.44,1.2.893,1.8,1.341.9.674,1.792,1.355,2.683,2.053.577.453,1.151.912,1.723,1.371q1.509,1.212,3,2.464c.526.444,1.055.884,1.578,1.334q2.167,1.862,4.3,3.806c.151.138.307.271.46.411,1.742,1.6,3.462,3.258,5.17,4.941.389.384.774.771,1.162,1.157q3.018,3.026,5.959,6.2c.441.479.878.968,1.316,1.45q1.358,1.5,2.694,3.018c.51.581,1.015,1.167,1.521,1.755q1.288,1.5,2.558,3.029c.478.576.956,1.151,1.43,1.734q1.62,1.989,3.207,4.024c.285.364.575.72.856,1.088q1.989,2.572,3.921,5.21c.331.453.654.914.984,1.37q1.443,1.994,2.854,4.019.634.916,1.263,1.838,1.3,1.9,2.563,3.825c.39.589.78,1.179,1.166,1.773q1.586,2.455,3.126,4.944c.136.217.273.43.406.646q1.731,2.817,3.388,5.677c.324.557.639,1.118.959,1.678q1.181,2.065,2.329,4.146.546.992,1.083,1.987,1.119,2.071,2.2,4.158c.3.583.609,1.164.908,1.75q1.531,3.008,2.99,6.039c.147.31.289.622.437.933q1.23,2.593,2.4,5.2.543,1.206,1.07,2.415c.371.847.741,1.7,1.1,2.544.372.873.734,1.745,1.1,2.62.353.854.705,1.709,1.048,2.564.244.605.478,1.213.718,1.82,1.019,2.6,2,5.2,2.931,7.8.051.141.1.283.146.424q1.156,3.269,2.2,6.538.294.913.582,1.827.838,2.669,1.6,5.331c.136.468,4.049,3.063,4.179,3.533l41.253-27.8c-.051-.183-.331-1.612-.414-1.9q-.765-2.662-1.6-5.329c-.095-.3-.178-.605-.272-.91s-.212-.612-.311-.917c-.7-2.178-1.43-4.355-2.2-6.533-.04-.118-.077-.236-.118-.354l-.029-.078c-.926-2.6-1.912-5.2-2.932-7.795-.112-.287-.209-.574-.324-.861-.126-.322-.264-.643-.394-.964-.342-.854-.693-1.708-1.046-2.562-.362-.873-.726-1.748-1.1-2.619q-.542-1.275-1.1-2.544c-.235-.541-.46-1.081-.7-1.621-.117-.266-.248-.528-.367-.794q-1.172-2.609-2.4-5.2c-.148-.312-.289-.623-.437-.935q-1.455-3.031-2.991-6.036c-.086-.171-.166-.343-.253-.514-.214-.416-.44-.824-.655-1.238q-1.08-2.086-2.2-4.156-.535-1-1.082-1.988-1.146-2.084-2.329-4.147c-.32-.558-.636-1.12-.959-1.675q-1.661-2.86-3.387-5.678c-.133-.216-.271-.431-.405-.647q-1.54-2.49-3.128-4.943c-.386-.595-.776-1.183-1.165-1.773q-1.269-1.927-2.563-3.825c-.421-.615-.84-1.229-1.263-1.838q-1.409-2.028-2.854-4.021c-.329-.456-.651-.916-.984-1.369q-1.932-2.635-3.92-5.21c-.284-.366-.573-.724-.857-1.09q-1.586-2.028-3.2-4.019c-.184-.225-.361-.458-.546-.683-.294-.359-.6-.7-.893-1.058q-1.264-1.523-2.549-3.021c-.507-.589-1.014-1.179-1.526-1.764q-1.336-1.523-2.693-3.014c-.338-.374-.669-.761-1.01-1.13-.1-.109-.205-.209-.3-.317q-2.94-3.182-5.965-6.2c-.187-.187-.366-.391-.554-.577s-.4-.378-.6-.574c-1.707-1.683-3.429-3.341-5.173-4.943l-.066-.063c-.129-.12-.264-.229-.393-.349q-2.134-1.946-4.3-3.8c-.2-.169-.386-.349-.583-.516-.329-.282-.665-.542-1-.821q-1.49-1.251-2.993-2.461c-.316-.253-.625-.522-.941-.772-.261-.206-.524-.4-.785-.6-.893-.7-1.789-1.38-2.687-2.054-.4-.3-.795-.62-1.2-.917-.2-.143-.395-.276-.59-.419-.793-.579-1.59-1.139-2.389-1.7-.478-.335-.949-.688-1.428-1.018-.168-.113-.335-.217-.5-.331-.753-.512-1.514-1.005-2.272-1.5-.523-.342-1.04-.7-1.565-1.033-.153-.1-.31-.187-.463-.284-.7-.44-1.394-.857-2.091-1.281-.562-.341-1.12-.7-1.684-1.032-.329-.191-.656-.384-.983-.572q-1.563-.9-3.118-1.745c-.482-.26-.961-.495-1.441-.747-.5-.264-1-.525-1.5-.778-.358-.181-.719-.38-1.076-.557-.945-.468-1.886-.9-2.826-1.332-.306-.141-.613-.3-.92-.434-.085-.039-.171-.083-.257-.122q-2-.892-3.972-1.683c-.158-.063-.313-.115-.47-.178-.436-.17-.864-.324-1.3-.488-.754-.285-1.513-.588-2.263-.85-.393-.139-.779-.252-1.172-.384q-.8-.27-1.595-.521c-.423-.134-.853-.289-1.273-.416-.633-.192-1.257-.345-1.885-.521-.541-.15-1.083-.308-1.618-.445-.224-.058-.452-.13-.676-.187-.93-.231-1.847-.417-2.766-.614-.4-.086-.813-.19-1.215-.27-.077-.016-.158-.037-.235-.053-1.312-.254-2.605-.456-3.895-.639-.193-.028-.393-.071-.586-.1l-.03-.005q-2.326-.312-4.6-.47h-.057q-2.459-.169-4.858-.159c-.041,0-.082-.005-.122-.005-1.3.007-2.586.065-3.86.148-.278.018-.558.037-.834.058s-.568.034-.849.06q-1.608.149-3.187.379l-.058.009c-1.021.151-2.032.324-3.03.524-.216.042-.423.106-.637.149-.605.129-1.2.28-1.8.428-.761.187-1.518.378-2.264.595-.6.172-1.182.363-1.766.555-.427.139-.865.255-1.285.4-.24.085-.464.2-.7.286-1.022.378-2.026.793-3.02,1.229-.459.2-.927.387-1.379.6-1.425.67-2.824,1.387-4.183,2.176l-45.019,26.163c1.359-.791,2.759-1.507,4.183-2.178.452-.213.919-.4,1.381-.6.992-.437,2-.852,3.019-1.229.655-.243,1.316-.47,1.983-.688.587-.192,1.175-.382,1.77-.556.745-.217,1.5-.407,2.259-.594.6-.148,1.2-.3,1.8-.428,1.206-.255,2.419-.491,3.656-.672l.07-.012c1.325-.194,2.673-.331,4.033-.438.276-.021.555-.039.834-.058,1.313-.085,2.639-.14,3.982-.143q2.4-.007,4.858.161,2.319.157,4.689.475c.192.027.389.069.582.1,1.367.193,2.743.419,4.134.694.4.079.812.183,1.215.269,1.141.243,2.284.5,3.439.8.539.139,1.081.3,1.621.447,1.047.291,2.1.6,3.155.935.531.169,1.063.342,1.6.523q1.708.576,3.436,1.234c.432.164.861.315,1.294.486q2.336.921,4.7,1.984c.3.137.612.291.917.431q1.944.9,3.9,1.891c.5.252,1,.512,1.494.775,1.516.794,3.034,1.609,4.565,2.493.9.518,1.786,1.068,2.678,1.61.692.421,1.387.838,2.076,1.273S5704.567,3962.673,5705.245,3963.116Z" transform="translate(-5623.876 -3919.051)"/><path class="e" d="M5867.565,4129.575l-.011-.053c-.021-.136-.047-.271-.07-.407-.182-1.125-.373-2.251-.584-3.38-.032-.167-.072-.336-.1-.5-.1-.537-.22-1.074-.329-1.612-.133-.653-.257-1.307-.4-1.961-.061-.28-.133-.562-.2-.841-.137-.6-.281-1.2-.426-1.8-.119-.5-.229-1-.355-1.5-.09-.365-.2-.727-.29-1.091-.185-.706-.376-1.414-.569-2.122-.114-.417-.217-.832-.334-1.25-.109-.384-.235-.766-.349-1.15q-.349-1.2-.72-2.389c-.123-.4-.232-.8-.359-1.193-.114-.357-.245-.713-.361-1.07q-.438-1.344-.9-2.685c-.145-.421-.274-.841-.425-1.261-.095-.269-.206-.535-.3-.8q-.71-1.968-1.478-3.926c-.143-.368-.27-.737-.416-1.105-.04-.1-.086-.2-.126-.3q-1.2-2.99-2.513-5.952c-.073-.169-.139-.339-.215-.509-.264-.591-.547-1.176-.816-1.766-.31-.672-.616-1.345-.935-2.016-.395-.831-.8-1.656-1.213-2.483-.32-.65-.636-1.3-.963-1.945-.076-.148-.145-.3-.221-.444-.366-.715-.753-1.424-1.13-2.135-.314-.6-.625-1.2-.946-1.792-.5-.917-1.015-1.826-1.53-2.736-.3-.526-.586-1.058-.891-1.583-.638-1.1-1.294-2.19-1.952-3.278-.2-.322-.384-.651-.583-.972q-1.293-2.1-2.643-4.17c-.251-.384-.512-.759-.765-1.14-.657-.991-1.315-1.98-1.992-2.956-.352-.508-.716-1.007-1.073-1.512-.59-.834-1.18-1.669-1.782-2.491-.4-.551-.819-1.091-1.229-1.635-.571-.761-1.141-1.521-1.722-2.269-.437-.562-.884-1.113-1.327-1.669-.432-.54-.856-1.091-1.295-1.626-.14-.172-.284-.336-.427-.508-.474-.576-.956-1.14-1.437-1.708-.572-.674-1.145-1.348-1.724-2.012-.493-.563-.99-1.116-1.489-1.669-.39-.432-.77-.874-1.16-1.3-.145-.157-.3-.3-.44-.458-1.4-1.514-2.82-3-4.265-4.44-.034-.033-.067-.07-.1-.1-.221-.218-.447-.422-.669-.639q-1.547-1.521-3.121-2.986c-.143-.132-.28-.271-.42-.4-.366-.336-.744-.651-1.111-.982-.728-.653-1.454-1.3-2.188-1.937-.2-.176-.4-.364-.61-.539-.4-.34-.8-.657-1.2-.989-.574-.477-1.146-.954-1.725-1.418-.21-.169-.415-.347-.625-.514-.459-.363-.926-.706-1.388-1.062-.514-.4-1.026-.8-1.542-1.182-.17-.126-.338-.262-.509-.389-.6-.442-1.2-.857-1.806-1.285-.412-.292-.822-.593-1.236-.88-.095-.065-.188-.135-.282-.2q-1.6-1.1-3.22-2.13l-.036-.021c-.1-.067-.208-.127-.312-.192-.944-.6-1.894-1.183-2.848-1.744-.248-.146-.5-.289-.743-.433q-1.23-.71-2.532-1.414c-.115-.063-.242-.123-.358-.187-.847-.455-1.715-.9-2.591-1.34-.317-.16-.618-.328-.939-.485-.05-.025-.1-.048-.156-.074-1.308-.644-2.639-1.271-3.976-1.873l-.175-.081c-.28-.127-.56-.234-.842-.357-.992-.437-1.981-.861-2.97-1.263-.16-.063-.322-.139-.48-.2-.357-.145-.7-.263-1.058-.4-.729-.281-1.448-.558-2.164-.814-.217-.08-.441-.173-.656-.249-.364-.128-.708-.229-1.065-.351-.532-.179-1.062-.355-1.582-.519-.21-.065-.432-.146-.639-.209-.456-.137-.887-.245-1.328-.368-.331-.093-.669-.191-.991-.274-.116-.03-.24-.071-.354-.1-.735-.185-1.449-.345-2.133-.479l-.271-.051-41.253,27.8c.872.162,19.761,7.4,20.605,7.853.987.53,1.962,1.065,2.891,1.6,1.2.7,2.4,1.426,3.591,2.177.1.065.208.125.312.19,1.188.756,2.368,1.546,3.54,2.356.412.283.817.581,1.226.871.778.551,1.553,1.107,2.324,1.681.516.386,1.027.784,1.54,1.179.674.52,1.348,1.042,2.016,1.579.575.461,1.146.937,1.718,1.41.609.507,1.219,1.018,1.822,1.537.73.632,1.456,1.278,2.178,1.927.514.463,1.031.92,1.54,1.394,1.049.972,2.087,1.969,3.118,2.979.255.251.516.493.771.748,1.443,1.438,2.862,2.924,4.264,4.436.539.581,1.07,1.169,1.6,1.76.5.553,1,1.106,1.489,1.667.581.666,1.155,1.342,1.727,2.018.479.565.959,1.128,1.432,1.7.584.708,1.156,1.428,1.73,2.147.439.551.884,1.1,1.318,1.657.582.75,1.155,1.514,1.727,2.276.409.542.824,1.081,1.228,1.63.6.822,1.189,1.658,1.781,2.491.357.505.722,1,1.074,1.514.681.982,1.344,1.98,2.006,2.979.249.374.5.738.749,1.113q1.348,2.068,2.646,4.174c.19.308.369.623.556.931.669,1.1,1.334,2.2,1.979,3.32.3.519.588,1.045.883,1.568.517.914,1.035,1.826,1.535,2.748.323.591.631,1.191.946,1.786.453.859.912,1.718,1.352,2.584.328.643.641,1.291.959,1.937.41.829.822,1.66,1.219,2.495.316.667.621,1.338.932,2.009.348.758.694,1.517,1.033,2.279q1.313,2.963,2.512,5.952c.187.468.359.938.542,1.407q.763,1.958,1.477,3.927c.249.688.49,1.375.728,2.065q.466,1.342.905,2.683c.245.755.487,1.511.721,2.268q.371,1.191.719,2.383t.684,2.4q.29,1.058.566,2.118.337,1.3.647,2.6c.145.6.289,1.2.426,1.8.212.935.406,1.87.6,2.8.108.539.225,1.077.329,1.614q.374,1.946.688,3.882c.023.135.05.272.07.408q.341,2.142.6,4.272c.051.41.092.817.137,1.225q.173,1.513.306,3.018c.044.489.081.978.117,1.468.071.953.127,1.9.175,2.851.021.46.048.922.063,1.381.05,1.35.082,2.7.078,4.033,0,1.377-.041,2.723-.1,4.048-.018.371-.047.728-.068,1.1-.053.914-.111,1.821-.188,2.709-.046.511-.1,1.011-.156,1.515-.08.743-.164,1.482-.262,2.207-.073.538-.154,1.068-.238,1.6-.1.666-.214,1.324-.335,1.974-.109.591-.229,1.174-.351,1.753s-.255,1.169-.395,1.742c-.16.67-.334,1.322-.512,1.97-.141.511-.283,1.021-.435,1.521-.236.774-.491,1.526-.754,2.271-.139.4-.272.806-.42,1.2q-.716,1.892-1.539,3.651-.56,1.19-1.172,2.318c-.049.089-.093.187-.142.276-.461.84-.948,1.648-1.45,2.437-.731,1.141-1.511,2.214-2.324,3.244-.194.249-.4.49-.595.731-.787.945-1.6,1.854-2.455,2.7-.069.068-.135.146-.205.213a35.213,35.213,0,0,1-2.878,2.486c-.241.188-.483.372-.73.553-1.018.753,2.105,1.41,2.316,4.723l47.56-27.416C5878.742,4182.372,5867.766,4130.85,5867.565,4129.575Z" transform="translate(-5546.553 -3852.275)"/></g><path class="e" d="M5595.829,3938.218c-.989.1-2.042.255-3,.44" transform="translate(-5519.943 -3904.478)"/><path class="h" d="M5885.6,4101.475c-8.572-4.952-19.929-9.8-27.622-11.236-15.812-56.259-55.417-115.374-102.007-142.272-57.089-32.961-105.313-5.925-110.775,55.051-9.281-11.465-19.452-18.73-30.263-26.351-27.405-19.322-63.507-7.508-63.507,38.918,0,45.24,26.323,80.489,61.5,101.316l268.856,155.225c42.085,23.777,79.76,10.979,79.76-39.122C5961.539,4184.662,5927.684,4125.771,5885.6,4101.475Z" transform="translate(-5551.427 -3907.844)"/></g></g><g transform="translate(-171.515 184.952)"><path class="c" d="M5552.009,4159.088l67.705-38.862,248.844,143.856-67.7,38.862Z" transform="translate(-4398.761 -3481.895)"/><g transform="translate(1152.425 354.048)"><path class="d" d="M5816.173,4066.569c-6.792-3.922-15.79-7.761-21.883-8.9-12.529-44.569-43.9-91.4-80.816-112.714-45.227-26.111-82.487-3.54-86.814,44.769-7.353-9.084-15.847-16.79-24.92-22.03-27.867-16.088-50.312.161-50.312,30.67,0,39.3,22.129,64.822,50,81.323l214.363,123.762c33.341,18.838,60.44,5.635,60.549-32.674S5849.513,4085.818,5816.173,4066.569Z" transform="translate(-5551.427 -3912.893)"/><path class="e" d="M5604,3970.163c.122.087.247.172.368.262.962.705,1.912,1.443,2.855,2.2.282.227.563.46.843.692q1.027.846,2.033,1.729c.347.3.693.606,1.036.916.6.536,1.184,1.089,1.769,1.645.416.4.834.786,1.248,1.191.455.447.9.912,1.352,1.369.614.628,1.229,1.255,1.832,1.9.35.377.7.763,1.041,1.146q1.57,1.732,3.08,3.542c.351.421.711.83,1.057,1.256l36.137-21q-.265-.328-.533-.654c-.169-.206-.352-.4-.522-.6q-1.51-1.812-3.077-3.541c-.194-.212-.373-.441-.568-.652-.155-.171-.321-.328-.478-.5-.6-.646-1.215-1.272-1.829-1.9-.316-.324-.626-.666-.947-.983-.131-.133-.271-.257-.406-.389-.413-.4-.832-.8-1.248-1.19-.39-.37-.772-.753-1.167-1.115-.2-.181-.4-.352-.6-.531-.344-.31-.688-.612-1.035-.915-.311-.271-.616-.554-.93-.821-.364-.311-.737-.6-1.105-.909-.28-.23-.558-.465-.842-.691-.149-.12-.3-.249-.447-.369q-1.129-.893-2.274-1.738c-.044-.033-.091-.062-.136-.1-.119-.088-.242-.171-.362-.259-.562-.407-1.124-.814-1.693-1.2-.317-.217-.64-.422-.959-.634-.22-.145-.437-.292-.657-.434-.174-.113-.346-.233-.521-.345q-1.043-.664-2.1-1.283l-.483-.281q-.8-.465-1.6-.9c-.2-.109-.4-.206-.6-.31-.275-.146-.549-.287-.823-.427-.215-.109-.431-.228-.645-.333-.33-.164-.657-.31-.986-.465-.246-.117-.5-.237-.74-.35-.1-.046-.206-.1-.308-.145-.631-.283-1.256-.545-1.88-.8-.038-.016-.078-.034-.118-.05l-.013-.005q-1.018-.409-2.024-.762c-.082-.028-.161-.051-.243-.079-.235-.082-.471-.154-.706-.232-.353-.116-.707-.24-1.057-.345-.163-.049-.322-.088-.485-.134-.295-.086-.588-.165-.88-.243-.233-.062-.47-.136-.7-.194s-.455-.1-.683-.151q-.445-.1-.886-.2c-.16-.033-.323-.074-.482-.107-.271-.052-.534-.084-.8-.131-.337-.058-.677-.119-1.012-.167-.121-.018-.25-.045-.373-.061-.274-.039-.543-.054-.818-.084-.357-.039-.717-.081-1.072-.109-.107-.009-.218-.025-.324-.033-.239-.017-.471-.013-.71-.024-.429-.019-.854-.04-1.275-.042-.122,0-.246-.013-.366-.011-.183,0-.357.021-.538.025-.527.011-1.049.035-1.565.075-.157.011-.321.007-.479.023-.115.01-.223.037-.338.048-.794.083-1.64.2-2.405.353-.062.012-44.328,25.6-44.328,25.6.606-.354,2.351-1.317,2.986-1.615.209-.1,27.016.262,27.749.6.247.111.5.233.74.349q.813.383,1.632.8.41.21.823.427c.729.385,1.461.78,2.2,1.205,1.042.6,2.075,1.245,3.1,1.91.219.143.438.289.656.434C5602.239,3968.917,5603.123,3969.526,5604,3970.163Z" transform="translate(-5547.28 -3911.183)"/><path class="f" d="M5689.057,3954.471c.607.4,1.215.792,1.819,1.2.519.354,1.035.722,1.552,1.084.638.449,1.277.9,1.912,1.362.483.352.96.716,1.439,1.078.721.541,1.44,1.086,2.156,1.647.46.362.921.731,1.383,1.1q1.208.972,2.406,1.979c.423.354.845.709,1.266,1.071q1.738,1.494,3.453,3.054c.122.111.245.217.367.329,1.4,1.288,2.781,2.616,4.151,3.967.312.308.622.619.933.93q2.423,2.427,4.784,4.976c.354.384.7.776,1.057,1.164.725.8,1.447,1.6,2.163,2.421q.612.7,1.22,1.41,1.033,1.2,2.052,2.432c.384.463.769.924,1.149,1.391q1.3,1.6,2.574,3.23c.229.293.463.58.689.874q1.6,2.065,3.147,4.183c.265.365.525.734.789,1.1q1.158,1.6,2.291,3.228c.341.489.676.982,1.014,1.474q1.041,1.526,2.058,3.07c.312.475.626.947.936,1.425q1.273,1.969,2.51,3.968c.106.174.219.345.326.52q1.386,2.26,2.719,4.556c.26.448.513.9.769,1.347q.95,1.657,1.871,3.33.439.795.869,1.6.9,1.662,1.764,3.336c.242.468.49.936.729,1.4q1.23,2.414,2.4,4.847c.12.249.233.5.351.749q.99,2.082,1.93,4.178c.29.644.575,1.291.859,1.938.3.68.593,1.36.884,2.042.3.7.589,1.4.88,2.1s.565,1.372.841,2.059c.2.487.384.975.575,1.462.818,2.084,1.611,4.17,2.354,6.259.039.114.078.227.117.342.619,1.749,1.2,3.5,1.767,5.247q.237.735.47,1.468.671,2.141,1.287,4.277c.108.377.226.755.332,1.13l36.138-21c-.041-.147-.082-.294-.125-.441-.064-.23-.141-.461-.208-.691q-.614-2.135-1.287-4.276c-.076-.244-.142-.488-.221-.73s-.168-.492-.248-.738c-.563-1.748-1.146-3.495-1.765-5.244-.035-.095-.063-.188-.1-.283l-.024-.063c-.742-2.087-1.533-4.173-2.351-6.256-.09-.23-.168-.462-.26-.692-.1-.259-.213-.516-.316-.773q-.413-1.03-.841-2.056-.433-1.053-.878-2.1c-.29-.681-.588-1.362-.884-2.042-.191-.433-.373-.867-.564-1.3-.1-.213-.2-.425-.3-.639q-.941-2.095-1.929-4.176c-.119-.25-.232-.5-.351-.749q-1.167-2.434-2.4-4.847c-.069-.137-.134-.276-.2-.413-.171-.332-.354-.66-.526-.992q-.869-1.677-1.764-3.338-.43-.8-.869-1.6-.92-1.672-1.871-3.328c-.255-.45-.509-.9-.768-1.347-.892-1.529-1.793-3.05-2.72-4.558-.107-.173-.219-.344-.326-.519q-1.236-2-2.51-3.969c-.31-.476-.623-.948-.936-1.423q-1.017-1.546-2.058-3.071-.505-.74-1.014-1.475-1.13-1.627-2.291-3.227c-.264-.366-.524-.736-.791-1.1q-1.55-2.115-3.146-4.185c-.228-.294-.46-.581-.689-.873q-1.271-1.63-2.571-3.226c-.147-.181-.289-.369-.437-.55-.236-.287-.479-.563-.718-.849q-1.017-1.223-2.045-2.424-.612-.712-1.226-1.416c-.715-.817-1.437-1.621-2.162-2.421-.273-.3-.538-.61-.812-.907-.079-.087-.164-.167-.245-.254q-2.358-2.554-4.787-4.979c-.149-.151-.294-.313-.444-.465s-.324-.3-.483-.459c-1.372-1.352-2.752-2.682-4.153-3.969-.017-.016-.034-.034-.053-.051-.1-.095-.21-.184-.315-.28q-1.713-1.56-3.453-3.054c-.156-.134-.311-.28-.468-.414-.264-.225-.536-.436-.8-.658q-1.195-1-2.4-1.976c-.252-.2-.5-.421-.754-.622-.21-.165-.421-.317-.63-.481-.716-.561-1.437-1.108-2.158-1.651-.322-.242-.639-.5-.961-.735-.157-.116-.317-.222-.474-.336-.636-.465-1.275-.916-1.918-1.365-.383-.27-.762-.552-1.147-.816-.132-.092-.268-.175-.4-.266-.606-.413-1.215-.808-1.826-1.207-.42-.274-.835-.563-1.254-.831-.125-.078-.25-.15-.374-.228-.557-.352-1.118-.688-1.679-1.027-.45-.276-.9-.562-1.351-.828-.263-.156-.526-.308-.79-.461q-1.255-.725-2.5-1.4c-.388-.21-.772-.4-1.157-.6-.4-.21-.805-.421-1.206-.625-.288-.145-.577-.3-.862-.446-.761-.376-1.515-.721-2.269-1.068-.246-.113-.493-.238-.738-.348-.068-.031-.139-.067-.206-.1q-1.6-.719-3.189-1.353c-.126-.05-.251-.092-.376-.141-.351-.139-.7-.26-1.043-.391-.606-.231-1.214-.472-1.817-.685-.314-.11-.625-.2-.941-.306-.428-.146-.854-.284-1.28-.42-.341-.107-.684-.232-1.022-.333-.508-.154-1.008-.277-1.513-.417-.433-.12-.869-.248-1.3-.359-.179-.045-.362-.1-.542-.148-.746-.187-1.482-.336-2.221-.493-.324-.069-.652-.152-.974-.216-.063-.013-.128-.031-.191-.042-1.051-.2-2.09-.367-3.125-.514-.156-.021-.315-.056-.47-.078l-.024,0q-1.867-.248-3.695-.376h-.045q-1.975-.135-3.9-.128c-.033,0-.066,0-.1,0-1.046,0-2.078.051-3.1.118-.225.015-.448.029-.671.048s-.455.025-.679.047q-1.293.118-2.557.3l-.047.009c-.819.12-1.63.258-2.432.42-.174.035-.34.084-.512.122-.488.1-.965.224-1.444.342-.611.151-1.218.305-1.817.479-.478.138-.948.291-1.419.445-.342.111-.693.2-1.031.324-.191.067-.371.158-.562.227-.821.3-1.626.638-2.423.988-.371.161-.745.311-1.109.482-1.144.539-2.267,1.114-3.357,1.748l-36.138,21c1.091-.633,2.217-1.208,3.358-1.748.364-.171.738-.321,1.109-.482.8-.349,1.6-.682,2.423-.987q.79-.292,1.593-.552c.471-.154.942-.306,1.421-.445.6-.174,1.2-.328,1.812-.478.481-.119.959-.241,1.447-.344.967-.2,1.942-.393,2.934-.54l.058-.01c1.064-.154,2.146-.266,3.236-.351.224-.017.447-.032.672-.046,1.054-.069,2.116-.113,3.194-.116q1.927,0,3.9.129,1.86.127,3.765.383c.153.02.312.054.466.077,1.1.157,2.2.336,3.317.557.323.063.651.147.977.218.916.195,1.834.4,2.761.641.432.111.867.238,1.3.358.841.234,1.685.481,2.534.75.428.135.854.275,1.283.419.915.308,1.834.642,2.759.992.346.13.69.253,1.039.39,1.249.494,2.505,1.02,3.772,1.591.244.111.492.234.738.348q1.562.719,3.135,1.518c.4.2.8.411,1.2.621,1.216.639,2.435,1.293,3.663,2,.72.417,1.434.859,2.151,1.294.556.337,1.114.671,1.667,1.02S5688.511,3954.115,5689.057,3954.471Z" transform="translate(-5521.556 -3919.032)"/><g transform="translate(102.379 0)"><path class="f" d="M5839.555,4105.371l-.009-.042c-.018-.109-.038-.218-.056-.327-.146-.9-.3-1.808-.469-2.713-.026-.134-.058-.27-.084-.4-.083-.432-.176-.862-.264-1.294-.106-.524-.206-1.049-.322-1.574-.048-.225-.106-.451-.158-.675-.11-.484-.226-.965-.342-1.448-.1-.4-.183-.805-.286-1.208-.071-.292-.158-.583-.232-.876-.148-.566-.3-1.135-.457-1.7-.091-.334-.174-.667-.268-1-.087-.308-.189-.615-.28-.923q-.28-.959-.578-1.917c-.1-.319-.187-.639-.288-.958-.092-.287-.2-.572-.29-.859q-.352-1.079-.726-2.155c-.116-.338-.22-.675-.341-1.012-.076-.216-.166-.429-.243-.645q-.57-1.58-1.186-3.152c-.114-.295-.217-.592-.334-.887-.032-.082-.069-.161-.1-.243q-.96-2.4-2.017-4.778c-.059-.135-.112-.272-.172-.408-.212-.475-.439-.944-.655-1.417-.249-.54-.5-1.08-.75-1.618-.317-.667-.646-1.329-.974-1.993-.257-.522-.511-1.043-.773-1.562-.062-.119-.116-.237-.177-.356-.294-.574-.6-1.143-.907-1.714-.252-.479-.5-.961-.76-1.439-.4-.736-.814-1.465-1.229-2.2-.238-.423-.47-.85-.715-1.271-.511-.883-1.039-1.758-1.566-2.631-.159-.259-.309-.522-.468-.78q-1.039-1.689-2.121-3.347c-.2-.308-.411-.609-.614-.915-.528-.8-1.057-1.589-1.6-2.373-.282-.408-.574-.808-.861-1.213-.474-.67-.947-1.339-1.431-2-.325-.442-.658-.876-.987-1.312-.458-.611-.916-1.221-1.382-1.822-.351-.451-.709-.893-1.065-1.34s-.687-.876-1.039-1.305c-.112-.139-.229-.271-.343-.408-.38-.462-.767-.915-1.153-1.371-.459-.541-.919-1.082-1.383-1.615-.4-.452-.8-.9-1.2-1.339-.313-.347-.618-.7-.932-1.043-.116-.126-.237-.243-.354-.368-1.125-1.215-2.264-2.408-3.423-3.564-.027-.026-.054-.056-.081-.083-.177-.175-.359-.339-.537-.513q-1.241-1.221-2.505-2.4c-.114-.105-.225-.217-.337-.324-.294-.27-.6-.522-.892-.788-.584-.524-1.167-1.046-1.757-1.555-.164-.141-.324-.292-.49-.432-.318-.273-.645-.527-.965-.794-.461-.383-.919-.766-1.384-1.139-.169-.136-.333-.278-.5-.413-.368-.291-.743-.566-1.114-.852-.412-.318-.824-.639-1.238-.949-.136-.1-.271-.21-.409-.312-.479-.355-.966-.688-1.449-1.032-.331-.235-.66-.477-.992-.707-.076-.053-.152-.109-.227-.161q-1.286-.883-2.584-1.71l-.029-.017c-.083-.054-.167-.1-.25-.155-.758-.479-1.52-.949-2.286-1.4-.2-.117-.4-.232-.6-.348q-.988-.57-2.033-1.135c-.093-.051-.195-.1-.288-.15-.68-.365-1.377-.721-2.08-1.075-.255-.129-.5-.263-.754-.39-.04-.02-.084-.038-.125-.06-1.05-.517-2.119-1.02-3.192-1.5l-.14-.065c-.226-.1-.449-.188-.676-.287-.8-.351-1.591-.691-2.384-1.014-.128-.051-.259-.112-.386-.162-.287-.116-.563-.211-.849-.321-.586-.226-1.163-.447-1.737-.654-.174-.063-.354-.139-.527-.2-.293-.1-.568-.184-.855-.281-.427-.144-.853-.286-1.27-.417-.168-.053-.347-.117-.513-.168-.366-.11-.712-.2-1.066-.3-.266-.075-.537-.154-.8-.22-.094-.024-.193-.057-.284-.08-.59-.148-1.163-.277-1.712-.384l-.218-.042-33.115,22.313c.7.13,15.863,5.94,16.541,6.3.793.425,1.576.854,2.32,1.286.967.558,1.927,1.145,2.883,1.748.084.053.167.1.25.152.954.607,1.9,1.241,2.842,1.891.33.228.656.467.983.7.625.442,1.247.889,1.866,1.35.414.31.825.629,1.236.947.541.417,1.082.837,1.618,1.268.461.37.919.752,1.379,1.132.489.407.979.817,1.462,1.234.586.507,1.169,1.025,1.749,1.547.412.372.828.739,1.236,1.119.843.78,1.676,1.58,2.5,2.391.2.2.414.4.619.6,1.158,1.154,2.3,2.347,3.422,3.561.433.466.859.938,1.286,1.413.4.444.8.888,1.195,1.338.467.535.928,1.077,1.386,1.62.384.454.77.906,1.149,1.365.469.568.928,1.146,1.389,1.724.353.442.709.882,1.058,1.33.467.6.928,1.215,1.386,1.827.329.435.662.868.985,1.309.482.66.955,1.331,1.43,2,.287.406.579.805.862,1.215.546.789,1.079,1.59,1.61,2.391.2.3.4.592.6.893q1.083,1.66,2.124,3.351c.153.248.3.5.446.748.537.883,1.071,1.77,1.589,2.666.241.417.472.839.708,1.259.415.733.832,1.466,1.232,2.206.26.475.506.957.76,1.434.364.69.732,1.379,1.085,2.075.263.516.514,1.036.77,1.554.329.666.66,1.333.978,2,.254.535.5,1.074.748,1.612.279.609.558,1.218.83,1.83q1.053,2.378,2.016,4.777c.15.376.288.754.435,1.129q.613,1.573,1.186,3.153c.2.553.394,1.1.584,1.658q.374,1.076.727,2.153c.2.606.391,1.213.578,1.82q.3.957.577,1.914t.549,1.93q.233.85.455,1.7.27,1.043.52,2.085c.116.482.232.964.342,1.445.17.751.326,1.5.481,2.25.087.433.181.864.264,1.3.2,1.041.386,2.08.552,3.116.02.108.04.219.057.327q.274,1.72.48,3.43c.041.329.074.656.11.983q.138,1.215.245,2.422c.036.392.065.785.094,1.178.058.765.1,1.528.141,2.288.017.37.038.741.05,1.109.04,1.083.066,2.166.063,3.237,0,1.1-.033,2.186-.08,3.249-.014.3-.037.584-.055.879-.042.734-.089,1.462-.151,2.175-.037.411-.083.812-.125,1.216-.064.6-.132,1.189-.21,1.771-.059.432-.124.858-.191,1.281-.083.535-.171,1.063-.269,1.584-.088.475-.183.942-.282,1.408s-.2.938-.316,1.4c-.129.538-.268,1.062-.411,1.582-.112.41-.227.819-.348,1.221-.19.622-.395,1.225-.605,1.823-.111.32-.219.647-.337.96q-.576,1.518-1.236,2.931-.449.955-.94,1.861c-.039.072-.075.149-.114.222-.37.674-.761,1.323-1.164,1.956-.587.916-1.213,1.777-1.866,2.6-.156.2-.318.394-.478.586-.632.759-1.283,1.489-1.971,2.168-.056.055-.108.117-.165.171a28.232,28.232,0,0,1-2.311,2c-.194.152-.388.3-.586.444-.817.6,1.69,1.131,1.86,3.791l38.178-22.007C5848.527,4147.753,5839.716,4106.395,5839.555,4105.371Z" transform="translate(-5581.866 -3882.771)"/><path class="e" d="M5689.195,3954.424c.607.4,1.215.793,1.82,1.2.52.354,1.035.721,1.551,1.084.639.45,1.278.9,1.912,1.361.484.353.961.716,1.441,1.077.721.542,1.439,1.088,2.154,1.648.463.363.924.732,1.383,1.1q1.211.973,2.407,1.978c.422.356.846.709,1.267,1.071q1.739,1.494,3.452,3.055c.122.11.246.218.369.329,1.4,1.286,2.779,2.616,4.15,3.966.312.309.622.619.933.929q2.424,2.429,4.784,4.976c.354.384.705.777,1.057,1.164q1.091,1.2,2.163,2.422c.409.467.814.937,1.221,1.409q1.033,1.206,2.053,2.432c.384.461.768.924,1.148,1.392q1.3,1.6,2.575,3.23c.229.292.461.578.688.874q1.6,2.064,3.147,4.182c.266.364.525.734.79,1.1q1.159,1.6,2.292,3.226.51.736,1.014,1.476,1.042,1.523,2.057,3.07c.313.473.626.947.936,1.423q1.274,1.971,2.51,3.969c.109.174.219.345.326.519q1.39,2.262,2.72,4.557c.26.447.513.9.77,1.347q.948,1.658,1.87,3.328.439.8.869,1.595.9,1.663,1.764,3.338c.242.468.489.934.729,1.4q1.228,2.415,2.4,4.847c.118.249.232.5.351.749q.988,2.082,1.929,4.176.436.968.859,1.938c.3.68.6,1.361.885,2.042.3.7.589,1.4.879,2.1.283.685.566,1.372.841,2.059.2.486.383.974.576,1.461.818,2.084,1.609,4.171,2.353,6.26.041.113.078.228.118.341.619,1.75,1.2,3.5,1.768,5.249q.237.732.467,1.466.672,2.142,1.287,4.279c.109.376,3.25,2.458,3.354,2.835l33.115-22.312c-.041-.147-.266-1.294-.332-1.525q-.615-2.137-1.288-4.277c-.076-.243-.143-.486-.219-.73s-.17-.492-.249-.736c-.564-1.748-1.147-3.5-1.766-5.244-.032-.1-.062-.189-.1-.285l-.023-.062c-.743-2.086-1.535-4.172-2.354-6.257-.09-.23-.167-.46-.26-.691-.1-.259-.211-.516-.315-.774-.275-.686-.557-1.371-.84-2.056-.291-.7-.583-1.4-.88-2.1q-.435-1.023-.885-2.042c-.188-.434-.369-.868-.563-1.3-.094-.213-.2-.424-.295-.637q-.94-2.093-1.928-4.176c-.12-.25-.233-.5-.352-.75q-1.167-2.433-2.4-4.845c-.069-.137-.133-.275-.2-.413-.172-.334-.354-.662-.526-.994q-.866-1.674-1.764-3.336-.428-.8-.869-1.6-.918-1.673-1.87-3.33c-.257-.447-.51-.9-.77-1.344q-1.333-2.3-2.718-4.559c-.107-.173-.218-.346-.326-.52q-1.236-2-2.511-3.968c-.31-.477-.624-.949-.935-1.423q-1.019-1.548-2.058-3.07c-.338-.494-.674-.987-1.014-1.476q-1.131-1.628-2.291-3.228c-.264-.365-.523-.734-.791-1.1q-1.551-2.115-3.147-4.183c-.228-.294-.46-.582-.688-.875q-1.274-1.628-2.572-3.226c-.147-.181-.29-.368-.438-.548-.236-.289-.479-.564-.716-.85q-1.015-1.223-2.046-2.425c-.407-.473-.813-.946-1.226-1.416q-1.072-1.222-2.162-2.419c-.271-.3-.537-.61-.811-.907-.08-.087-.165-.168-.243-.254q-2.361-2.554-4.789-4.98c-.15-.149-.294-.313-.445-.463s-.324-.3-.482-.46c-1.371-1.351-2.752-2.682-4.153-3.968l-.053-.051c-.1-.1-.212-.184-.315-.279q-1.714-1.562-3.453-3.054c-.157-.136-.31-.28-.468-.414-.264-.226-.534-.435-.8-.659q-1.2-1-2.4-1.976c-.253-.2-.5-.42-.756-.621-.209-.165-.42-.319-.63-.483-.717-.561-1.436-1.107-2.158-1.649-.321-.242-.638-.5-.961-.736-.157-.115-.316-.222-.474-.336-.636-.465-1.276-.914-1.917-1.365-.384-.27-.762-.553-1.146-.817-.135-.09-.269-.174-.4-.265-.6-.412-1.215-.808-1.824-1.208-.42-.274-.834-.562-1.256-.829-.123-.079-.249-.15-.372-.228-.558-.354-1.119-.688-1.678-1.029-.451-.273-.9-.562-1.352-.828-.264-.154-.527-.308-.789-.459q-1.255-.724-2.5-1.4c-.387-.209-.771-.4-1.157-.6-.4-.211-.806-.421-1.205-.624-.288-.146-.577-.306-.864-.447-.759-.376-1.514-.721-2.269-1.069-.245-.113-.492-.238-.738-.348-.068-.031-.137-.066-.206-.1q-1.6-.716-3.188-1.351c-.127-.051-.252-.092-.377-.143-.35-.137-.693-.26-1.042-.392-.6-.229-1.214-.472-1.817-.682-.315-.112-.625-.2-.94-.308q-.642-.216-1.281-.418c-.339-.108-.684-.232-1.021-.334-.508-.154-1.009-.277-1.513-.418-.434-.12-.87-.247-1.3-.357-.179-.046-.363-.1-.542-.15-.746-.186-1.482-.335-2.22-.493-.325-.07-.653-.153-.975-.217-.062-.013-.127-.03-.189-.042-1.053-.2-2.091-.366-3.126-.513-.155-.022-.315-.057-.47-.078l-.024,0q-1.867-.25-3.695-.377h-.045q-1.974-.136-3.9-.127c-.033,0-.066,0-.1,0-1.045.006-2.076.052-3.1.119-.224.014-.447.03-.669.046s-.457.027-.681.048q-1.291.119-2.558.3l-.046.007c-.82.122-1.632.26-2.433.42-.173.034-.34.085-.512.121-.485.1-.965.225-1.444.343-.61.15-1.218.3-1.817.478-.478.139-.948.291-1.417.445-.342.112-.695.205-1.032.323-.193.068-.373.159-.563.229-.82.3-1.626.637-2.423.986-.369.163-.744.311-1.107.483-1.144.538-2.267,1.114-3.357,1.747l-36.138,21c1.091-.635,2.215-1.21,3.357-1.749.363-.171.738-.32,1.109-.482.8-.351,1.6-.684,2.423-.986.526-.2,1.057-.377,1.592-.553.472-.154.943-.307,1.421-.446.6-.174,1.206-.327,1.813-.477.481-.119.959-.24,1.447-.343.968-.205,1.942-.395,2.935-.54l.057-.01c1.063-.156,2.146-.265,3.238-.352.221-.017.445-.031.669-.047,1.055-.068,2.118-.112,3.2-.115q1.925-.006,3.9.129,1.861.126,3.764.38c.154.022.312.055.467.078,1.1.156,2.2.336,3.318.557.322.063.651.147.975.216.916.2,1.833.4,2.761.642.433.111.868.238,1.3.359.84.233,1.683.481,2.533.75.427.136.853.274,1.283.419q1.371.462,2.758.991c.347.131.691.253,1.039.39q1.875.739,3.774,1.592c.245.11.491.233.736.346q1.56.721,3.134,1.518c.4.2.8.411,1.2.622,1.216.638,2.436,1.292,3.665,2,.719.416,1.434.858,2.15,1.292.556.338,1.113.673,1.667,1.022S5688.651,3954.068,5689.195,3954.424Z" transform="translate(-5623.876 -3919.051)"/><path class="e" d="M5839.555,4105.371l-.009-.042c-.018-.109-.038-.218-.056-.327-.146-.9-.3-1.808-.469-2.713-.026-.134-.058-.27-.084-.4-.083-.432-.176-.862-.264-1.294-.106-.524-.206-1.049-.322-1.574-.048-.225-.106-.451-.158-.675-.11-.484-.226-.965-.342-1.448-.1-.4-.183-.805-.286-1.208-.071-.292-.158-.583-.232-.876-.148-.566-.3-1.135-.457-1.7-.091-.334-.174-.667-.268-1-.087-.308-.189-.615-.28-.923q-.28-.959-.578-1.917c-.1-.319-.187-.639-.288-.958-.092-.287-.2-.572-.29-.859q-.352-1.079-.726-2.155c-.116-.338-.22-.675-.341-1.012-.076-.216-.166-.429-.243-.645q-.57-1.58-1.186-3.152c-.114-.295-.217-.592-.334-.887-.032-.082-.069-.161-.1-.243q-.96-2.4-2.017-4.778c-.059-.135-.112-.272-.172-.408-.212-.475-.439-.944-.655-1.417-.249-.54-.5-1.08-.75-1.618-.317-.667-.646-1.329-.974-1.993-.257-.522-.511-1.043-.773-1.562-.062-.119-.116-.237-.177-.356-.294-.574-.6-1.143-.907-1.714-.252-.479-.5-.961-.76-1.439-.4-.736-.814-1.465-1.229-2.2-.238-.423-.47-.85-.715-1.271-.511-.883-1.039-1.758-1.566-2.631-.159-.259-.309-.522-.468-.78q-1.039-1.689-2.121-3.347c-.2-.308-.411-.609-.614-.915-.528-.8-1.057-1.589-1.6-2.373-.282-.408-.574-.808-.861-1.213-.474-.67-.947-1.339-1.431-2-.325-.442-.658-.876-.987-1.312-.458-.611-.916-1.221-1.382-1.822-.351-.451-.709-.893-1.065-1.34s-.687-.876-1.039-1.305c-.112-.139-.229-.271-.343-.408-.38-.462-.767-.915-1.153-1.371-.459-.541-.919-1.082-1.383-1.615-.4-.452-.8-.9-1.2-1.339-.313-.347-.618-.7-.932-1.043-.116-.126-.237-.243-.354-.368-1.125-1.215-2.264-2.408-3.423-3.564-.027-.026-.054-.056-.081-.083-.177-.175-.359-.339-.537-.513q-1.241-1.221-2.505-2.4c-.114-.105-.225-.217-.337-.324-.294-.27-.6-.522-.892-.788-.584-.524-1.167-1.046-1.757-1.555-.164-.141-.324-.292-.49-.432-.318-.273-.645-.527-.965-.794-.461-.383-.919-.766-1.384-1.139-.169-.136-.333-.278-.5-.413-.368-.291-.743-.566-1.114-.852-.412-.318-.824-.639-1.238-.949-.136-.1-.271-.21-.409-.312-.479-.355-.966-.688-1.449-1.032-.331-.235-.66-.477-.992-.707-.076-.053-.152-.109-.227-.161q-1.286-.883-2.584-1.71l-.029-.017c-.083-.054-.167-.1-.25-.155-.758-.479-1.52-.949-2.286-1.4-.2-.117-.4-.232-.6-.348q-.988-.57-2.033-1.135c-.093-.051-.195-.1-.288-.15-.68-.365-1.377-.721-2.08-1.075-.255-.129-.5-.263-.754-.39-.04-.02-.084-.038-.125-.06-1.05-.517-2.119-1.02-3.192-1.5l-.14-.065c-.226-.1-.449-.188-.676-.287-.8-.351-1.591-.691-2.384-1.014-.128-.051-.259-.112-.386-.162-.287-.116-.563-.211-.849-.321-.586-.226-1.163-.447-1.737-.654-.174-.063-.354-.139-.527-.2-.293-.1-.568-.184-.855-.281-.427-.144-.853-.286-1.27-.417-.168-.053-.347-.117-.513-.168-.366-.11-.712-.2-1.066-.3-.266-.075-.537-.154-.8-.22-.094-.024-.193-.057-.284-.08-.59-.148-1.163-.277-1.712-.384l-.218-.042-33.115,22.313c.7.13,15.863,5.94,16.541,6.3.793.425,1.576.854,2.32,1.286.967.558,1.927,1.145,2.883,1.748.084.053.167.1.25.152.954.607,1.9,1.241,2.842,1.891.33.228.656.467.983.7.625.442,1.247.889,1.866,1.35.414.31.825.629,1.236.947.541.417,1.082.837,1.618,1.268.461.37.919.752,1.379,1.132.489.407.979.817,1.462,1.234.586.507,1.169,1.025,1.749,1.547.412.372.828.739,1.236,1.119.843.78,1.676,1.58,2.5,2.391.2.2.414.4.619.6,1.158,1.154,2.3,2.347,3.422,3.561.433.466.859.938,1.286,1.413.4.444.8.888,1.195,1.338.467.535.928,1.077,1.386,1.62.384.454.77.906,1.149,1.365.469.568.928,1.146,1.389,1.724.353.442.709.882,1.058,1.33.467.6.928,1.215,1.386,1.827.329.435.662.868.985,1.309.482.66.955,1.331,1.43,2,.287.406.579.805.862,1.215.546.789,1.079,1.59,1.61,2.391.2.3.4.592.6.893q1.083,1.66,2.124,3.351c.153.248.3.5.446.748.537.883,1.071,1.77,1.589,2.666.241.417.472.839.708,1.259.415.733.832,1.466,1.232,2.206.26.475.506.957.76,1.434.364.69.732,1.379,1.085,2.075.263.516.514,1.036.77,1.554.329.666.66,1.333.978,2,.254.535.5,1.074.748,1.612.279.609.558,1.218.83,1.83q1.053,2.378,2.016,4.777c.15.376.288.754.435,1.129q.613,1.573,1.186,3.153c.2.553.394,1.1.584,1.658q.374,1.076.727,2.153c.2.606.391,1.213.578,1.82q.3.957.577,1.914t.549,1.93q.233.85.455,1.7.27,1.043.52,2.085c.116.482.232.964.342,1.445.17.751.326,1.5.481,2.25.087.433.181.864.264,1.3.2,1.041.386,2.08.552,3.116.02.108.04.219.057.327q.274,1.72.48,3.43c.041.329.074.656.11.983q.138,1.215.245,2.422c.036.392.065.785.094,1.178.058.765.1,1.528.141,2.288.017.37.038.741.05,1.109.04,1.083.066,2.166.063,3.237,0,1.1-.033,2.186-.08,3.249-.014.3-.037.584-.055.879-.042.734-.089,1.462-.151,2.175-.037.411-.083.812-.125,1.216-.064.6-.132,1.189-.21,1.771-.059.432-.124.858-.191,1.281-.083.535-.171,1.063-.269,1.584-.088.475-.183.942-.282,1.408s-.2.938-.316,1.4c-.129.538-.268,1.062-.411,1.582-.112.41-.227.819-.348,1.221-.19.622-.395,1.225-.605,1.823-.111.32-.219.647-.337.96q-.576,1.518-1.236,2.931-.449.955-.94,1.861c-.039.072-.075.149-.114.222-.37.674-.761,1.323-1.164,1.956-.587.916-1.213,1.777-1.866,2.6-.156.2-.318.394-.478.586-.632.759-1.283,1.489-1.971,2.168-.056.055-.108.117-.165.171a28.232,28.232,0,0,1-2.311,2c-.194.152-.388.3-.586.444-.817.6,1.69,1.131,1.86,3.791l38.178-22.007C5848.527,4147.753,5839.716,4106.395,5839.555,4105.371Z" transform="translate(-5581.866 -3882.771)"/></g><path class="e" d="M5595.238,3938.219c-.794.083-1.64.2-2.405.353" transform="translate(-5534.321 -3911.134)"/><path class="h" d="M5819.682,4068.4c-6.881-3.976-16-7.865-22.174-9.019-12.693-45.163-44.485-92.616-81.885-114.208-45.828-26.46-84.54-4.757-88.924,44.192-7.45-9.2-15.615-15.035-24.293-21.153-22-15.51-50.979-6.027-50.979,31.241,0,36.316,21.131,64.612,49.365,81.331l215.823,124.605c33.783,19.087,64.026,8.813,64.026-31.405C5880.641,4135.176,5853.464,4087.9,5819.682,4068.4Z" transform="translate(-5551.427 -3912.962)"/></g></g></g></g></svg>