<svg xmlns="http://www.w3.org/2000/svg" xmlns:xlink="http://www.w3.org/1999/xlink" width="952" height="817" viewBox="0 0 952 817"><defs><style>.a{fill:#fff;}.b{clip-path:url(#a);}.c{opacity:0.8;}.aa,.ac,.c{fill:url(#b);}.d,.m{fill:#262626;}.e{fill:#161616;}.e,.m,.p,.q{opacity:0.5;}.f{fill:#4d4d4d;}.ad,.g{fill:#a6c8ff;}.h{fill:#4589ff;}.ab,.i{fill:#0f62fe;}.j,.w{fill:#c6c6c6;}.k,.n{fill:#6f6f6f;}.k,.w{fill-rule:evenodd;}.l{fill:#393939;}.o{fill:url(#c);}.p,.r{fill:#525252;}.q,.t{fill:#a8a8a8;}.s,.u{fill:#8d8d8d;}.aa,.ad,.u{opacity:0.7;}.v{fill:#e0e0e0;}.x{fill:#b3b3b3;}.y{fill:url(#d);}.z{fill:#333;}.ab{opacity:0.4;}.ae,.af{fill:#f4f4f4;}.ae{opacity:0.9;}.ag{fill:url(#g);}.ah{fill:url(#h);}.ai{fill:url(#i);}.aj{fill:url(#j);}.ak{fill:url(#k);}.al{fill:url(#l);}.am{fill:url(#m);}.an{fill:url(#n);}.ao{fill:url(#o);}.ap{fill:url(#p);}.aq{fill:url(#q);}.ar{fill:url(#r);}.as{fill:url(#s);}.at{fill:url(#t);}.au{fill:url(#u);}.av{fill:url(#v);}.aw{fill:url(#w);}.ax{fill:url(#x);}.ay{fill:url(#y);}.az{fill:url(#z);}.ba{fill:url(#aa);}.bb{fill:url(#ab);}.bc{fill:url(#ac);}.bd{fill:url(#ad);}.be{fill:url(#ae);}.bf{fill:url(#af);}.bg{fill:url(#ag);}.bh{fill:url(#ah);}.bi{fill:url(#ai);}.bj{fill:url(#aj);}.bk{fill:url(#ak);}.bl{fill:url(#al);}.bm{fill:url(#am);}.bn{fill:url(#an);}.bo{fill:url(#ao);}.bp{fill:url(#ap);}.bq{fill:url(#aq);}.br{fill:url(#ar);}.bs{fill:url(#as);}.bt{fill:url(#at);}.bu{fill:url(#au);}.bv{fill:url(#av);}.bw{fill:url(#aw);}.bx{fill:url(#ax);}.by{fill:url(#ay);}.bz{fill:url(#az);}.ca{fill:url(#ba);}.cb{fill:url(#bb);}.cc{fill:url(#bc);}.cd{fill:url(#bd);}.ce{fill:url(#be);}.cf{fill:url(#bf);}.cg{fill:url(#bg);}.ch{fill:url(#bh);}.ci{fill:url(#bi);}.cj{fill:url(#bj);}.ck{fill:url(#bk);}.cl{fill:url(#bl);}.cm{fill:url(#bm);}.cn{fill:url(#bn);}.co{fill:url(#bo);}.cp{fill:url(#bp);}.cq{fill:url(#bq);}.cr{fill:url(#br);}.cs{fill:url(#bs);}</style><clipPath id="a"><rect class="a" width="952" height="817" transform="translate(968 198)"/></clipPath><linearGradient id="b" y1="0.5" x2="1" y2="0.5" gradientUnits="objectBoundingBox"><stop offset="0" stop-color="#4589ff"/><stop offset="1" stop-color="#ee5396"/></linearGradient><linearGradient id="c" x1="-46.225" y1="-0.003" x2="-46.225" y2="0.823" gradientUnits="objectBoundingBox"><stop offset="0.444" stop-color="#0f62fe"/><stop offset="0.999" stop-color="#0f62fe" stop-opacity="0"/></linearGradient><linearGradient id="d" x1="0.212" y1="0.203" x2="0.953" y2="0.968" xlink:href="#b"/><linearGradient id="g" x1="74.769" y1="-348.707" x2="74.769" y2="-344.303" xlink:href="#b"/><linearGradient id="h" x1="74.329" y1="-346.034" x2="74.329" y2="-341.63" xlink:href="#b"/><linearGradient id="i" x1="270.428" y1="-785.386" x2="270.428" y2="-775.416" xlink:href="#b"/><linearGradient id="j" x1="104.988" y1="-447.471" x2="104.988" y2="-441.796" xlink:href="#b"/><linearGradient id="k" x1="271.148" y1="-787.607" x2="271.148" y2="-777.637" xlink:href="#b"/><linearGradient id="l" x1="59.923" y1="-295.757" x2="59.923" y2="-292.046" xlink:href="#b"/><linearGradient id="m" x1="67.856" y1="-327.04" x2="67.856" y2="-322.949" xlink:href="#b"/><linearGradient id="n" x1="105.221" y1="-454.918" x2="105.221" y2="-449.242" xlink:href="#b"/><linearGradient id="o" x1="60.383" y1="-297.323" x2="60.383" y2="-293.612" xlink:href="#b"/><linearGradient id="p" x1="74.596" y1="-347.828" x2="74.596" y2="-343.424" xlink:href="#b"/><linearGradient id="q" x1="270.433" y1="-786.715" x2="270.433" y2="-776.745" xlink:href="#b"/><linearGradient id="r" x1="104.748" y1="-446.966" x2="104.748" y2="-441.29" xlink:href="#b"/><linearGradient id="s" x1="269.713" y1="-784.495" x2="269.713" y2="-774.525" xlink:href="#b"/><linearGradient id="t" x1="74.971" y1="-349.202" x2="74.971" y2="-344.798" xlink:href="#b"/><linearGradient id="u" x1="271.868" y1="-789.827" x2="271.868" y2="-779.857" xlink:href="#b"/><linearGradient id="v" x1="105.277" y1="-448.763" x2="105.277" y2="-443.088" xlink:href="#b"/><linearGradient id="w" x1="105.805" y1="-451.137" x2="105.805" y2="-445.462" xlink:href="#b"/><linearGradient id="x" x1="74.879" y1="-353.194" x2="74.879" y2="-348.791" xlink:href="#b"/><linearGradient id="y" x1="271.548" y1="-798.902" x2="271.548" y2="-788.932" xlink:href="#b"/><linearGradient id="z" x1="105.672" y1="-456.329" x2="105.672" y2="-450.654" xlink:href="#b"/><linearGradient id="aa" x1="74.329" y1="-347.015" x2="74.329" y2="-342.611" xlink:href="#b"/><linearGradient id="ab" x1="109.43" y1="-461.831" x2="109.43" y2="-455.985" xlink:href="#b"/><linearGradient id="ac" x1="73.302" y1="-343.665" x2="73.302" y2="-339.323" xlink:href="#b"/><linearGradient id="ad" x1="74.596" y1="-351.291" x2="74.596" y2="-346.887" xlink:href="#b"/><linearGradient id="ae" x1="270.433" y1="-794.474" x2="270.433" y2="-784.505" xlink:href="#b"/><linearGradient id="af" x1="104.748" y1="-451.455" x2="104.748" y2="-445.779" xlink:href="#b"/><linearGradient id="ag" x1="105.277" y1="-453.855" x2="105.277" y2="-448.18" xlink:href="#b"/><linearGradient id="ah" x1="269.713" y1="-792.253" x2="269.713" y2="-782.284" xlink:href="#b"/><linearGradient id="ai" x1="74.329" y1="-350.478" x2="74.329" y2="-346.074" xlink:href="#b"/><linearGradient id="aj" x1="109.43" y1="-466.428" x2="109.43" y2="-460.582" xlink:href="#b"/><linearGradient id="ak" x1="73.302" y1="-347.08" x2="73.302" y2="-342.738" xlink:href="#b"/><linearGradient id="al" x1="74.906" y1="-351.591" x2="74.906" y2="-347.187" xlink:href="#b"/><linearGradient id="am" x1="110.272" y1="-467.906" x2="110.272" y2="-462.06" xlink:href="#b"/><linearGradient id="an" x1="73.864" y1="-348.178" x2="73.864" y2="-343.835" xlink:href="#b"/><linearGradient id="ao" x1="99.643" y1="-432.882" x2="99.643" y2="-427.412" xlink:href="#b"/><linearGradient id="ap" x1="104.748" y1="-448.255" x2="104.748" y2="-442.58" xlink:href="#b"/><linearGradient id="aq" x1="269.713" y1="-786.715" x2="269.713" y2="-776.745" xlink:href="#b"/><linearGradient id="ar" x1="100.092" y1="-434.952" x2="100.092" y2="-429.482" xlink:href="#b"/><linearGradient id="as" x1="105.221" y1="-450.403" x2="105.221" y2="-444.728" xlink:href="#b"/><linearGradient id="at" x1="270.936" y1="-790.488" x2="270.936" y2="-780.518" xlink:href="#b"/><linearGradient id="au" x1="99.968" y1="-436.506" x2="99.968" y2="-431.036" xlink:href="#b"/><linearGradient id="av" x1="100.417" y1="-438.601" x2="100.417" y2="-433.131" xlink:href="#b"/><linearGradient id="aw" x1="105.553" y1="-454.189" x2="105.553" y2="-448.513" xlink:href="#b"/><linearGradient id="ax" x1="271.821" y1="-797.055" x2="271.821" y2="-787.087" xlink:href="#b"/><linearGradient id="ay" x1="100.292" y1="-435.268" x2="100.292" y2="-429.797" xlink:href="#b"/><linearGradient id="az" x1="105.432" y1="-450.704" x2="105.432" y2="-445.029" xlink:href="#b"/><linearGradient id="ba" x1="271.481" y1="-791.062" x2="271.481" y2="-781.092" xlink:href="#b"/><linearGradient id="bb" x1="74.329" y1="-349.235" x2="74.329" y2="-344.832" xlink:href="#b"/><linearGradient id="bc" x1="270.428" y1="-792.633" x2="270.428" y2="-782.664" xlink:href="#b"/><linearGradient id="bd" x1="104.988" y1="-451.623" x2="104.988" y2="-445.947" xlink:href="#b"/><linearGradient id="be" x1="271.148" y1="-794.854" x2="271.148" y2="-784.884" xlink:href="#b"/><linearGradient id="bf" x1="74.596" y1="-350.052" x2="74.596" y2="-345.648" xlink:href="#b"/><linearGradient id="bg" x1="270.433" y1="-791.669" x2="270.433" y2="-781.7" xlink:href="#b"/><linearGradient id="bh" x1="104.748" y1="-449.858" x2="104.748" y2="-444.182" xlink:href="#b"/><linearGradient id="bi" x1="105.277" y1="-452.258" x2="105.277" y2="-446.583" xlink:href="#b"/><linearGradient id="bj" x1="269.713" y1="-789.449" x2="269.713" y2="-779.48" xlink:href="#b"/><linearGradient id="bk" x1="75.076" y1="-351.969" x2="75.076" y2="-347.565" xlink:href="#b"/><linearGradient id="bl" x1="272.201" y1="-796.008" x2="272.201" y2="-786.039" xlink:href="#b"/><linearGradient id="bm" x1="105.422" y1="-452.328" x2="105.422" y2="-446.653" xlink:href="#b"/><linearGradient id="bn" x1="271.481" y1="-793.788" x2="271.481" y2="-783.819" xlink:href="#b"/><linearGradient id="bo" x1="74.329" y1="-348.255" x2="74.329" y2="-343.851" xlink:href="#b"/><linearGradient id="bp" x1="109.43" y1="-463.478" x2="109.43" y2="-457.631" xlink:href="#b"/><linearGradient id="bq" x1="73.302" y1="-344.888" x2="73.302" y2="-340.546" xlink:href="#b"/><linearGradient id="br" x1="110.077" y1="-464.078" x2="110.077" y2="-458.232" xlink:href="#b"/><linearGradient id="bs" x1="73.729" y1="-345.334" x2="73.729" y2="-340.992" xlink:href="#b"/></defs><g class="b" transform="translate(-968 -198)"><g transform="translate(613.437 238.466)"><g transform="translate(480.001 293.703)"><path class="c" d="M9905.306,8462.993H9248c0,14.955.029,22.416.039,23,1.635,104.707,148.119,181.773,328.613,181.773s326.978-77.066,328.612-181.773C9905.276,8485.409,9905.306,8478.244,9905.306,8462.993Z" transform="translate(-9248.002 -8271.718)"/><ellipse class="d" cx="328.652" cy="191.064" rx="328.652" ry="191.064"/></g><path class="e" d="M9415.43,8311.332l375.85,216.969a3.8,3.8,0,0,0,3.8,0l102.318-58.982c2.535-1.463,3.477-4.182.941-5.646l-377.187-217.812a3.8,3.8,0,0,0-3.8,0l-101.922,58.883A3.8,3.8,0,0,0,9415.43,8311.332Z" transform="translate(-8820.192 -7909.39)"/><path class="e" d="M9898.477,8432.328l76.857,44.127a5.345,5.345,0,0,0,5.346,0l66.081-37.8a5.347,5.347,0,0,0,0-9.26L9969.812,8385a5.347,5.347,0,0,0-5.347,0l-65.988,38.063A5.347,5.347,0,0,0,9898.477,8432.328Z" transform="translate(-8972.257 -7953.197)"/><g transform="translate(928.823 310.684)"><g transform="translate(15.18 104.25)"><g transform="translate(70.537 39.774)"><ellipse cx="3.643" cy="2.061" rx="3.643" ry="2.061" transform="translate(1.098 7.176) rotate(-66.949)"/><path class="d" d="M10030.75,8424.783a5.686,5.686,0,0,1,2.373-4.535,1.513,1.513,0,0,1,1.566-.115h0l-2.044-1.181h0a1.508,1.508,0,0,0-1.57.113,5.685,5.685,0,0,0-2.373,4.535,2.066,2.066,0,0,0,.856,1.938v0l1.966,1.133A2.145,2.145,0,0,1,10030.75,8424.783Z" transform="translate(-10028.702 -8418.782)"/><path class="d" d="M10034.3,8425.192h0l0,0Z" transform="translate(-10030.465 -8420.803)"/></g><g transform="translate(0.95 79.396)"><ellipse cx="3.643" cy="2.061" rx="3.643" ry="2.061" transform="translate(1.097 7.177) rotate(-66.949)"/><path class="d" d="M9929.117,8482.652a5.688,5.688,0,0,1,2.374-4.535,1.511,1.511,0,0,1,1.566-.115h0l-2.043-1.18h0a1.508,1.508,0,0,0-1.57.113,5.685,5.685,0,0,0-2.373,4.535,2.069,2.069,0,0,0,.855,1.938h0l1.966,1.134A2.146,2.146,0,0,1,9929.117,8482.652Z" transform="translate(-9927.07 -8476.651)"/><path class="d" d="M9932.664,8483.062h0l0,0Z" transform="translate(-9928.833 -8478.672)"/></g><g transform="translate(69.586 79.516)"><ellipse cx="2.061" cy="3.643" rx="2.061" ry="3.643" transform="translate(0 2.083) rotate(-23.051)"/><path class="d" d="M10035.88,8481.645a5.682,5.682,0,0,0-2.373-4.535,1.5,1.5,0,0,0-1.594-.1l0,0-1.992,1.148,0,0a1.519,1.519,0,0,1,1.539.13,5.683,5.683,0,0,1,2.373,4.534,2.094,2.094,0,0,1-.824,1.917l0,0,2.063-1.19v0A2.114,2.114,0,0,0,10035.88,8481.645Z" transform="translate(-10028.136 -8476.826)"/></g><g transform="translate(0 39.518)"><ellipse cx="2.061" cy="3.643" rx="2.061" ry="3.643" transform="translate(0 2.083) rotate(-23.051)"/><path class="d" d="M9934.248,8423.226a5.681,5.681,0,0,0-2.373-4.534,1.5,1.5,0,0,0-1.594-.1l0,0-1.992,1.148,0,0a1.522,1.522,0,0,1,1.539.131,5.683,5.683,0,0,1,2.373,4.534,2.1,2.1,0,0,1-.824,1.917l0,0,2.063-1.19,0,0A2.111,2.111,0,0,0,9934.248,8423.226Z" transform="translate(-9926.504 -8418.408)"/></g><ellipse class="f" cx="7.051" cy="3.989" rx="7.051" ry="3.989" transform="translate(31.658 57.689) rotate(-6.949)"/><rect class="f" width="7.403" height="60.803" transform="translate(35.097)"/><path class="f" d="M9927.809,8460.955h0c-1.095-.633-.957-1.736.307-2.467l70.325-40.6a4.751,4.751,0,0,1,4.271-.177h0c1.095.633.958,1.736-.307,2.466l-70.325,40.6A4.751,4.751,0,0,1,9927.809,8460.955Z" transform="translate(-9926.12 -8378.536)"/><path class="f" d="M9927.809,8417.709h0c-1.095.633-.957,1.736.307,2.466l70.325,40.6a4.751,4.751,0,0,0,4.271.178h0c1.095-.633.958-1.736-.307-2.467l-70.325-40.6A4.751,4.751,0,0,0,9927.809,8417.709Z" transform="translate(-9926.12 -8378.536)"/></g><path class="g" d="M10012.134,8350.493c.088-1.686-.869-3.307-2.944-4.5l-43.424-25.071c-4.388-2.534-12.055-2.217-17.123.71l-40.938,23.66c-2.766,1.6-4.176,3.641-4.181,5.58h-.012v4.009h.008c.029,1.583,1,3.092,2.955,4.222l43.423,25.07c4.39,2.534,12.056,2.216,17.124-.71l40.938-23.66c2.71-1.565,4.115-3.559,4.177-5.462h.016Z" transform="translate(-9903.512 -8243.361)"/><path class="g" d="M10038.325,8234.454l-43.424-25.07c-1.965-1.135-3.76-1.216-5.146-.441l0,0-4.161,2.4,0,.006c-1.714.955-2.8,3.217-2.8,6.451v42.4c0,5.852,3.559,12.65,7.947,15.185l43.423,25.071c2.012,1.16,3.844,1.213,5.243.379l0,.01,4.166-2.4-.009-.009c1.655-.986,2.705-3.218,2.705-6.389v-42.4C10046.271,8243.786,10042.714,8236.987,10038.325,8234.454Z" transform="translate(-9928.51 -8208.434)"/><path class="h" d="M9949.9,8380.244l-43.423-25.07c-4.389-2.534-3.838-6.96,1.229-9.887l40.938-23.66c5.068-2.927,12.735-3.244,17.123-.71l43.424,25.071c4.39,2.534,3.839,6.96-1.229,9.886l-40.939,23.66C9961.954,8382.461,9954.287,8382.778,9949.9,8380.244Z" transform="translate(-9903.512 -8243.361)"/><path class="h" d="M10034.162,8301.557l-43.423-25.07c-4.389-2.534-7.947-9.332-7.947-15.185v-42.4c0-5.853,3.559-8.543,7.947-6.008l43.423,25.07c4.389,2.534,7.947,9.332,7.947,15.184v42.4C10042.109,8301.4,10038.551,8304.092,10034.162,8301.557Z" transform="translate(-9928.51 -8209.538)"/><path class="i" d="M10015.815,8318.581v10.6l9.177,5.3v-10.6Z" transform="translate(-9938.922 -8243.164)"/><path class="g" d="M10029.218,8326.318v10.6l3.709,2.137v-10.594Z" transform="translate(-9943.147 -8245.604)"/></g><g transform="translate(929.871 274.049)"><path class="j" d="M9932.123,8474.634c.207-2.607-.922-5.338-3.8-3.968-2.229,1.063-5,2.86-4.232,8.349.8,5.708-1.8,6.342-4.939,10.41-3.3,4.268-17.321,11.971-12.276,15.76a8.7,8.7,0,0,0,8.872.78c5.82-3.151,13.295-7.752,18.876-10.994,2.585-1.5.968-5.794-.5-7.918C9931.967,8483.927,9931.963,8476.643,9932.123,8474.634Z" transform="translate(-9905.279 -8254.367)"/><path class="j" d="M9971.36,8496.119c.207-2.609-.924-5.338-3.8-3.968-2.23,1.063-5,2.859-4.232,8.349.8,5.706-1.8,6.341-4.939,10.408-3.3,4.27-17.321,11.972-12.276,15.761a8.693,8.693,0,0,0,8.871.78c5.821-3.152,13.3-7.752,18.876-10.993,2.586-1.5.968-5.795-.5-7.918C9971.2,8505.411,9971.2,8498.127,9971.36,8496.119Z" transform="translate(-9917.651 -8261.142)"/><path class="k" d="M9932.493,8490.123a11.742,11.742,0,0,0,2,3.824c1.572,1.572,2.967,6.088.2,8.131-2.041,1.509-4.5,2.938-6.077,3.115-3.554.4-3.067,2.673-5.938,4.534-2.963,1.921-6.042,4.431-11.981,3.563-6.061-.885-6.855-4.664-4.236-7.283,2.059-2.059,9.885-7.844,13.22-12.431s4.418-3.923,6.709-1.926C9929.161,8494.066,9930.957,8493.348,9932.493,8490.123Z" transform="translate(-9905.042 -8260.618)"/><path class="k" d="M9971.746,8511.609a11.731,11.731,0,0,0,2,3.824c1.571,1.571,2.967,6.088.2,8.131-2.041,1.509-4.5,2.937-6.077,3.115-3.554.4-3.066,2.673-5.937,4.534-2.963,1.921-6.043,4.431-11.982,3.563-6.061-.885-6.855-4.665-4.236-7.284,2.059-2.059,9.885-7.845,13.219-12.43s4.419-3.923,6.711-1.927C9968.414,8515.553,9970.21,8514.834,9971.746,8511.609Z" transform="translate(-9917.419 -8267.393)"/><g transform="translate(41.764 40.788)"><path class="j" d="M9966.061,8263.89c.156-12.64,3.692-23.932,6.782-33.662,2.645-8.327,5.421-13.384,8.464-15.038,3.762-2.043,6.457.625,5.925,5.761-1.9,18.379-11.361,43.059-14.992,46.194-1.812,1.565-3.384,2.674-5.116,1.228C9965.83,8267.294,9966.048,8264.874,9966.061,8263.89Z" transform="translate(-9966.039 -8214.5)"/></g><path class="l" d="M10006.229,8320.907s4.955,11.106,6.621,17.962a49.359,49.359,0,0,1,1.335,9.7c-.107,4.906-.955,9.61-4.739,12.735-4.375,3.614-13.613,8.007-18.491,9.917-4.521,1.771-17.56,7.628-25.6,10.064a51.239,51.239,0,0,1,1.876,11.877c.1,6.3-.492,41.467-1.335,49.582-.229,2.193-3.5,3.56-7.076,3.306-4.3-.3-6.8-2.614-7.009-4.046-2-13.595-5.619-56.457-6.431-62.2-.621-4.4,1.8-9.624,4.05-12.02,1.479-1.576,3.469-3.517,5.734-5.611-4.553,1.317-11.056,3.039-17.3,4.555.867,3.6,2.342,7.921,2.406,12.171.1,6.3.228,40.584-.614,48.7-.229,2.193-3.886,3.644-7.591,3.218-4.06-.468-6.28-2.562-6.491-3.993-2-13.595-5.158-54.459-6.5-59.607a14.517,14.517,0,0,1,1.552-10.625c2.4-4.332,21.2-17.946,28.542-22.266a165.266,165.266,0,0,1,14.766-8.093c1.843-9.114,3.924-19.191,3.924-19.191Z" transform="translate(-9909.336 -8202.89)"/><path class="m" d="M9958.752,8381.049c-9.079,2.6-17.067,4.486-17.067,4.486s2.188,7.471,2.335,10.755c.217,4.841.188,10.829.143,15.083-.067,6.242-.105,27.943-.687,35.033-.155,1.9-2.938,3.444-6.785,3.281,0,0,4.628-33.814-5.473-66.346-2.6-8.371,33.052-17.725,45.232-16.963,0,0-6.682,5.135-8.846,6.924C9965.34,8375.178,9958.752,8381.049,9958.752,8381.049Z" transform="translate(-9913.253 -8221.587)"/><path class="n" d="M10029.729,8240.375s-3.039,18.556-4.53,24.1c-.98,3.641-4.4,17.781-4.4,17.781,0,2.4,4.9,17.686,4.9,17.686s-11.629,6.447-28.659,1.861c-14.394-3.875-16.629-9.708-16.629-9.708a123.594,123.594,0,0,0,1.185-15.552c-.071-3.816-3.4-23.067-3.984-28.021,0,0-5.647-.2-9.036-2.765.745-4.89,3.3-9.987,5.065-16.471,2.472-9.058,5.571-14.187,8.98-15.358,4.74-1.629,19.379-3.7,23.959-1.4,10.438,5.24,22.34,13.119,24.318,16.324,0,0,1.154,1.012,1.09,4.844C10031.96,8235.455,10029.729,8240.375,10029.729,8240.375Z" transform="translate(-9925.075 -8172.766)"/><g transform="translate(63.024 0.152)"><path class="j" d="M10008.2,8207.816l13.783-4.219s-.217,3.34-.217,4.771c0,3.183,2.542,3.905,2.932,6.2.412,2.432-5.045,3.582-10.025,3.413-3.811-.128-7.2-2.243-8.052-4.159-.955-2.145,1.63-3.408,1.63-3.759C10008.252,8209.429,10008.2,8207.816,10008.2,8207.816Z" transform="translate(-10000.028 -8170.427)"/><path class="j" d="M9997.105,8170.027a14.876,14.876,0,1,1,29.753,0c0,10-7.812,18.295-7.812,18.295s-13.259,4.024-14.778,4.536c-3.969,1.334-5.205-1.049-5.576-3.269A92.518,92.518,0,0,1,9997.105,8170.027Z" transform="translate(-9997.09 -8155.15)"/></g><path class="o" d="M9999.454,8155.339l18.931-.411c5,0,8.582,4.056,8.582,9.059,0,0-.011,5.32-.011,7.042a25.237,25.237,0,0,1-1.784,7.45,35.015,35.015,0,0,1-6.027,9.773s-1.131-4.011-1.122-4.164a33.779,33.779,0,0,0,2.528-3.882,19.475,19.475,0,0,0,.467-4.9c0-.767-.449-1.9-1.617-1.222a3.606,3.606,0,0,0-1.369,1.928.608.608,0,0,1-1.168-.073c-.617-2.871-1.574-6.617-4.787-8.916-2.592-1.855-6.836-2.154-10.569-1.545a7.149,7.149,0,0,0-4.1,2.255V8157.39A2.051,2.051,0,0,1,9999.454,8155.339Z" transform="translate(-9934.164 -8154.928)"/><path class="p" d="M10036.5,8313.8s-5.009,3.019-14.335,3.527c-5.221.285-14.308-.953-18.646-3.006s12.847-14.1,15.813-19.635c2.643-4.929,7.53-29.909,8.041-35.238.44-4.587,3.77-3.941,3.77-3.941l5.076,21.952s-4.525,16.706-4.622,18.654C10031.45,8299.058,10035.077,8308.992,10036.5,8313.8Z" transform="translate(-9935.872 -8186.633)"/><g transform="translate(89.366 54.8)"><path class="j" d="M10037.366,8299.668c-2.954-15.85-3.549-51,8.279-62.823,1.905-1.906,4.41-2.431,5.729-1.26a5.665,5.665,0,0,1,1.745,4.419c0,27.935-3.4,45.835-6.282,57.289-.791,3.146-3.732,6.467-5.509,6.707C10038.63,8304.364,10037.791,8301.94,10037.366,8299.668Z" transform="translate(-10035.563 -8234.965)"/></g><path class="n" d="M10051.908,8268.164a16.131,16.131,0,0,1-7.733,1.19,38.074,38.074,0,0,1-8.18-1.583s.91-13.343,2.294-17.823c3.1-10.03,6.559-17.926,11.327-15.981,4.237,1.729,3.749,4.883,3.657,11.328C10053.162,8253.094,10051.908,8268.164,10051.908,8268.164Z" transform="translate(-9946.333 -8179.756)"/><path class="q" d="M10009.025,8207.814l13.784-4.217s-.231,3.457-.212,5.038c0,0-1.043-1.384-5.174-.77-3.968.589-8.352,1.751-8.352,1.751C10009.06,8209,10009.025,8207.814,10009.025,8207.814Z" transform="translate(-9937.829 -8170.274)"/></g><g transform="translate(622.417 189.909)"><g transform="translate(164.326 110.766)"><path class="r" d="M9772.688,8401.544,9696,8445.818l5.467,3.156,76.692-44.27Z" transform="translate(-9696.002 -8259.313)"/><path class="s" d="M9780.679,8412.48l-76.686,44.284-.007-6.335,76.692-44.27Z" transform="translate(-9698.52 -8260.769)"/><g transform="translate(54.777)"><path class="s" d="M9784,8351.848v-154.87l5.478-3.163v154.873Z" transform="translate(-9778.527 -8193.814)"/><path class="r" d="M9776,8350.142V8201.6l5.478-3.162V8353.3Z" transform="translate(-9776.005 -8195.271)"/></g><path class="r" d="M9696,8466.208l5.467,3.155.007,6.335-5.474-3.161Z" transform="translate(-9696.002 -8279.702)"/></g><g transform="translate(0.001 15.892)"><path class="r" d="M9532.689,8262.98,9456,8307.255l5.467,3.156,76.692-44.271Z" transform="translate(-9456.004 -8120.749)"/><path class="s" d="M9540.681,8273.916,9464,8318.2l-.007-6.335,76.692-44.271Z" transform="translate(-9458.521 -8122.204)"/><g transform="translate(54.777)"><path class="s" d="M9544.006,8213.283v-154.87l5.478-3.163v154.873Z" transform="translate(-9538.528 -8055.25)"/><path class="r" d="M9536.006,8211.578V8063.031l5.478-3.162V8214.74Z" transform="translate(-9536.006 -8056.707)"/></g><path class="r" d="M9456,8327.645l5.467,3.155.008,6.335-5.475-3.161Z" transform="translate(-9456.004 -8141.138)"/></g><path d="M9456,8105.941v6.357l164.326,94.873v-6.357Z" transform="translate(-9456.002 -8055.342)"/><path class="r" d="M9543.643,8032.04,9456,8082.64l164.326,94.873,87.641-50.6Z" transform="translate(-9456.002 -8032.04)"/><path class="t" d="M9783.643,8176.915,9696,8227.561V8221.2l87.641-50.6Z" transform="translate(-9531.676 -8075.73)"/></g><g transform="translate(808.652 335.378)"><g transform="translate(164.326 129.179)"><path class="r" d="M10044.687,8558.583,9968,8602.858l5.467,3.155,76.693-44.271Z" transform="translate(-9968.001 -8472.712)"/><path class="s" d="M10052.679,8569.519l-76.686,44.284-.008-6.334,76.693-44.271Z" transform="translate(-9970.519 -8474.167)"/><g transform="translate(16.425)"><path class="s" d="M9999.989,8556.966V8436.33l5.478-3.163v120.64Z" transform="translate(-9994.512 -8433.167)"/><path class="r" d="M9991.989,8555.26V8440.949l5.478-3.163v120.636Z" transform="translate(-9991.989 -8434.623)"/></g><path class="r" d="M9968,8623.247l5.467,3.155.008,6.334-5.475-3.16Z" transform="translate(-9968.001 -8493.101)"/></g><g transform="translate(0.001 41.181)"><path class="r" d="M9804.688,8420.019,9728,8464.293l5.467,3.156,76.693-44.27Z" transform="translate(-9728.002 -8341.022)"/><path class="s" d="M9812.679,8430.955l-76.686,44.284-.007-6.335,76.692-44.27Z" transform="translate(-9730.52 -8342.479)"/><g transform="translate(16.426)"><path class="s" d="M9759.992,8421.6v-113.79l5.478-3.162v113.791Z" transform="translate(-9754.515 -8304.645)"/><path class="r" d="M9751.992,8419.89V8312.426l5.478-3.163v113.79Z" transform="translate(-9751.992 -8306.101)"/></g><path class="r" d="M9728,8484.683l5.467,3.155.008,6.335-5.475-3.161Z" transform="translate(-9728.002 -8361.412)"/></g><path d="M9728,8318.4v6.357l164.326,94.873v-6.357Z" transform="translate(-9728.001 -8267.801)"/><path class="r" d="M9815.642,8244.5,9728,8295.1l164.326,94.873,87.641-50.6Z" transform="translate(-9728.001 -8244.499)"/><path class="t" d="M10055.642,8389.374,9968,8440.02v-6.357l87.641-50.6Z" transform="translate(-9803.675 -8288.189)"/></g><g transform="translate(917.486 372.208)"><path class="r" d="M9957.038,8327.615a.422.422,0,0,0-.244-.334l-49.9-28.85a1.3,1.3,0,0,0-1.183,0l-18.512,10.715a.41.41,0,0,0-.241.345h0v.944h.01a.418.418,0,0,0,.232.312l.585.337,49.327,28.516a1.332,1.332,0,0,0,1.18,0l18.027-10.436.479-.277a.416.416,0,0,0,.242-.327h.006v-.944Z" transform="translate(-9886.953 -8298.289)"/><path class="u" d="M9956.794,8327.969l-.479.277-18.027,10.434a1.32,1.32,0,0,1-1.18,0l-49.327-28.514-.585-.338a.361.361,0,0,1,0-.682l18.512-10.715a1.3,1.3,0,0,1,1.183,0l49.9,28.85A.362.362,0,0,1,9956.794,8327.969Z" transform="translate(-9886.953 -8298.289)"/><g transform="translate(0.777 0.648)"><path class="u" d="M9956.623,8327.9,9938.6,8338.33a1.318,1.318,0,0,1-1.182,0l-49.326-28.514,18.03-10.437a1.3,1.3,0,0,1,1.183,0Z" transform="translate(-9888.088 -8299.236)"/><g transform="translate(3.277 1.5)"><path class="a" d="M9911.717,8302.62l2.06-1.193,47.331,27.376-2.062,1.191Z" transform="translate(-9898.815 -8301.427)"/><path class="a" d="M9907.108,8305.331l2.06-1.193,47.332,27.378-2.064,1.189Z" transform="translate(-9897.362 -8302.281)"/><path class="a" d="M9902.5,8308.047l2.061-1.192,47.332,27.374-2.063,1.193Z" transform="translate(-9895.909 -8303.138)"/><path class="a" d="M9897.893,8310.761l2.059-1.193,42.88,24.766-2.063,1.193Z" transform="translate(-9894.456 -8303.993)"/><g transform="translate(0 7.483)"><path class="a" d="M9956.313,8350.721l2.061-1.193,3.518,2.1-2.063,1.194Z" transform="translate(-9912.877 -8324.076)"/><path class="a" d="M9961.7,8347.814l2.06-1.19,3.52,2.1-2.065,1.19Z" transform="translate(-9914.576 -8323.16)"/><path class="a" d="M9949.968,8347l2.062-1.192,3.519,2.1-2.065,1.193Z" transform="translate(-9910.876 -8322.904)"/><path class="a" d="M9943.626,8343.286l2.06-1.193,3.518,2.1-2.063,1.191Z" transform="translate(-9908.877 -8321.731)"/><path class="a" d="M9937.281,8339.569l2.061-1.193,3.518,2.1-2.064,1.191Z" transform="translate(-9906.876 -8320.56)"/><path class="a" d="M9930.939,8335.853l2.06-1.194,3.517,2.1-2.062,1.192Z" transform="translate(-9904.876 -8319.388)"/><path class="a" d="M9924.595,8332.135l2.059-1.192,3.519,2.1-2.063,1.19Z" transform="translate(-9902.876 -8318.216)"/><path class="a" d="M9918.249,8328.418l2.06-1.194,3.52,2.1-2.064,1.192Z" transform="translate(-9900.875 -8317.044)"/><path class="a" d="M9911.906,8324.7l2.06-1.194,3.518,2.1-2.063,1.191Z" transform="translate(-9898.875 -8315.871)"/><path class="a" d="M9905.563,8320.982l2.059-1.193,3.519,2.1-2.062,1.194Z" transform="translate(-9896.875 -8314.699)"/><path class="a" d="M9899.22,8317.265l2.058-1.192,3.52,2.1-2.065,1.193Z" transform="translate(-9894.875 -8313.527)"/><path class="a" d="M9892.874,8313.548l2.06-1.192,3.52,2.1-2.064,1.192Z" transform="translate(-9892.874 -8312.355)"/></g></g></g></g><g transform="translate(968.608 417.24)"><path class="a" d="M9974.252,8364.06a8.9,8.9,0,0,1,7.561,4.051c1.314,2.534-10.074,7.364-12,7.658-2.439.373-8.23-2.68-8.2-4.435C9961.67,8368.48,9970.678,8364.06,9974.252,8364.06Z" transform="translate(-9961.618 -8364.06)"/><path class="v" d="M9983.277,8369.785c1.315,2.533-10.119,7.15-11.994,7.658-1.2.322-3.25-.39-5.018-1.377,6.127-.322,12.357-2.519,16.746-6.7A4.265,4.265,0,0,1,9983.277,8369.785Z" transform="translate(-9963.084 -8365.734)"/></g><g transform="translate(693.275 242.781)"><path class="r" d="M9629.576,8138.585a.424.424,0,0,0-.244-.333l-49.905-28.85a1.3,1.3,0,0,0-1.181,0l-18.513,10.715a.407.407,0,0,0-.241.344h0v.944h.009a.423.423,0,0,0,.233.312l.585.337,49.326,28.514a1.325,1.325,0,0,0,1.181,0l18.028-10.434.479-.277a.423.423,0,0,0,.242-.328h.006v-.945Z" transform="translate(-9559.491 -8109.261)"/><path class="s" d="M9629.332,8138.939l-.479.277-18.027,10.434a1.327,1.327,0,0,1-1.182,0l-49.326-28.515-.585-.338a.36.36,0,0,1,0-.681l18.513-10.715a1.3,1.3,0,0,1,1.181,0l49.905,28.85A.362.362,0,0,1,9629.332,8138.939Z" transform="translate(-9559.491 -8109.261)"/><g transform="translate(0.776 0.648)"><path class="u" d="M9629.16,8138.867l-18.027,10.435a1.328,1.328,0,0,1-1.181,0l-49.327-28.515,18.031-10.437a1.3,1.3,0,0,1,1.182,0Z" transform="translate(-9560.625 -8110.208)"/><g transform="translate(3.277 1.499)"><path class="a" d="M9614.8,8150.96l-2.061,1.192-47.331-27.375,2.063-1.191Z" transform="translate(-9565.411 -8115.925)"/><path class="a" d="M9619.411,8148.248l-2.061,1.193-47.331-27.378,2.063-1.19Z" transform="translate(-9566.864 -8115.07)"/><path class="a" d="M9624.02,8145.532l-2.06,1.193-47.333-27.375,2.064-1.192Z" transform="translate(-9568.317 -8114.214)"/><path class="a" d="M9630.678,8144.021l-2.061,1.192-42.879-24.766,2.064-1.192Z" transform="translate(-9571.82 -8114.56)"/><g transform="translate(9.588)"><path class="a" d="M9590.383,8114.5l-2.06,1.193-3.519-2.1,2.064-1.193Z" transform="translate(-9581.114 -8112.397)"/><path class="a" d="M9584.993,8117.405l-2.06,1.19-3.519-2.1,2.064-1.19Z" transform="translate(-9579.415 -8113.314)"/><path class="a" d="M9596.727,8118.216l-2.061,1.192-3.519-2.1,2.065-1.193Z" transform="translate(-9583.114 -8113.57)"/><path class="a" d="M9603.07,8121.933l-2.061,1.193-3.517-2.1,2.063-1.191Z" transform="translate(-9585.115 -8114.742)"/><path class="a" d="M9609.414,8125.649l-2.061,1.193-3.518-2.1,2.064-1.192Z" transform="translate(-9587.115 -8115.914)"/><path class="a" d="M9615.757,8129.366l-2.06,1.194-3.517-2.1,2.063-1.191Z" transform="translate(-9589.115 -8117.086)"/><path class="a" d="M9622.1,8133.084l-2.059,1.192-3.519-2.1,2.063-1.19Z" transform="translate(-9591.116 -8118.258)"/><path class="a" d="M9628.446,8136.8l-2.06,1.194-3.519-2.1,2.064-1.193Z" transform="translate(-9593.116 -8119.43)"/><path class="a" d="M9634.789,8140.519l-2.059,1.194-3.519-2.1,2.063-1.19Z" transform="translate(-9595.116 -8120.603)"/><path class="a" d="M9641.134,8144.236l-2.06,1.192-3.519-2.1,2.063-1.193Z" transform="translate(-9597.116 -8121.774)"/><path class="a" d="M9647.477,8147.954l-2.058,1.192-3.52-2.1,2.065-1.191Z" transform="translate(-9599.117 -8122.947)"/><path class="a" d="M9653.821,8151.671l-2.06,1.193-3.519-2.1,2.064-1.192Z" transform="translate(-9601.117 -8124.119)"/></g></g></g></g><g transform="translate(816.782 260.833)"><g transform="translate(0 11.949)"><path class="d" d="M9739.874,8178.438v.539l16.325,9.425,24.486-14.138v-.538l-24.486,14.138Z" transform="translate(-9739.874 -8159.587)"/><path class="a" d="M9739.874,8171.555v4.713l16.325,9.425,24.486-14.138v-4.712L9756.2,8180.98Z" transform="translate(-9739.874 -8157.418)"/><path class="d" d="M9739.874,8167.215l16.325,9.425,24.486-14.138-16.324-9.425Z" transform="translate(-9739.874 -8153.077)"/><path class="d" d="M9739.874,8173.725v5.251l.353.2v-5.25Z" transform="translate(-9739.874 -8159.587)"/></g><g transform="translate(0 5.945)"><path class="t" d="M9739.874,8169.669v.538l16.325,9.425,24.486-14.138v-.538l-24.486,14.138Z" transform="translate(-9739.874 -8150.818)"/><path class="a" d="M9739.874,8162.786v4.712l16.325,9.425,24.486-14.138v-4.713l-24.486,14.138Z" transform="translate(-9739.874 -8148.648)"/><path class="t" d="M9739.874,8158.445l16.325,9.425,24.486-14.138-16.324-9.425Z" transform="translate(-9739.874 -8144.308)"/><path class="t" d="M9763.717,8172.211v5.251l24.487-14.138v-5.25Z" transform="translate(-9747.392 -8148.648)"/></g><path class="d" d="M9739.874,8160.987v.538l16.325,9.425,24.486-14.138v-.538l-24.486,14.138Z" transform="translate(-9739.874 -8142.136)"/><path class="a" d="M9739.874,8154.1v4.713l16.325,9.425,24.486-14.138v-4.712l-24.486,14.137Z" transform="translate(-9739.874 -8139.966)"/><path class="d" d="M9739.874,8149.763l16.325,9.425,24.486-14.137-16.324-9.425Z" transform="translate(-9739.874 -8135.625)"/><path class="d" d="M9739.874,8156.274v5.25l.353.2v-5.251Z" transform="translate(-9739.874 -8142.136)"/></g><g transform="translate(571.229 171.734)"><ellipse class="e" cx="41.445" cy="23.447" rx="41.445" ry="23.447" transform="translate(20.766 297.821) rotate(-6.949)"/><path class="j" d="M9475.52,8407.986c-.245-3.09,1.094-6.323,4.5-4.7,2.641,1.259,5.924,3.387,5.014,9.889-.947,6.762,2.131,7.513,5.852,12.331,3.905,5.057,20.518,14.182,14.542,18.67a10.3,10.3,0,0,1-10.509.924c-6.9-3.733-15.75-9.183-22.361-13.023-3.062-1.779-1.145-6.863.592-9.379C9475.705,8418.994,9475.709,8410.365,9475.52,8407.986Z" transform="translate(-9409.523 -8130.786)"/><path class="j" d="M9438.245,8428.605c-.245-3.09,1.093-6.323,4.5-4.7,2.641,1.258,5.064,4.873,5.014,9.889a78.433,78.433,0,0,0,1.105,16.355c1.339,7.881,2.3,8.854,2.508,13.77.211,4.939.037,9.142-3.129,9.948-2.088.532-6.827.449-9.231-1.275-7.3-5.229-4.286-10.009-4.136-16.438.064-2.791-1.9-6.371.65-13.652C9436.084,8440.906,9438.435,8430.984,9438.245,8428.605Z" transform="translate(-9397.919 -8137.287)"/><path class="k" d="M9435.328,8451.068a18.842,18.842,0,0,0-1.694,6.544c-.019,3.168.922,5.621.178,12.131s1.681,9.027,5.042,11.3c3.44,2.331,9.588,1.915,10.895.608,1.949-1.948,2.542-5.718,1.872-9.468s-2.884-14.053-3.5-17.537-2.606-4.522-4.764-4.35c-4.947.395-4.283,5.659-6.133,4.59S9435.328,8451.068,9435.328,8451.068Z" transform="translate(-9397.762 -8145.741)"/><path class="k" d="M9474.358,8426.3a13.886,13.886,0,0,1-2.366,4.53c-1.862,1.861-3.515,7.212-.238,9.633,2.419,1.785,5.33,3.479,7.2,3.689,4.211.478,3.634,3.166,7.035,5.371,3.51,2.276,7.157,5.25,14.194,4.222,7.179-1.048,8.12-5.526,5.018-8.629-2.437-2.438-11.709-9.292-15.659-14.724s-5.233-4.646-7.948-2.282C9478.3,8430.977,9476.178,8430.123,9474.358,8426.3Z" transform="translate(-9409.191 -8138.18)"/><path class="l" d="M9484.535,8208.328l0-.015c-.8-6.218-1.642-13.562-2.9-19.986l-51.687,14.937-1.878,5.4a38.206,38.206,0,0,0-1.926,14.278c.351,10.672,6.774,24.249,8.662,30.16,2.3,7.193,8.251,19.457,12.889,28.261-.138,3.4-4.494,5.452-8.283,18.959-2.015,7.184-6.625,49.678-5.4,59.588.169,1.365,2.149,3.009,5.683,2.829,3.091-.155,6.315-1.872,6.564-3.569,0,0,6.764-21.2,12.975-41.447.1,12.259.283,24.066.575,28.462.135,2.027,3.379,3.06,6.261,2.742s5.781-1.828,6.031-3.524c2.32-15.809,10.407-76.413,10.454-77.318.456-8.717,3.258-22.029,3.336-33.467C9485.939,8228.168,9486.259,8217.033,9484.535,8208.328Z" transform="translate(-9395.39 -8063.144)"/><path class="m" d="M9478.011,8237.373c3.181,11.859,7.193,51.057,6.522,60.77-.283,4.1-10.04,35.041-10.04,35.041s.216,23.069.575,28.462c.15,2.257,4.225,3.445,8.119,2.377,0,0-3.537-24.622,4.8-61.225C9492.314,8283.794,9478.011,8237.373,9478.011,8237.373Z" transform="translate(-9410.645 -8078.608)"/><g transform="translate(74.655 48.447)"><path class="j" d="M9504.783,8135.666a133.9,133.9,0,0,0-2.752-50.622c-.975-3.524-2.85-6.531-4.75-7.751-2.734-1.755-5.173-1.39-6.061,1.875-1.324,4.869-2.014,34.479,3.255,52.253a12.167,12.167,0,0,0,4.577,6.791C9501.469,8139.8,9504.253,8139.276,9504.783,8135.666Z" transform="translate(-9490.276 -8076.253)"/><path class="j" d="M9501.164,8160.25c6.848,5.1,17.215,7.825,24.707,11.457,1.965.952,4.287-.738,5.383-1.834,1.693-1.693,3.6-3.721,1.367-5.186-7.489-4.918-20.615-16.141-32.25-19.458-1.526-.436-3.82-1.581-4.94,2.923C9494.5,8151.873,9497.545,8157.558,9501.164,8160.25Z" transform="translate(-9491.85 -8097.858)"/><path class="w" d="M9546.348,8173.81c.76.477,2.91-.515,3.105-.554,4.1-.818,5.135,2.183,7.447,3.2,1.756.772,1.57,1.954,1.307,3.111a15.354,15.354,0,0,1-4.334,7.536c-3,2.685-7.419.335-10.18-2.232-1.432-1.332-3.112-2.932-4.349-4.226-2.756-1.432-.6-4.267.356-5.121C9542.767,8172.785,9544.84,8172.96,9546.348,8173.81Z" transform="translate(-9505.322 -8106.795)"/></g><path class="n" d="M9482.813,8103.606s-.7-8.059-1.564-12.163c-.854-4.077-2.17-14.132-8.364-15.709-.929-.235-15.454-1.672-18.584-1.892a17.527,17.527,0,0,0-9.407,1.807c-10.135,5.429-18.856,10.253-24.362,14.343-8.224,6.108,15.5,49.825,15.5,55.935,0,4.828-6.209,15.544-8.064,20.8-1.236,3.5,3.43,8.48,9.824,9.984,12.094,2.842,29.447-3.079,36.428-9.6,6.245-5.833,5.1-15.226,5.1-15.226-1.377-7.033-4.4-12.85-4.9-17.134-.84-7.3-1.847-15.453.808-18.106a15.3,15.3,0,0,0,4.392-12.081l.038.02S9482.035,8104.512,9482.813,8103.606Z" transform="translate(-9393.084 -8027.03)"/><path class="j" d="M9477.5,8025.117a17.623,17.623,0,1,0-35.245,0c0,11.844,9.254,21.671,9.254,21.671s15.706,4.769,17.506,5.374c4.7,1.581,6.166-1.242,6.605-3.871A109.5,109.5,0,0,0,9477.5,8025.117Z" transform="translate(-9400.479 -8006.126)"/><g transform="translate(47.088 40.661)"><path class="j" d="M9468.912,8069.407l-14.959-4.525s.2,4.895.2,6.751c0,2.637-4.86,4.352-4.048,7.075.71,2.382,4.537,4.949,11,5.254,3.577.169,8.756-2.135,9.863-4.62,1.239-2.783-2.116-4.423-2.116-4.878C9468.85,8073.643,9468.912,8069.407,9468.912,8069.407Z" transform="translate(-9450.014 -8064.882)"/><path class="x" d="M9468.912,8069.407l-14.959-4.525s.2,4.895.2,6.751c0,2.637-4.86,4.352-4.048,7.075a19.223,19.223,0,0,1,8.455-5.3,55.034,55.034,0,0,1,10.289-1.464C9468.85,8071.123,9468.912,8069.407,9468.912,8069.407Z" transform="translate(-9450.014 -8064.882)"/></g><g transform="translate(0 62.318)"><path class="j" d="M9423.088,8227.192c2.1,4.747,5.359,12.332,7.529,14.7a15.139,15.139,0,0,0,4.261,2.613c.645.073,2.724.028,3.824.145a28,28,0,0,1,3.836,1.171,1.359,1.359,0,0,0,1.292-2.292,19.823,19.823,0,0,1-4.045-4.231c-.706-1-2.513-4.794-2.513-4.794l2.683,3.116c2.581,3,4.723.608,4.723.608s-6.554-8.171-7.248-8.788c-1.684-1.5-7.134-3.155-9.1-4.809-.769-.647-2.238-2.709-3.658-2.731C9422.37,8221.865,9422.35,8225.523,9423.088,8227.192Z" transform="translate(-9394.302 -8136.049)"/><path class="j" d="M9391.086,8159.629c10.844-11.5,17.822-26.035,25.8-44.93,1.34-3.176.784-11.083-1.574-14.959-2.557-4.2-5.637-4.127-8.091-.782-2.984,4.068-19.565,31.4-25.274,47.506a10.934,10.934,0,0,0,1.332,9.713C9386.152,8160.593,9389.258,8161.569,9391.086,8159.629Z" transform="translate(-9381.272 -8096.512)"/><path class="j" d="M9383.248,8178.317c5.4,10.65,26.567,31.513,27.732,33.369,2.112,3.363,3.936,2.539,4.784,1.645,1.079-1.141.778-4.01-.488-6.093-3.257-5.355-16.45-33.562-27.978-39.521-1.92-.992-3.35-1.624-4.58.046C9381.117,8169.935,9380.215,8172.333,9383.248,8178.317Z" transform="translate(-9381.242 -8118.652)"/></g><g transform="translate(109.46 95.233)"><path class="y" d="M9565.051,8145.5a.436.436,0,0,1,.143.358l-6.412,34.289a1.564,1.564,0,0,1-.758,1.19l-14.723,8.407a.6.6,0,0,1-.547.079.41.41,0,0,1-.21-.4l6.411-34.287a1.574,1.574,0,0,1,.76-1.189l14.725-8.407A.541.541,0,0,1,9565.051,8145.5Z" transform="translate(-9541.562 -8144.848)"/><path class="z" d="M9564.6,8145.234a.54.54,0,0,0-.61.037l-14.726,8.407a1.574,1.574,0,0,0-.759,1.189l-6.411,34.287a.409.409,0,0,0,.21.4h0l-1.037-.6h0a.44.44,0,0,1-.157-.371l6.411-34.287a1.574,1.574,0,0,1,.759-1.189L9563,8144.7a.615.615,0,0,1,.539-.084v0l1.061.616Z" transform="translate(-9541.109 -8144.584)"/></g><path class="j" d="M9556.432,8185.035l.785-.347a.7.7,0,0,1-.838-.543c-.174-.48.152-.9.777-1.22l2.27-1.154a1.306,1.306,0,0,1-1.238-.768l-.049-.1a1.31,1.31,0,0,1,.592-1.7l6.186-3.125c.541-.281.914.522.807,1.756-.1,1.153.374,1.208.409,2.191.031.916-.779,1.337-.779,2.187,0,1.247-.719.775-.469,1.979.122.585.177,1.359-1.066,2.179l-4.876,2.243a1.311,1.311,0,0,1-1.7-.771l.119.332a1.305,1.305,0,0,1,.412-1.47l-.5.206a1.41,1.41,0,0,1-1.622-.43C9555.379,8185.841,9555.766,8185.329,9556.432,8185.035Z" transform="translate(-9436.207 -8059.262)"/><path class="i" d="M9476.063,8018.3c-.691-4.667-6.517-10.525-15.548-12.33l-.028,0c-7.116-1.623-15.291.9-20.05,9.145a18.085,18.085,0,0,0-2.927,9.369,27.769,27.769,0,0,0,1.473,8.674,8.6,8.6,0,0,0,2.275,16.8c2.5.116,5.021-.726,7.32-3.791l.626-6.228c-1.848,1.94-3.834-1.95-4.423-3.415a9.627,9.627,0,0,1-.723-6.2c.48-1.856,1.868-1.883,3.3-1.058a5.441,5.441,0,0,1,1.718,2.343,15.7,15.7,0,0,0,.328,3.3c.9,6.823,2.28,6.429,3.378,10.523,1.79,6.679-.983,10.293-.983,10.293,2.746-1.585,3.459-5.149,3.181-9.946-.235-4.041-8.27-12.316,3.874-17.174,8.306-3.322,10.416-8.888,10.92-12.075.048.017,4.533,4.353,4.812,9.989A13.275,13.275,0,0,0,9476.063,8018.3Z" transform="translate(-9397.552 -8005.496)"/><path class="p" d="M9430.812,8182.108c-.444,1.161-.453,4.64,4.353,7.634,4.037,2.516,8.932,3.126,12.828,3.106,0,0-3.7-2.271-3.7-10.354,0-5.965,10.537-37.015,10.537-37.015a15.2,15.2,0,0,1-10.521-2.158,23.953,23.953,0,0,1-9.05-10.509,38.383,38.383,0,0,1-3.074-10.252l-4.362,10.213,6.5,15.576s4.553,10.7,4.666,12.993C9439.16,8164.8,9432.832,8176.823,9430.812,8182.108Z" transform="translate(-9395.929 -8042.407)"/><path class="n" d="M9398.337,8122.132s.594,3.617,5.883,6.739c5.968,3.521,11,1.562,11,1.562,3.092-4.567,5.188-10.284,7.771-16.925,2.2-5.65-.053-13.076-3-15.644-2.238-1.949-5-3-7.973,1.514C9409.545,8103.127,9402.4,8114.381,9398.337,8122.132Z" transform="translate(-9386.632 -8034.095)"/></g><path class="j" d="M10027.3,8331.5c-7.9,7.236-36.192,19.139-37.739,19.686a1.589,1.589,0,0,1-2.146-1.3,6.406,6.406,0,0,1,1.632-5.414c3.573-3.689,25.6-20.383,38.11-24.664,1.986-.679,3.564.758,3.7,3.266A11.438,11.438,0,0,1,10027.3,8331.5Z" transform="translate(-9001.113 -7932.813)"/><path class="j" d="M9982.92,8354.629c.682-.331,2.038-.754,2.5,1.086.44,1.765-.928,4.248-2.013,5.266-.93.873-1.121,2.146-2.508,3.193a10.155,10.155,0,0,1-4.646,1.959,41.749,41.749,0,0,0-3.125,4.929c-.588,1.128-1.555.681-1.39.158.2-.647,1.114-3.825,1.409-4.937a.129.129,0,0,0-.205-.133,14.259,14.259,0,0,0-1.6,1.3,22.312,22.312,0,0,0-1.578,2.785c-.578,1.291-1.732,1.021-1.643.652a24.364,24.364,0,0,1,.945-3.389c.307-.5,1.08-2.093,1.08-2.093a.056.056,0,0,0-.09-.065,15.048,15.048,0,0,0-1.851,1.5,3.644,3.644,0,0,0-1.245,1.653c-.468,1.206-1.664.65-1.524.29a14.659,14.659,0,0,1,1.009-2.488c.311-.468,1.4-1.658,1.4-1.658a.082.082,0,0,0-.105-.121s-1.524.77-2.076,1c-1.451.615-2.269-.1-1.883-.4,1.736-1.355,5.56-4.725,7.734-5.766C9973.245,8358.521,9980.615,8355.753,9982.92,8354.629Z" transform="translate(-8993.662 -7943.754)"/><g transform="translate(919.886 356.89)"><path class="j" d="M9955.62,8288.464c-11.516,8.628-34.993,18.085-36.6,18.595-1.951.619-2.231-.852-2.426-1.755a7.123,7.123,0,0,1,2.543-5.62c3.932-3.057,26.861-21.226,37.224-23.645,2.024-.473,3.379.432,3.728,2.8A11.049,11.049,0,0,1,9955.62,8288.464Z" transform="translate(-9898.687 -8275.918)"/><g transform="translate(0 23.35)"><path class="j" d="M9898.786,8315.563c1.817-.795,5.521-2,6.466-2.438,1.485-.684,4.819-2.1,5.657-2.687,1.09-.758,2.8-.664,2.918,1.849a6.434,6.434,0,0,1-1.906,4.712c-.469.47-2.078,1.655-2.078,1.655s-.2,3.647-1.046,5.094a14.353,14.353,0,0,1-4.333,4.34c-.227.141-1-.866-.491-2.054.356-.836.81-.562,2.088-2.623s-2.512-.778-3.21-.371a10.373,10.373,0,0,0-3.041,2.259c-.407.632-1.21,2.205-1.481,2.752-.686,1.38-2.114.412-1.99.065a33.322,33.322,0,0,1,1.687-3.661c.391-.722.839-1.286,1.024-1.63a.052.052,0,0,0-.083-.062,25.756,25.756,0,0,0-2,1.68,9.683,9.683,0,0,0-1.809,2.683c-.537,1.328-2,.715-1.867.2a12.66,12.66,0,0,1,1.846-3.719c.789-1.084,1.62-2.047,1.978-2.532a.045.045,0,0,0-.064-.061,33.315,33.315,0,0,0-2.579,2.127,20,20,0,0,0-2.173,2.5c-.621,1.053-2.062.467-1.809-.078a25.132,25.132,0,0,1,3.112-4.308,5.292,5.292,0,0,1,.475-2.048A14.771,14.771,0,0,1,9898.786,8315.563Z" transform="translate(-9890.459 -8310.021)"/></g></g><path class="aa" d="M9920,7824.89v171.164a2.572,2.572,0,0,0,1.285,2.227l235.87,136.181a2.571,2.571,0,0,0,3.857-2.227V7961.077a2.572,2.572,0,0,0-1.285-2.227l-235.87-136.187A2.572,2.572,0,0,0,9920,7824.89Z" transform="translate(-8979.887 -7776.003)"/><path class="ab" d="M9904,7834.128v171.164a2.573,2.573,0,0,0,1.285,2.228l235.869,136.181a2.572,2.572,0,0,0,3.858-2.227V7970.315a2.572,2.572,0,0,0-1.285-2.227L9907.856,7831.9A2.572,2.572,0,0,0,9904,7834.128Z" transform="translate(-8974.842 -7778.916)"/><path class="ac" d="M9936.075,7968.8s12.016,20.971,25.785,28.829c37.937,21.649,41.662-18.371,66.331-4.857,23.4,12.82,26.359,42.392,45.85,53.645,18.99,10.963,28.506-10.42,46.006-32.847,7.055-9.041,13.121,8.2,13.121,8.2v129.424L9936.075,8037.4Z" transform="translate(-8984.956 -7822.192)"/><path class="ad" d="M9936.075,7986.455s19.71,29.414,33.479,37.363c25.649,14.809,45.478-3.508,65.068,7.8,19.829,11.448,27.975,38.86,47.465,50.113,11.467,6.62,26.61-14.593,35.378-19.258,8.312-4.423,15.581,8.236,15.581,8.236l.122,86.048-197.093-113.792Z" transform="translate(-8984.956 -7827.758)"/><path class="ae" d="M9936.075,8010.782s19.81-28.49,34.041-15.681c24.212,21.792,44.8,72.433,64.387,83.743,19.829,11.448,40.914-23.646,60.405-12.393,19.928,11.5,38.26,47.064,38.26,47.064v44.926l-197.093-113.792Z" transform="translate(-8984.956 -7829.44)"/><g transform="translate(710.053 129.907)"><g transform="translate(22.965 94.186)"><path class="j" d="M9617.537,8101.129v3.747l19.477,11.245v-3.747Z" transform="translate(-9617.537 -8088.009)"/><path class="t" d="M9658.387,8108.087l-12.4,7.171v-3.747l9.74-5.623v-7.5l2.663,1.054Z" transform="translate(-9626.507 -8087.146)"/><path class="af" d="M9631.762,8081.967v7.5l19.478,11.246v-7.5Z" transform="translate(-9622.022 -8081.967)"/></g><g transform="translate(0.004 62.502)"><path class="j" d="M9586.934,8035.692l-2.932,1.7v7.858a5.86,5.86,0,0,0,2.928,5.079l82.1,47.4a1.937,1.937,0,0,0,2-.029l2.89-1.657,0,0,.016-.008h0a1.933,1.933,0,0,0,.962-1.682l0-8.227Z" transform="translate(-9584.002 -8035.692)"/><path class="af" d="M9584,8046.027a5.859,5.859,0,0,0,2.928,5.078l82.1,47.4a1.733,1.733,0,0,0,2.619-1.693v-8.04l-87.648-50.6Z" transform="translate(-9584.002 -8036.473)"/></g><path class="v" d="M9617.537,8098.54l9.739-5.624,19.478,11.246-9.74,5.623Z" transform="translate(-9594.572 -7991.233)"/><path class="n" d="M9674.9,7997.354c0-2.706-.574-4.07-3.25-5.628l-81.561-47.076a1.783,1.783,0,0,0-1.9.065l-3.207,1.846,0,0a1.934,1.934,0,0,0-.991,1.7l0,60.342,87.648,50.6,3.246-1.874Z" transform="translate(-9583.996 -7944.407)"/><path d="M9669.028,7994.847l-82.1-47.4a1.955,1.955,0,0,0-2.932,1.693l0,60.341,87.648,50.6v-59.978C9671.648,7997.472,9670.844,7995.9,9669.028,7994.847Z" transform="translate(-9583.996 -7945.282)"/><path d="M9588.278,7953.043v56.228l81.474,47.04v-56.228Z" transform="translate(-9585.347 -7947.129)"/><g transform="translate(11.047 18.087)"><path class="ag" d="M9650.575,8005.16l-9.787-5.65v1.7l9.787,5.65Z" transform="translate(-9612.95 -7979.868)"/><path class="ah" d="M9609.918,7978.171l-9.787-5.65v-1.7l9.787,5.65Z" transform="translate(-9600.131 -7970.823)"/><path class="ai" d="M9619.211,7983.536l-2.681-1.548v-1.7l2.681,1.548Z" transform="translate(-9605.302 -7973.809)"/><path class="aj" d="M9629.463,7989.455l-6.937-4v-1.7l6.937,4Z" transform="translate(-9607.192 -7974.9)"/><path class="ak" d="M9637.443,7994.063l-2.682-1.548v-1.7l2.682,1.548Z" transform="translate(-9611.05 -7977.127)"/><path class="al" d="M9612.293,8032.518l-12.162-7.022v-1.7l12.162,7.021Z" transform="translate(-9600.131 -7987.526)"/><path class="am" d="M9630.76,8043.179l-10.76-6.212v-1.7l10.76,6.212Z" transform="translate(-9606.396 -7991.144)"/><path class="an" d="M9644.73,8051.245l-6.936-4v-1.7l6.936,4Z" transform="translate(-9612.007 -7994.383)"/><path class="ao" d="M9665.139,8052.459l-12.162-7.022v-1.7l12.162,7.022Z" transform="translate(-9616.794 -7993.814)"/><path class="ap" d="M9624.385,7991.767l9.786,5.65v-1.7l-9.786-5.65Z" transform="translate(-9607.778 -7976.892)"/><path class="aq" d="M9618.362,7988.29l2.683,1.548v-1.7l-2.683-1.548Z" transform="translate(-9605.879 -7975.795)"/><path class="ar" d="M9606.153,7981.241l6.935,4v-1.7l-6.935-4Z" transform="translate(-9602.03 -7973.573)"/><path class="as" d="M9600.131,7977.764l2.682,1.548v-1.7l-2.682-1.548Z" transform="translate(-9600.131 -7972.477)"/><path class="at" d="M9659.015,8006.517l9.786,5.65v-1.7l-9.786-5.65Z" transform="translate(-9618.697 -7981.542)"/><path class="au" d="M9652.993,8003.04l2.681,1.548v-1.7l-2.681-1.548Z" transform="translate(-9616.799 -7980.446)"/><path class="av" d="M9640.783,7995.991l6.936,4v-1.7l-6.936-4Z" transform="translate(-9612.949 -7978.224)"/><path class="aw" d="M9675.4,8015.979l6.935,4v-1.7l-6.935-4Z" transform="translate(-9623.865 -7984.526)"/><path class="ax" d="M9650.924,8049.532l9.787,5.65v-1.7l-9.787-5.65Z" transform="translate(-9616.146 -7995.105)"/><path class="ay" d="M9644.9,8046.055l2.682,1.548v-1.7l-2.682-1.548Z" transform="translate(-9614.248 -7994.009)"/><path class="az" d="M9667.313,8058.994l6.936,4v-1.7l-6.936-4Z" transform="translate(-9621.313 -7998.089)"/><path class="ba" d="M9609.918,7988.694l-9.787-5.65v-1.7l9.787,5.65Z" transform="translate(-9600.131 -7974.141)"/><path class="bb" d="M9623.178,7996.349l-6.647-3.838v-1.7l6.647,3.838Z" transform="translate(-9605.302 -7977.126)"/><path class="bc" d="M9638.235,8005.043l-9.966-5.754v-1.7l9.966,5.754Z" transform="translate(-9609.003 -7979.264)"/><path class="bd" d="M9624.385,8028.931l9.786,5.65v-1.7l-9.786-5.649Z" transform="translate(-9607.778 -7988.61)"/><path class="be" d="M9618.362,8025.454l2.683,1.548v-1.7l-2.683-1.548Z" transform="translate(-9605.879 -7987.513)"/><path class="bf" d="M9606.153,8018.4l6.935,4v-1.7l-6.935-4Z" transform="translate(-9602.03 -7985.291)"/><path class="bg" d="M9640.773,8038.393l6.936,4v-1.7l-6.936-4Z" transform="translate(-9612.945 -7991.593)"/><path class="bh" d="M9600.131,8014.928l2.682,1.548v-1.7l-2.682-1.548Z" transform="translate(-9600.131 -7984.194)"/><path class="bi" d="M9609.918,8025.857l-9.787-5.65v-1.7l9.787,5.65Z" transform="translate(-9600.131 -7985.859)"/><path class="bj" d="M9623.178,8033.513l-6.647-3.838v-1.7l6.647,3.838Z" transform="translate(-9605.302 -7988.844)"/><path class="bk" d="M9638.235,8042.207l-9.966-5.754v-1.7l9.966,5.754Z" transform="translate(-9609.003 -7990.981)"/><path class="bl" d="M9662.776,8037.8l-9.786-5.65v-1.7l9.786,5.65Z" transform="translate(-9616.798 -7989.625)"/><path class="bm" d="M9676.035,8045.457l-6.646-3.838v-1.7l6.646,3.837Z" transform="translate(-9621.969 -7992.611)"/><path class="bn" d="M9691.094,8054.151l-9.966-5.754v-1.7l9.966,5.754Z" transform="translate(-9625.67 -7994.748)"/><path class="bo" d="M9618.362,7998.813l7.306,4.218v-1.7l-7.306-4.218Z" transform="translate(-9605.879 -7979.114)"/><path class="bp" d="M9606.153,7991.765l6.935,4v-1.7l-6.935-4Z" transform="translate(-9602.03 -7976.892)"/><path class="bq" d="M9600.131,7988.288l2.682,1.548v-1.7l-2.682-1.549Z" transform="translate(-9600.131 -7975.794)"/><path class="br" d="M9649.339,8016.7l7.306,4.218v-1.7l-7.306-4.218Z" transform="translate(-9615.646 -7984.753)"/><path class="bs" d="M9637.13,8009.648l6.935,4v-1.7l-6.935-4Z" transform="translate(-9611.797 -7982.53)"/><path class="bt" d="M9631.107,8006.172l2.682,1.549v-1.7l-2.682-1.549Z" transform="translate(-9609.898 -7981.434)"/><path class="bu" d="M9640.766,8030.335l7.306,4.218v-1.7l-7.306-4.218Z" transform="translate(-9612.943 -7989.053)"/><path class="bv" d="M9671.742,8048.22l7.306,4.218v-1.7l-7.306-4.218Z" transform="translate(-9622.711 -7994.692)"/><path class="bw" d="M9659.532,8041.171l6.936,4v-1.7l-6.936-4Z" transform="translate(-9618.86 -7992.469)"/><path class="bx" d="M9653.511,8037.694l2.683,1.548v-1.7l-2.683-1.549Z" transform="translate(-9616.962 -7991.373)"/><path class="by" d="M9663.139,8019.421l7.306,4.218v-1.7l-7.306-4.218Z" transform="translate(-9619.998 -7985.611)"/><path class="bz" d="M9650.93,8012.372l6.936,4v-1.7l-6.936-4Z" transform="translate(-9616.148 -7983.389)"/><path class="ca" d="M9644.907,8008.9l2.682,1.548v-1.7l-2.682-1.548Z" transform="translate(-9614.249 -7982.292)"/><path class="cb" d="M9609.918,8010.828l-9.787-5.65v1.7l9.787,5.65Z" transform="translate(-9600.131 -7981.655)"/><path class="cc" d="M9619.211,8016.194l-2.681-1.548v1.7l2.681,1.548Z" transform="translate(-9605.302 -7984.641)"/><path class="cd" d="M9629.463,8022.112l-6.937-4v1.7l6.937,4Z" transform="translate(-9607.192 -7985.732)"/><path class="ce" d="M9637.443,8026.72l-2.682-1.548v1.7l2.682,1.548Z" transform="translate(-9611.05 -7987.96)"/><path class="cf" d="M9624.385,8013.937l9.786,5.65v1.7l-9.786-5.65Z" transform="translate(-9607.778 -7984.417)"/><path class="cg" d="M9618.362,8010.459l2.683,1.548v1.7l-2.683-1.548Z" transform="translate(-9605.879 -7983.321)"/><path class="ch" d="M9606.153,8003.411l6.935,4v1.7l-6.935-4Z" transform="translate(-9602.03 -7981.098)"/><path class="ci" d="M9640.773,8023.4l6.936,4v1.7l-6.936-4Z" transform="translate(-9612.945 -7987.4)"/><path class="cj" d="M9600.131,7999.934l2.682,1.549v1.7l-2.682-1.548Z" transform="translate(-9600.131 -7980.002)"/><path class="ck" d="M9669.159,8034.508l9.787,5.65v1.7l-9.787-5.65Z" transform="translate(-9621.896 -7990.903)"/><path class="cl" d="M9663.138,8031.031l2.682,1.549v1.7l-2.682-1.548Z" transform="translate(-9619.997 -7989.807)"/><path class="cm" d="M9650.928,8023.982l6.936,4v1.7l-6.936-4Z" transform="translate(-9616.147 -7987.585)"/><path class="cn" d="M9644.906,8020.505l2.682,1.548v1.7l-2.682-1.548Z" transform="translate(-9614.249 -7986.488)"/><path class="co" d="M9609.918,8000.3l-9.787-5.65v1.7l9.787,5.65Z" transform="translate(-9600.131 -7978.337)"/><path class="cp" d="M9623.178,8007.96l-6.647-3.838v1.7l6.647,3.838Z" transform="translate(-9605.302 -7981.323)"/><path class="cq" d="M9638.235,8016.654l-9.966-5.754v1.7l9.966,5.754Z" transform="translate(-9609.003 -7983.46)"/><path class="cr" d="M9663.833,8012.815l-6.646-3.837v1.7l6.646,3.837Z" transform="translate(-9618.121 -7982.854)"/><path class="cs" d="M9678.893,8021.51l-9.967-5.754v1.7l9.967,5.754Z" transform="translate(-9621.822 -7984.991)"/></g></g><g transform="translate(870.965 311.886)"><g transform="translate(0.004 62.502)"><path class="j" d="M9821.948,8301.474l-2.933,1.7v7.857a5.859,5.859,0,0,0,2.928,5.078l82.1,47.4a1.939,1.939,0,0,0,2-.029l2.89-1.657,0,0,.016-.009h0a1.935,1.935,0,0,0,.962-1.683l0-8.227Z" transform="translate(-9819.016 -8301.474)"/><path d="M9819.016,8311.811a5.859,5.859,0,0,0,2.928,5.077l82.1,47.4a1.734,1.734,0,0,0,2.62-1.693v-8.039l-87.649-50.6Z" transform="translate(-9819.016 -8302.255)"/></g><path class="n" d="M9909.912,8263.137c0-2.706-.574-4.07-3.249-5.628l-81.561-47.075a1.785,1.785,0,0,0-1.9.064l-3.207,1.846,0,0a1.937,1.937,0,0,0-.99,1.7l0,60.342,87.649,50.6,3.245-1.874Z" transform="translate(-9819.01 -8210.189)"/><path d="M9904.043,8260.63l-82.1-47.4a1.956,1.956,0,0,0-2.932,1.694l0,60.341,87.649,50.6v-59.979C9906.663,8263.255,9905.857,8261.678,9904.043,8260.63Z" transform="translate(-9819.01 -8211.064)"/><g transform="translate(25.398 65.71)"><g transform="translate(0 2.916)"><path class="v" d="M9856.1,8365.645l10.94-6.338,21.855,12.625-10.941,6.331Z" transform="translate(-9856.104 -8325.834)"/><path class="t" d="M9889.1,8327.939v39.812l9.865-5.71v3.645l-10.94,6.338v-43.463Z" transform="translate(-9866.168 -8315.943)"/><path class="j" d="M9856.1,8310.419v43.462l21.854,12.619v-43.463Z" transform="translate(-9856.104 -8310.419)"/></g><path class="v" d="M9879.068,8317.668l-1.11,4.025-21.854-12.617,3.125-2.916Z" transform="translate(-9856.104 -8306.16)"/><path class="j" d="M9888.022,8326.993l1.11-4.026.518.711-.553,2.693Z" transform="translate(-9866.168 -8311.459)"/></g></g></g></g></svg>