<svg xmlns="http://www.w3.org/2000/svg" xmlns:xlink="http://www.w3.org/1999/xlink" width="384" height="414.724" viewBox="0 0 384 414.724"><defs><style>.a{fill:#13171a;opacity:0.12;}.b{fill:#9fa5ad;}.c{fill:#f2f4f8;}.d{fill:#262626;}.e{fill:#161616;}.f{fill:#0f62fe;}.g{fill:#fff;}.h{opacity:0.8;fill:url(#a);}</style><linearGradient id="a" x1="0.5" y1="1.237" x2="0.5" y2="0.098" gradientUnits="objectBoundingBox"><stop offset="0.001" stop-color="#0f62fe"/><stop offset="0.211" stop-color="#2c75fe" stop-opacity="0.722"/><stop offset="0.422" stop-color="#4787fe" stop-opacity="0.467"/><stop offset="0.614" stop-color="#5c96fe" stop-opacity="0.267"/><stop offset="0.78" stop-color="#6ba0fe" stop-opacity="0.122"/><stop offset="0.914" stop-color="#74a6fe" stop-opacity="0.031"/><stop offset="1" stop-color="#78a9ff" stop-opacity="0"/></linearGradient></defs><g transform="translate(-537.004 -2440.965)"><path class="a" d="M5244,2644.542l-223.993,129.315a8,8,0,0,0,0,13.856l128.006,73.907a8,8,0,0,0,8,0L5380.006,2732.3a8,8,0,0,0,0-13.856L5252,2644.542A8,8,0,0,0,5244,2644.542Z" transform="translate(-4471.002 -7.003)"/><path class="b" d="M5380.006,2625.813,5252,2551.906a8.005,8.005,0,0,0-8,0l-223.993,129.315a7.926,7.926,0,0,0-4,6.975h0v18.519h.005a7.916,7.916,0,0,0,3.995,6.848l128.006,73.907a8,8,0,0,0,8,0l223.993-129.315a7.927,7.927,0,0,0,4-6.928v-18.486A7.927,7.927,0,0,0,5380.006,2625.813Z" transform="translate(-4471.002 -7.003)"/><path class="c" d="M5244,2551.907l-223.993,129.315a8,8,0,0,0,0,13.856l128.006,73.907a8,8,0,0,0,8,0l223.993-129.315a8,8,0,0,0,0-13.857L5252,2551.907A8,8,0,0,0,5244,2551.907Z" transform="translate(-4471.002 -7.003)"/><path class="d" d="M5046.007,2691.614l104.006,60.05a4,4,0,0,0,4,0l199.993-115.458a4,4,0,0,0,0-6.928L5250,2569.227a4,4,0,0,0-4,0l-199.993,115.459A4,4,0,0,0,5046.007,2691.614Z" transform="translate(-4471.002 -7.003)"/><g transform="translate(-4471.002 -7.003)"><path class="e" d="M5263.364,2602.008l-18.523-10.694c-5.817-3.359-15.976-2.937-22.692.94l0,0v0l-18.646,10.755,14,.6,21.544,12.438c5.816,3.358,15.976,2.937,22.692-.941S5269.18,2605.366,5263.364,2602.008Z"/><path class="e" d="M5268.525,2642.4l18.523,10.694c5.816,3.358,5.087,9.224-1.63,13.1l0,0h0l-18.629,10.765-1.045-8.082-21.544-12.438c-5.816-3.358-5.087-9.224,1.63-13.1S5262.709,2639.043,5268.525,2642.4Z"/><path class="e" d="M5206.648,2634.753l-18.523-10.695c-5.816-3.358-15.976-2.936-22.692.941l0,0v0l-18.646,10.755,14,.6,21.544,12.439c5.816,3.358,15.976,2.937,22.692-.941S5212.464,2638.111,5206.648,2634.753Z"/><path class="e" d="M5211.809,2675.146l18.523,10.694c5.816,3.358,5.087,9.224-1.629,13.1l0,0h0l-18.629,10.766-1.045-8.082-21.544-12.438c-5.816-3.358-5.086-9.224,1.63-13.1S5205.993,2671.788,5211.809,2675.146Z"/><path class="e" d="M5149.932,2667.5l-18.523-10.7c-5.816-3.358-15.976-2.937-22.692.941l0,0v0l-18.646,10.755,14,.6,21.544,12.439c5.816,3.358,15.976,2.937,22.692-.941S5155.748,2670.856,5149.932,2667.5Z"/><path class="e" d="M5155.093,2707.891l18.523,10.694c5.817,3.358,5.087,9.224-1.629,13.1l0,0h0l-18.629,10.766-1.045-8.082-21.543-12.439c-5.817-3.357-5.087-9.223,1.629-13.1S5149.277,2704.533,5155.093,2707.891Z"/></g><g transform="translate(-4471.002 -7.003)"><path class="f" d="M5263.364,2557.134l-18.523-10.694c-5.817-3.359-15.976-2.937-22.692.94l0,0v0l-18.646,10.755,14,.6,21.544,12.438c5.816,3.358,15.976,2.937,22.692-.941S5269.18,2560.492,5263.364,2557.134Z"/><path class="g" d="M5268.525,2597.527l18.523,10.694c5.816,3.358,5.087,9.224-1.63,13.1l0,0h0l-18.629,10.765-1.045-8.082-21.544-12.438c-5.816-3.358-5.087-9.224,1.63-13.1S5262.709,2594.169,5268.525,2597.527Z"/><path class="f" d="M5206.648,2589.879l-18.523-10.694c-5.816-3.359-15.976-2.937-22.692.94l0,0v0l-18.646,10.755,14,.6,21.544,12.439c5.816,3.358,15.976,2.937,22.692-.941S5212.464,2593.237,5206.648,2589.879Z"/><path class="g" d="M5211.809,2630.272l18.523,10.694c5.816,3.358,5.087,9.224-1.629,13.1l0,0h0l-18.629,10.766-1.045-8.082-21.544-12.438c-5.816-3.358-5.086-9.224,1.63-13.1S5205.993,2626.914,5211.809,2630.272Z"/><path class="f" d="M5149.932,2622.624l-18.523-10.7c-5.816-3.358-15.976-2.936-22.692.941l0,0v0l-18.646,10.755,14,.6,21.544,12.439c5.816,3.358,15.976,2.937,22.692-.941S5155.748,2625.982,5149.932,2622.624Z"/><path class="g" d="M5155.093,2663.017l18.523,10.694c5.817,3.358,5.087,9.224-1.629,13.1l0,0h0l-18.629,10.766-1.045-8.082-21.543-12.438c-5.817-3.358-5.087-9.224,1.629-13.1S5149.277,2659.659,5155.093,2663.017Z"/></g><path class="h" d="M5046.007,2691.614l104.006,60.05a4,4,0,0,0,4,0l199.993-115.458a3.966,3.966,0,0,0,2-3.462c0-1.348,36-184.776,36-184.776h-384s36,238.835,36,240.182A3.961,3.961,0,0,0,5046.007,2691.614Z" transform="translate(-4471.002 -7.003)"/></g></svg>