<svg xmlns="http://www.w3.org/2000/svg" xmlns:xlink="http://www.w3.org/1999/xlink" width="1920" height="945" viewBox="0 0 1920 945"><defs><style>.a{clip-path:url(#a);}.b{fill:#42be65;}.c,.d,.e{fill:none;stroke-miterlimit:10;stroke-width:16px;}.c,.d{stroke:#0f62fe;}.c{opacity:0.75;}.e{stroke:#d0e2ff;}</style><clipPath id="a"><rect width="1920" height="945" transform="translate(-20194 15704)"/></clipPath></defs><g transform="translate(0 -134)"><g class="a" transform="translate(20194 -15570)"><g transform="translate(857 -71)"><rect width="1920" height="945" transform="translate(-21051 15775)"/><rect class="b" width="471.027" height="383.4" rx="8" transform="translate(-20326.486 16130.05)"/><path d="M178.878,165.555a29.456,29.456,0,1,0-47.1,23.588L120,283.68h58.878L167.1,189.143A29.562,29.562,0,0,0,178.878,165.555Z" transform="translate(-20240.41 16141.008)"/><path class="c" d="M32,0V502.031a29.485,29.485,0,0,0,29.439,29.531h88.317" transform="translate(-20476.244 15775)"/><path class="c" d="M216,0V295.313a29.485,29.485,0,0,0,29.439,29.531H863.2" transform="translate(-19983.143 15775)"/><path class="d" d="M339.527,557.438,339.2,173.531A29.485,29.485,0,0,0,309.757,144H192" transform="translate(-20047.459 16162.563)"/><line class="c" x2="606.257" transform="translate(-21058.5 15980.316)"/><path class="c" d="M96,268.25V150.125C96,84.886,148.721,32,213.757,32S331.513,84.886,331.513,150.125V268.25" transform="translate(-20304.73 15861.125)"/><path class="e" d="M181.757,96V243.656a29.485,29.485,0,0,1-29.439,29.531H64" transform="translate(-20390.486 16033.375)"/><path class="e" d="M160,96V243.656a29.485,29.485,0,0,0,29.439,29.531h88.317" transform="translate(-20133.219 16033.375)"/><line class="d" x2="578.268" transform="translate(-19708.768 16483.75)"/><path class="e" d="M181.756,214.188V125.531A29.485,29.485,0,0,0,152.317,96H64" transform="translate(-20390.486 16299.156)"/><path class="d" d="M117.756,321.563V29.531A29.485,29.485,0,0,0,88.317,0H-210" transform="translate(-20648.051 16512.912) rotate(-90)"/></g></g></g></svg>