<svg xmlns="http://www.w3.org/2000/svg" width="96" height="96" viewBox="0 0 96 96"><defs><style>.a{fill:#fff;opacity:0;}.b{fill:#0f61fd;}.c{fill:none;}</style></defs><g transform="translate(-176 -2314)"><rect class="a" width="96" height="96" transform="translate(176 2314)"/><g transform="translate(185 2322)"><path class="b" d="M40,79.36A39.36,39.36,0,1,1,79.36,40,39.4,39.4,0,0,1,40,79.36Zm-1.576-1.878q.784.035,1.576.033A37.476,37.476,0,0,0,69.827,62.729V29.771h1.848V60.087a37.492,37.492,0,0,0,2.944-34.543L46.055,9.055l.923-1.6L73.241,22.619A37.6,37.6,0,0,0,44.794,2.79L16.228,19.285l-.923-1.6L41.576,2.518c-.52-.023-1.048-.033-1.576-.033A37.478,37.478,0,0,0,10.172,17.273V50.232H8.328V19.913A37.484,37.484,0,0,0,5.381,54.455L33.945,70.947l-.923,1.6L6.759,57.379A37.6,37.6,0,0,0,35.206,77.21L63.772,60.715l.92,1.6ZM43.844,56.3H36.156a.922.922,0,0,1-.923-.923V44.766H24.625a.922.922,0,0,1-.922-.923V36.156a.922.922,0,0,1,.922-.923H35.234V24.625a.922.922,0,0,1,.922-.922h7.688a.922.922,0,0,1,.923.922V35.234H55.375a.922.922,0,0,1,.923.922v7.688a.922.922,0,0,1-.923.923H44.766V55.375A.922.922,0,0,1,43.844,56.3Zm-6.765-1.845h5.842V43.844a.922.922,0,0,1,.923-.923H54.452V37.079H43.844a.922.922,0,0,1-.923-.923V25.548H37.079V36.156a.922.922,0,0,1-.923.923H25.548v5.842H36.156a.922.922,0,0,1,.923.923Z" transform="translate(0 0)"/><rect class="c" width="80" height="80"/></g></g></svg>