<svg xmlns="http://www.w3.org/2000/svg" width="96" height="96" viewBox="0 0 96 96"><defs><style>.a{fill:#fff;opacity:0;}.b{fill:#0f61fd;}.c{fill:none;}</style></defs><g transform="translate(-176 -2314)"><rect class="a" width="96" height="96" transform="translate(176 2314)"/><g transform="translate(184 2322)"><path class="b" d="M59.039,77.438h-35a.9.9,0,0,1-.9-.9v-12.5a.9.9,0,0,1,.9-.9h26.6v-5.35a4.1,4.1,0,0,0-4.1-4.1h-10a5.908,5.908,0,0,1-5.9-5.9v-5.35h-6.6a.9.9,0,0,1-.9-.9v-12.5a.9.9,0,0,1,.9-.9h35a.9.9,0,0,1,.9.9v12.5a.9.9,0,0,1-.9.9h-26.6v5.35a4.106,4.106,0,0,0,4.1,4.1h10a5.906,5.906,0,0,1,5.9,5.9v5.35h6.6a.9.9,0,0,1,.9.9v12.5A.9.9,0,0,1,59.039,77.438Zm-34.1-1.8h33.2v-10.7h-33.2Zm0-35h33.2v-10.7h-33.2Zm9.1,30.55h-5v-1.8h5Zm30-23.75v-1.8c7.045,0,11.6-3.72,11.6-9.482,0-6.08-4.872-11.218-10.643-11.218a.9.9,0,0,1-.9-.9c0-12.112-9.74-21.6-22.17-21.6-7.71,0-15.4,4.828-19.6,12.295a.91.91,0,0,1-.94.447,16.6,16.6,0,0,0-2.8-.242c-9.21,0-16.153,6.642-16.153,15.447,0,8.7,7.137,15.253,16.6,15.253v1.8c-10.49,0-18.4-7.333-18.4-17.053,0-9.832,7.717-17.248,17.953-17.248a18.476,18.476,0,0,1,2.478.17C25.646,5.593,33.766.641,41.926.641c13.145,0,23.5,9.83,23.955,22.535,6.353.492,11.56,6.238,11.56,12.983C77.438,43.011,72.181,47.439,64.041,47.439Zm-30-11.25h-5v-1.8h5Z" transform="translate(0.961 0.961)"/><rect class="c" width="80" height="80"/></g></g></svg>