<svg xmlns="http://www.w3.org/2000/svg" width="96" height="96" viewBox="0 0 96 96"><defs><style>.a{fill:#fff;opacity:0;}.b{fill:#0f61fd;}.c{fill:none;}</style></defs><g transform="translate(-176 -2314)"><rect class="a" width="96" height="96" transform="translate(176 2314)"/><g transform="translate(184 2322)"><path class="b" d="M36.04,77.441a.926.926,0,0,1-.427-.107l-32.5-17.5a.9.9,0,0,1-.473-.793v-40a.9.9,0,0,1,.472-.792l32.5-17.5a.9.9,0,0,1,.855,0l32.5,17.5a.9.9,0,0,1,.472.792v40a.9.9,0,0,1-.472.792l-32.5,17.5A.9.9,0,0,1,36.04,77.441ZM4.44,58.5l31.6,17.015L67.64,58.5V19.578L36.04,2.563,4.44,19.578Zm44.53,1.438a7.926,7.926,0,0,1-5.638-2.335L30.405,44.676,31.678,43.4l12.93,12.93a6.17,6.17,0,1,0,8.725-8.725l-5.43-5.43L49.178,40.9l5.43,5.428a7.973,7.973,0,0,1-5.638,13.61Zm-25.857,0a7.971,7.971,0,0,1-5.635-13.608L27.905,35.906l1.272,1.272L18.75,47.608a6.171,6.171,0,0,0,8.73,8.725l5.428-5.43,1.272,1.275-5.428,5.43A7.944,7.944,0,0,1,23.113,59.941Zm25.427-5a3.4,3.4,0,0,1-3.4-3.4,3.369,3.369,0,0,1,.448-1.683l-7.112-7.112a4.433,4.433,0,0,1-6.14-6.14l-7.112-7.112a3.369,3.369,0,0,1-1.682.448,3.4,3.4,0,1,1,2.955-1.717l7.112,7.112a4.433,4.433,0,0,1,6.14,6.14l7.112,7.112a3.4,3.4,0,1,1,1.68,6.353Zm0-5a1.6,1.6,0,1,0,1.6,1.6A1.6,1.6,0,0,0,48.54,49.941ZM36.04,36.406a2.635,2.635,0,1,0,2.635,2.635A2.639,2.639,0,0,0,36.04,36.406ZM23.54,24.941a1.6,1.6,0,1,0,1.6,1.6A1.6,1.6,0,0,0,23.54,24.941ZM44.177,42.178,42.9,40.906l10.43-10.427a6.171,6.171,0,1,0-8.725-8.73l-5.43,5.427L37.9,25.9l5.427-5.428A7.97,7.97,0,1,1,54.6,31.746Zm-21.272-5-5.428-5.427a7.969,7.969,0,1,1,11.27-11.27l12.93,12.927L40.4,34.678,27.475,21.751a6.173,6.173,0,0,0-8.73,8.73l5.427,5.427Z" transform="translate(3.96 0.959)"/><rect class="c" width="80" height="80"/></g></g></svg>