<svg xmlns="http://www.w3.org/2000/svg" width="96" height="96" viewBox="0 0 96 96"><defs><style>.a{fill:#fff;opacity:0;}.b{fill:#0f61fd;}.c{fill:none;}</style></defs><g transform="translate(-176 -2314)"><rect class="a" width="96" height="96" transform="translate(176 2314)"/><g transform="translate(184 2322)"><path class="b" d="M72.04,77.44h-14a1.405,1.405,0,0,1-1.4-1.4v-11a1.405,1.405,0,0,1,1.4-1.4h4.25a1.4,1.4,0,0,1,1.12.565l.6.938H72.04a1.405,1.405,0,0,1,1.4,1.4v9.5A1.408,1.408,0,0,1,72.04,77.44Zm-13.6-1.8h13.2v-8.7H63.79a1.409,1.409,0,0,1-1.115-.555l-.605-.948H58.44Zm-13.9,1.8h-14a1.4,1.4,0,0,1-1.4-1.4v-11a1.4,1.4,0,0,1,1.4-1.4h4.25a1.4,1.4,0,0,1,1.118.56l.6.943h8.03a1.405,1.405,0,0,1,1.4,1.4v9.5A1.408,1.408,0,0,1,44.54,77.44Zm-13.6-1.8h13.2v-8.7H36.29a1.413,1.413,0,0,1-1.115-.555l-.6-.948H30.94Zm-13.9,1.8h-14a1.4,1.4,0,0,1-1.4-1.4v-11a1.4,1.4,0,0,1,1.4-1.4H7.29a1.4,1.4,0,0,1,1.118.56l.6.943h8.03a1.4,1.4,0,0,1,1.4,1.4v9.5A1.4,1.4,0,0,1,17.04,77.44Zm-13.6-1.8h13.2v-8.7H8.79a1.413,1.413,0,0,1-1.115-.555L7.07,65.44H3.44Zm66.392-5.7H67.54v-1.8h2.292Zm-27.5,0H40.04v-1.8h2.292Zm-27.5,0H12.54v-1.8h2.292Zm51.108-8.4h-1.8V51.19H42.105a4.672,4.672,0,0,1-3.663,3.662V61.54h-1.8V54.853A4.665,4.665,0,0,1,32.98,51.19H10.94V61.54H9.14V50.29a.9.9,0,0,1,.9-.9H32.978a4.672,4.672,0,0,1,3.663-3.662V42.44H20.04a.9.9,0,0,1-.9-.9v-20a.9.9,0,0,1,.9-.9h.077A4.648,4.648,0,0,1,22.9,13.225c-.007-.145-.013-.29-.013-.435a7.158,7.158,0,0,1,7.15-7.15A6.822,6.822,0,0,1,32.233,6a8.359,8.359,0,0,1,15.585-.055A8.178,8.178,0,0,1,50.04,5.64a8.4,8.4,0,0,1,5.19,15h2.31a.9.9,0,0,1,.9.9v20a.9.9,0,0,1-.9.9H38.44v3.285A4.665,4.665,0,0,1,42.1,49.388H65.04a.9.9,0,0,1,.9.9Zm-28.4-14.1a2.85,2.85,0,1,0,2.85,2.85A2.854,2.854,0,0,0,37.54,47.44Zm-16.6-6.8h35.7v-8.2H20.94Zm0-10h35.7v-8.2H20.94Zm2.85-10H50.04a6.6,6.6,0,0,0,0-13.2,6.494,6.494,0,0,0-2.45.485.9.9,0,0,1-1.208-.6,6.564,6.564,0,0,0-12.718.1.9.9,0,0,1-.495.595.888.888,0,0,1-.775-.01,5.336,5.336,0,0,0-7.6,5.86.9.9,0,0,1-.193.76,1.043,1.043,0,0,1-.715.32H23.87a2.846,2.846,0,1,0-.08,5.69Zm28.75,16.8H47.748v-1.8H52.54Zm-12.5,0h-15v-1.8h15Zm12.5-10H47.748v-1.8H52.54Zm-12.5,0h-15v-1.8h15Z" transform="translate(2.46 0.96)"/><rect class="c" width="80" height="80"/></g></g></svg>