<svg xmlns="http://www.w3.org/2000/svg" xmlns:xlink="http://www.w3.org/1999/xlink" width="783" height="843.206" viewBox="0 0 783 843.206"><defs><style>.a{fill:url(#a);}.b{fill:#fff;}.c,.g{opacity:0.4;}.c{fill:url(#b);}.d{fill:url(#c);}.e{fill:#6f6f6f;}.f{fill:url(#f);}.g,.h,.j{fill:#0f62fe;}.h,.i{opacity:0.8;}.i{fill:url(#g);}.j{opacity:0.45;}.k{filter:url(#d);}</style><linearGradient id="a" x1="0.5" x2="0.5" y2="1" gradientUnits="objectBoundingBox"><stop offset="0" stop-color="#010101"/><stop offset="1" stop-color="#161616"/></linearGradient><linearGradient id="b" y1="0.5" x2="1" y2="0.5" gradientUnits="objectBoundingBox"><stop offset="0" stop-color="#2f81fe"/><stop offset="1" stop-color="#be95ff"/></linearGradient><linearGradient id="c" y1="0.5" x2="1" y2="0.5" gradientUnits="objectBoundingBox"><stop offset="0.253" stop-color="#525252"/><stop offset="0.345" stop-color="#4f4e4e"/><stop offset="0.417" stop-color="#454545"/><stop offset="0.481" stop-color="#363434"/><stop offset="0.524" stop-color="#272525"/></linearGradient><filter id="d" x="120" y="435.051" width="544" height="408.155" filterUnits="userSpaceOnUse"><feOffset dy="24" input="SourceAlpha"/><feGaussianBlur stdDeviation="24" result="e"/><feFlood flood-opacity="0.478"/><feComposite operator="in" in2="e"/><feComposite in="SourceGraphic"/></filter><linearGradient id="f" y1="0.5" x2="1" y2="0.5" gradientUnits="objectBoundingBox"><stop offset="0.476" stop-color="#272525"/><stop offset="0.519" stop-color="#363434"/><stop offset="0.583" stop-color="#454545"/><stop offset="0.655" stop-color="#4f4e4e"/><stop offset="0.747" stop-color="#525252"/></linearGradient><linearGradient id="g" x1="0.5" y1="0.989" x2="0.5" y2="0.021" gradientUnits="objectBoundingBox"><stop offset="0.001" stop-color="#0f62fe"/><stop offset="0.211" stop-color="#2c75fe" stop-opacity="0.722"/><stop offset="0.422" stop-color="#4787fe" stop-opacity="0.467"/><stop offset="0.614" stop-color="#5c96fe" stop-opacity="0.267"/><stop offset="0.78" stop-color="#6ba0fe" stop-opacity="0.122"/><stop offset="0.914" stop-color="#74a6fe" stop-opacity="0.031"/><stop offset="1" stop-color="#78a9ff" stop-opacity="0"/></linearGradient></defs><g transform="translate(-960 -2055)"><rect class="a" width="783" height="633" transform="translate(960 2055)"/><g transform="translate(-4376.006 -160.445)"><path class="b" d="M5706.427,2813.812l-115.79-66.851a5.263,5.263,0,0,1,0-9.115l115.79-66.851a5.259,5.259,0,0,1,5.263,0l115.79,66.851a5.263,5.263,0,0,1,0,9.115l-115.79,66.851A5.265,5.265,0,0,1,5706.427,2813.812Z" transform="translate(18.947 76.011)"/><path class="c" d="M5706.427,2813.812l-115.79-66.851a5.263,5.263,0,0,1,0-9.115l115.79-66.851a5.259,5.259,0,0,1,5.263,0l115.79,66.851a5.263,5.263,0,0,1,0,9.115l-115.79,66.851A5.265,5.265,0,0,1,5706.427,2813.812Z" transform="translate(18.947 76.011)"/><g class="k" transform="matrix(1, 0, 0, 1, 5336.01, 2215.45)"><path class="d" d="M5928,2753.877a10.428,10.428,0,0,0-5.263-9.117l-189.473-109.393a10.53,10.53,0,0,0-10.527,0L5533.269,2744.76a10.426,10.426,0,0,0-5.264,9.116v24.319a10.43,10.43,0,0,0,5.264,9.116L5722.742,2896.7a10.53,10.53,0,0,0,10.527,0l189.473-109.392a10.43,10.43,0,0,0,5.263-9.118Zm-94.708,12.149L5730.65,2825.3a5.263,5.263,0,0,1-5.263,0l-102.672-59.271,102.658-59.27a5.267,5.267,0,0,1,5.263,0Z" transform="translate(-5336.01 -2150.91)"/></g><path class="e" d="M5722.742,2635.367,5533.269,2744.76a10.525,10.525,0,0,0,0,18.231l189.473,109.392a10.527,10.527,0,0,0,10.527,0l189.473-109.392a10.526,10.526,0,0,0,0-18.231l-189.473-109.393A10.53,10.53,0,0,0,5722.742,2635.367Zm2.646,189.929-115.837-66.871a5.263,5.263,0,0,1,0-9.116l115.823-66.871a5.26,5.26,0,0,1,5.263,0l115.825,66.871a5.263,5.263,0,0,1,0,9.116l-115.812,66.87A5.26,5.26,0,0,1,5725.388,2825.3Z" transform="translate(0 64.539)"/><path class="f" d="M5590.639,2746.954l13.158,7.6,102.631-59.254a5.262,5.262,0,0,1,5.263,0l102.631,59.254,13.158-7.6a5.262,5.262,0,0,0,0-9.116l-115.789-66.851a5.264,5.264,0,0,0-5.263,0l-115.789,66.851A5.262,5.262,0,0,0,5590.639,2746.954Z" transform="translate(18.948 76.01)"/><g transform="translate(5666.737 2484.965)"><path class="g" d="M5633.442,2520.222a4.909,4.909,0,1,1,4.909,4.91A4.908,4.908,0,0,1,5633.442,2520.222Z" transform="translate(-5633.442 -2457.892)"/><path class="g" d="M5693.231,2675.669a4.909,4.909,0,1,1,4.909,4.909A4.908,4.908,0,0,1,5693.231,2675.669Z" transform="translate(-5614.562 -2408.805)"/><circle class="g" cx="9.78" cy="9.78" r="9.78" transform="translate(74.023 109.258)"/><circle class="h" cx="5.12" cy="5.12" r="5.12" transform="translate(98.334)"/><circle class="h" cx="5.12" cy="5.12" r="5.12" transform="translate(19.318 341.876)"/><path class="h" d="M5644.344,2642.828a9.794,9.794,0,1,1,9.8,9.8A9.8,9.8,0,0,1,5644.344,2642.828Z" transform="translate(-5629.999 -2420.718)"/><path class="h" d="M5704.416,2608a9.8,9.8,0,1,1,9.8,9.8A9.8,9.8,0,0,1,5704.416,2608Z" transform="translate(-5611.029 -2431.716)"/><path class="h" d="M5711.681,2725.1a9.8,9.8,0,1,1,9.8,9.8A9.8,9.8,0,0,1,5711.681,2725.1Z" transform="translate(-5608.735 -2394.737)"/><circle class="h" cx="5.3" cy="5.3" r="5.3" transform="translate(39.359 171.081)"/></g><path class="i" d="M5591.015,2823.3l115.425,66.524a5.261,5.261,0,0,0,5.255,0l115.828-66.74a4.922,4.922,0,0,0,2.631-4.29V2359.582H5587.98v458.992A5.16,5.16,0,0,0,5591.015,2823.3Z" transform="translate(18.94)"/><circle class="j" cx="3.62" cy="3.62" r="3.62" transform="translate(5691.071 2458.965)"/><circle class="j" cx="2.62" cy="2.62" r="2.62" transform="translate(5744.071 2422.965)"/></g></g></svg>