<svg xmlns="http://www.w3.org/2000/svg" xmlns:xlink="http://www.w3.org/1999/xlink" width="783" height="844" viewBox="0 0 783 844"><defs><style>.a{fill:url(#a);}.b{fill:#525252;}.c{fill:#262626;}.d{fill:url(#f);}.e,.f,.h{fill:none;stroke-miterlimit:10;}.e{stroke:#a8a8a8;}.f{stroke:#525252;}.g{fill:#4589ff;}.h{stroke:#8d8d8d;}.i{fill:#fff;}.j{opacity:0.4;fill:url(#g);}.k{fill:url(#h);}.l,.t{opacity:0.8;}.m{fill:url(#i);}.n{fill:url(#j);}.o{fill:url(#k);}.p{fill:url(#l);}.q{fill:url(#n);}.r{fill:url(#s);}.s{fill:url(#w);}.t{fill:url(#ax);}.u{filter:url(#d);}.v{filter:url(#b);}</style><linearGradient id="a" x1="0.5" x2="0.5" y2="1" gradientUnits="objectBoundingBox"><stop offset="0" stop-color="#010101"/><stop offset="1" stop-color="#161616"/></linearGradient><filter id="b" x="120" y="526.796" width="344.019" height="317.204" filterUnits="userSpaceOnUse"><feOffset dy="24" input="SourceAlpha"/><feGaussianBlur stdDeviation="24" result="c"/><feFlood flood-opacity="0.478"/><feComposite operator="in" in2="c"/><feComposite in="SourceGraphic"/></filter><filter id="d" x="320" y="526.796" width="344" height="317.204" filterUnits="userSpaceOnUse"><feOffset dy="24" input="SourceAlpha"/><feGaussianBlur stdDeviation="24" result="e"/><feFlood flood-opacity="0.478"/><feComposite operator="in" in2="e"/><feComposite in="SourceGraphic"/></filter><radialGradient id="f" cx="0.488" cy="1.019" r="0.951" gradientTransform="translate(0.211) scale(0.577 1)" gradientUnits="objectBoundingBox"><stop offset="0" stop-color="#8d8d8d"/><stop offset="1" stop-color="#6f6f6f"/></radialGradient><linearGradient id="g" y1="0.5" x2="1" y2="0.5" gradientUnits="objectBoundingBox"><stop offset="0" stop-color="#a6c8ff"/><stop offset="1" stop-color="#0f62fe"/></linearGradient><linearGradient id="h" x1="0.091" y1="0.498" x2="0.914" y2="0.505" gradientUnits="objectBoundingBox"><stop offset="0.476" stop-color="#0062ff"/><stop offset="0.506" stop-color="#1b73ff"/><stop offset="0.546" stop-color="#3985ff"/><stop offset="0.588" stop-color="#5093ff"/><stop offset="0.633" stop-color="#619eff"/><stop offset="0.683" stop-color="#6aa4ff"/><stop offset="0.748" stop-color="#6ea6ff"/></linearGradient><linearGradient id="i" y1="0.5" x2="1" y2="0.5" gradientUnits="objectBoundingBox"><stop offset="0" stop-color="#dedede"/><stop offset="1" stop-color="#fff"/></linearGradient><linearGradient id="j" y1="0.5" x2="1" y2="0.5" gradientUnits="objectBoundingBox"><stop offset="0" stop-color="#bdbdbd"/><stop offset="1" stop-color="#a6a6a6"/></linearGradient><linearGradient id="k" y1="0.5" x2="1" y2="0.5" gradientUnits="objectBoundingBox"><stop offset="0" stop-color="#f3f3f3"/><stop offset="1" stop-color="#bebebe"/></linearGradient><linearGradient id="l" x1="0.501" y1="0.925" x2="0.497" y2="-0.568" xlink:href="#i"/><linearGradient id="n" x1="-0.118" y1="0.502" x2="1.532" y2="0.497" xlink:href="#k"/><linearGradient id="s" x1="-0.118" y1="0.502" x2="1.532" y2="0.497" xlink:href="#k"/><linearGradient id="w" x1="0.501" y1="0.925" x2="0.497" y2="-0.568" xlink:href="#i"/><linearGradient id="ax" x1="0.5" y1="0.989" x2="0.5" y2="0.021" gradientUnits="objectBoundingBox"><stop offset="0" stop-color="#2f81fe"/><stop offset="0.03" stop-color="#2c7ffe" stop-opacity="0.937"/><stop offset="0.141" stop-color="#2678fe" stop-opacity="0.718"/><stop offset="0.255" stop-color="#1f72fe" stop-opacity="0.525"/><stop offset="0.371" stop-color="#1a6dfe" stop-opacity="0.365"/><stop offset="0.489" stop-color="#1669fe" stop-opacity="0.231"/><stop offset="0.608" stop-color="#1366fe" stop-opacity="0.129"/><stop offset="0.731" stop-color="#1063fe" stop-opacity="0.059"/><stop offset="0.859" stop-color="#0f62fe" stop-opacity="0.016"/><stop offset="1" stop-color="#0f62fe" stop-opacity="0"/></linearGradient></defs><g transform="translate(-177 -2803.206)"><rect class="a" width="783" height="633" transform="translate(177 2803.206)"/><g transform="translate(-5183.006 985.461)"><g transform="translate(5552.006 2277.07)"><g class="v" transform="matrix(1, 0, 0, 1, -192, -459.33)"><path class="b" d="M5752,2399.469l-200-115.47v-57.735l200.019,115.469Z" transform="translate(-5360.01 -1651.47)"/></g><g class="u" transform="matrix(1, 0, 0, 1, -192, -459.33)"><path class="c" d="M5880,2284l-200,115.47.021-57.736L5880,2226.265Z" transform="translate(-5288.01 -1651.47)"/></g><path class="d" d="M5752.024,2383.3l-200.019-115.469,200-115.469,200,115.469Z" transform="translate(-5552.005 -2152.364)"/><line class="e" x2="200.019" y2="115.469" transform="translate(0 115.47)"/><ellipse class="c" cx="5.748" cy="3.349" rx="5.748" ry="3.349" transform="translate(194.302 212.64)"/><ellipse class="c" cx="5.748" cy="3.349" rx="5.748" ry="3.349" transform="translate(194.302 11.311)"/><ellipse class="c" cx="5.748" cy="3.349" rx="5.748" ry="3.349" transform="translate(19.125 111.399)"/><ellipse class="c" cx="5.748" cy="3.349" rx="5.748" ry="3.349" transform="translate(369.191 110.339)"/><path class="f" d="M5713.253,2334.036l-25.56,14.767v-42.886l25.56-14.776Z" transform="translate(-5475.683 -2074.302)"/><path class="g" d="M5557.029,2252.463l8.168,4.718v-13.7l-8.168-4.721Z" transform="translate(-5549.178 -2103.768)"/><path class="g" d="M5565.354,2257.272l8.167,4.718v-13.7l-8.167-4.721Z" transform="translate(-5544.497 -2101.063)"/><path class="g" d="M5573.679,2262.085l8.167,4.718v-13.7l-8.167-4.721Z" transform="translate(-5539.815 -2098.356)"/><line class="h" y2="42.895" transform="translate(165.477 218.718)"/><line class="h" y2="42.895" transform="translate(175.153 224.438)"/><line class="h" y2="42.895" transform="translate(184.83 230.091)"/><path class="f" d="M5809.6,2278.171l-25.876,14.951v-42.886l25.562-14.746Z" transform="translate(-5421.663 -2105.606)"/></g><path class="i" d="M5734,2344.043l-150-86.6,150-86.6,150,86.6Z" transform="translate(18.001 135.099)"/><path class="j" d="M5734,2344.043l-150-86.6,150-86.6,150,86.6Z" transform="translate(18.001 135.099)"/><path class="k" d="M5584,2257.441l25,14.434,125-72.169,125,72.169,25-14.434-150-86.6Z" transform="translate(18.001 135.099)"/><g class="l" transform="translate(5646.587 1975.326)"><path class="m" d="M5697.589,2202.572l-10.581,6.148,10.65,6.149,10.579-6.149Z" transform="translate(-5570.647 -1822.378)"/><path class="n" d="M5693.838,2212.656l-.036,12.548,10.58-6.149.036-12.548Z" transform="translate(-5566.827 -1820.164)"/><path class="o" d="M5687.022,2206.507l-.037,12.548,10.65,6.149.037-12.548Z" transform="translate(-5570.659 -1820.164)"/><path class="p" d="M5681.931,1959.247l-10.581,6.148,10.65,6.149,10.582-6.149Z" transform="translate(-5579.454 -1959.247)"/><path class="n" d="M5678.178,1969.331l-.035,12.548,10.58-6.149.036-12.548Z" transform="translate(-5575.633 -1957.034)"/><path class="q" d="M5671.362,1963.182l-.035,12.548,10.65,6.148.035-12.548Z" transform="translate(-5579.467 -1957.034)"/><path class="m" d="M5682.492,2219.965l-12.735,7.4,12.819,7.4,12.737-7.4Z" transform="translate(-5580.351 -1812.594)"/><path class="n" d="M5677.977,2232.1l-.043,15.1,12.734-7.4.044-15.1Z" transform="translate(-5575.751 -1809.93)"/><path class="o" d="M5669.771,2224.7l-.042,15.1,12.819,7.4.043-15.1Z" transform="translate(-5580.366 -1809.93)"/><path class="i" d="M5735.547,2163.124l-12.736,7.4,12.818,7.4,12.737-7.4Z" transform="translate(-5550.51 -1844.568)"/><path class="n" d="M5731.032,2175.262l-.043,15.1,12.736-7.4.043-15.1Z" transform="translate(-5545.911 -1841.903)"/><path class="r" d="M5722.826,2167.861l-.043,15.1,12.82,7.4.042-15.1Z" transform="translate(-5550.523 -1841.903)"/><path class="p" d="M5743.854,2064.688l-12.736,7.4,12.819,7.4,12.736-7.4Z" transform="translate(-5545.837 -1899.937)"/><path class="n" d="M5739.337,2076.826l-.043,15.1,12.736-7.4.043-15.1Z" transform="translate(-5541.235 -1897.272)"/><path class="r" d="M5731.133,2069.425l-.042,15.1,12.818,7.4.043-15.1Z" transform="translate(-5545.853 -1897.272)"/><path class="s" d="M5682.377,1992.279l-12.737,7.4,12.82,7.4,12.735-7.4Z" transform="translate(-5580.417 -1940.667)"/><path class="n" d="M5677.859,2004.417l-.042,15.1,12.736-7.4.042-15.1Z" transform="translate(-5575.817 -1938.002)"/><path class="r" d="M5669.655,1997.015l-.042,15.1,12.82,7.4.042-15.1Z" transform="translate(-5580.433 -1938.002)"/><path class="p" d="M5623.14,2090.967l-10.58,6.149,10.648,6.148,10.582-6.148Z" transform="translate(-5612.524 -1885.155)"/><path class="n" d="M5619.389,2101.052l-.036,12.548,10.58-6.15.036-12.547Z" transform="translate(-5608.704 -1882.941)"/><path class="r" d="M5612.573,2094.9l-.036,12.548,10.65,6.149.035-12.548Z" transform="translate(-5612.537 -1882.941)"/><path class="p" d="M5663.183,2129.179l-12.737,7.4,12.82,7.4,12.736-7.4Z" transform="translate(-5591.212 -1863.661)"/><path class="n" d="M5658.667,2141.317l-.043,15.1,12.736-7.4.043-15.1Z" transform="translate(-5586.614 -1860.996)"/><path class="r" d="M5650.462,2133.915l-.043,15.1,12.82,7.4.042-15.1Z" transform="translate(-5591.228 -1860.996)"/><path class="p" d="M5645.77,2031.692l-12.735,7.4,12.82,7.4,12.735-7.4Z" transform="translate(-5601.008 -1918.498)"/><path class="n" d="M5641.255,2043.829l-.044,15.1,12.737-7.4.042-15.1Z" transform="translate(-5596.408 -1915.833)"/><path class="r" d="M5633.049,2036.428l-.043,15.1,12.82,7.4.043-15.1Z" transform="translate(-5601.022 -1915.833)"/><path class="p" d="M5709.559,2154.431l-25.8,15,25.972,15,25.8-15Z" transform="translate(-5572.479 -1849.457)"/><path class="n" d="M5700.41,2179.024l-.087,30.6,25.8-14.995.087-30.6Z" transform="translate(-5563.159 -1844.058)"/><path class="r" d="M5683.787,2164.028l-.087,30.6,25.972,14.995.087-30.6Z" transform="translate(-5572.509 -1844.059)"/><path class="p" d="M5731.746,2115.137l-24.509,14.243,24.669,14.244,24.51-14.244Z" transform="translate(-5559.271 -1871.56)"/><path class="n" d="M5723.055,2138.5l-.082,29.068,24.511-14.244.081-29.068Z" transform="translate(-5550.419 -1866.432)"/><path class="r" d="M5707.267,2124.252l-.083,29.068,24.669,14.243.084-29.068Z" transform="translate(-5559.3 -1866.432)"/><path class="p" d="M5715.663,2028.028l-25.5,14.822,25.671,14.821,25.5-14.821Z" transform="translate(-5568.875 -1920.558)"/><path class="n" d="M5706.619,2052.335l-.085,30.248,25.505-14.822.085-30.247Z" transform="translate(-5559.664 -1915.222)"/><path class="r" d="M5690.189,2037.515l-.086,30.247,25.672,14.821.085-30.248Z" transform="translate(-5568.906 -1915.222)"/><path class="p" d="M5690.14,2063.49l-34.465,20.03,34.691,20.029,34.466-20.03Z" transform="translate(-5588.273 -1900.611)"/><path class="n" d="M5677.919,2096.338l-.115,40.876,34.466-20.029.115-40.876Z" transform="translate(-5575.827 -1893.401)"/><path class="r" d="M5655.717,2076.309l-.117,40.876,34.692,20.029.116-40.876Z" transform="translate(-5588.315 -1893.401)"/><path class="p" d="M5642.13,2167.74l-25.5,14.821,25.669,14.822,25.505-14.822Z" transform="translate(-5610.238 -1841.971)"/><path class="n" d="M5633.086,2192.047l-.086,30.247,25.5-14.821.084-30.247Z" transform="translate(-5601.026 -1836.636)"/><path class="r" d="M5616.656,2177.226l-.086,30.247,25.671,14.821.087-30.247Z" transform="translate(-5610.268 -1836.635)"/></g><path class="t" d="M5584,2392.54l150,86.6,150-86.6V1930.662H5584Z" transform="translate(18.001)"/></g></g></svg>