<svg xmlns="http://www.w3.org/2000/svg" width="96" height="96" viewBox="0 0 96 96"><defs><style>.a{fill:#0f61fd;}.b{fill:none;}</style></defs><path class="a" d="M64.22,8.22a1.5,1.5,0,1,1-1.5-1.5A1.5,1.5,0,0,1,64.22,8.22Zm-7.5-1.5a1.5,1.5,0,1,0,1.5,1.5A1.5,1.5,0,0,0,56.72,6.72Zm-6,0a1.5,1.5,0,1,0,1.5,1.5A1.5,1.5,0,0,0,50.72,6.72Zm36,76.08h-24a1.079,1.079,0,0,1-1.08-1.08v-12a1.079,1.079,0,0,1,1.08-1.08H73.64V58.8H45.8v9.837H56.72a1.079,1.079,0,0,1,1.08,1.08v12a1.079,1.079,0,0,1-1.08,1.08h-24a1.079,1.079,0,0,1-1.08-1.08v-12a1.079,1.079,0,0,1,1.08-1.08H43.64V58.8H15.8v9.837H26.72a1.079,1.079,0,0,1,1.08,1.08v12a1.079,1.079,0,0,1-1.08,1.08h-24a1.079,1.079,0,0,1-1.08-1.08v-12a1.079,1.079,0,0,1,1.08-1.08H13.64V57.72a1.079,1.079,0,0,1,1.08-1.08H43.64V43.8H20.72a1.079,1.079,0,0,1-1.08-1.08v-39a1.079,1.079,0,0,1,1.08-1.08h48A1.079,1.079,0,0,1,69.8,3.72v39a1.079,1.079,0,0,1-1.08,1.08H45.8V56.64H74.72a1.079,1.079,0,0,1,1.08,1.08V68.64H86.72a1.079,1.079,0,0,1,1.08,1.08v12A1.079,1.079,0,0,1,86.72,82.8ZM63.8,80.64H85.637V70.8H63.8Zm-30,0H55.64V70.8H33.8S33.8,80.64,33.8,80.64Zm-30,0H25.64V70.8H3.8Zm18-39H67.64V13.8H21.8Zm0-30H67.64V4.8H21.8ZM71.72,76.8h-6V74.64h6Zm-30,0h-6V74.64h6Zm-30,0h-6V74.64h6Z" transform="translate(-1.64 5.28)"/><rect class="b" width="96" height="96"/></svg>