<svg xmlns="http://www.w3.org/2000/svg" xmlns:xlink="http://www.w3.org/1999/xlink" width="691.071" height="678.595" viewBox="0 0 691.071 678.595"><defs><style>.a{fill:#373d42;}.b{fill:#50565b;}.c{fill:#21272a;}.d{fill:#31373b;}.e{fill:#393939;}.f{fill:url(#c);}.g{fill:#262626;}.h{fill:url(#d);}.i{fill:#0f62fe;}.j{filter:url(#r);}.k{filter:url(#n);}.l{filter:url(#j);}.m{filter:url(#f);}.n{filter:url(#a);}</style><filter id="a" x="0" y="217.727" width="691.071" height="460.868" filterUnits="userSpaceOnUse"><feOffset dy="48" input="SourceAlpha"/><feGaussianBlur stdDeviation="24" result="b"/><feFlood flood-opacity="0.478"/><feComposite operator="in" in2="b"/><feComposite in="SourceGraphic"/></filter><linearGradient id="c" y1="0.5" x2="1" y2="0.5" gradientUnits="objectBoundingBox"><stop offset="0" stop-color="#262626"/><stop offset="1" stop-color="#525252"/></linearGradient><linearGradient id="d" y1="0.5" x2="1" y2="0.5" gradientUnits="objectBoundingBox"><stop offset="0" stop-color="#525252"/><stop offset="1" stop-color="#262626"/></linearGradient><filter id="f" x="223.136" y="348.39" width="138.239" height="115.641" filterUnits="userSpaceOnUse"><feOffset dy="12" input="SourceAlpha"/><feGaussianBlur stdDeviation="12" result="g"/><feFlood flood-color="#0f62fe" flood-opacity="0.639"/><feComposite operator="in" in2="g"/><feComposite in="SourceGraphic"/></filter><filter id="j" x="223.136" y="265.836" width="138.239" height="115.641" filterUnits="userSpaceOnUse"><feOffset dy="12" input="SourceAlpha"/><feGaussianBlur stdDeviation="12" result="k"/><feFlood flood-color="#0f62fe" flood-opacity="0.639"/><feComposite operator="in" in2="k"/><feComposite in="SourceGraphic"/></filter><filter id="n" x="223.136" y="178.773" width="138.239" height="115.788" filterUnits="userSpaceOnUse"><feOffset dy="12" input="SourceAlpha"/><feGaussianBlur stdDeviation="12" result="o"/><feFlood flood-color="#0f62fe" flood-opacity="0.639"/><feComposite operator="in" in2="o"/><feComposite in="SourceGraphic"/></filter><filter id="r" x="223.136" y="96.306" width="138.239" height="115.789" filterUnits="userSpaceOnUse"><feOffset dy="12" input="SourceAlpha"/><feGaussianBlur stdDeviation="12" result="s"/><feFlood flood-color="#0f62fe" flood-opacity="0.639"/><feComposite operator="in" in2="s"/><feComposite in="SourceGraphic"/></filter></defs><g transform="translate(10182.114 -5657.244)"><g transform="translate(-10110.303 5898.971)"><g class="n" transform="matrix(1, 0, 0, 1, -71.81, -241.73)"><path class="a" d="M113.63,202.484,386.28,44.05,660.7,202.484,388.051,360.918Z" transform="translate(-41.63 197.68)"/></g><path class="b" d="M502.629,111.16l-.189,19.925L229.79,289.52l.189-19.925Z" transform="translate(44.631 47.274)"/><path class="c" d="M388.16,269.594l-.189,19.925L113.55,131.085l.189-19.925Z" transform="translate(-113.55 47.274)"/></g><g transform="translate(-10027.209 5657.244)"><path class="d" d="M8316.23,5024.093l-170.583-98.408-18.874,10.889-94.734,54.7,151.561,87.518h37.895Z" transform="translate(-8032.039 -4613.983)"/><g transform="translate(104.153)"><path class="e" d="M8351.961,4897.909l113.684-65.64.007-350.149-113.669,65.661Z" transform="translate(-8266.688 -4433.051)"/><path class="f" d="M8207.947,4464.854l113.686-65.607,85.273,49.192L8293.24,4514.1Z" transform="translate(-8207.944 -4399.247)"/><path class="g" d="M8293.238,4909.324l-85.295-49.237,0-350.032,85.3,49.248Z" transform="translate(-8207.943 -4444.446)"/><path class="g" d="M8217.407,4585.3l-9.462-38.223v76.564Z" transform="translate(-8207.944 -4459.546)"/><g transform="translate(0.078 328.648)"><path class="g" d="M8274.383,5078.454l-66.307-38.283v-76.564l66.249,38.241Z" transform="translate(-8208.076 -4958.099)"/><path class="e" d="M8319.957,5100.992l9.534-5.466v-76.563l-9.534,5.466Z" transform="translate(-8253.713 -4980.679)"/><path class="h" d="M8283.856,4992.587l-66.306-38.282-9.475,5.509,66.239,38.233Z" transform="translate(-8208.076 -4954.305)"/><path class="f" d="M8274.319,5078.413l-66.243-114.805,66.239,38.234Z" transform="translate(-8208.076 -4958.099)"/><g class="m" transform="matrix(1, 0, 0, 1, -259.14, -328.65)"><path class="i" d="M8208.076,5066.511l37.677-10.75,28.563-27.581-19.043,43.641Z" transform="translate(-7948.94 -4655.79)"/></g></g><g transform="translate(0.078 246.094)"><path class="g" d="M8274.383,4939.026l-66.307-38.281V4824.18l66.249,38.241Z" transform="translate(-8208.076 -4818.672)"/><path class="e" d="M8319.957,4961.565l9.534-5.466v-76.564l-9.534,5.466Z" transform="translate(-8253.713 -4841.251)"/><path class="h" d="M8283.856,4853.16l-66.306-38.283-9.475,5.509,66.239,38.234Z" transform="translate(-8208.076 -4814.877)"/><path class="f" d="M8274.319,4938.986l-66.243-114.806,66.239,38.234Z" transform="translate(-8208.076 -4818.672)"/><g class="l" transform="matrix(1, 0, 0, 1, -259.14, -246.09)"><path class="i" d="M8208.076,4927.084l37.677-10.75,28.563-27.58-19.043,43.641Z" transform="translate(-7948.94 -4598.92)"/></g></g><g transform="translate(0.078 164.488)"><path class="g" d="M8274.383,4801.2l-66.307-38.281v-76.564l66.249,38.241Z" transform="translate(-8208.076 -4680.848)"/><path class="e" d="M8319.957,4823.741l9.534-5.465v-76.564l-9.534,5.465Z" transform="translate(-8253.713 -4703.428)"/><path class="h" d="M8283.856,4715.335l-66.306-38.282-9.475,5.509,66.239,38.233Z" transform="translate(-8208.076 -4677.053)"/><path class="f" d="M8274.319,4801.163l-66.243-114.806,66.239,38.234Z" transform="translate(-8208.076 -4680.848)"/><g class="k" transform="matrix(1, 0, 0, 1, -259.14, -164.49)"><path class="i" d="M8208.076,4785.5l18.909-43.788,47.33,5.458-37.774,11Z" transform="translate(-7948.94 -4538.94)"/></g></g><g transform="translate(0.078 82.021)"><path class="g" d="M8274.383,4661.923l-66.307-38.282v-76.564l66.249,38.241Z" transform="translate(-8208.076 -4541.567)"/><path class="e" d="M8319.957,4684.461l9.534-5.465v-76.564l-9.534,5.466Z" transform="translate(-8253.713 -4564.147)"/><path class="h" d="M8283.856,4576.056l-66.306-38.283-9.475,5.509,66.239,38.234Z" transform="translate(-8208.076 -4537.773)"/><path class="f" d="M8274.319,4661.882l-66.243-114.806,66.239,38.234Z" transform="translate(-8208.076 -4541.567)"/><g class="j" transform="matrix(1, 0, 0, 1, -259.14, -82.02)"><path class="i" d="M8208.076,4646.221l18.909-43.789,47.33,5.458-37.774,11Z" transform="translate(-7948.94 -4482.13)"/></g></g><path class="g" d="M8447.96,4536.295v350.086l3.208-1.864-.164-350Z" transform="translate(-8305.846 -4454.425)"/><path class="g" d="M8394.825,4567.264V4917.35l3.21-1.863-.166-350Z" transform="translate(-8284.173 -4467.057)"/><path class="g" d="M8501.267,4505.445v350.086l3.208-1.864-.165-350Z" transform="translate(-8327.59 -4441.841)"/></g></g></g></svg>