<svg xmlns="http://www.w3.org/2000/svg" xmlns:xlink="http://www.w3.org/1999/xlink" width="783" height="891.423" viewBox="0 0 783 891.423"><defs><style>.a{fill:url(#a);}.b{fill:#373d42;}.c{fill:#50565b;}.d{fill:#21272a;}.e{fill:#31373b;}.f{fill:#393939;}.g{fill:url(#d);}.h{fill:#262626;}.i{fill:url(#e);}.j{fill:#0f62fe;}.k{filter:url(#s);}.l{filter:url(#o);}.m{filter:url(#k);}.n{filter:url(#g);}.o{filter:url(#b);}</style><linearGradient id="a" x1="0.5" x2="0.5" y2="1" gradientUnits="objectBoundingBox"><stop offset="0" stop-color="#010101"/><stop offset="1" stop-color="#161616"/></linearGradient><filter id="b" x="52.822" y="430.555" width="691.071" height="460.869" filterUnits="userSpaceOnUse"><feOffset dy="48" input="SourceAlpha"/><feGaussianBlur stdDeviation="24" result="c"/><feFlood flood-opacity="0.478"/><feComposite operator="in" in2="c"/><feComposite in="SourceGraphic"/></filter><linearGradient id="d" y1="0.5" x2="1" y2="0.5" gradientUnits="objectBoundingBox"><stop offset="0" stop-color="#262626"/><stop offset="1" stop-color="#525252"/></linearGradient><linearGradient id="e" y1="0.5" x2="1" y2="0.5" gradientUnits="objectBoundingBox"><stop offset="0" stop-color="#525252"/><stop offset="1" stop-color="#262626"/></linearGradient><filter id="g" x="275.958" y="561.218" width="138.239" height="115.641" filterUnits="userSpaceOnUse"><feOffset dy="12" input="SourceAlpha"/><feGaussianBlur stdDeviation="12" result="h"/><feFlood flood-color="#0f62fe" flood-opacity="0.639"/><feComposite operator="in" in2="h"/><feComposite in="SourceGraphic"/></filter><filter id="k" x="275.958" y="478.664" width="138.239" height="115.641" filterUnits="userSpaceOnUse"><feOffset dy="12" input="SourceAlpha"/><feGaussianBlur stdDeviation="12" result="l"/><feFlood flood-color="#0f62fe" flood-opacity="0.639"/><feComposite operator="in" in2="l"/><feComposite in="SourceGraphic"/></filter><filter id="o" x="275.958" y="391.601" width="138.239" height="115.788" filterUnits="userSpaceOnUse"><feOffset dy="12" input="SourceAlpha"/><feGaussianBlur stdDeviation="12" result="p"/><feFlood flood-color="#0f62fe" flood-opacity="0.639"/><feComposite operator="in" in2="p"/><feComposite in="SourceGraphic"/></filter><filter id="s" x="275.958" y="309.134" width="138.239" height="115.789" filterUnits="userSpaceOnUse"><feOffset dy="12" input="SourceAlpha"/><feGaussianBlur stdDeviation="12" result="t"/><feFlood flood-color="#0f62fe" flood-opacity="0.639"/><feComposite operator="in" in2="t"/><feComposite in="SourceGraphic"/></filter></defs><g transform="translate(-960 -2055)"><rect class="a" width="783" height="633" transform="translate(960 2055)"/><g transform="translate(11194.937 -3389.416)"><g transform="translate(-10110.303 5898.971)"><g class="o" transform="matrix(1, 0, 0, 1, -124.63, -454.55)"><path class="b" d="M113.63,202.484,386.28,44.05,660.7,202.484,388.051,360.918Z" transform="translate(11.19 410.5)"/></g><path class="c" d="M502.629,111.16l-.189,19.925L229.79,289.52l.189-19.925Z" transform="translate(44.631 47.274)"/><path class="d" d="M388.16,269.594l-.189,19.925L113.55,131.085l.189-19.925Z" transform="translate(-113.55 47.274)"/></g><g transform="translate(-10027.209 5657.244)"><path class="e" d="M8316.23,5024.093l-170.583-98.408-18.874,10.889-94.734,54.7,151.561,87.518h37.895Z" transform="translate(-8032.039 -4613.983)"/><g transform="translate(104.153)"><path class="f" d="M8351.961,4897.909l113.684-65.64.007-350.149-113.669,65.661Z" transform="translate(-8266.688 -4433.051)"/><path class="g" d="M8207.947,4464.854l113.686-65.607,85.273,49.192L8293.24,4514.1Z" transform="translate(-8207.944 -4399.247)"/><path class="h" d="M8293.238,4909.324l-85.295-49.237,0-350.032,85.3,49.248Z" transform="translate(-8207.943 -4444.446)"/><path class="h" d="M8217.407,4585.3l-9.462-38.223v76.564Z" transform="translate(-8207.944 -4459.546)"/><g transform="translate(0.078 328.648)"><path class="h" d="M8274.383,5078.454l-66.307-38.283v-76.564l66.249,38.241Z" transform="translate(-8208.076 -4958.099)"/><path class="f" d="M8319.957,5100.992l9.534-5.466v-76.563l-9.534,5.466Z" transform="translate(-8253.713 -4980.679)"/><path class="i" d="M8283.856,4992.587l-66.306-38.282-9.475,5.509,66.239,38.233Z" transform="translate(-8208.076 -4954.305)"/><path class="g" d="M8274.319,5078.413l-66.243-114.805,66.239,38.234Z" transform="translate(-8208.076 -4958.099)"/><g class="n" transform="matrix(1, 0, 0, 1, -311.96, -541.48)"><path class="j" d="M8208.076,5066.511l37.677-10.75,28.563-27.581-19.043,43.641Z" transform="translate(-7896.12 -4442.96)"/></g></g><g transform="translate(0.078 246.094)"><path class="h" d="M8274.383,4939.026l-66.307-38.281V4824.18l66.249,38.241Z" transform="translate(-8208.076 -4818.672)"/><path class="f" d="M8319.957,4961.565l9.534-5.466v-76.564l-9.534,5.466Z" transform="translate(-8253.713 -4841.251)"/><path class="i" d="M8283.856,4853.16l-66.306-38.283-9.475,5.509,66.239,38.234Z" transform="translate(-8208.076 -4814.877)"/><path class="g" d="M8274.319,4938.986l-66.243-114.806,66.239,38.234Z" transform="translate(-8208.076 -4818.672)"/><g class="m" transform="matrix(1, 0, 0, 1, -311.96, -458.92)"><path class="j" d="M8208.076,4927.084l37.677-10.75,28.563-27.58-19.043,43.641Z" transform="translate(-7896.12 -4386.09)"/></g></g><g transform="translate(0.078 164.488)"><path class="h" d="M8274.383,4801.2l-66.307-38.281v-76.564l66.249,38.241Z" transform="translate(-8208.076 -4680.848)"/><path class="f" d="M8319.957,4823.741l9.534-5.465v-76.564l-9.534,5.465Z" transform="translate(-8253.713 -4703.428)"/><path class="i" d="M8283.856,4715.335l-66.306-38.282-9.475,5.509,66.239,38.233Z" transform="translate(-8208.076 -4677.053)"/><path class="g" d="M8274.319,4801.163l-66.243-114.806,66.239,38.234Z" transform="translate(-8208.076 -4680.848)"/><g class="l" transform="matrix(1, 0, 0, 1, -311.96, -377.32)"><path class="j" d="M8208.076,4785.5l18.909-43.788,47.33,5.458-37.774,11Z" transform="translate(-7896.12 -4326.11)"/></g></g><g transform="translate(0.078 82.021)"><path class="h" d="M8274.383,4661.923l-66.307-38.282v-76.564l66.249,38.241Z" transform="translate(-8208.076 -4541.567)"/><path class="f" d="M8319.957,4684.461l9.534-5.465v-76.564l-9.534,5.466Z" transform="translate(-8253.713 -4564.147)"/><path class="i" d="M8283.856,4576.056l-66.306-38.283-9.475,5.509,66.239,38.234Z" transform="translate(-8208.076 -4537.773)"/><path class="g" d="M8274.319,4661.882l-66.243-114.806,66.239,38.234Z" transform="translate(-8208.076 -4541.567)"/><g class="k" transform="matrix(1, 0, 0, 1, -311.96, -294.85)"><path class="j" d="M8208.076,4646.221l18.909-43.789,47.33,5.458-37.774,11Z" transform="translate(-7896.12 -4269.3)"/></g></g><path class="h" d="M8447.96,4536.295v350.086l3.208-1.864-.164-350Z" transform="translate(-8305.846 -4454.425)"/><path class="h" d="M8394.825,4567.264V4917.35l3.21-1.863-.166-350Z" transform="translate(-8284.173 -4467.057)"/><path class="h" d="M8501.267,4505.445v350.086l3.208-1.864-.165-350Z" transform="translate(-8327.59 -4441.841)"/></g></g></g></g></svg>