<svg xmlns="http://www.w3.org/2000/svg" xmlns:xlink="http://www.w3.org/1999/xlink" width="952" height="817" viewBox="0 0 952 817"><defs><style>.a{fill:#fff;}.b{clip-path:url(#a);}.c{fill:#373d42;}.d{fill:#50565b;}.e{fill:#21272a;}.f{fill:#31373b;}.g{fill:#393939;}.h{fill:url(#d);}.i{fill:#262626;}.j{fill:url(#e);}.k{fill:#0f62fe;}.l{filter:url(#s);}.m{filter:url(#o);}.n{filter:url(#k);}.o{filter:url(#g);}.p{filter:url(#b);}</style><clipPath id="a"><rect class="a" width="952" height="817" transform="translate(968 198)"/></clipPath><filter id="b" x="68.495" y="312.591" width="815.24" height="532.788" filterUnits="userSpaceOnUse"><feOffset dy="48" input="SourceAlpha"/><feGaussianBlur stdDeviation="24" result="c"/><feFlood flood-color="#9e9e9e" flood-opacity="0.239"/><feComposite operator="in" in2="c"/><feComposite in="SourceGraphic"/></filter><linearGradient id="d" y1="0.5" x2="1" y2="0.5" gradientUnits="objectBoundingBox"><stop offset="0" stop-color="#262626"/><stop offset="1" stop-color="#525252"/></linearGradient><linearGradient id="e" y1="0.5" x2="1" y2="0.5" gradientUnits="objectBoundingBox"><stop offset="0" stop-color="#525252"/><stop offset="1" stop-color="#262626"/></linearGradient><filter id="g" x="334.105" y="472.911" width="153.272" height="125.547" filterUnits="userSpaceOnUse"><feOffset dy="12" input="SourceAlpha"/><feGaussianBlur stdDeviation="12" result="h"/><feFlood flood-color="#0f62fe" flood-opacity="0.639"/><feComposite operator="in" in2="h"/><feComposite in="SourceGraphic"/></filter><filter id="k" x="334.105" y="371.619" width="153.272" height="125.546" filterUnits="userSpaceOnUse"><feOffset dy="12" input="SourceAlpha"/><feGaussianBlur stdDeviation="12" result="l"/><feFlood flood-color="#0f62fe" flood-opacity="0.639"/><feComposite operator="in" in2="l"/><feComposite in="SourceGraphic"/></filter><filter id="o" x="334.105" y="264.796" width="153.272" height="125.726" filterUnits="userSpaceOnUse"><feOffset dy="12" input="SourceAlpha"/><feGaussianBlur stdDeviation="12" result="p"/><feFlood flood-color="#0f62fe" flood-opacity="0.639"/><feComposite operator="in" in2="p"/><feComposite in="SourceGraphic"/></filter><filter id="s" x="334.105" y="163.611" width="153.272" height="125.727" filterUnits="userSpaceOnUse"><feOffset dy="12" input="SourceAlpha"/><feGaussianBlur stdDeviation="12" result="t"/><feFlood flood-color="#0f62fe" flood-opacity="0.639"/><feComposite operator="in" in2="t"/><feComposite in="SourceGraphic"/></filter></defs><g class="b" transform="translate(-968 -198)"><g transform="translate(11218.566 -5419.244)"><g transform="translate(-10110.303 5953.835)"><g class="p" transform="matrix(1, 0, 0, 1, -140.26, -336.59)"><path class="c" d="M113.63,238.444,448.164,44.05,784.87,238.444,450.336,432.838Z" transform="translate(26.86 292.54)"/></g><path class="d" d="M564.555,111.16l-.232,24.448L229.79,330l.232-24.448Z" transform="translate(106.916 83.234)"/><path class="e" d="M450.488,305.554,450.256,330,113.55,135.608l.232-24.448Z" transform="translate(-113.55 83.234)"/></g><g transform="translate(-10008.349 5657.244)"><path class="f" d="M8380.732,5046.429l-209.3-120.745-23.157,13.361-116.238,67.111L8218,5113.538h46.494Z" transform="translate(-8032.038 -4543.235)"/><g transform="translate(127.793)"><path class="g" d="M8351.961,4992.28l139.485-80.539.008-429.622-139.467,80.563Z" transform="translate(-8247.334 -4421.914)"/><path class="h" d="M8207.947,4479.744l139.489-80.5,104.628,60.357L8312.6,4540.168Z" transform="translate(-8207.944 -4399.247)"/><path class="i" d="M8312.6,4999.946l-104.652-60.413V4510.055l104.664,60.425Z" transform="translate(-8207.943 -4429.554)"/><path class="i" d="M8219.556,4593.974l-11.61-46.9v93.942Z" transform="translate(-8207.943 -4439.68)"/><g transform="translate(0.096 403.241)"><path class="i" d="M8289.432,5104.52l-81.355-46.971v-93.941l81.284,46.92Z" transform="translate(-8208.076 -4956.849)"/><path class="g" d="M8319.956,5119.61l11.7-6.707v-93.941l-11.7,6.706Z" transform="translate(-8238.677 -4971.989)"/><path class="j" d="M8301.056,5001.275,8219.7,4954.3l-11.624,6.759,81.272,46.911Z" transform="translate(-8208.076 -4954.304)"/><path class="h" d="M8289.354,5104.47l-81.278-140.862,81.272,46.912Z" transform="translate(-8208.076 -4956.849)"/><g class="o" transform="matrix(1, 0, 0, 1, -370.11, -443.24)"><path class="k" d="M8208.076,5075.21l46.227-13.189,35.046-33.841-23.364,53.547Z" transform="translate(-7837.97 -4531.27)"/></g></g><g transform="translate(0.096 301.949)"><path class="i" d="M8289.432,4965.092l-81.355-46.971V4824.18l81.284,46.92Z" transform="translate(-8208.076 -4817.421)"/><path class="g" d="M8319.956,4980.183l11.7-6.707v-93.941l-11.7,6.706Z" transform="translate(-8238.677 -4832.563)"/><path class="j" d="M8301.056,4861.849l-81.355-46.972-11.624,6.759,81.272,46.912Z" transform="translate(-8208.076 -4814.877)"/><path class="h" d="M8289.354,4965.042l-81.278-140.863,81.272,46.912Z" transform="translate(-8208.076 -4817.421)"/><g class="n" transform="matrix(1, 0, 0, 1, -370.11, -341.95)"><path class="k" d="M8208.076,4935.784l46.227-13.19,35.046-33.84-23.364,53.546Z" transform="translate(-7837.97 -4493.13)"/></g></g><g transform="translate(0.096 201.822)"><path class="i" d="M8289.432,4827.269l-81.355-46.97v-93.942l81.284,46.92Z" transform="translate(-8208.076 -4679.598)"/><path class="g" d="M8319.956,4842.359l11.7-6.706v-93.941l-11.7,6.706Z" transform="translate(-8238.677 -4694.739)"/><path class="j" d="M8301.056,4724.024l-81.355-46.971-11.624,6.759,81.272,46.912Z" transform="translate(-8208.076 -4677.053)"/><path class="h" d="M8289.354,4827.219l-81.278-140.862,81.272,46.912Z" transform="translate(-8208.076 -4679.598)"/><g class="m" transform="matrix(1, 0, 0, 1, -370.11, -241.82)"><path class="k" d="M8208.076,4795.439l23.2-53.726,58.072,6.7-46.349,13.5Z" transform="translate(-7837.97 -4452.92)"/></g></g><g transform="translate(0.096 100.637)"><path class="i" d="M8289.432,4687.989l-81.355-46.971v-93.942L8289.36,4594Z" transform="translate(-8208.076 -4540.317)"/><path class="g" d="M8319.956,4703.079l11.7-6.706v-93.942l-11.7,6.707Z" transform="translate(-8238.677 -4555.458)"/><path class="j" d="M8301.056,4584.745l-81.355-46.971-11.624,6.759,81.272,46.912Z" transform="translate(-8208.076 -4537.773)"/><path class="h" d="M8289.354,4687.939l-81.278-140.863,81.272,46.912Z" transform="translate(-8208.076 -4540.317)"/><g class="l" transform="matrix(1, 0, 0, 1, -370.11, -140.64)"><path class="k" d="M8208.076,4656.159l23.2-53.727,58.072,6.7-46.349,13.5Z" transform="translate(-7837.97 -4414.82)"/></g></g><path class="i" d="M8447.96,4536.7v429.545l3.937-2.287-.2-429.438Z" transform="translate(-8273.591 -4436.246)"/><path class="i" d="M8394.825,4567.667v429.545l3.937-2.287-.2-429.438Z" transform="translate(-8259.059 -4444.716)"/><path class="i" d="M8501.267,4505.848v429.545l3.937-2.287-.2-429.438Z" transform="translate(-8288.171 -4427.808)"/></g></g></g></g></svg>