<svg xmlns="http://www.w3.org/2000/svg" width="96" height="96" viewBox="0 0 96 96"><defs><style>.a{fill:#0f61fd;}.b{fill:none;}</style></defs><path class="a" d="M53.82,15.363a2.747,2.747,0,1,1,2.747-2.747A2.748,2.748,0,0,1,53.82,15.363Zm2.747,27.469A2.747,2.747,0,1,0,53.82,45.58,2.748,2.748,0,0,0,56.567,42.833Zm0,30.216A2.747,2.747,0,1,0,53.82,75.8,2.748,2.748,0,0,0,56.567,73.049Zm8.241,11.977H1.629a.988.988,0,0,1-.989-.989V62.061a.988.988,0,0,1,.989-.989H64.808a.988.988,0,0,1,.989.989V84.036A.988.988,0,0,1,64.808,85.025ZM2.618,83.048h61.2v-20H2.618Zm81.419-9.01H70.3V72.06H83.048V43.822H70.3V41.844H83.048V13.605H70.3V11.628H84.036a.988.988,0,0,1,.989.989V73.049A.988.988,0,0,1,84.036,74.038ZM64.808,54.809H1.629A.988.988,0,0,1,.64,53.82V31.845a.988.988,0,0,1,.989-.989H64.808a.988.988,0,0,1,.989.989V53.82A.988.988,0,0,1,64.808,54.809ZM2.618,52.831h61.2v-20H2.618Zm62.19-28.238H1.629A.988.988,0,0,1,.64,23.6V1.629A.988.988,0,0,1,1.629.64H64.808a.988.988,0,0,1,.989.989V23.6A.988.988,0,0,1,64.808,24.593ZM2.618,22.615h61.2v-20H2.618Z" transform="translate(-0.139 5.167)"/><rect class="b" width="96" height="96"/></svg>