<svg xmlns="http://www.w3.org/2000/svg" width="96" height="96" viewBox="0 0 96 96"><defs><style>.a{fill:#0f61fd;}.b{fill:none;}</style></defs><path class="a" d="M38.72,80.8a7.093,7.093,0,0,1-7-6h-26V72.64h26a7.1,7.1,0,0,1,5.919-5.919V62.8H5.72a1.079,1.079,0,0,1-1.08-1.08v-15a1.079,1.079,0,0,1,1.08-1.08h66a1.079,1.079,0,0,1,1.08,1.08v15a1.079,1.079,0,0,1-1.08,1.08H39.8v3.921a7.1,7.1,0,0,1,5.919,5.919h26V74.8h-26A7.093,7.093,0,0,1,38.72,80.8Zm0-12a4.92,4.92,0,1,0,4.92,4.92A4.925,4.925,0,0,0,38.72,68.8ZM6.8,60.64H70.64V47.8H6.8ZM65.72,53.8h-18V51.64h18Zm-39,0h-3V51.64h3Zm-6,0h-3V51.64h3Zm-6,0h-3V51.64h3Zm57-12h-66a1.079,1.079,0,0,1-1.08-1.08v-15a1.079,1.079,0,0,1,1.08-1.08h66a1.079,1.079,0,0,1,1.08,1.08v15A1.079,1.079,0,0,1,71.72,41.8ZM6.8,39.64H70.64V26.8H6.8ZM65.72,32.8h-18V30.64h18Zm-39,0h-3V30.64h3Zm-6,0h-3V30.64h3Zm-6,0h-3V30.64h3Zm57-12h-66a1.079,1.079,0,0,1-1.08-1.08v-15A1.079,1.079,0,0,1,5.72,3.64h66A1.079,1.079,0,0,1,72.8,4.72v15A1.079,1.079,0,0,1,71.72,20.8ZM6.8,18.64H70.64V5.8H6.8ZM65.72,11.8h-18V9.64h18Zm-39,0h-3V9.64h3Zm-6,0h-3V9.64h3Zm-6,0h-3V9.64h3Z" transform="translate(-4.14 7.28)"/><rect class="b" width="96" height="96"/></svg>