<svg xmlns="http://www.w3.org/2000/svg" width="72" height="72" viewBox="0 0 72 72"><defs><style>.a{fill:#e0e0e0;stroke:#fff;stroke-width:16px;}.b{fill:#525252;}.c{stroke:none;}.d{fill:none;}</style></defs><g transform="translate(-880 -1489)"><g class="a" transform="translate(896 1505)"><rect class="c" width="40" height="40"/><rect class="d" x="-8" y="-8" width="56" height="56"/></g><g transform="translate(728.721 365.64)"><path class="b" d="M6.38,21,9.96,10.6H7.88L6.26,15.34,5.2,18.98H5.08L4.02,15.34,2.44,10.6H.28L3.82,21Zm8.7.24c2.5,0,4.12-1.34,4.12-3.34,0-1.68-1.02-2.68-3.3-3.02l-.96-.12c-1.1-.18-1.6-.54-1.6-1.34,0-.78.56-1.3,1.76-1.3a3.311,3.311,0,0,1,2.54,1.18l1.34-1.28a4.7,4.7,0,0,0-3.88-1.66c-2.28,0-3.86,1.18-3.86,3.2,0,1.92,1.3,2.84,3.42,3.1l.96.12c1.08.14,1.48.64,1.48,1.3,0,.88-.64,1.4-1.9,1.4A3.675,3.675,0,0,1,12.26,18l-1.4,1.28A5.02,5.02,0,0,0,15.08,21.24Zm7.8,0a1.3,1.3,0,0,0,1.46-1.36v-.3a1.3,1.3,0,0,0-1.46-1.36,1.3,1.3,0,0,0-1.46,1.36v.3A1.3,1.3,0,0,0,22.88,21.24Z" transform="translate(176 1144)"/></g></g></svg>