<svg xmlns="http://www.w3.org/2000/svg" width="96" height="96" viewBox="0 0 96 96"><defs><style>.a{fill:#fff;opacity:0;}.b{fill:#0f61fd;}.c{fill:none;}</style></defs><g transform="translate(-1276 -5100)"><rect class="a" width="96" height="96" transform="translate(1276 5100)"/><g transform="translate(1284 5108)"><path class="b" d="M33.246,1.532a25.894,25.894,0,1,0-6.657,50.9A25.89,25.89,0,0,0,48.974,13.6,25.74,25.74,0,0,0,33.246,1.532ZM46.194,40.489V23.1h-1.8V42.734A24.073,24.073,0,0,1,24.3,50.529l15.047-8.69-.9-1.56L21.466,50.084A24.027,24.027,0,0,1,5.679,38.589q-.566-.982-1.037-2.005l15.06,8.7.9-1.557L3.591,33.9a24.2,24.2,0,0,1,3.3-21.328v17.41h1.8V10.342a24.16,24.16,0,0,1,5.8-4.665A23.9,23.9,0,0,1,28.784,2.562L13.736,11.247l.9,1.56L31.619,3a24.043,24.043,0,0,1,15.79,11.5c.377.658.725,1.325,1.035,2L33.384,7.8l-.9,1.56,17,9.815A24.188,24.188,0,0,1,46.194,40.489Zm0,25.245V51.544h-1.8v14.19a5.9,5.9,0,1,0,1.8,0Zm-.9,9.91a4.1,4.1,0,1,1,4.1-4.1A4.1,4.1,0,0,1,45.294,75.644Zm25.9-9.91V29a.9.9,0,0,0-.452-.78L57.834,20.764l-.9,1.56,12.455,7.192V65.734a5.9,5.9,0,1,0,1.8,0Zm-.9,9.91a4.1,4.1,0,1,1,4.1-4.1A4.1,4.1,0,0,1,70.294,75.644Zm-49.1-9.91v-9.19h-1.8v9.19a5.9,5.9,0,1,0,1.8,0Zm-.9,9.91a4.1,4.1,0,1,1,4.1-4.1A4.1,4.1,0,0,1,20.294,75.644Z" transform="translate(0.956 0.956)"/><rect class="c" width="80" height="80"/></g></g></svg>