<svg xmlns="http://www.w3.org/2000/svg" width="96" height="96" viewBox="0 0 96 96"><defs><style>.a{fill:#fff;opacity:0;}.b{fill:#0f61fd;}.c{fill:none;}</style></defs><g transform="translate(-721 -4291)"><g transform="translate(-43 -2)"><rect class="a" width="96" height="96" transform="translate(764 4293)"/><g transform="translate(772 4301)"><path class="b" d="M76.54,20.64h-5a.9.9,0,0,0-.9.9v1.6H56.765a28.223,28.223,0,0,0-3.077-8.2H71.54v-1.8H52.56a28.4,28.4,0,1,0-4.093,36.6L75.9,77.178,77.18,75.9,49.74,48.465A28.375,28.375,0,0,0,56.805,34.94H71.54v-1.8H57.113a28.436,28.436,0,0,0,.33-4.1,28.411,28.411,0,0,0-.315-4.1H70.64v1.6a.9.9,0,0,0,.9.9h5a.9.9,0,0,0,.9-.9v-5A.9.9,0,0,0,76.54,20.64Zm-47.5,35a26.6,26.6,0,1,1,22.94-40H32.44v-4.1a.9.9,0,0,0-.9-.9h-10a.9.9,0,0,0-.9.9v4.1h-6.6v1.8h6.6v4.1a.9.9,0,0,0,.9.9h10a.9.9,0,0,0,.9-.9v-4.1h20.5A26.382,26.382,0,0,1,55.6,28.14H14.04v1.8H55.593a26.382,26.382,0,0,1-2.655,10.7h-13v-4.1a.9.9,0,0,0-.9-.9h-10a.9.9,0,0,0-.9.9v4.1H14.04v1.8h14.1v4.1a.9.9,0,0,0,.9.9h10a.9.9,0,0,0,.9-.9v-4.1H51.98A26.59,26.59,0,0,1,29.04,55.64Zm1.6-43.2v8.2h-8.2v-8.2Zm7.5,25v8.2h-8.2v-8.2Zm37.5-11.8h-3.2v-3.2h3.2l0,3.2Zm-26.6,37.5h-5a.9.9,0,0,0-.9.9v1.6H14.04v1.8h29.1v1.6a.9.9,0,0,0,.9.9h5a.9.9,0,0,0,.9-.9v-5A.9.9,0,0,0,49.04,63.14Zm-.9,5h-3.2v-3.2h3.2l0,3.2Z" transform="translate(0.96 0.96)"/><rect class="c" width="80" height="80"/></g></g></g></svg>