<svg xmlns="http://www.w3.org/2000/svg" width="96" height="96" viewBox="0 0 96 96"><defs><style>.a{fill:#fff;opacity:0;}.b{fill:#0f61fd;}.c{fill:none;}</style></defs><g transform="translate(-176 -3621)"><rect class="a" width="96" height="96" transform="translate(176 3621)"/><g transform="translate(184 3629)"><path class="b" d="M38.307,56.3a6.343,6.343,0,0,1-3.025-.675,5.653,5.653,0,0,1-2.09-1.937,9.047,9.047,0,0,1-1.21-3.105,23.129,23.129,0,0,1,0-8.4,9.065,9.065,0,0,1,1.21-3.123,5.632,5.632,0,0,1,2.09-1.937,7.116,7.116,0,0,1,6.05,0,5.634,5.634,0,0,1,2.09,1.938A8.975,8.975,0,0,1,44.63,42.18a23.129,23.129,0,0,1,0,8.4,9.1,9.1,0,0,1-1.208,3.105,5.612,5.612,0,0,1-2.09,1.937A6.343,6.343,0,0,1,38.307,56.3Zm0-2.007a4.052,4.052,0,0,0,1.98-.455,3.561,3.561,0,0,0,1.335-1.28,6.261,6.261,0,0,0,.757-1.993,12.911,12.911,0,0,0,.248-2.628V44.805a12.776,12.776,0,0,0-.248-2.612,6.226,6.226,0,0,0-.757-2.007,3.561,3.561,0,0,0-1.335-1.28,4.558,4.558,0,0,0-3.96,0A3.573,3.573,0,0,0,35,40.185a6.226,6.226,0,0,0-.757,2.007,12.758,12.758,0,0,0-.248,2.612V47.94a12.753,12.753,0,0,0,.248,2.628A6.2,6.2,0,0,0,35,52.56a3.554,3.554,0,0,0,1.333,1.28A4.024,4.024,0,0,0,38.307,54.3Zm0-6.3a1.821,1.821,0,0,1-1.333-.385,1.29,1.29,0,0,1-.37-.932v-.605a1.3,1.3,0,0,1,.37-.935,1.821,1.821,0,0,1,1.333-.382,1.836,1.836,0,0,1,1.335.382,1.3,1.3,0,0,1,.37.935v.605a1.29,1.29,0,0,1-.37.932A1.832,1.832,0,0,1,38.307,48Zm10.56,7.975v-2.01h5.5V38.482h-.192l-4.842,4.51-1.347-1.455,5.087-4.76h3.6V53.965h5.058v2.01H48.868v0ZM.64,28.5h1.8V1H.64ZM32.44,1h-1.8V13.5h1.8ZM10.64,38.5h1.8V11h-1.8Zm-10,30h1.8v-20H.64Zm0-30h1.8V31H.64Zm10,17.5h1.8V41h-1.8Zm0,20h1.8V63.5h-1.8Zm0-67.5h1.8V1h-1.8Zm11.8,0h-1.8v20h1.8S22.44,8.5,22.44,8.5Zm30-7.5h-1.8V16h1.8l0-15ZM20.64,73.5h1.8v-10h-1.8ZM.64,46h1.8V41H.64ZM22.44,1h-1.8V6h1.8S22.44,1,22.44,1Zm20,0h-1.8V8.5h1.8Zm0,10h-1.8v5h1.8ZM10.64,61h1.8V58.5h-1.8Zm21.8-45h-1.8v2.5h1.8Zm42.3,59.433L65.308,63.81a26.166,26.166,0,1,0-1.293,1.263l9.328,11.5ZM22.44,46a24.1,24.1,0,1,1,24.1,24.1A24.129,24.129,0,0,1,22.44,46Z" transform="translate(0.96 1.5)"/><rect class="c" width="80" height="80"/></g></g></svg>