<svg xmlns="http://www.w3.org/2000/svg" width="96" height="96" viewBox="0 0 96 96"><defs><style>.a{fill:#fff;opacity:0;}.b{fill:#0f61fd;}.c{fill:none;}</style></defs><g transform="translate(-176 -4291)"><rect class="a" width="96" height="96" transform="translate(176 4291)"/><g transform="translate(184 4299)"><path class="b" d="M34.088,73.317l-30-17.5a.9.9,0,0,1-.448-.778v-35h1.8V54.522l29.552,17.24ZM57.04,65.94a.9.9,0,0,1-.842-.585L49.513,47.532l-4.138,10.36a.9.9,0,0,1-.835.567h-7.5v-1.8h6.89l4.775-11.95a1.016,1.016,0,0,1,.845-.568.9.9,0,0,1,.833.585L56.925,62.17l4.25-14.875a.9.9,0,0,1,.865-.655h7.5v1.8H62.718L57.9,65.287a.9.9,0,0,1-.827.653Zm-41.6-28.4h-1.8v-25h1.8Zm50-2.5h-1.8V20.557L34.54,3.582l-9.1,5.29V30.04h-1.8V8.352a.9.9,0,0,1,.447-.778l10-5.812a.9.9,0,0,1,.905,0l30,17.5a.9.9,0,0,1,.448.778Z" transform="translate(5.46 2.46)"/><rect class="c" width="80" height="80"/></g></g></svg>