<svg xmlns="http://www.w3.org/2000/svg" width="96" height="96" viewBox="0 0 96 96"><defs><style>.a{fill:#fff;opacity:0;}.b{fill:#0f61fd;}.c{fill:none;}</style></defs><g transform="translate(-721 -3621)"><rect class="a" width="96" height="96" transform="translate(721 3621)"/><g transform="translate(729 3629)"><g transform="translate(9.1 1.598)"><path class="b" d="M34.54,77.441a30.936,30.936,0,0,1-30.9-30.9v-32.5a.9.9,0,0,1,.9-.9A41.854,41.854,0,0,0,33.905.9a.9.9,0,0,1,1.273,0A41.843,41.843,0,0,0,64.54,13.141a.9.9,0,0,1,.9.9v32.5A30.936,30.936,0,0,1,34.54,77.441ZM5.44,14.931v31.61a29.1,29.1,0,0,0,58.2,0V14.931A43.694,43.694,0,0,1,34.54,2.8,43.694,43.694,0,0,1,5.44,14.931Zm42.5,39.11h-1.8v-3.75a11.384,11.384,0,0,0-8.583-11.048.9.9,0,0,1-.16-1.68,6.706,6.706,0,0,0,3.74-6.023,6.6,6.6,0,1,0-13.2,0,6.71,6.71,0,0,0,3.743,6.023.9.9,0,0,1-.158,1.68,11.388,11.388,0,0,0-8.585,11.048v3.75h-1.8v-3.75a13.1,13.1,0,0,1,8.108-12.165,8.568,8.568,0,0,1-3.105-6.585,8.4,8.4,0,0,1,16.8,0,8.562,8.562,0,0,1-3.107,6.585A13.1,13.1,0,0,1,47.94,50.291Z" transform="translate(-3.64 -0.639)"/></g><rect class="c" width="80" height="80"/></g></g></svg>