<svg xmlns="http://www.w3.org/2000/svg" width="96" height="96" viewBox="0 0 96 96"><defs><style>.a{fill:#fff;opacity:0;}.b{fill:#0f61fd;}.c{fill:none;}</style></defs><g transform="translate(-721 -5100)"><rect class="a" width="96" height="96" transform="translate(721 5100)"/><g transform="translate(729 5108)"><path class="b" d="M76,77.44H1v-1.8H76Zm0-10H38.5v-1.8H76Zm-45-10H1v-1.8H31Zm21.8-7.507a11.017,11.017,0,0,1-7.778-3.183L38.5,40.305,31.988,46.75a11.1,11.1,0,0,1-15.56,0,10.826,10.826,0,0,1,0-15.423,11.105,11.105,0,0,1,15.562,0l6.51,6.445,6.515-6.445a11.1,11.1,0,0,1,15.557,0,10.826,10.826,0,0,1,0,15.423A11.021,11.021,0,0,1,52.8,49.933ZM39.78,39.04l6.5,6.43a9.29,9.29,0,0,0,13.028,0,9.033,9.033,0,0,0,0-12.862,9.29,9.29,0,0,0-13.028,0Zm-15.572-9.1a9.23,9.23,0,0,0-6.515,2.665,9.027,9.027,0,0,0,0,12.862,9.29,9.29,0,0,0,13.028,0h0l6.5-6.43-6.5-6.432A9.235,9.235,0,0,0,24.208,29.943ZM76,22.44H38.5v-1.8H76Zm-37.5-10H1v-1.8H38.5ZM76,2.44H1V.64H76Zm0,9.1a1.25,1.25,0,1,1-1.25-1.25A1.25,1.25,0,0,1,76,11.54Zm-6.25-1.25A1.25,1.25,0,1,0,71,11.54,1.25,1.25,0,0,0,69.75,10.29ZM7.25,47.79A1.25,1.25,0,1,0,8.5,49.04,1.25,1.25,0,0,0,7.25,47.79Zm30,7.5a1.25,1.25,0,1,0,1.25,1.25A1.25,1.25,0,0,0,37.25,55.29Zm-35,10A1.25,1.25,0,1,0,3.5,66.54,1.25,1.25,0,0,0,2.25,65.29Zm72.5-10A1.25,1.25,0,1,0,76,56.54,1.25,1.25,0,0,0,74.75,55.29Zm-72.5-7.5A1.25,1.25,0,1,0,3.5,49.04,1.25,1.25,0,0,0,2.25,47.79Zm0-27.5A1.25,1.25,0,1,0,3.5,21.54,1.25,1.25,0,0,0,2.25,20.29Zm72.5,7.5A1.25,1.25,0,1,0,76,29.04,1.25,1.25,0,0,0,74.75,27.79Z" transform="translate(1.5 0.96)"/><rect class="c" width="80" height="80"/></g></g></svg>