<svg xmlns="http://www.w3.org/2000/svg" width="96" height="96" viewBox="0 0 96 96"><defs><style>.a{fill:#fff;opacity:0;}.b{fill:#0f61fd;}.c{fill:none;}</style></defs><g transform="translate(-176 -5100)"><g transform="translate(0 2786)"><rect class="a" width="96" height="96" transform="translate(176 2314)"/><g transform="translate(184 2322)"><path class="b" d="M77.44,76.54h-1.8c0-16.08-11.943-30.58-28.4-34.48a.9.9,0,0,1-.158-1.7,19.82,19.82,0,1,0-16.085,0,.9.9,0,0,1-.158,1.7c-16.46,3.9-28.4,18.4-28.4,34.48H.64c0-16.15,11.435-30.78,27.505-35.62a21.618,21.618,0,1,1,21.785,0C66,45.76,77.44,60.39,77.44,76.54Zm-38.4-1.6a.9.9,0,0,1-.635-.262l-9.905-9.9A6.815,6.815,0,0,1,33.3,53.14h.01a6.767,6.767,0,0,1,4.815,2l.915.912.912-.912a6.966,6.966,0,0,1,9.63,0,6.811,6.811,0,0,1,0,9.635l-9.9,9.9A.913.913,0,0,1,39.04,74.94Zm-5.728-20h-.007A5.013,5.013,0,0,0,29.772,63.5l9.268,9.27,9.268-9.27a5.008,5.008,0,0,0,0-7.085,5.11,5.11,0,0,0-7.083,0L39.678,57.96a.9.9,0,0,1-1.273,0l-1.548-1.548A4.988,4.988,0,0,0,33.313,54.94Z" transform="translate(0.96 0.96)"/><rect class="c" width="80" height="80"/></g></g></g></svg>