<svg xmlns="http://www.w3.org/2000/svg" width="96" height="96" viewBox="0 0 96 96"><defs><style>.a{fill:#fff;opacity:0;}.b{fill:#0f61fd;}.c{fill:none;}</style></defs><g transform="translate(-1265 -3621)"><rect class="a" width="96" height="96" transform="translate(1265 3621)"/><g transform="translate(1273 3629)"><path class="b" d="M34.628,39.866a.9.9,0,0,1-.687.79,9.064,9.064,0,0,0-7,8.853v9.373h-1.8V49.508a10.852,10.852,0,0,1,6.535-9.99A6.593,6.593,0,0,1,33.06,28.691a4.744,4.744,0,0,0,.278-1.613,4.8,4.8,0,1,0-6.745,4.382.9.9,0,0,1-.157,1.7,9.064,9.064,0,0,0-6.993,8.852v9.37h-1.8V42.014a10.854,10.854,0,0,1,6.53-9.99,6.592,6.592,0,1,1,10.9-3.973,6.851,6.851,0,0,1,1.945,0,6.6,6.6,0,1,1,10.9,3.973,10.854,10.854,0,0,1,6.532,9.99v9.368h-1.8V42.014a9.064,9.064,0,0,0-6.992-8.853.9.9,0,0,1-.158-1.7,4.788,4.788,0,1,0-6.47-2.77,6.589,6.589,0,0,1,1.39,10.83,10.853,10.853,0,0,1,6.53,9.99v9.368h-1.8V49.508a9.062,9.062,0,0,0-6.99-8.853.9.9,0,0,1-.158-1.7,4.8,4.8,0,1,0-3.892,0A.905.905,0,0,1,34.628,39.866ZM4.44,38.874A31.612,31.612,0,0,1,33.753,7.4l-3.347,3.347,1.272,1.273,5.635-5.637L31.675.746,30.4,2.019l3.567,3.57a33.374,33.374,0,0,0-5.637,65.79l.415-1.752A31.471,31.471,0,0,1,4.44,38.874Zm65,.007A33.269,33.269,0,0,0,43.748,6.373l-.415,1.752a31.585,31.585,0,0,1-5,62.237l3.348-3.345L40.4,65.743l-5.635,5.637L40.4,77.019l1.275-1.275L38.11,72.176A33.412,33.412,0,0,0,69.44,38.881Z" transform="translate(3.96 1.119)"/><rect class="c" width="80" height="80"/></g></g></svg>